<?xml version="1.0"?>
<svg xmlns="http://www.w3.org/2000/svg" version="1.2" baseProfile="tiny" width="800" height="1330" viewBox="0 0 800 1330" stroke-linecap="round" stroke-linejoin="round">
<g id="ARG">
<path d="M 313.46 14.06 317.4 14.17 320.68 12.82 324.44 13.68 344.26 13.18 353.9 17.5 357.67 17.5 361.93 21.33 360.86 22.56 361.09 24.92 367.09 31.24 366.29 32.94 366.59 36.65 369.89 39.49 370.73 44.41 371.72 43.76 372.92 40.12 372.83 35.71 373.9 32.15 375.25 29.5 378.79 25.86 384.28 13.5 385.2 13.27 386.11 9.84 431.11 9.91 431.58 12.84 430.82 14.45 431.64 16.22 432.3 16.6 432.67 15.62 437.62 19.29 438.71 21.82 442.15 24.49 453.12 30.29 455.31 38.19 461.62 44.66 463.77 50.59 468.8 53.22 475.77 60.68 480.26 61.93 483.5 66.35 487.48 68.13 488.97 67.56 493.89 71.66 496.4 71.65 499.44 74.19 499.82 77.07 504 82.05 506 81.77 509.8 84.44 519.13 85.65 520.55 87.85 525.14 88.13 529.84 91.39 538.54 91.14 541.34 90.05 564.12 103.02 569.03 108.92 578.26 114.28 584.37 116.17 596.47 122.75 603.34 123.55 609.97 129.45 613.87 126.7 623.6 132.83 628.31 132.87 634.1 140.14 636.3 140.54 636.09 142.53 640.74 147.35 640.34 152.02 638.64 154.13 636.17 153.49 635.83 155.92 633.13 155.83 632.41 156.8 633.73 158.36 630.47 159.86 631.15 162.6 628.76 163.85 629.42 166.22 627.69 166.99 629.05 169.64 622.47 173.54 619.84 174.04 616.83 176.61 618.52 178.85 616.35 180.01 616.89 182.32 614.77 185.28 615.95 187.48 614.27 190.66 615.49 195.05 613.03 195.16 613.05 199.47 611.48 201.34 608.7 201.89 610.17 204 603.54 206.42 603.74 209.22 602.84 211.73 601.15 210.97 600.9 213.54 597.17 214.82 596.87 216.86 599.31 218.6 599 221.27 614.87 219.21 622.76 219.84 630.96 222.57 634.39 222.39 642.56 226.84 649.95 225.85 659.93 228.76 664.61 226.59 667.93 226.08 674.06 229.37 674.77 227.76 678.97 227.2 680.97 228.17 683.59 232.52 686.87 233.62 688.31 233.22 688.84 231.03 691.31 228.8 691.59 225.63 697.14 221.79 700.49 221.47 703.98 223.26 706.86 223.12 709.72 226.61 713.55 227.07 715.57 224.69 719.02 222.77 718.77 220.95 719.62 219.23 718.22 216.33 720.21 215.81 720.9 213.78 724.56 213.4 724.62 211.28 726.01 209.28 732.32 207.07 734.54 208.19 737.05 207.63 737.39 203.98 740.67 201.36 744.31 200.96 745.23 197.07 747.78 195.92 749.83 196.57 750.72 195.6 751.36 194.09 750.61 191.18 754.5 187.48 754.86 184.77 756.77 182.1 755.54 180.16 757.95 178.09 755.81 175.86 757.06 173.01 755.5 169.31 758.43 168.02 757.82 166.24 759.13 162.77 756.38 156.7 759.16 156.08 758.9 153.23 763.13 154.62 765.53 157.66 767.24 153.74 768.58 153.96 769.6 152.51 771.19 151.94 773.13 153.43 774.22 151.62 776.09 151.32 778.29 149.62 777.54 152.21 778.67 154.45 779.45 154.19 779.52 152.59 782.28 152.2 784.8 154.4 787.08 154.44 788.94 157 788.24 158.31 789.74 161.16 788.71 163 789.93 165.39 788.93 166.88 789.2 168.15 793.37 171.28 793.8 174.57 799 179.98 796.78 185.79 794.57 187.02 793.26 198.29 795.72 205.46 793.31 208.51 793.95 209.07 792.25 212.04 790.89 211.23 790.98 213.82 789.49 216.2 788.15 214.66 786.62 216.39 784.47 216.08 779.15 221.4 776.6 221.28 775.68 219.73 774.07 224.55 771.44 227.17 769.18 225.51 769.26 227.73 768.61 227.98 766.14 225.77 763.84 226.55 764.76 228.34 761.76 229.55 759.7 227.61 757.8 231.27 755.65 229.83 755.43 232.29 751.53 232.73 750.42 230.71 748.89 234.2 746.77 234.9 746.62 238.12 745.16 240.26 739.51 240.8 741.52 243.41 738.12 243.38 737.45 245.06 734.97 243.77 732.38 245.95 729.9 246.37 727.4 248.88 727.88 250.58 725.05 253.12 723 252.47 720.66 255.78 718.65 254.13 717.41 256.41 711.93 259.1 716.02 262.54 715.02 266.21 712.89 264.23 707.87 263.7 706.82 265.34 707.34 268.36 702.44 269.56 702.23 273.61 697.28 277.32 695.49 280.01 691.17 281.32 690.49 285.54 686.47 288.33 686.81 290.09 685.92 292.06 679.2 294.06 677.07 297.57 675.9 301.98 674.59 303.6 672.33 304.34 670.3 308.18 664.57 312.78 664.08 314.65 662.15 315.49 658.75 319.17 652.83 320.87 650.22 323.9 649.3 329.12 646.51 330.7 642.8 334.78 638.29 336.22 637.21 336.47 638.73 338.99 637.59 342.57 630 347.34 627.92 349.65 627.5 352.11 630.75 356.98 631.05 363.03 629.66 365.63 626.6 365.54 628.54 370.3 626.51 374.14 626.38 377.47 623.78 381.74 623.56 384.67 620.75 386.14 619.59 387.75 623.78 391.9 622.15 396.75 619.74 401.58 616.05 402.47 614.86 403.76 617.48 409.83 615.77 415.14 619.06 419.9 618.16 422.57 615.76 424.2 615.02 426.96 618.29 443.52 617.68 449.86 616.96 449.86 616.76 451.28 614.35 452.57 612.03 451.66 605.8 452.54 606.49 461.18 602.15 466.96 600.85 477.66 605.01 483.14 604.33 484.57 602.66 484.63 605.38 485.14 605.51 486.23 603.78 487.37 605.78 487.31 608.25 493.23 607.72 496.95 606.22 498.81 604.61 499.72 601.34 499.5 601.09 500.95 604 502.77 603.19 502.65 602.12 506.09 601.04 505.97 604.67 510.68 615.31 518.52 627.71 522.05 642.09 529.64 655.27 541.06 658.16 546.76 648.73 558.89 647.41 562.1 647.94 567.45 652.73 574.98 659.73 580.49 664.47 582.29 672.21 582.25 671.61 580.47 675.32 586.36 676.08 604.72 663.62 619.99 658.5 628.11 645.79 638.53 641.31 646.29 641.99 649.5 640.94 652.79 635.64 656.84 628.77 660.34 611.53 667.39 579.04 676.25 557.94 679.73 551.81 681.67 509.19 687.62 497.52 688.53 488.33 687.8 480.91 688.92 475.28 687.4 471.17 688.02 462.19 686.05 456.67 681.03 447.28 678.37 451.39 680.16 448.58 680.42 447.23 681.88 450.1 683.76 449.57 686.44 451.39 689.53 449.1 692.46 449.54 694.81 453.73 698.36 450.24 698.7 458.35 700.14 462.97 703.7 459.55 703.81 455.75 700.39 450.73 700.24 461.79 706.18 458.88 713.84 458.82 722.17 450.48 722.97 450.12 734.73 449.52 736.07 445.49 738.4 443.78 740.78 447.2 747.02 456.6 752.47 456.54 753.51 454.12 755.65 450.85 763 435.08 769.5 431.81 768.99 429.19 771.06 419.65 774.46 392.17 774.71 379.93 769.48 379.54 767.89 377.92 768.86 375.46 768.68 353.94 761.28 347.81 761.69 347.22 760.81 349.27 759.87 354.04 760.68 351.28 757.51 343.87 757.2 346.87 759.01 342.73 759.01 339.03 761.53 336.52 767.54 336.7 771.56 340.1 784.69 343.45 789.57 342.34 792.98 343.22 798.92 340.16 806.82 342.86 812.01 348.52 815.66 364.73 817.8 361.12 820.6 358.71 824.4 364.49 825.78 371.22 824.44 378.72 825.33 381.76 822.13 380.35 818.57 368.34 817.72 380.64 815.26 386.79 811.85 392.92 810.98 399.26 820.88 400.01 832.37 397.76 836.19 398.07 838.74 395.86 840.05 377.51 842.95 373.26 838.5 374.88 832.94 372.57 833.08 371.07 830.19 360.94 827.83 358.07 828.12 353.1 830.29 349.53 832.96 346.85 832.88 344.16 834.4 342.1 837.77 342.9 839.51 358.02 844.87 366.58 846.39 369.96 845.73 370.97 847.1 370.4 848.15 363.9 851.2 353.66 853.93 345.35 857.68 341.44 861.48 341.25 864.26 330.52 873.82 330.46 881.75 335.15 889.91 334.82 893.5 332.57 893.93 331.28 896.01 335.06 902.62 330.43 906.04 332.4 908.51 328.84 908.59 328.94 911.32 325.37 910.97 325.08 911.86 319.31 913.95 316.36 916.67 314.73 921.93 322.77 925.23 319.91 926.26 320.21 927.97 317.81 929.86 309.8 928.07 308.21 928.18 308.12 929.48 306.28 929.81 295.9 927.33 292.58 930.14 289.59 929.53 283.52 931.66 282.5 933.42 284.92 934.37 280.03 933.55 283.01 936.96 269.9 937.16 265.87 938.6 261.7 941.32 255.53 948.96 250.07 953.06 249.06 959.17 246.18 960.48 240.43 967.44 238.76 972.9 241.55 982.24 246.98 989.96 259.11 995.87 272.26 1008.03 278.29 1009.91 308.73 1011.84 313.8 1015.87 315.06 1021.34 314.1 1028.13 309.98 1037.01 307.92 1038.3 309.52 1042.95 313 1044.3 311.73 1044.97 312.6 1045.7 307.31 1044.96 305.62 1046.11 307.16 1047.93 304.68 1049.58 307.24 1051.98 300.22 1052.12 296.88 1055.29 294.86 1055.82 290.59 1058.59 290.72 1061.83 286.65 1061.49 284.18 1064.24 276.5 1065.53 274.96 1067.29 270.36 1070.14 259.21 1074.27 254.59 1080.38 249.71 1082.03 241.24 1088.86 238.77 1092.11 239.99 1094.09 237.7 1095.77 236.77 1097.66 240.43 1097.94 232.74 1123.37 224.53 1129.48 218.28 1131.78 210.62 1132.48 199.85 1121.94 204.12 1130.7 209.66 1134.03 190.39 1140.71 185.51 1144.4 180.86 1149.93 178.26 1156.96 178.83 1163.39 178.36 1164.12 176.1 1164.96 175.24 1166.3 177.48 1167.05 186.3 1189.28 184.8 1190.71 182.45 1190.02 179.39 1191.66 176.89 1191.42 177.84 1193.84 174.95 1195.11 177.34 1194.93 183.77 1191.79 185.65 1192.77 193.63 1204.51 209.16 1219.62 208.92 1221.17 206.3 1223.23 206.83 1220.63 190.97 1218.37 175.84 1213.32 164.62 1213.14 143.25 1207.19 66.92 1207.07 65.5 1201.56 52.48 1195.25 50.52 1191.2 46.71 1190.06 47.29 1188.74 50.21 1186.73 51.37 1179.48 53.8 1177.49 48.14 1172.08 50.54 1169.13 53.62 1168.99 54.19 1168.36 54.97 1161.57 51.14 1157.15 53.11 1153.56 45.28 1151.48 42.63 1152.39 40.14 1154.42 34.75 1152.03 29.71 1153.62 22.78 1157.92 19.92 1158.54 17.73 1157.72 17.55 1153.25 1.42 1138.61 2.68 1130.53 4.42 1129.31 2.51 1124.41 6.61 1120.96 6.94 1119.86 1 1108.41 4.26 1107.98 3.41 1105.41 6.31 1102.57 4.97 1094.07 8.52 1093.04 15.64 1094.01 20.57 1092.87 21.03 1090.84 27.15 1085.35 34.81 1084.24 42.25 1079.16 40.33 1066.63 44.27 1064.37 48.25 1063.77 49.51 1061.92 52.5 1061.62 50.84 1050.54 43.29 1044.12 51.98 1031.23 52.68 1027.77 50.71 1026.08 51.3 1024.99 53.1 1024.26 58.37 1024.07 63.42 1019.01 63.31 1015.92 69.88 1016.84 70.02 1013.2 65.01 1010.03 65.04 1009.2 67.66 1008.19 66.93 1000.15 71.97 999.07 78.24 995.26 74.42 977.79 68.51 973.67 73.88 972.19 80.22 966.74 78.97 963.3 74.28 961.15 73.25 956.25 75.29 951.08 73.85 950.28 78.29 948.54 84.81 948.11 83.95 943.75 89.78 941.89 92.26 939.54 81.75 927.03 73.97 924.72 69.11 925.48 62.3 923.88 61.41 918.59 62.28 917.79 70.74 919.6 73.35 917.98 78.89 919.24 85.13 917.29 88.92 919.9 93.93 919.29 95.36 917.43 95.74 912.1 98.88 911.06 99.71 908.8 95.16 904.87 75.65 903.23 71.92 904.13 70.69 902.95 70.48 901.93 72.36 900.92 72.56 896.39 70.11 892.51 73.69 891.04 77.96 885.77 74.18 879.89 77.9 876.33 80.3 876.02 80.84 874.36 76.43 873.15 73.17 869.76 69.76 870.04 70.33 867.36 66.86 866.24 68.53 861.09 74.81 860.67 74.58 854.85 65.04 851.42 59.78 844.59 58.86 832.02 59.43 830.52 63.04 827.78 62.2 823.15 59.2 820.33 60.87 817.48 62.39 816.43 63.06 813.73 67.41 815.56 69.42 814.44 73.1 813.99 75.03 812.69 73.87 803.37 68.48 794.01 69.14 792.25 71.42 790.97 69 782.99 70.48 778.4 69.04 775.01 70.46 774.83 71.05 770.6 68.42 767.31 70.07 766.41 66.32 757.78 70.86 753.52 68.87 750.53 70.18 750.62 71.99 744.68 75.39 745.74 78 742.97 76.91 740.23 75.65 739.48 75.11 740.43 74.2 740.51 70.94 737.13 72.16 735.93 71.39 732.4 71.53 731.76 77.31 732.4 76.8 729.28 79.59 726.76 80.56 724.39 76.59 721.91 75.66 717.16 76.92 715.58 75.51 713.46 76.64 711.14 79.93 713.34 84.11 713.28 84.85 710.99 82.83 709.17 85.47 707.64 85.25 704.37 88.69 699.69 87.03 685.53 93.44 682.4 94.48 680.58 96.3 680.88 101.94 677.97 106.2 678.17 108.3 676.01 108.01 674.63 110.82 671.06 103.93 664.6 102.41 653.73 104.21 652.34 100.46 647.12 95.99 635.64 97.04 632.93 98.94 631.7 98.15 629.34 99.47 627.33 95.61 620.37 98.39 616.77 98.43 614.03 100.44 612.61 96.02 607.49 99.24 607.43 99 602.95 97.31 602.09 98.96 600.22 99.64 594.9 101.48 596.33 103.13 595.07 102.08 592.46 102.73 587.14 105.87 587.89 110.01 584.45 116.33 584.83 116.13 578.75 118.86 577.61 121 575.28 120.99 573.76 125.2 575.41 126.66 575.23 127.3 574.38 127.76 571.7 129.19 569.67 127.9 567.07 128.8 565.51 127.16 564.99 131.02 561.02 128 554.53 128.5 549.2 126.29 545.96 127.09 542.37 120.97 538.96 122.14 536.88 127.03 536.47 129.55 534.35 129.27 529.89 130.45 525.98 133.55 520.85 131.46 518.65 134.99 515.81 135.15 513.54 138.66 508.5 143.57 504.78 142.34 500.2 144.99 498.83 147.45 500.59 151.39 497.67 148.9 493.98 150.17 492.15 150.81 488.34 148.42 481.9 148.33 480.77 149.67 479.04 148.62 475.97 149.42 470.67 151 468.17 153.87 466.7 154.12 465.1 148.49 457.69 145.48 461.66 143.04 461.35 140.32 450.5 142.43 449.34 144.13 444.9 138.21 438.1 137.26 433.36 138.86 431.47 138.37 428.22 134.7 426.17 135.08 422.15 131.34 419.56 132.09 414.69 128.63 410.94 132.94 410.65 135.94 407.72 133.32 404.77 126.45 402.85 125.48 396.97 121.94 391.34 123.63 375.51 126.28 372.57 127.94 374.95 129.31 374.35 131.49 371.25 133.26 370.1 132.07 369.23 131.85 364.64 132.98 360.55 135.26 357.55 135.25 353.74 137.75 348.33 140.49 344.49 144.55 345.13 146.63 344.01 151.74 336.52 150.91 334 146.42 332.67 149.21 325.85 149.5 322.64 148.85 316.28 146.4 314.03 146.67 309.72 143.73 303.38 147.87 295.81 152.08 295.4 153.3 294.18 153.89 286.74 156.14 280.38 154.73 278.94 154.88 276.64 158 272.54 158.35 264.36 163.92 262.68 165.66 257.58 168.22 257.98 172 255.66 172.4 251.74 173.75 250.63 174.35 248.64 177.14 248.07 179.47 244.93 180.51 238.45 182 237.21 181.49 235.01 183.75 231.62 184.15 228.48 189.84 221.13 188.87 219.35 189.75 216.59 193.16 213.46 196.54 212.65 199.6 216.1 202.14 216.82 204.68 211.87 210.9 210.99 210.95 208.23 213 206 200.4 189.73 201.09 181.65 208.27 177.01 204.65 158.19 201.21 155.26 202.79 152.69 201.31 152.19 200.52 147.18 201.89 142.2 200.44 137.64 204.76 134.74 207.72 135.06 209.86 133.74 205.25 126.06 201.04 122.86 201.21 119.41 207.78 111.38 207.45 109.82 208.24 108.49 211.22 108.89 212.61 106.3 215.34 104.72 250.3 90.93 252.06 87.55 264.26 49.35 256.69 41.85 258.9 38.11 263.24 35.46 262.94 31.02 264.97 30.92 266.72 29.08 272.44 26.88 274.18 19.17 290.42 14.48 292.09 13.1 292.34 9.31 294.29 3.78 293.9 1.62 294.85 1 300.55 2.97 302.15 4.63 301.97 6.38 306.64 7.02 313.46 14.06 Z M 212.97 1245.76 215.49 1253.18 212.89 1247.65 209.42 1248.1 202.83 1253.06 203.09 1257.53 208.29 1259.51 218.59 1260.17 223.43 1269.68 236 1279.23 234.24 1279.75 236.12 1279.63 236.81 1278.67 241.52 1280.74 241.91 1283.9 250.86 1289.29 270.62 1296.2 282.09 1303.65 303.69 1311.6 316 1313.97 334.45 1312.24 338.27 1312.93 339.22 1313.59 337.37 1313.96 336.3 1314.85 335.83 1317.91 333.67 1318.77 335.1 1319.34 329.88 1324.19 325.18 1322.38 323.89 1324.37 316.46 1325.75 313.64 1322.7 304.84 1322.83 304.52 1325.12 295.35 1326.83 289.51 1326.52 287.01 1329.36 283.25 1329.46 271.19 1324.64 243.62 1321.62 233.99 1322.68 213.32 1319.08 210.53 1319.29 211.77 1321.07 201.59 1321.49 202.66 1322.15 199.49 1322.86 199.72 1233.82 212.97 1245.76 Z M 369.02 1315.18 370.23 1316.94 371.33 1315.75 377.05 1317.21 376.41 1315.72 379.92 1315.73 381 1317.36 382.28 1316.27 388.01 1315.57 388.17 1316.94 390.69 1315.66 388.62 1318.6 384.58 1319.38 384.5 1317.76 374.45 1319.78 373.51 1320.74 373.3 1317.9 371.22 1318.18 369.95 1319.31 364.31 1321.3 363.85 1319.86 362.26 1321.77 357.74 1323.31 356.5 1320.77 353.26 1320.42 356.1 1318.1 363.48 1318.46 360.87 1315.55 369.17 1318.62 369.02 1315.18 Z M 465.46 692.4 467.41 694.45 467.77 692.97 468.88 697.77 461.12 694.78 461.72 693.27 462.11 694.05 462.62 693.12 461.52 693.15 460.36 694.43 459.77 691.34 460.36 691.5 465.46 692.4 Z"/>
<path d="M 313.46 14.06 317.4 14.17 320.68 12.82 324.44 13.68 344.26 13.18 353.9 17.5 357.67 17.5 361.93 21.33 360.86 22.56 361.09 24.92 367.09 31.24 366.29 32.94 366.59 36.65 369.89 39.49 370.73 44.41 371.72 43.76 372.92 40.12 372.83 35.71 373.9 32.15 375.25 29.5 378.79 25.86 384.28 13.5 385.2 13.27 386.11 9.84 431.11 9.91 431.58 12.84 430.82 14.45 431.64 16.22 432.3 16.6 432.67 15.62 437.62 19.29 438.71 21.82 442.15 24.49 453.12 30.29 455.31 38.19 461.62 44.66 463.77 50.59 468.8 53.22 475.77 60.68 480.26 61.93 483.5 66.35 487.48 68.13 488.97 67.56 493.89 71.66 496.4 71.65 499.44 74.19 499.82 77.07 504 82.05 506 81.77 509.8 84.44 519.13 85.65 520.55 87.85 525.14 88.13 529.84 91.39 538.54 91.14 541.34 90.05 564.12 103.02 569.03 108.92 578.26 114.28 584.37 116.17 596.47 122.75 603.34 123.55 609.97 129.45 613.87 126.7 623.6 132.83 628.31 132.87 634.1 140.14 636.3 140.54 636.09 142.53 640.74 147.35 640.34 152.02 638.64 154.13 636.17 153.49 635.83 155.92 633.13 155.83 632.41 156.8 633.73 158.36 630.47 159.86 631.15 162.6 628.76 163.85 629.42 166.22 627.69 166.99 629.05 169.64 622.47 173.54 619.84 174.04 616.83 176.61 618.52 178.85 616.35 180.01 616.89 182.32 614.77 185.28 615.95 187.48 614.27 190.66 615.49 195.05 613.03 195.16 613.05 199.47 611.48 201.34 608.7 201.89 610.17 204 603.54 206.42 603.74 209.22 602.84 211.73 601.15 210.97 600.9 213.54 597.17 214.82 596.87 216.86 599.31 218.6 599 221.27 614.87 219.21 622.76 219.84 630.96 222.57 634.39 222.39 642.56 226.84 649.95 225.85 659.93 228.76 664.61 226.59 667.93 226.08 674.06 229.37 674.77 227.76 678.97 227.2 680.97 228.17 683.59 232.52 686.87 233.62 688.31 233.22 688.84 231.03 691.31 228.8 691.59 225.63 697.14 221.79 700.49 221.47 703.98 223.26 706.86 223.12 709.72 226.61 713.55 227.07 715.57 224.69 719.02 222.77 718.77 220.95 719.62 219.23 718.22 216.33 720.21 215.81 720.9 213.78 724.56 213.4 724.62 211.28 726.01 209.28 732.32 207.07 734.54 208.19 737.05 207.63 737.39 203.98 740.67 201.36 744.31 200.96 745.23 197.07 747.78 195.92 749.83 196.57 750.72 195.6 751.36 194.09 750.61 191.18 754.5 187.48 754.86 184.77 756.77 182.1 755.54 180.16 757.95 178.09 755.81 175.86 757.06 173.01 755.5 169.31 758.43 168.02 757.82 166.24 759.13 162.77 756.38 156.7 759.16 156.08 758.9 153.23 763.13 154.62 765.53 157.66 767.24 153.74 768.58 153.96 769.6 152.51 771.19 151.94 773.13 153.43 774.22 151.62 776.09 151.32 778.29 149.62 777.54 152.21 778.67 154.45 779.45 154.19 779.52 152.59 782.28 152.2 784.8 154.4 787.08 154.44 788.94 157 788.24 158.31 789.74 161.16 788.71 163 789.93 165.39 788.93 166.88 789.2 168.15 793.37 171.28 793.8 174.57 799 179.98 796.78 185.79 794.57 187.02 793.26 198.29 795.72 205.46 793.31 208.51 793.95 209.07 792.25 212.04 790.89 211.23 790.98 213.82 789.49 216.2 788.15 214.66 786.62 216.39 784.47 216.08 779.15 221.4 776.6 221.28 775.68 219.73 774.07 224.55 771.44 227.17 769.18 225.51 769.26 227.73 768.61 227.98 766.14 225.77 763.84 226.55 764.76 228.34 761.76 229.55 759.7 227.61 757.8 231.27 755.65 229.83 755.43 232.29 751.53 232.73 750.42 230.71 748.89 234.2 746.77 234.9 746.62 238.12 745.16 240.26 739.51 240.8 741.52 243.41 738.12 243.38 737.45 245.06 734.97 243.77 732.38 245.95 729.9 246.37 727.4 248.88 727.88 250.58 725.05 253.12 723 252.47 720.66 255.78 718.65 254.13 717.41 256.41 711.93 259.1 716.02 262.54 715.02 266.21 712.89 264.23 707.87 263.7 706.82 265.34 707.34 268.36 702.44 269.56 702.23 273.61 697.28 277.32 695.49 280.01 691.17 281.32 690.49 285.54 686.47 288.33 686.81 290.09 685.92 292.06 679.2 294.06 677.07 297.57 675.9 301.98 674.59 303.6 672.33 304.34 670.3 308.18 664.57 312.78 664.08 314.65 662.15 315.49 658.75 319.17 652.83 320.87 650.22 323.9 649.3 329.12 646.51 330.7 642.8 334.78 638.29 336.22 637.21 336.47 638.73 338.99 637.59 342.57 630 347.34 627.92 349.65 627.5 352.11 630.75 356.98 631.05 363.03 629.66 365.63 626.6 365.54 628.54 370.3 626.51 374.14 626.38 377.47 623.78 381.74 623.56 384.67 620.75 386.14 619.59 387.75 623.78 391.9 622.15 396.75 619.74 401.58 616.05 402.47 614.86 403.76 617.48 409.83 615.77 415.14 619.06 419.9 618.16 422.57 615.76 424.2 615.02 426.96 618.29 443.52 617.68 449.86 616.96 449.86 616.76 451.28 614.35 452.57 612.03 451.66 605.8 452.54 606.49 461.18 602.15 466.96 600.85 477.66 605.01 483.14 604.33 484.57 602.66 484.63 605.38 485.14 605.51 486.23 603.78 487.37 605.78 487.31 608.25 493.23 607.72 496.95 606.22 498.81 604.61 499.72 601.34 499.5 601.09 500.95 604 502.77 603.19 502.65 602.12 506.09 601.04 505.97 604.67 510.68 615.31 518.52 627.71 522.05 642.09 529.64 655.27 541.06 658.16 546.76 648.73 558.89 647.41 562.1 647.94 567.45 652.73 574.98 659.73 580.49 664.47 582.29 672.21 582.25 671.61 580.47 675.32 586.36 676.08 604.72 663.62 619.99 658.5 628.11 645.79 638.53 641.31 646.29 641.99 649.5 640.94 652.79 635.64 656.84 628.77 660.34 611.53 667.39 579.04 676.25 557.94 679.73 551.81 681.67 509.19 687.62 497.52 688.53 488.33 687.8 480.91 688.92 475.28 687.4 471.17 688.02 462.19 686.05 456.67 681.03 447.28 678.37 451.39 680.16 448.58 680.42 447.23 681.88 450.1 683.76 449.57 686.44 451.39 689.53 449.1 692.46 449.54 694.81 453.73 698.36 450.24 698.7 458.35 700.14 462.97 703.7 459.55 703.81 455.75 700.39 450.73 700.24 461.79 706.18 458.88 713.84 458.82 722.17 450.48 722.97 450.12 734.73 449.52 736.07 445.49 738.4 443.78 740.78 447.2 747.02 456.6 752.47 456.54 753.51 454.12 755.65 450.85 763 435.08 769.5 431.81 768.99 429.19 771.06 419.65 774.46 392.17 774.71 379.93 769.48 379.54 767.89 377.92 768.86 375.46 768.68 353.94 761.28 347.81 761.69 347.22 760.81 349.27 759.87 354.04 760.68 351.28 757.51 343.87 757.2 346.87 759.01 342.73 759.01 339.03 761.53 336.52 767.54 336.7 771.56 340.1 784.69 343.45 789.57 342.34 792.98 343.22 798.92 340.16 806.82 342.86 812.01 348.52 815.66 364.73 817.8 361.12 820.6 358.71 824.4 364.49 825.78 371.22 824.44 378.72 825.33 381.76 822.13 380.35 818.57 368.34 817.72 380.64 815.26 386.79 811.85 392.92 810.98 399.26 820.88 400.01 832.37 397.76 836.19 398.07 838.74 395.86 840.05 377.51 842.95 373.26 838.5 374.88 832.94 372.57 833.08 371.07 830.19 360.94 827.83 358.07 828.12 353.1 830.29 349.53 832.96 346.85 832.88 344.16 834.4 342.1 837.77 342.9 839.51 358.02 844.87 366.58 846.39 369.96 845.73 370.97 847.1 370.4 848.15 363.9 851.2 353.66 853.93 345.35 857.68 341.44 861.48 341.25 864.26 330.52 873.82 330.46 881.75 335.15 889.91 334.82 893.5 332.57 893.93 331.28 896.01 335.06 902.62 330.43 906.04 332.4 908.51 328.84 908.59 328.94 911.32 325.37 910.97 325.08 911.86 319.31 913.95 316.36 916.67 314.73 921.93 322.77 925.23 319.91 926.26 320.21 927.97 317.81 929.86 309.8 928.07 308.21 928.18 308.12 929.48 306.28 929.81 295.9 927.33 292.58 930.14 289.59 929.53 283.52 931.66 282.5 933.42 284.92 934.37 280.03 933.55 283.01 936.96 269.9 937.16 265.87 938.6 261.7 941.32 255.53 948.96 250.07 953.06 249.06 959.17 246.18 960.48 240.43 967.44 238.76 972.9 241.55 982.24 246.98 989.96 259.11 995.87 272.26 1008.03 278.29 1009.91 308.73 1011.84 313.8 1015.87 315.06 1021.34 314.1 1028.13 309.98 1037.01 307.92 1038.3 309.52 1042.95 313 1044.3 311.73 1044.97 312.6 1045.7 307.31 1044.96 305.62 1046.11 307.16 1047.93 304.68 1049.58 307.24 1051.98 300.22 1052.12 296.88 1055.29 294.86 1055.82 290.59 1058.59 290.72 1061.83 286.65 1061.49 284.18 1064.24 276.5 1065.53 274.96 1067.29 270.36 1070.14 259.21 1074.27 254.59 1080.38 249.71 1082.03 241.24 1088.86 238.77 1092.11 239.99 1094.09 237.7 1095.77 236.77 1097.66 240.43 1097.94 232.74 1123.37 224.53 1129.48 218.28 1131.78 210.62 1132.48 199.85 1121.94 204.12 1130.7 209.66 1134.03 190.39 1140.71 185.51 1144.4 180.86 1149.93 178.26 1156.96 178.83 1163.39 178.36 1164.12 176.1 1164.96 175.24 1166.3 177.48 1167.05 186.3 1189.28 184.8 1190.71 182.45 1190.02 179.39 1191.66 176.89 1191.42 177.84 1193.84 174.95 1195.11 177.34 1194.93 183.77 1191.79 185.65 1192.77 193.63 1204.51 209.16 1219.62 208.92 1221.17 206.3 1223.23 206.83 1220.63 190.97 1218.37 175.84 1213.32 164.62 1213.14 143.25 1207.19 66.92 1207.07 65.5 1201.56 52.48 1195.25 50.52 1191.2 46.71 1190.06 47.29 1188.74 50.21 1186.73 51.37 1179.48 53.8 1177.49 48.14 1172.08 50.54 1169.13 53.62 1168.99 54.19 1168.36 54.97 1161.57 51.14 1157.15 53.11 1153.56 45.28 1151.48 42.63 1152.39 40.14 1154.42 34.75 1152.03 29.71 1153.62 22.78 1157.92 19.92 1158.54 17.73 1157.72 17.55 1153.25 1.42 1138.61 2.68 1130.53 4.42 1129.31 2.51 1124.41 6.61 1120.96 6.94 1119.86 1 1108.41 4.26 1107.98 3.41 1105.41 6.31 1102.57 4.97 1094.07 8.52 1093.04 15.64 1094.01 20.57 1092.87 21.03 1090.84 27.15 1085.35 34.81 1084.24 42.25 1079.16 40.33 1066.63 44.27 1064.37 48.25 1063.77 49.51 1061.92 52.5 1061.62 50.84 1050.54 43.29 1044.12 51.98 1031.23 52.68 1027.77 50.71 1026.08 51.3 1024.99 53.1 1024.26 58.37 1024.07 63.42 1019.01 63.31 1015.92 69.88 1016.84 70.02 1013.2 65.01 1010.03 65.04 1009.2 67.66 1008.19 66.93 1000.15 71.97 999.07 78.24 995.26 74.42 977.79 68.51 973.67 73.88 972.19 80.22 966.74 78.97 963.3 74.28 961.15 73.25 956.25 75.29 951.08 73.85 950.28 78.29 948.54 84.81 948.11 83.95 943.75 89.78 941.89 92.26 939.54 81.75 927.03 73.97 924.72 69.11 925.48 62.3 923.88 61.41 918.59 62.28 917.79 70.74 919.6 73.35 917.98 78.89 919.24 85.13 917.29 88.92 919.9 93.93 919.29 95.36 917.43 95.74 912.1 98.88 911.06 99.71 908.8 95.16 904.87 75.65 903.23 71.92 904.13 70.69 902.95 70.48 901.93 72.36 900.92 72.56 896.39 70.11 892.51 73.69 891.04 77.96 885.77 74.18 879.89 77.9 876.33 80.3 876.02 80.84 874.36 76.43 873.15 73.17 869.76 69.76 870.04 70.33 867.36 66.86 866.24 68.53 861.09 74.81 860.67 74.58 854.85 65.04 851.42 59.78 844.59 58.86 832.02 59.43 830.52 63.04 827.78 62.2 823.15 59.2 820.33 60.87 817.48 62.39 816.43 63.06 813.73 67.41 815.56 69.42 814.44 73.1 813.99 75.03 812.69 73.87 803.37 68.48 794.01 69.14 792.25 71.42 790.97 69 782.99 70.48 778.4 69.04 775.01 70.46 774.83 71.05 770.6 68.42 767.31 70.07 766.41 66.32 757.78 70.86 753.52 68.87 750.53 70.18 750.62 71.99 744.68 75.39 745.74 78 742.97 76.91 740.23 75.65 739.48 75.11 740.43 74.2 740.51 70.94 737.13 72.16 735.93 71.39 732.4 71.53 731.76 77.31 732.4 76.8 729.28 79.59 726.76 80.56 724.39 76.59 721.91 75.66 717.16 76.92 715.58 75.51 713.46 76.64 711.14 79.93 713.34 84.11 713.28 84.85 710.99 82.83 709.17 85.47 707.64 85.25 704.37 88.69 699.69 87.03 685.53 93.44 682.4 94.48 680.58 96.3 680.88 101.94 677.97 106.2 678.17 108.3 676.01 108.01 674.63 110.82 671.06 103.93 664.6 102.41 653.73 104.21 652.34 100.46 647.12 95.99 635.64 97.04 632.93 98.94 631.7 98.15 629.34 99.47 627.33 95.61 620.37 98.39 616.77 98.43 614.03 100.44 612.61 96.02 607.49 99.24 607.43 99 602.95 97.31 602.09 98.96 600.22 99.64 594.9 101.48 596.33 103.13 595.07 102.08 592.46 102.73 587.14 105.87 587.89 110.01 584.45 116.33 584.83 116.13 578.75 118.86 577.61 121 575.28 120.99 573.76 125.2 575.41 126.66 575.23 127.3 574.38 127.76 571.7 129.19 569.67 127.9 567.07 128.8 565.51 127.16 564.99 131.02 561.02 128 554.53 128.5 549.2 126.29 545.96 127.09 542.37 120.97 538.96 122.14 536.88 127.03 536.47 129.55 534.35 129.27 529.89 130.45 525.98 133.55 520.85 131.46 518.65 134.99 515.81 135.15 513.54 138.66 508.5 143.57 504.78 142.34 500.2 144.99 498.83 147.45 500.59 151.39 497.67 148.9 493.98 150.17 492.15 150.81 488.34 148.42 481.9 148.33 480.77 149.67 479.04 148.62 475.97 149.42 470.67 151 468.17 153.87 466.7 154.12 465.1 148.49 457.69 145.48 461.66 143.04 461.35 140.32 450.5 142.43 449.34 144.13 444.9 138.21 438.1 137.26 433.36 138.86 431.47 138.37 428.22 134.7 426.17 135.08 422.15 131.34 419.56 132.09 414.69 128.63 410.94 132.94 410.65 135.94 407.72 133.32 404.77 126.45 402.85 125.48 396.97 121.94 391.34 123.63 375.51 126.28 372.57 127.94 374.95 129.31 374.35 131.49 371.25 133.26 370.1 132.07 369.23 131.85 364.64 132.98 360.55 135.26 357.55 135.25 353.74 137.75 348.33 140.49 344.49 144.55 345.13 146.63 344.01 151.74 336.52 150.91 334 146.42 332.67 149.21 325.85 149.5 322.64 148.85 316.28 146.4 314.03 146.67 309.72 143.73 303.38 147.87 295.81 152.08 295.4 153.3 294.18 153.89 286.74 156.14 280.38 154.73 278.94 154.88 276.64 158 272.54 158.35 264.36 163.92 262.68 165.66 257.58 168.22 257.98 172 255.66 172.4 251.74 173.75 250.63 174.35 248.64 177.14 248.07 179.47 244.93 180.51 238.45 182 237.21 181.49 235.01 183.75 231.62 184.15 228.48 189.84 221.13 188.87 219.35 189.75 216.59 193.16 213.46 196.54 212.65 199.6 216.1 202.14 216.82 204.68 211.87 210.9 210.99 210.95 208.23 213 206 200.4 189.73 201.09 181.65 208.27 177.01 204.65 158.19 201.21 155.26 202.79 152.69 201.31 152.19 200.52 147.18 201.89 142.2 200.44 137.64 204.76 134.74 207.72 135.06 209.86 133.74 205.25 126.06 201.04 122.86 201.21 119.41 207.78 111.38 207.45 109.82 208.24 108.49 211.22 108.89 212.61 106.3 215.34 104.72 250.3 90.93 252.06 87.55 264.26 49.35 256.69 41.85 258.9 38.11 263.24 35.46 262.94 31.02 264.97 30.92 266.72 29.08 272.44 26.88 274.18 19.17 290.42 14.48 292.09 13.1 292.34 9.31 294.29 3.78 293.9 1.62 294.85 1 300.55 2.97 302.15 4.63 301.97 6.38 306.64 7.02 313.46 14.06 Z M 212.97 1245.76 215.49 1253.18 212.89 1247.65 209.42 1248.1 202.83 1253.06 203.09 1257.53 208.29 1259.51 218.59 1260.17 223.43 1269.68 236 1279.23 234.24 1279.75 236.12 1279.63 236.81 1278.67 241.52 1280.74 241.91 1283.9 250.86 1289.29 270.62 1296.2 282.09 1303.65 303.69 1311.6 316 1313.97 334.45 1312.24 338.27 1312.93 339.22 1313.59 337.37 1313.96 336.3 1314.85 335.83 1317.91 333.67 1318.77 335.1 1319.34 329.88 1324.19 325.18 1322.38 323.89 1324.37 316.46 1325.75 313.64 1322.7 304.84 1322.83 304.52 1325.12 295.35 1326.83 289.51 1326.52 287.01 1329.36 283.25 1329.46 271.19 1324.64 243.62 1321.62 233.99 1322.68 213.32 1319.08 210.53 1319.29 211.77 1321.07 201.59 1321.49 202.66 1322.15 199.49 1322.86 199.72 1233.82 212.97 1245.76 Z M 369.02 1315.18 370.23 1316.94 371.33 1315.75 377.05 1317.21 376.41 1315.72 379.92 1315.73 381 1317.36 382.28 1316.27 388.01 1315.57 388.17 1316.94 390.69 1315.66 388.62 1318.6 384.58 1319.38 384.5 1317.76 374.45 1319.78 373.51 1320.74 373.3 1317.9 371.22 1318.18 369.95 1319.31 364.31 1321.3 363.85 1319.86 362.26 1321.77 357.74 1323.31 356.5 1320.77 353.26 1320.42 356.1 1318.1 363.48 1318.46 360.87 1315.55 369.17 1318.62 369.02 1315.18 Z M 465.46 692.4 467.41 694.45 467.77 692.97 468.88 697.77 461.12 694.78 461.72 693.27 462.11 694.05 462.62 693.12 461.52 693.15 460.36 694.43 459.77 691.34 460.36 691.5 465.46 692.4 Z"/>
<path d="M 313.46 14.06 317.4 14.17 320.68 12.82 324.44 13.68 344.26 13.18 353.9 17.5 357.67 17.5 361.93 21.33 360.86 22.56 361.09 24.92 367.09 31.24 366.29 32.94 366.59 36.65 369.89 39.49 370.73 44.41 371.72 43.76 372.92 40.12 372.83 35.71 373.9 32.15 375.25 29.5 378.79 25.86 384.28 13.5 385.2 13.27 386.11 9.84 431.11 9.91 431.58 12.84 430.82 14.45 431.64 16.22 432.3 16.6 432.67 15.62 437.62 19.29 438.71 21.82 442.15 24.49 453.12 30.29 455.31 38.19 461.62 44.66 463.77 50.59 468.8 53.22 475.77 60.68 480.26 61.93 483.5 66.35 487.48 68.13 488.97 67.56 493.89 71.66 496.4 71.65 499.44 74.19 499.82 77.07 504 82.05 506 81.77 509.8 84.44 519.13 85.65 520.55 87.85 525.14 88.13 529.84 91.39 538.54 91.14 541.34 90.05 564.12 103.02 569.03 108.92 578.26 114.28 584.37 116.17 596.47 122.75 603.34 123.55 609.97 129.45 613.87 126.7 623.6 132.83 628.31 132.87 634.1 140.14 636.3 140.54 636.09 142.53 640.74 147.35 640.34 152.02 638.64 154.13 636.17 153.49 635.83 155.92 633.13 155.83 632.41 156.8 633.73 158.36 630.47 159.86 631.15 162.6 628.76 163.85 629.42 166.22 627.69 166.99 629.05 169.64 622.47 173.54 619.84 174.04 616.83 176.61 618.52 178.85 616.35 180.01 616.89 182.32 614.77 185.28 615.95 187.48 614.27 190.66 615.49 195.05 613.03 195.16 613.05 199.47 611.48 201.34 608.7 201.89 610.17 204 603.54 206.42 603.74 209.22 602.84 211.73 601.15 210.97 600.9 213.54 597.17 214.82 596.87 216.86 599.31 218.6 599 221.27 614.87 219.21 622.76 219.84 630.96 222.57 634.39 222.39 642.56 226.84 649.95 225.85 659.93 228.76 664.61 226.59 667.93 226.08 674.06 229.37 674.77 227.76 678.97 227.2 680.97 228.17 683.59 232.52 686.87 233.62 688.31 233.22 688.84 231.03 691.31 228.8 691.59 225.63 697.14 221.79 700.49 221.47 703.98 223.26 706.86 223.12 709.72 226.61 713.55 227.07 715.57 224.69 719.02 222.77 718.77 220.95 719.62 219.23 718.22 216.33 720.21 215.81 720.9 213.78 724.56 213.4 724.62 211.28 726.01 209.28 732.32 207.07 734.54 208.19 737.05 207.63 737.39 203.98 740.67 201.36 744.31 200.96 745.23 197.07 747.78 195.92 749.83 196.57 750.72 195.6 751.36 194.09 750.61 191.18 754.5 187.48 754.86 184.77 756.77 182.1 755.54 180.16 757.95 178.09 755.81 175.86 757.06 173.01 755.5 169.31 758.43 168.02 757.82 166.24 759.13 162.77 756.38 156.7 759.16 156.08 758.9 153.23 763.13 154.62 765.53 157.66 767.24 153.74 768.58 153.96 769.6 152.51 771.19 151.94 773.13 153.43 774.22 151.62 776.09 151.32 778.29 149.62 777.54 152.21 778.67 154.45 779.45 154.19 779.52 152.59 782.28 152.2 784.8 154.4 787.08 154.44 788.94 157 788.24 158.31 789.74 161.16 788.71 163 789.93 165.39 788.93 166.88 789.2 168.15 793.37 171.28 793.8 174.57 799 179.98 796.78 185.79 794.57 187.02 793.26 198.29 795.72 205.46 793.31 208.51 793.95 209.07 792.25 212.04 790.89 211.23 790.98 213.82 789.49 216.2 788.15 214.66 786.62 216.39 784.47 216.08 779.15 221.4 776.6 221.28 775.68 219.73 774.07 224.55 771.44 227.17 769.18 225.51 769.26 227.73 768.61 227.98 766.14 225.77 763.84 226.55 764.76 228.34 761.76 229.55 759.7 227.61 757.8 231.27 755.65 229.83 755.43 232.29 751.53 232.73 750.42 230.71 748.89 234.2 746.77 234.9 746.62 238.12 745.16 240.26 739.51 240.8 741.52 243.41 738.12 243.38 737.45 245.06 734.97 243.77 732.38 245.95 729.9 246.37 727.4 248.88 727.88 250.58 725.05 253.12 723 252.47 720.66 255.78 718.65 254.13 717.41 256.41 711.93 259.1 716.02 262.54 715.02 266.21 712.89 264.23 707.87 263.7 706.82 265.34 707.34 268.36 702.44 269.56 702.23 273.61 697.28 277.32 695.49 280.01 691.17 281.32 690.49 285.54 686.47 288.33 686.81 290.09 685.92 292.06 679.2 294.06 677.07 297.57 675.9 301.98 674.59 303.6 672.33 304.34 670.3 308.18 664.57 312.78 664.08 314.65 662.15 315.49 658.75 319.17 652.83 320.87 650.22 323.9 649.3 329.12 646.51 330.7 642.8 334.78 638.29 336.22 637.21 336.47 638.73 338.99 637.59 342.57 630 347.34 627.92 349.65 627.5 352.11 630.75 356.98 631.05 363.03 629.66 365.63 626.6 365.54 628.54 370.3 626.51 374.14 626.38 377.47 623.78 381.74 623.56 384.67 620.75 386.14 619.59 387.75 623.78 391.9 622.15 396.75 619.74 401.58 616.05 402.47 614.86 403.76 617.48 409.83 615.77 415.14 619.06 419.9 618.16 422.57 615.76 424.2 615.02 426.96 618.29 443.52 617.68 449.86 616.96 449.86 616.76 451.28 614.35 452.57 612.03 451.66 605.8 452.54 606.49 461.18 602.15 466.96 600.85 477.66 605.01 483.14 604.33 484.57 602.66 484.63 605.38 485.14 605.51 486.23 603.78 487.37 605.78 487.31 608.25 493.23 607.72 496.95 606.22 498.81 604.61 499.72 601.34 499.5 601.09 500.95 604 502.77 603.19 502.65 602.12 506.09 601.04 505.97 604.67 510.68 615.31 518.52 627.71 522.05 642.09 529.64 655.27 541.06 658.16 546.76 648.73 558.89 647.41 562.1 647.94 567.45 652.73 574.98 659.73 580.49 664.47 582.29 672.21 582.25 671.61 580.47 675.32 586.36 676.08 604.72 663.62 619.99 658.5 628.11 645.79 638.53 641.31 646.29 641.99 649.5 640.94 652.79 635.64 656.84 628.77 660.34 611.53 667.39 579.04 676.25 557.94 679.73 551.81 681.67 509.19 687.62 497.52 688.53 488.33 687.8 480.91 688.92 475.28 687.4 471.17 688.02 462.19 686.05 456.67 681.03 447.28 678.37 451.39 680.16 448.58 680.42 447.23 681.88 450.1 683.76 449.57 686.44 451.39 689.53 449.1 692.46 449.54 694.81 453.73 698.36 450.24 698.7 458.35 700.14 462.97 703.7 459.55 703.81 455.75 700.39 450.73 700.24 461.79 706.18 458.88 713.84 458.82 722.17 450.48 722.97 450.12 734.73 449.52 736.07 445.49 738.4 443.78 740.78 447.2 747.02 456.6 752.47 456.54 753.51 454.12 755.65 450.85 763 435.08 769.5 431.81 768.99 429.19 771.06 419.65 774.46 392.17 774.71 379.93 769.48 379.54 767.89 377.92 768.86 375.46 768.68 353.94 761.28 347.81 761.69 347.22 760.81 349.27 759.87 354.04 760.68 351.28 757.51 343.87 757.2 346.87 759.01 342.73 759.01 339.03 761.53 336.52 767.54 336.7 771.56 340.1 784.69 343.45 789.57 342.34 792.98 343.22 798.92 340.16 806.82 342.86 812.01 348.52 815.66 364.73 817.8 361.12 820.6 358.71 824.4 364.49 825.78 371.22 824.44 378.72 825.33 381.76 822.13 380.35 818.57 368.34 817.72 380.64 815.26 386.79 811.85 392.92 810.98 399.26 820.88 400.01 832.37 397.76 836.19 398.07 838.74 395.86 840.05 377.51 842.95 373.26 838.5 374.88 832.94 372.57 833.08 371.07 830.19 360.94 827.83 358.07 828.12 353.1 830.29 349.53 832.96 346.85 832.88 344.16 834.4 342.1 837.77 342.9 839.51 358.02 844.87 366.58 846.39 369.96 845.73 370.97 847.1 370.4 848.15 363.9 851.2 353.66 853.93 345.35 857.68 341.44 861.48 341.25 864.26 330.52 873.82 330.46 881.75 335.15 889.91 334.82 893.5 332.57 893.93 331.28 896.01 335.06 902.62 330.43 906.04 332.4 908.51 328.84 908.59 328.94 911.32 325.37 910.97 325.08 911.86 319.31 913.95 316.36 916.67 314.73 921.93 322.77 925.23 319.91 926.26 320.21 927.97 317.81 929.86 309.8 928.07 308.21 928.18 308.12 929.48 306.28 929.81 295.9 927.33 292.58 930.14 289.59 929.53 283.52 931.66 282.5 933.42 284.92 934.37 280.03 933.55 283.01 936.96 269.9 937.16 265.87 938.6 261.7 941.32 255.53 948.96 250.07 953.06 249.06 959.17 246.18 960.48 240.43 967.44 238.76 972.9 241.55 982.24 246.98 989.96 259.11 995.87 272.26 1008.03 278.29 1009.91 308.73 1011.84 313.8 1015.87 315.06 1021.34 314.1 1028.13 309.98 1037.01 307.92 1038.3 309.52 1042.95 313 1044.3 311.73 1044.97 312.6 1045.7 307.31 1044.96 305.62 1046.11 307.16 1047.93 304.68 1049.58 307.24 1051.98 300.22 1052.12 296.88 1055.29 294.86 1055.82 290.59 1058.59 290.72 1061.83 286.65 1061.49 284.18 1064.24 276.5 1065.53 274.96 1067.29 270.36 1070.14 259.21 1074.27 254.59 1080.38 249.71 1082.03 241.24 1088.86 238.77 1092.11 239.99 1094.09 237.7 1095.77 236.77 1097.66 240.43 1097.94 232.74 1123.37 224.53 1129.48 218.28 1131.78 210.62 1132.48 199.85 1121.94 204.12 1130.7 209.66 1134.03 190.39 1140.71 185.51 1144.4 180.86 1149.93 178.26 1156.96 178.83 1163.39 178.36 1164.12 176.1 1164.96 175.24 1166.3 177.48 1167.05 186.3 1189.28 184.8 1190.71 182.45 1190.02 179.39 1191.66 176.89 1191.42 177.84 1193.84 174.95 1195.11 177.34 1194.93 183.77 1191.79 185.65 1192.77 193.63 1204.51 209.16 1219.62 208.92 1221.17 206.3 1223.23 206.83 1220.63 190.97 1218.37 175.84 1213.32 164.62 1213.14 143.25 1207.19 66.92 1207.07 65.5 1201.56 52.48 1195.25 50.52 1191.2 46.71 1190.06 47.29 1188.74 50.21 1186.73 51.37 1179.48 53.8 1177.49 48.14 1172.08 50.54 1169.13 53.62 1168.99 54.19 1168.36 54.97 1161.57 51.14 1157.15 53.11 1153.56 45.28 1151.48 42.63 1152.39 40.14 1154.42 34.75 1152.03 29.71 1153.62 22.78 1157.92 19.92 1158.54 17.73 1157.72 17.55 1153.25 1.42 1138.61 2.68 1130.53 4.42 1129.31 2.51 1124.41 6.61 1120.96 6.94 1119.86 1 1108.41 4.26 1107.98 3.41 1105.41 6.31 1102.57 4.97 1094.07 8.52 1093.04 15.64 1094.01 20.57 1092.87 21.03 1090.84 27.15 1085.35 34.81 1084.24 42.25 1079.16 40.33 1066.63 44.27 1064.37 48.25 1063.77 49.51 1061.92 52.5 1061.62 50.84 1050.54 43.29 1044.12 51.98 1031.23 52.68 1027.77 50.71 1026.08 51.3 1024.99 53.1 1024.26 58.37 1024.07 63.42 1019.01 63.31 1015.92 69.88 1016.84 70.02 1013.2 65.01 1010.03 65.04 1009.2 67.66 1008.19 66.93 1000.15 71.97 999.07 78.24 995.26 74.42 977.79 68.51 973.67 73.88 972.19 80.22 966.74 78.97 963.3 74.28 961.15 73.25 956.25 75.29 951.08 73.85 950.28 78.29 948.54 84.81 948.11 83.95 943.75 89.78 941.89 92.26 939.54 81.75 927.03 73.97 924.72 69.11 925.48 62.3 923.88 61.41 918.59 62.28 917.79 70.74 919.6 73.35 917.98 78.89 919.24 85.13 917.29 88.92 919.9 93.93 919.29 95.36 917.43 95.74 912.1 98.88 911.06 99.71 908.8 95.16 904.87 75.65 903.23 71.92 904.13 70.69 902.95 70.48 901.93 72.36 900.92 72.56 896.39 70.11 892.51 73.69 891.04 77.96 885.77 74.18 879.89 77.9 876.33 80.3 876.02 80.84 874.36 76.43 873.15 73.17 869.76 69.76 870.04 70.33 867.36 66.86 866.24 68.53 861.09 74.81 860.67 74.58 854.85 65.04 851.42 59.78 844.59 58.86 832.02 59.43 830.52 63.04 827.78 62.2 823.15 59.2 820.33 60.87 817.48 62.39 816.43 63.06 813.73 67.41 815.56 69.42 814.44 73.1 813.99 75.03 812.69 73.87 803.37 68.48 794.01 69.14 792.25 71.42 790.97 69 782.99 70.48 778.4 69.04 775.01 70.46 774.83 71.05 770.6 68.42 767.31 70.07 766.41 66.32 757.78 70.86 753.52 68.87 750.53 70.18 750.62 71.99 744.68 75.39 745.74 78 742.97 76.91 740.23 75.65 739.48 75.11 740.43 74.2 740.51 70.94 737.13 72.16 735.93 71.39 732.4 71.53 731.76 77.31 732.4 76.8 729.28 79.59 726.76 80.56 724.39 76.59 721.91 75.66 717.16 76.92 715.58 75.51 713.46 76.64 711.14 79.93 713.34 84.11 713.28 84.85 710.99 82.83 709.17 85.47 707.64 85.25 704.37 88.69 699.69 87.03 685.53 93.44 682.4 94.48 680.58 96.3 680.88 101.94 677.97 106.2 678.17 108.3 676.01 108.01 674.63 110.82 671.06 103.93 664.6 102.41 653.73 104.21 652.34 100.46 647.12 95.99 635.64 97.04 632.93 98.94 631.7 98.15 629.34 99.47 627.33 95.61 620.37 98.39 616.77 98.43 614.03 100.44 612.61 96.02 607.49 99.24 607.43 99 602.95 97.31 602.09 98.96 600.22 99.64 594.9 101.48 596.33 103.13 595.07 102.08 592.46 102.73 587.14 105.87 587.89 110.01 584.45 116.33 584.83 116.13 578.75 118.86 577.61 121 575.28 120.99 573.76 125.2 575.41 126.66 575.23 127.3 574.38 127.76 571.7 129.19 569.67 127.9 567.07 128.8 565.51 127.16 564.99 131.02 561.02 128 554.53 128.5 549.2 126.29 545.96 127.09 542.37 120.97 538.96 122.14 536.88 127.03 536.47 129.55 534.35 129.27 529.89 130.45 525.98 133.55 520.85 131.46 518.65 134.99 515.81 135.15 513.54 138.66 508.5 143.57 504.78 142.34 500.2 144.99 498.83 147.45 500.59 151.39 497.67 148.9 493.98 150.17 492.15 150.81 488.34 148.42 481.9 148.33 480.77 149.67 479.04 148.62 475.97 149.42 470.67 151 468.17 153.87 466.7 154.12 465.1 148.49 457.69 145.48 461.66 143.04 461.35 140.32 450.5 142.43 449.34 144.13 444.9 138.21 438.1 137.26 433.36 138.86 431.47 138.37 428.22 134.7 426.17 135.08 422.15 131.34 419.56 132.09 414.69 128.63 410.94 132.94 410.65 135.94 407.72 133.32 404.77 126.45 402.85 125.48 396.97 121.94 391.34 123.63 375.51 126.28 372.57 127.94 374.95 129.31 374.35 131.49 371.25 133.26 370.1 132.07 369.23 131.85 364.64 132.98 360.55 135.26 357.55 135.25 353.74 137.75 348.33 140.49 344.49 144.55 345.13 146.63 344.01 151.74 336.52 150.91 334 146.42 332.67 149.21 325.85 149.5 322.64 148.85 316.28 146.4 314.03 146.67 309.72 143.73 303.38 147.87 295.81 152.08 295.4 153.3 294.18 153.89 286.74 156.14 280.38 154.73 278.94 154.88 276.64 158 272.54 158.35 264.36 163.92 262.68 165.66 257.58 168.22 257.98 172 255.66 172.4 251.74 173.75 250.63 174.35 248.64 177.14 248.07 179.47 244.93 180.51 238.45 182 237.21 181.49 235.01 183.75 231.62 184.15 228.48 189.84 221.13 188.87 219.35 189.75 216.59 193.16 213.46 196.54 212.65 199.6 216.1 202.14 216.82 204.68 211.87 210.9 210.99 210.95 208.23 213 206 200.4 189.73 201.09 181.65 208.27 177.01 204.65 158.19 201.21 155.26 202.79 152.69 201.31 152.19 200.52 147.18 201.89 142.2 200.44 137.64 204.76 134.74 207.72 135.06 209.86 133.74 205.25 126.06 201.04 122.86 201.21 119.41 207.78 111.38 207.45 109.82 208.24 108.49 211.22 108.89 212.61 106.3 215.34 104.72 250.3 90.93 252.06 87.55 264.26 49.35 256.69 41.85 258.9 38.11 263.24 35.46 262.94 31.02 264.97 30.92 266.72 29.08 272.44 26.88 274.18 19.17 290.42 14.48 292.09 13.1 292.34 9.31 294.29 3.78 293.9 1.62 294.85 1 300.55 2.97 302.15 4.63 301.97 6.38 306.64 7.02 313.46 14.06 Z M 212.97 1245.76 215.49 1253.18 212.89 1247.65 209.42 1248.1 202.83 1253.06 203.09 1257.53 208.29 1259.51 218.59 1260.17 223.43 1269.68 236 1279.23 234.24 1279.75 236.12 1279.63 236.81 1278.67 241.52 1280.74 241.91 1283.9 250.86 1289.29 270.62 1296.2 282.09 1303.65 303.69 1311.6 316 1313.97 334.45 1312.24 338.27 1312.93 339.22 1313.59 337.37 1313.96 336.3 1314.85 335.83 1317.91 333.67 1318.77 335.1 1319.34 329.88 1324.19 325.18 1322.38 323.89 1324.37 316.46 1325.75 313.64 1322.7 304.84 1322.83 304.52 1325.12 295.35 1326.83 289.51 1326.52 287.01 1329.36 283.25 1329.46 271.19 1324.64 243.62 1321.62 233.99 1322.68 213.32 1319.08 210.53 1319.29 211.77 1321.07 201.59 1321.49 202.66 1322.15 199.49 1322.86 199.72 1233.82 212.97 1245.76 Z M 369.02 1315.18 370.23 1316.94 371.33 1315.75 377.05 1317.21 376.41 1315.72 379.92 1315.73 381 1317.36 382.28 1316.27 388.01 1315.57 388.17 1316.94 390.69 1315.66 388.62 1318.6 384.58 1319.38 384.5 1317.76 374.45 1319.78 373.51 1320.74 373.3 1317.9 371.22 1318.18 369.95 1319.31 364.31 1321.3 363.85 1319.86 362.26 1321.77 357.74 1323.31 356.5 1320.77 353.26 1320.42 356.1 1318.1 363.48 1318.46 360.87 1315.55 369.17 1318.62 369.02 1315.18 Z M 465.46 692.4 467.41 694.45 467.77 692.97 468.88 697.77 461.12 694.78 461.72 693.27 462.11 694.05 462.62 693.12 461.52 693.15 460.36 694.43 459.77 691.34 460.36 691.5 465.46 692.4 Z"/>
<path d="M 313.46 14.06 317.4 14.17 320.68 12.82 324.44 13.68 344.26 13.18 353.9 17.5 357.67 17.5 361.93 21.33 360.86 22.56 361.09 24.92 367.09 31.24 366.29 32.94 366.59 36.65 369.89 39.49 370.73 44.41 371.72 43.76 372.92 40.12 372.83 35.71 373.9 32.15 375.25 29.5 378.79 25.86 384.28 13.5 385.2 13.27 386.11 9.84 431.11 9.91 431.58 12.84 430.82 14.45 431.64 16.22 432.3 16.6 432.67 15.62 437.62 19.29 438.71 21.82 442.15 24.49 453.12 30.29 455.31 38.19 461.62 44.66 463.77 50.59 468.8 53.22 475.77 60.68 480.26 61.93 483.5 66.35 487.48 68.13 488.97 67.56 493.89 71.66 496.4 71.65 499.44 74.19 499.82 77.07 504 82.05 506 81.77 509.8 84.44 519.13 85.65 520.55 87.85 525.14 88.13 529.84 91.39 538.54 91.14 541.34 90.05 564.12 103.02 569.03 108.92 578.26 114.28 584.37 116.17 596.47 122.75 603.34 123.55 609.97 129.45 613.87 126.7 623.6 132.83 628.31 132.87 634.1 140.14 636.3 140.54 636.09 142.53 640.74 147.35 640.34 152.02 638.64 154.13 636.17 153.49 635.83 155.92 633.13 155.83 632.41 156.8 633.73 158.36 630.47 159.86 631.15 162.6 628.76 163.85 629.42 166.22 627.69 166.99 629.05 169.64 622.47 173.54 619.84 174.04 616.83 176.61 618.52 178.85 616.35 180.01 616.89 182.32 614.77 185.28 615.95 187.48 614.27 190.66 615.49 195.05 613.03 195.16 613.05 199.47 611.48 201.34 608.7 201.89 610.17 204 603.54 206.42 603.74 209.22 602.84 211.73 601.15 210.97 600.9 213.54 597.17 214.82 596.87 216.86 599.31 218.6 599 221.27 614.87 219.21 622.76 219.84 630.96 222.57 634.39 222.39 642.56 226.84 649.95 225.85 659.93 228.76 664.61 226.59 667.93 226.08 674.06 229.37 674.77 227.76 678.97 227.2 680.97 228.17 683.59 232.52 686.87 233.62 688.31 233.22 688.84 231.03 691.31 228.8 691.59 225.63 697.14 221.79 700.49 221.47 703.98 223.26 706.86 223.12 709.72 226.61 713.55 227.07 715.57 224.69 719.02 222.77 718.77 220.95 719.62 219.23 718.22 216.33 720.21 215.81 720.9 213.78 724.56 213.4 724.62 211.28 726.01 209.28 732.32 207.07 734.54 208.19 737.05 207.63 737.39 203.98 740.67 201.36 744.31 200.96 745.23 197.07 747.78 195.92 749.83 196.57 750.72 195.6 751.36 194.09 750.61 191.18 754.5 187.48 754.86 184.77 756.77 182.1 755.54 180.16 757.95 178.09 755.81 175.86 757.06 173.01 755.5 169.31 758.43 168.02 757.82 166.24 759.13 162.77 756.38 156.7 759.16 156.08 758.9 153.23 763.13 154.62 765.53 157.66 767.24 153.74 768.58 153.96 769.6 152.51 771.19 151.94 773.13 153.43 774.22 151.62 776.09 151.32 778.29 149.62 777.54 152.21 778.67 154.45 779.45 154.19 779.52 152.59 782.28 152.2 784.8 154.4 787.08 154.44 788.94 157 788.24 158.31 789.74 161.16 788.71 163 789.93 165.39 788.93 166.88 789.2 168.15 793.37 171.28 793.8 174.57 799 179.98 796.78 185.79 794.57 187.02 793.26 198.29 795.72 205.46 793.31 208.51 793.95 209.07 792.25 212.04 790.89 211.23 790.98 213.82 789.49 216.2 788.15 214.66 786.62 216.39 784.47 216.08 779.15 221.4 776.6 221.28 775.68 219.73 774.07 224.55 771.44 227.17 769.18 225.51 769.26 227.73 768.61 227.98 766.14 225.77 763.84 226.55 764.76 228.34 761.76 229.55 759.7 227.61 757.8 231.27 755.65 229.83 755.43 232.29 751.53 232.73 750.42 230.71 748.89 234.2 746.77 234.9 746.62 238.12 745.16 240.26 739.51 240.8 741.52 243.41 738.12 243.38 737.45 245.06 734.97 243.77 732.38 245.95 729.9 246.37 727.4 248.88 727.88 250.58 725.05 253.12 723 252.47 720.66 255.78 718.65 254.13 717.41 256.41 711.93 259.1 716.02 262.54 715.02 266.21 712.89 264.23 707.87 263.7 706.82 265.34 707.34 268.36 702.44 269.56 702.23 273.61 697.28 277.32 695.49 280.01 691.17 281.32 690.49 285.54 686.47 288.33 686.81 290.09 685.92 292.06 679.2 294.06 677.07 297.57 675.9 301.98 674.59 303.6 672.33 304.34 670.3 308.18 664.57 312.78 664.08 314.65 662.15 315.49 658.75 319.17 652.83 320.87 650.22 323.9 649.3 329.12 646.51 330.7 642.8 334.78 638.29 336.22 637.21 336.47 638.73 338.99 637.59 342.57 630 347.34 627.92 349.65 627.5 352.11 630.75 356.98 631.05 363.03 629.66 365.63 626.6 365.54 628.54 370.3 626.51 374.14 626.38 377.47 623.78 381.74 623.56 384.67 620.75 386.14 619.59 387.75 623.78 391.9 622.15 396.75 619.74 401.58 616.05 402.47 614.86 403.76 617.48 409.83 615.77 415.14 619.06 419.9 618.16 422.57 615.76 424.2 615.02 426.96 618.29 443.52 617.68 449.86 616.96 449.86 616.76 451.28 614.35 452.57 612.03 451.66 605.8 452.54 606.49 461.18 602.15 466.96 600.85 477.66 605.01 483.14 604.33 484.57 602.66 484.63 605.38 485.14 605.51 486.23 603.78 487.37 605.78 487.31 608.25 493.23 607.72 496.95 606.22 498.81 604.61 499.72 601.34 499.5 601.09 500.95 604 502.77 603.19 502.65 602.12 506.09 601.04 505.97 604.67 510.68 615.31 518.52 627.71 522.05 642.09 529.64 655.27 541.06 658.16 546.76 648.73 558.89 647.41 562.1 647.94 567.45 652.73 574.98 659.73 580.49 664.47 582.29 672.21 582.25 671.61 580.47 675.32 586.36 676.08 604.72 663.62 619.99 658.5 628.11 645.79 638.53 641.31 646.29 641.99 649.5 640.94 652.79 635.64 656.84 628.77 660.34 611.53 667.39 579.04 676.25 557.94 679.73 551.81 681.67 509.19 687.62 497.52 688.53 488.33 687.8 480.91 688.92 475.28 687.4 471.17 688.02 462.19 686.05 456.67 681.03 447.28 678.37 451.39 680.16 448.58 680.42 447.23 681.88 450.1 683.76 449.57 686.44 451.39 689.53 449.1 692.46 449.54 694.81 453.73 698.36 450.24 698.7 458.35 700.14 462.97 703.7 459.55 703.81 455.75 700.39 450.73 700.24 461.79 706.18 458.88 713.84 458.82 722.17 450.48 722.97 450.12 734.73 449.52 736.07 445.49 738.4 443.78 740.78 447.2 747.02 456.6 752.47 456.54 753.51 454.12 755.65 450.85 763 435.08 769.5 431.81 768.99 429.19 771.06 419.65 774.46 392.17 774.71 379.93 769.48 379.54 767.89 377.92 768.86 375.46 768.68 353.94 761.28 347.81 761.69 347.22 760.81 349.27 759.87 354.04 760.68 351.28 757.51 343.87 757.2 346.87 759.01 342.73 759.01 339.03 761.53 336.52 767.54 336.7 771.56 340.1 784.69 343.45 789.57 342.34 792.98 343.22 798.92 340.16 806.82 342.86 812.01 348.52 815.66 364.73 817.8 361.12 820.6 358.71 824.4 364.49 825.78 371.22 824.44 378.72 825.33 381.76 822.13 380.35 818.57 368.34 817.72 380.64 815.26 386.79 811.85 392.92 810.98 399.26 820.88 400.01 832.37 397.76 836.19 398.07 838.74 395.86 840.05 377.51 842.95 373.26 838.5 374.88 832.94 372.57 833.08 371.07 830.19 360.94 827.83 358.07 828.12 353.1 830.29 349.53 832.96 346.85 832.88 344.16 834.4 342.1 837.77 342.9 839.51 358.02 844.87 366.58 846.39 369.96 845.73 370.97 847.1 370.4 848.15 363.9 851.2 353.66 853.93 345.35 857.68 341.44 861.48 341.25 864.26 330.52 873.82 330.46 881.75 335.15 889.91 334.82 893.5 332.57 893.93 331.28 896.01 335.06 902.62 330.43 906.04 332.4 908.51 328.84 908.59 328.94 911.32 325.37 910.97 325.08 911.86 319.31 913.95 316.36 916.67 314.73 921.93 322.77 925.23 319.91 926.26 320.21 927.97 317.81 929.86 309.8 928.07 308.21 928.18 308.12 929.48 306.28 929.81 295.9 927.33 292.58 930.14 289.59 929.53 283.52 931.66 282.5 933.42 284.92 934.37 280.03 933.55 283.01 936.96 269.9 937.16 265.87 938.6 261.7 941.32 255.53 948.96 250.07 953.06 249.06 959.17 246.18 960.48 240.43 967.44 238.76 972.9 241.55 982.24 246.98 989.96 259.11 995.87 272.26 1008.03 278.29 1009.91 308.73 1011.84 313.8 1015.87 315.06 1021.34 314.1 1028.13 309.98 1037.01 307.92 1038.3 309.52 1042.95 313 1044.3 311.73 1044.97 312.6 1045.7 307.31 1044.96 305.62 1046.11 307.16 1047.93 304.68 1049.58 307.24 1051.98 300.22 1052.12 296.88 1055.29 294.86 1055.82 290.59 1058.59 290.72 1061.83 286.65 1061.49 284.18 1064.24 276.5 1065.53 274.96 1067.29 270.36 1070.14 259.21 1074.27 254.59 1080.38 249.71 1082.03 241.24 1088.86 238.77 1092.11 239.99 1094.09 237.7 1095.77 236.77 1097.66 240.43 1097.94 232.74 1123.37 224.53 1129.48 218.28 1131.78 210.62 1132.48 199.85 1121.94 204.12 1130.7 209.66 1134.03 190.39 1140.71 185.51 1144.4 180.86 1149.93 178.26 1156.96 178.83 1163.39 178.36 1164.12 176.1 1164.96 175.24 1166.3 177.48 1167.05 186.3 1189.28 184.8 1190.71 182.45 1190.02 179.39 1191.66 176.89 1191.42 177.84 1193.84 174.95 1195.11 177.34 1194.93 183.77 1191.79 185.65 1192.77 193.63 1204.51 209.16 1219.62 208.92 1221.17 206.3 1223.23 206.83 1220.63 190.97 1218.37 175.84 1213.32 164.62 1213.14 143.25 1207.19 66.92 1207.07 65.5 1201.56 52.48 1195.25 50.52 1191.2 46.71 1190.06 47.29 1188.74 50.21 1186.73 51.37 1179.48 53.8 1177.49 48.14 1172.08 50.54 1169.13 53.62 1168.99 54.19 1168.36 54.97 1161.57 51.14 1157.15 53.11 1153.56 45.28 1151.48 42.63 1152.39 40.14 1154.42 34.75 1152.03 29.71 1153.62 22.78 1157.92 19.92 1158.54 17.73 1157.72 17.55 1153.25 1.42 1138.61 2.68 1130.53 4.42 1129.31 2.51 1124.41 6.61 1120.96 6.94 1119.86 1 1108.41 4.26 1107.98 3.41 1105.41 6.31 1102.57 4.97 1094.07 8.52 1093.04 15.64 1094.01 20.57 1092.87 21.03 1090.84 27.15 1085.35 34.81 1084.24 42.25 1079.16 40.33 1066.63 44.27 1064.37 48.25 1063.77 49.51 1061.92 52.5 1061.62 50.84 1050.54 43.29 1044.12 51.98 1031.23 52.68 1027.77 50.71 1026.08 51.3 1024.99 53.1 1024.26 58.37 1024.07 63.42 1019.01 63.31 1015.92 69.88 1016.84 70.02 1013.2 65.01 1010.03 65.04 1009.2 67.66 1008.19 66.93 1000.15 71.97 999.07 78.24 995.26 74.42 977.79 68.51 973.67 73.88 972.19 80.22 966.74 78.97 963.3 74.28 961.15 73.25 956.25 75.29 951.08 73.85 950.28 78.29 948.54 84.81 948.11 83.95 943.75 89.78 941.89 92.26 939.54 81.75 927.03 73.97 924.72 69.11 925.48 62.3 923.88 61.41 918.59 62.28 917.79 70.74 919.6 73.35 917.98 78.89 919.24 85.13 917.29 88.92 919.9 93.93 919.29 95.36 917.43 95.74 912.1 98.88 911.06 99.71 908.8 95.16 904.87 75.65 903.23 71.92 904.13 70.69 902.95 70.48 901.93 72.36 900.92 72.56 896.39 70.11 892.51 73.69 891.04 77.96 885.77 74.18 879.89 77.9 876.33 80.3 876.02 80.84 874.36 76.43 873.15 73.17 869.76 69.76 870.04 70.33 867.36 66.86 866.24 68.53 861.09 74.81 860.67 74.58 854.85 65.04 851.42 59.78 844.59 58.86 832.02 59.43 830.52 63.04 827.78 62.2 823.15 59.2 820.33 60.87 817.48 62.39 816.43 63.06 813.73 67.41 815.56 69.42 814.44 73.1 813.99 75.03 812.69 73.87 803.37 68.48 794.01 69.14 792.25 71.42 790.97 69 782.99 70.48 778.4 69.04 775.01 70.46 774.83 71.05 770.6 68.42 767.31 70.07 766.41 66.32 757.78 70.86 753.52 68.87 750.53 70.18 750.62 71.99 744.68 75.39 745.74 78 742.97 76.91 740.23 75.65 739.48 75.11 740.43 74.2 740.51 70.94 737.13 72.16 735.93 71.39 732.4 71.53 731.76 77.31 732.4 76.8 729.28 79.59 726.76 80.56 724.39 76.59 721.91 75.66 717.16 76.92 715.58 75.51 713.46 76.64 711.14 79.93 713.34 84.11 713.28 84.85 710.99 82.83 709.17 85.47 707.64 85.25 704.37 88.69 699.69 87.03 685.53 93.44 682.4 94.48 680.58 96.3 680.88 101.94 677.97 106.2 678.17 108.3 676.01 108.01 674.63 110.82 671.06 103.93 664.6 102.41 653.73 104.21 652.34 100.46 647.12 95.99 635.64 97.04 632.93 98.94 631.7 98.15 629.34 99.47 627.33 95.61 620.37 98.39 616.77 98.43 614.03 100.44 612.61 96.02 607.49 99.24 607.43 99 602.95 97.31 602.09 98.96 600.22 99.64 594.9 101.48 596.33 103.13 595.07 102.08 592.46 102.73 587.14 105.87 587.89 110.01 584.45 116.33 584.83 116.13 578.75 118.86 577.61 121 575.28 120.99 573.76 125.2 575.41 126.66 575.23 127.3 574.38 127.76 571.7 129.19 569.67 127.9 567.07 128.8 565.51 127.16 564.99 131.02 561.02 128 554.53 128.5 549.2 126.29 545.96 127.09 542.37 120.97 538.96 122.14 536.88 127.03 536.47 129.55 534.35 129.27 529.89 130.45 525.98 133.55 520.85 131.46 518.65 134.99 515.81 135.15 513.54 138.66 508.5 143.57 504.78 142.34 500.2 144.99 498.83 147.45 500.59 151.39 497.67 148.9 493.98 150.17 492.15 150.81 488.34 148.42 481.9 148.33 480.77 149.67 479.04 148.62 475.97 149.42 470.67 151 468.17 153.87 466.7 154.12 465.1 148.49 457.69 145.48 461.66 143.04 461.35 140.32 450.5 142.43 449.34 144.13 444.9 138.21 438.1 137.26 433.36 138.86 431.47 138.37 428.22 134.7 426.17 135.08 422.15 131.34 419.56 132.09 414.69 128.63 410.94 132.94 410.65 135.94 407.72 133.32 404.77 126.45 402.85 125.48 396.97 121.94 391.34 123.63 375.51 126.28 372.57 127.94 374.95 129.31 374.35 131.49 371.25 133.26 370.1 132.07 369.23 131.85 364.64 132.98 360.55 135.26 357.55 135.25 353.74 137.75 348.33 140.49 344.49 144.55 345.13 146.63 344.01 151.74 336.52 150.91 334 146.42 332.67 149.21 325.85 149.5 322.64 148.85 316.28 146.4 314.03 146.67 309.72 143.73 303.38 147.87 295.81 152.08 295.4 153.3 294.18 153.89 286.74 156.14 280.38 154.73 278.94 154.88 276.64 158 272.54 158.35 264.36 163.92 262.68 165.66 257.58 168.22 257.98 172 255.66 172.4 251.74 173.75 250.63 174.35 248.64 177.14 248.07 179.47 244.93 180.51 238.45 182 237.21 181.49 235.01 183.75 231.62 184.15 228.48 189.84 221.13 188.87 219.35 189.75 216.59 193.16 213.46 196.54 212.65 199.6 216.1 202.14 216.82 204.68 211.87 210.9 210.99 210.95 208.23 213 206 200.4 189.73 201.09 181.65 208.27 177.01 204.65 158.19 201.21 155.26 202.79 152.69 201.31 152.19 200.52 147.18 201.89 142.2 200.44 137.64 204.76 134.74 207.72 135.06 209.86 133.74 205.25 126.06 201.04 122.86 201.21 119.41 207.78 111.38 207.45 109.82 208.24 108.49 211.22 108.89 212.61 106.3 215.34 104.72 250.3 90.93 252.06 87.55 264.26 49.35 256.69 41.85 258.9 38.11 263.24 35.46 262.94 31.02 264.97 30.92 266.72 29.08 272.44 26.88 274.18 19.17 290.42 14.48 292.09 13.1 292.34 9.31 294.29 3.78 293.9 1.62 294.85 1 300.55 2.97 302.15 4.63 301.97 6.38 306.64 7.02 313.46 14.06 Z M 212.97 1245.76 215.49 1253.18 212.89 1247.65 209.42 1248.1 202.83 1253.06 203.09 1257.53 208.29 1259.51 218.59 1260.17 223.43 1269.68 236 1279.23 234.24 1279.75 236.12 1279.63 236.81 1278.67 241.52 1280.74 241.91 1283.9 250.86 1289.29 270.62 1296.2 282.09 1303.65 303.69 1311.6 316 1313.97 334.45 1312.24 338.27 1312.93 339.22 1313.59 337.37 1313.96 336.3 1314.85 335.83 1317.91 333.67 1318.77 335.1 1319.34 329.88 1324.19 325.18 1322.38 323.89 1324.37 316.46 1325.75 313.64 1322.7 304.84 1322.83 304.52 1325.12 295.35 1326.83 289.51 1326.52 287.01 1329.36 283.25 1329.46 271.19 1324.64 243.62 1321.62 233.99 1322.68 213.32 1319.08 210.53 1319.29 211.77 1321.07 201.59 1321.49 202.66 1322.15 199.49 1322.86 199.72 1233.82 212.97 1245.76 Z M 369.02 1315.18 370.23 1316.94 371.33 1315.75 377.05 1317.21 376.41 1315.72 379.92 1315.73 381 1317.36 382.28 1316.27 388.01 1315.57 388.17 1316.94 390.69 1315.66 388.62 1318.6 384.58 1319.38 384.5 1317.76 374.45 1319.78 373.51 1320.74 373.3 1317.9 371.22 1318.18 369.95 1319.31 364.31 1321.3 363.85 1319.86 362.26 1321.77 357.74 1323.31 356.5 1320.77 353.26 1320.42 356.1 1318.1 363.48 1318.46 360.87 1315.55 369.17 1318.62 369.02 1315.18 Z M 465.46 692.4 467.41 694.45 467.77 692.97 468.88 697.77 461.12 694.78 461.72 693.27 462.11 694.05 462.62 693.12 461.52 693.15 460.36 694.43 459.77 691.34 460.36 691.5 465.46 692.4 Z"/>
<path d="M 313.46 14.06 317.4 14.17 320.68 12.82 324.44 13.68 344.26 13.18 353.9 17.5 357.67 17.5 361.93 21.33 360.86 22.56 361.09 24.92 367.09 31.24 366.29 32.94 366.59 36.65 369.89 39.49 370.73 44.41 371.72 43.76 372.92 40.12 372.83 35.71 373.9 32.15 375.25 29.5 378.79 25.86 384.28 13.5 385.2 13.27 386.11 9.84 431.11 9.91 431.58 12.84 430.82 14.45 431.64 16.22 432.3 16.6 432.67 15.62 437.62 19.29 438.71 21.82 442.15 24.49 453.12 30.29 455.31 38.19 461.62 44.66 463.77 50.59 468.8 53.22 475.77 60.68 480.26 61.93 483.5 66.35 487.48 68.13 488.97 67.56 493.89 71.66 496.4 71.65 499.44 74.19 499.82 77.07 504 82.05 506 81.77 509.8 84.44 519.13 85.65 520.55 87.85 525.14 88.13 529.84 91.39 538.54 91.14 541.34 90.05 564.12 103.02 569.03 108.92 578.26 114.28 584.37 116.17 596.47 122.75 603.34 123.55 609.97 129.45 613.87 126.7 623.6 132.83 628.31 132.87 634.1 140.14 636.3 140.54 636.09 142.53 640.74 147.35 640.34 152.02 638.64 154.13 636.17 153.49 635.83 155.92 633.13 155.83 632.41 156.8 633.73 158.36 630.47 159.86 631.15 162.6 628.76 163.85 629.42 166.22 627.69 166.99 629.05 169.64 622.47 173.54 619.84 174.04 616.83 176.61 618.52 178.85 616.35 180.01 616.89 182.32 614.77 185.28 615.95 187.48 614.27 190.66 615.49 195.05 613.03 195.16 613.05 199.47 611.48 201.34 608.7 201.89 610.17 204 603.54 206.42 603.74 209.22 602.84 211.73 601.15 210.97 600.9 213.54 597.17 214.82 596.87 216.86 599.31 218.6 599 221.27 614.87 219.21 622.76 219.84 630.96 222.57 634.39 222.39 642.56 226.84 649.95 225.85 659.93 228.76 664.61 226.59 667.93 226.08 674.06 229.37 674.77 227.76 678.97 227.2 680.97 228.17 683.59 232.52 686.87 233.62 688.31 233.22 688.84 231.03 691.31 228.8 691.59 225.63 697.14 221.79 700.49 221.47 703.98 223.26 706.86 223.12 709.72 226.61 713.55 227.07 715.57 224.69 719.02 222.77 718.77 220.95 719.62 219.23 718.22 216.33 720.21 215.81 720.9 213.78 724.56 213.4 724.62 211.28 726.01 209.28 732.32 207.07 734.54 208.19 737.05 207.63 737.39 203.98 740.67 201.36 744.31 200.96 745.23 197.07 747.78 195.92 749.83 196.57 750.72 195.6 751.36 194.09 750.61 191.18 754.5 187.48 754.86 184.77 756.77 182.1 755.54 180.16 757.95 178.09 755.81 175.86 757.06 173.01 755.5 169.31 758.43 168.02 757.82 166.24 759.13 162.77 756.38 156.7 759.16 156.08 758.9 153.23 763.13 154.62 765.53 157.66 767.24 153.74 768.58 153.96 769.6 152.51 771.19 151.94 773.13 153.43 774.22 151.62 776.09 151.32 778.29 149.62 777.54 152.21 778.67 154.45 779.45 154.19 779.52 152.59 782.28 152.2 784.8 154.4 787.08 154.44 788.94 157 788.24 158.31 789.74 161.16 788.71 163 789.93 165.39 788.93 166.88 789.2 168.15 793.37 171.28 793.8 174.57 799 179.98 796.78 185.79 794.57 187.02 793.26 198.29 795.72 205.46 793.31 208.51 793.95 209.07 792.25 212.04 790.89 211.23 790.98 213.82 789.49 216.2 788.15 214.66 786.62 216.39 784.47 216.08 779.15 221.4 776.6 221.28 775.68 219.73 774.07 224.55 771.44 227.17 769.18 225.51 769.26 227.73 768.61 227.98 766.14 225.77 763.84 226.55 764.76 228.34 761.76 229.55 759.7 227.61 757.8 231.27 755.65 229.83 755.43 232.29 751.53 232.73 750.42 230.71 748.89 234.2 746.77 234.9 746.62 238.12 745.16 240.26 739.51 240.8 741.52 243.41 738.12 243.38 737.45 245.06 734.97 243.77 732.38 245.95 729.9 246.37 727.4 248.88 727.88 250.58 725.05 253.12 723 252.47 720.66 255.78 718.65 254.13 717.41 256.41 711.93 259.1 716.02 262.54 715.02 266.21 712.89 264.23 707.87 263.7 706.82 265.34 707.34 268.36 702.44 269.56 702.23 273.61 697.28 277.32 695.49 280.01 691.17 281.32 690.49 285.54 686.47 288.33 686.81 290.09 685.92 292.06 679.2 294.06 677.07 297.57 675.9 301.98 674.59 303.6 672.33 304.34 670.3 308.18 664.57 312.78 664.08 314.65 662.15 315.49 658.75 319.17 652.83 320.87 650.22 323.9 649.3 329.12 646.51 330.7 642.8 334.78 638.29 336.22 637.21 336.47 638.73 338.99 637.59 342.57 630 347.34 627.92 349.65 627.5 352.11 630.75 356.98 631.05 363.03 629.66 365.63 626.6 365.54 628.54 370.3 626.51 374.14 626.38 377.47 623.78 381.74 623.56 384.67 620.75 386.14 619.59 387.75 623.78 391.9 622.15 396.75 619.74 401.58 616.05 402.47 614.86 403.76 617.48 409.83 615.77 415.14 619.06 419.9 618.16 422.57 615.76 424.2 615.02 426.96 618.29 443.52 617.68 449.86 616.96 449.86 616.76 451.28 614.35 452.57 612.03 451.66 605.8 452.54 606.49 461.18 602.15 466.96 600.85 477.66 605.01 483.14 604.33 484.57 602.66 484.63 605.38 485.14 605.51 486.23 603.78 487.37 605.78 487.31 608.25 493.23 607.72 496.95 606.22 498.81 604.61 499.72 601.34 499.5 601.09 500.95 604 502.77 603.19 502.65 602.12 506.09 601.04 505.97 604.67 510.68 615.31 518.52 627.71 522.05 642.09 529.64 655.27 541.06 658.16 546.76 648.73 558.89 647.41 562.1 647.94 567.45 652.73 574.98 659.73 580.49 664.47 582.29 672.21 582.25 671.61 580.47 675.32 586.36 676.08 604.72 663.62 619.99 658.5 628.11 645.79 638.53 641.31 646.29 641.99 649.5 640.94 652.79 635.64 656.84 628.77 660.34 611.53 667.39 579.04 676.25 557.94 679.73 551.81 681.67 509.19 687.62 497.52 688.53 488.33 687.8 480.91 688.92 475.28 687.4 471.17 688.02 462.19 686.05 456.67 681.03 447.28 678.37 451.39 680.16 448.58 680.42 447.23 681.88 450.1 683.76 449.57 686.44 451.39 689.53 449.1 692.46 449.54 694.81 453.73 698.36 450.24 698.7 458.35 700.14 462.97 703.7 459.55 703.81 455.75 700.39 450.73 700.24 461.79 706.18 458.88 713.84 458.82 722.17 450.48 722.97 450.12 734.73 449.52 736.07 445.49 738.4 443.78 740.78 447.2 747.02 456.6 752.47 456.54 753.51 454.12 755.65 450.85 763 435.08 769.5 431.81 768.99 429.19 771.06 419.65 774.46 392.17 774.71 379.93 769.48 379.54 767.89 377.92 768.86 375.46 768.68 353.94 761.28 347.81 761.69 347.22 760.81 349.27 759.87 354.04 760.68 351.28 757.51 343.87 757.2 346.87 759.01 342.73 759.01 339.03 761.53 336.52 767.54 336.7 771.56 340.1 784.69 343.45 789.57 342.34 792.98 343.22 798.92 340.16 806.82 342.86 812.01 348.52 815.66 364.73 817.8 361.12 820.6 358.71 824.4 364.49 825.78 371.22 824.44 378.72 825.33 381.76 822.13 380.35 818.57 368.34 817.72 380.64 815.26 386.79 811.85 392.92 810.98 399.26 820.88 400.01 832.37 397.76 836.19 398.07 838.74 395.86 840.05 377.51 842.95 373.26 838.5 374.88 832.94 372.57 833.08 371.07 830.19 360.94 827.83 358.07 828.12 353.1 830.29 349.53 832.96 346.85 832.88 344.16 834.4 342.1 837.77 342.9 839.51 358.02 844.87 366.58 846.39 369.96 845.73 370.97 847.1 370.4 848.15 363.9 851.2 353.66 853.93 345.35 857.68 341.44 861.48 341.25 864.26 330.52 873.82 330.46 881.75 335.15 889.91 334.82 893.5 332.57 893.93 331.28 896.01 335.06 902.62 330.43 906.04 332.4 908.51 328.84 908.59 328.94 911.32 325.37 910.97 325.08 911.86 319.31 913.95 316.36 916.67 314.73 921.93 322.77 925.23 319.91 926.26 320.21 927.97 317.81 929.86 309.8 928.07 308.21 928.18 308.12 929.48 306.28 929.81 295.9 927.33 292.58 930.14 289.59 929.53 283.52 931.66 282.5 933.42 284.92 934.37 280.03 933.55 283.01 936.96 269.9 937.16 265.87 938.6 261.7 941.32 255.53 948.96 250.07 953.06 249.06 959.17 246.18 960.48 240.43 967.44 238.76 972.9 241.55 982.24 246.98 989.96 259.11 995.87 272.26 1008.03 278.29 1009.91 308.73 1011.84 313.8 1015.87 315.06 1021.34 314.1 1028.13 309.98 1037.01 307.92 1038.3 309.52 1042.95 313 1044.3 311.73 1044.97 312.6 1045.7 307.31 1044.96 305.62 1046.11 307.16 1047.93 304.68 1049.58 307.24 1051.98 300.22 1052.12 296.88 1055.29 294.86 1055.82 290.59 1058.59 290.72 1061.83 286.65 1061.49 284.18 1064.24 276.5 1065.53 274.96 1067.29 270.36 1070.14 259.21 1074.27 254.59 1080.38 249.71 1082.03 241.24 1088.86 238.77 1092.11 239.99 1094.09 237.7 1095.77 236.77 1097.66 240.43 1097.94 232.74 1123.37 224.53 1129.48 218.28 1131.78 210.62 1132.48 199.85 1121.94 204.12 1130.7 209.66 1134.03 190.39 1140.71 185.51 1144.4 180.86 1149.93 178.26 1156.96 178.83 1163.39 178.36 1164.12 176.1 1164.96 175.24 1166.3 177.48 1167.05 186.3 1189.28 184.8 1190.71 182.45 1190.02 179.39 1191.66 176.89 1191.42 177.84 1193.84 174.95 1195.11 177.34 1194.93 183.77 1191.79 185.65 1192.77 193.63 1204.51 209.16 1219.62 208.92 1221.17 206.3 1223.23 206.83 1220.63 190.97 1218.37 175.84 1213.32 164.62 1213.14 143.25 1207.19 66.92 1207.07 65.5 1201.56 52.48 1195.25 50.52 1191.2 46.71 1190.06 47.29 1188.74 50.21 1186.73 51.37 1179.48 53.8 1177.49 48.14 1172.08 50.54 1169.13 53.62 1168.99 54.19 1168.36 54.97 1161.57 51.14 1157.15 53.11 1153.56 45.28 1151.48 42.63 1152.39 40.14 1154.42 34.75 1152.03 29.71 1153.62 22.78 1157.92 19.92 1158.54 17.73 1157.72 17.55 1153.25 1.42 1138.61 2.68 1130.53 4.42 1129.31 2.51 1124.41 6.61 1120.96 6.94 1119.86 1 1108.41 4.26 1107.98 3.41 1105.41 6.31 1102.57 4.97 1094.07 8.52 1093.04 15.64 1094.01 20.57 1092.87 21.03 1090.84 27.15 1085.35 34.81 1084.24 42.25 1079.16 40.33 1066.63 44.27 1064.37 48.25 1063.77 49.51 1061.92 52.5 1061.62 50.84 1050.54 43.29 1044.12 51.98 1031.23 52.68 1027.77 50.71 1026.08 51.3 1024.99 53.1 1024.26 58.37 1024.07 63.42 1019.01 63.31 1015.92 69.88 1016.84 70.02 1013.2 65.01 1010.03 65.04 1009.2 67.66 1008.19 66.93 1000.15 71.97 999.07 78.24 995.26 74.42 977.79 68.51 973.67 73.88 972.19 80.22 966.74 78.97 963.3 74.28 961.15 73.25 956.25 75.29 951.08 73.85 950.28 78.29 948.54 84.81 948.11 83.95 943.75 89.78 941.89 92.26 939.54 81.75 927.03 73.97 924.72 69.11 925.48 62.3 923.88 61.41 918.59 62.28 917.79 70.74 919.6 73.35 917.98 78.89 919.24 85.13 917.29 88.92 919.9 93.93 919.29 95.36 917.43 95.74 912.1 98.88 911.06 99.71 908.8 95.16 904.87 75.65 903.23 71.92 904.13 70.69 902.95 70.48 901.93 72.36 900.92 72.56 896.39 70.11 892.51 73.69 891.04 77.96 885.77 74.18 879.89 77.9 876.33 80.3 876.02 80.84 874.36 76.43 873.15 73.17 869.76 69.76 870.04 70.33 867.36 66.86 866.24 68.53 861.09 74.81 860.67 74.58 854.85 65.04 851.42 59.78 844.59 58.86 832.02 59.43 830.52 63.04 827.78 62.2 823.15 59.2 820.33 60.87 817.48 62.39 816.43 63.06 813.73 67.41 815.56 69.42 814.44 73.1 813.99 75.03 812.69 73.87 803.37 68.48 794.01 69.14 792.25 71.42 790.97 69 782.99 70.48 778.4 69.04 775.01 70.46 774.83 71.05 770.6 68.42 767.31 70.07 766.41 66.32 757.78 70.86 753.52 68.87 750.53 70.18 750.62 71.99 744.68 75.39 745.74 78 742.97 76.91 740.23 75.65 739.48 75.11 740.43 74.2 740.51 70.94 737.13 72.16 735.93 71.39 732.4 71.53 731.76 77.31 732.4 76.8 729.28 79.59 726.76 80.56 724.39 76.59 721.91 75.66 717.16 76.92 715.58 75.51 713.46 76.64 711.14 79.93 713.34 84.11 713.28 84.85 710.99 82.83 709.17 85.47 707.64 85.25 704.37 88.69 699.69 87.03 685.53 93.44 682.4 94.48 680.58 96.3 680.88 101.94 677.97 106.2 678.17 108.3 676.01 108.01 674.63 110.82 671.06 103.93 664.6 102.41 653.73 104.21 652.34 100.46 647.12 95.99 635.64 97.04 632.93 98.94 631.7 98.15 629.34 99.47 627.33 95.61 620.37 98.39 616.77 98.43 614.03 100.44 612.61 96.02 607.49 99.24 607.43 99 602.95 97.31 602.09 98.96 600.22 99.64 594.9 101.48 596.33 103.13 595.07 102.08 592.46 102.73 587.14 105.87 587.89 110.01 584.45 116.33 584.83 116.13 578.75 118.86 577.61 121 575.28 120.99 573.76 125.2 575.41 126.66 575.23 127.3 574.38 127.76 571.7 129.19 569.67 127.9 567.07 128.8 565.51 127.16 564.99 131.02 561.02 128 554.53 128.5 549.2 126.29 545.96 127.09 542.37 120.97 538.96 122.14 536.88 127.03 536.47 129.55 534.35 129.27 529.89 130.45 525.98 133.55 520.85 131.46 518.65 134.99 515.81 135.15 513.54 138.66 508.5 143.57 504.78 142.34 500.2 144.99 498.83 147.45 500.59 151.39 497.67 148.9 493.98 150.17 492.15 150.81 488.34 148.42 481.9 148.33 480.77 149.67 479.04 148.62 475.97 149.42 470.67 151 468.17 153.87 466.7 154.12 465.1 148.49 457.69 145.48 461.66 143.04 461.35 140.32 450.5 142.43 449.34 144.13 444.9 138.21 438.1 137.26 433.36 138.86 431.47 138.37 428.22 134.7 426.17 135.08 422.15 131.34 419.56 132.09 414.69 128.63 410.94 132.94 410.65 135.94 407.72 133.32 404.77 126.45 402.85 125.48 396.97 121.94 391.34 123.63 375.51 126.28 372.57 127.94 374.95 129.31 374.35 131.49 371.25 133.26 370.1 132.07 369.23 131.85 364.64 132.98 360.55 135.26 357.55 135.25 353.74 137.75 348.33 140.49 344.49 144.55 345.13 146.63 344.01 151.74 336.52 150.91 334 146.42 332.67 149.21 325.85 149.5 322.64 148.85 316.28 146.4 314.03 146.67 309.72 143.73 303.38 147.87 295.81 152.08 295.4 153.3 294.18 153.89 286.74 156.14 280.38 154.73 278.94 154.88 276.64 158 272.54 158.35 264.36 163.92 262.68 165.66 257.58 168.22 257.98 172 255.66 172.4 251.74 173.75 250.63 174.35 248.64 177.14 248.07 179.47 244.93 180.51 238.45 182 237.21 181.49 235.01 183.75 231.62 184.15 228.48 189.84 221.13 188.87 219.35 189.75 216.59 193.16 213.46 196.54 212.65 199.6 216.1 202.14 216.82 204.68 211.87 210.9 210.99 210.95 208.23 213 206 200.4 189.73 201.09 181.65 208.27 177.01 204.65 158.19 201.21 155.26 202.79 152.69 201.31 152.19 200.52 147.18 201.89 142.2 200.44 137.64 204.76 134.74 207.72 135.06 209.86 133.74 205.25 126.06 201.04 122.86 201.21 119.41 207.78 111.38 207.45 109.82 208.24 108.49 211.22 108.89 212.61 106.3 215.34 104.72 250.3 90.93 252.06 87.55 264.26 49.35 256.69 41.85 258.9 38.11 263.24 35.46 262.94 31.02 264.97 30.92 266.72 29.08 272.44 26.88 274.18 19.17 290.42 14.48 292.09 13.1 292.34 9.31 294.29 3.78 293.9 1.62 294.85 1 300.55 2.97 302.15 4.63 301.97 6.38 306.64 7.02 313.46 14.06 Z M 212.97 1245.76 215.49 1253.18 212.89 1247.65 209.42 1248.1 202.83 1253.06 203.09 1257.53 208.29 1259.51 218.59 1260.17 223.43 1269.68 236 1279.23 234.24 1279.75 236.12 1279.63 236.81 1278.67 241.52 1280.74 241.91 1283.9 250.86 1289.29 270.62 1296.2 282.09 1303.65 303.69 1311.6 316 1313.97 334.45 1312.24 338.27 1312.93 339.22 1313.59 337.37 1313.96 336.3 1314.85 335.83 1317.91 333.67 1318.77 335.1 1319.34 329.88 1324.19 325.18 1322.38 323.89 1324.37 316.46 1325.75 313.64 1322.7 304.84 1322.83 304.52 1325.12 295.35 1326.83 289.51 1326.52 287.01 1329.36 283.25 1329.46 271.19 1324.64 243.62 1321.62 233.99 1322.68 213.32 1319.08 210.53 1319.29 211.77 1321.07 201.59 1321.49 202.66 1322.15 199.49 1322.86 199.72 1233.82 212.97 1245.76 Z M 369.02 1315.18 370.23 1316.94 371.33 1315.75 377.05 1317.21 376.41 1315.72 379.92 1315.73 381 1317.36 382.28 1316.27 388.01 1315.57 388.17 1316.94 390.69 1315.66 388.62 1318.6 384.58 1319.38 384.5 1317.76 374.45 1319.78 373.51 1320.74 373.3 1317.9 371.22 1318.18 369.95 1319.31 364.31 1321.3 363.85 1319.86 362.26 1321.77 357.74 1323.31 356.5 1320.77 353.26 1320.42 356.1 1318.1 363.48 1318.46 360.87 1315.55 369.17 1318.62 369.02 1315.18 Z M 465.46 692.4 467.41 694.45 467.77 692.97 468.88 697.77 461.12 694.78 461.72 693.27 462.11 694.05 462.62 693.12 461.52 693.15 460.36 694.43 459.77 691.34 460.36 691.5 465.46 692.4 Z"/>
<path d="M 313.46 14.06 317.4 14.17 320.68 12.82 324.44 13.68 344.26 13.18 353.9 17.5 357.67 17.5 361.93 21.33 360.86 22.56 361.09 24.92 367.09 31.24 366.29 32.94 366.59 36.65 369.89 39.49 370.73 44.41 371.72 43.76 372.92 40.12 372.83 35.71 373.9 32.15 375.25 29.5 378.79 25.86 384.28 13.5 385.2 13.27 386.11 9.84 431.11 9.91 431.58 12.84 430.82 14.45 431.64 16.22 432.3 16.6 432.67 15.62 437.62 19.29 438.71 21.82 442.15 24.49 453.12 30.29 455.31 38.19 461.62 44.66 463.77 50.59 468.8 53.22 475.77 60.68 480.26 61.93 483.5 66.35 487.48 68.13 488.97 67.56 493.89 71.66 496.4 71.65 499.44 74.19 499.82 77.07 504 82.05 506 81.77 509.8 84.44 519.13 85.65 520.55 87.85 525.14 88.13 529.84 91.39 538.54 91.14 541.34 90.05 564.12 103.02 569.03 108.92 578.26 114.28 584.37 116.17 596.47 122.75 603.34 123.55 609.97 129.45 613.87 126.7 623.6 132.83 628.31 132.87 634.1 140.14 636.3 140.54 636.09 142.53 640.74 147.35 640.34 152.02 638.64 154.13 636.17 153.49 635.83 155.92 633.13 155.83 632.41 156.8 633.73 158.36 630.47 159.86 631.15 162.6 628.76 163.85 629.42 166.22 627.69 166.99 629.05 169.64 622.47 173.54 619.84 174.04 616.83 176.61 618.52 178.85 616.35 180.01 616.89 182.32 614.77 185.28 615.95 187.48 614.27 190.66 615.49 195.05 613.03 195.16 613.05 199.47 611.48 201.34 608.7 201.89 610.17 204 603.54 206.42 603.74 209.22 602.84 211.73 601.15 210.97 600.9 213.54 597.17 214.82 596.87 216.86 599.31 218.6 599 221.27 614.87 219.21 622.76 219.84 630.96 222.57 634.39 222.39 642.56 226.84 649.95 225.85 659.93 228.76 664.61 226.59 667.93 226.08 674.06 229.37 674.77 227.76 678.97 227.2 680.97 228.17 683.59 232.52 686.87 233.62 688.31 233.22 688.84 231.03 691.31 228.8 691.59 225.63 697.14 221.79 700.49 221.47 703.98 223.26 706.86 223.12 709.72 226.61 713.55 227.07 715.57 224.69 719.02 222.77 718.77 220.95 719.62 219.23 718.22 216.33 720.21 215.81 720.9 213.78 724.56 213.4 724.62 211.28 726.01 209.28 732.32 207.07 734.54 208.19 737.05 207.63 737.39 203.98 740.67 201.36 744.31 200.96 745.23 197.07 747.78 195.92 749.83 196.57 750.72 195.6 751.36 194.09 750.61 191.18 754.5 187.48 754.86 184.77 756.77 182.1 755.54 180.16 757.95 178.09 755.81 175.86 757.06 173.01 755.5 169.31 758.43 168.02 757.82 166.24 759.13 162.77 756.38 156.7 759.16 156.08 758.9 153.23 763.13 154.62 765.53 157.66 767.24 153.74 768.58 153.96 769.6 152.51 771.19 151.94 773.13 153.43 774.22 151.62 776.09 151.32 778.29 149.62 777.54 152.21 778.67 154.45 779.45 154.19 779.52 152.59 782.28 152.2 784.8 154.4 787.08 154.44 788.94 157 788.24 158.31 789.74 161.16 788.71 163 789.93 165.39 788.93 166.88 789.2 168.15 793.37 171.28 793.8 174.57 799 179.98 796.78 185.79 794.57 187.02 793.26 198.29 795.72 205.46 793.31 208.51 793.95 209.07 792.25 212.04 790.89 211.23 790.98 213.82 789.49 216.2 788.15 214.66 786.62 216.39 784.47 216.08 779.15 221.4 776.6 221.28 775.68 219.73 774.07 224.55 771.44 227.17 769.18 225.51 769.26 227.73 768.61 227.98 766.14 225.77 763.84 226.55 764.76 228.34 761.76 229.55 759.7 227.61 757.8 231.27 755.65 229.83 755.43 232.29 751.53 232.73 750.42 230.71 748.89 234.2 746.77 234.9 746.62 238.12 745.16 240.26 739.51 240.8 741.52 243.41 738.12 243.38 737.45 245.06 734.97 243.77 732.38 245.95 729.9 246.37 727.4 248.88 727.88 250.58 725.05 253.12 723 252.47 720.66 255.78 718.65 254.13 717.41 256.41 711.93 259.1 716.02 262.54 715.02 266.21 712.89 264.23 707.87 263.7 706.82 265.34 707.34 268.36 702.44 269.56 702.23 273.61 697.28 277.32 695.49 280.01 691.17 281.32 690.49 285.54 686.47 288.33 686.81 290.09 685.92 292.06 679.2 294.06 677.07 297.57 675.9 301.98 674.59 303.6 672.33 304.34 670.3 308.18 664.57 312.78 664.08 314.65 662.15 315.49 658.75 319.17 652.83 320.87 650.22 323.9 649.3 329.12 646.51 330.7 642.8 334.78 638.29 336.22 637.21 336.47 638.73 338.99 637.59 342.57 630 347.34 627.92 349.65 627.5 352.11 630.75 356.98 631.05 363.03 629.66 365.63 626.6 365.54 628.54 370.3 626.51 374.14 626.38 377.47 623.78 381.74 623.56 384.67 620.75 386.14 619.59 387.75 623.78 391.9 622.15 396.75 619.74 401.58 616.05 402.47 614.86 403.76 617.48 409.83 615.77 415.14 619.06 419.9 618.16 422.57 615.76 424.2 615.02 426.96 618.29 443.52 617.68 449.86 616.96 449.86 616.76 451.28 614.35 452.57 612.03 451.66 605.8 452.54 606.49 461.18 602.15 466.96 600.85 477.66 605.01 483.14 604.33 484.57 602.66 484.63 605.38 485.14 605.51 486.23 603.78 487.37 605.78 487.31 608.25 493.23 607.72 496.95 606.22 498.81 604.61 499.72 601.34 499.5 601.09 500.95 604 502.77 603.19 502.65 602.12 506.09 601.04 505.97 604.67 510.68 615.31 518.52 627.71 522.05 642.09 529.64 655.27 541.06 658.16 546.76 648.73 558.89 647.41 562.1 647.94 567.45 652.73 574.98 659.73 580.49 664.47 582.29 672.21 582.25 671.61 580.47 675.32 586.36 676.08 604.72 663.62 619.99 658.5 628.11 645.79 638.53 641.31 646.29 641.99 649.5 640.94 652.79 635.64 656.84 628.77 660.34 611.53 667.39 579.04 676.25 557.94 679.73 551.81 681.67 509.19 687.62 497.52 688.53 488.33 687.8 480.91 688.92 475.28 687.4 471.17 688.02 462.19 686.05 456.67 681.03 447.28 678.37 451.39 680.16 448.58 680.42 447.23 681.88 450.1 683.76 449.57 686.44 451.39 689.53 449.1 692.46 449.54 694.81 453.73 698.36 450.24 698.7 458.35 700.14 462.97 703.7 459.55 703.81 455.75 700.39 450.73 700.24 461.79 706.18 458.88 713.84 458.82 722.17 450.48 722.97 450.12 734.73 449.52 736.07 445.49 738.4 443.78 740.78 447.2 747.02 456.6 752.47 456.54 753.51 454.12 755.65 450.85 763 435.08 769.5 431.81 768.99 429.19 771.06 419.65 774.46 392.17 774.71 379.93 769.48 379.54 767.89 377.92 768.86 375.46 768.68 353.94 761.28 347.81 761.69 347.22 760.81 349.27 759.87 354.04 760.68 351.28 757.51 343.87 757.2 346.87 759.01 342.73 759.01 339.03 761.53 336.52 767.54 336.7 771.56 340.1 784.69 343.45 789.57 342.34 792.98 343.22 798.92 340.16 806.82 342.86 812.01 348.52 815.66 364.73 817.8 361.12 820.6 358.71 824.4 364.49 825.78 371.22 824.44 378.72 825.33 381.76 822.13 380.35 818.57 368.34 817.72 380.64 815.26 386.79 811.85 392.92 810.98 399.26 820.88 400.01 832.37 397.76 836.19 398.07 838.74 395.86 840.05 377.51 842.95 373.26 838.5 374.88 832.94 372.57 833.08 371.07 830.19 360.94 827.83 358.07 828.12 353.1 830.29 349.53 832.96 346.85 832.88 344.16 834.4 342.1 837.77 342.9 839.51 358.02 844.87 366.58 846.39 369.96 845.73 370.97 847.1 370.4 848.15 363.9 851.2 353.66 853.93 345.35 857.68 341.44 861.48 341.25 864.26 330.52 873.82 330.46 881.75 335.15 889.91 334.82 893.5 332.57 893.93 331.28 896.01 335.06 902.62 330.43 906.04 332.4 908.51 328.84 908.59 328.94 911.32 325.37 910.97 325.08 911.86 319.31 913.95 316.36 916.67 314.73 921.93 322.77 925.23 319.91 926.26 320.21 927.97 317.81 929.86 309.8 928.07 308.21 928.18 308.12 929.48 306.28 929.81 295.9 927.33 292.58 930.14 289.59 929.53 283.52 931.66 282.5 933.42 284.92 934.37 280.03 933.55 283.01 936.96 269.9 937.16 265.87 938.6 261.7 941.32 255.53 948.96 250.07 953.06 249.06 959.17 246.18 960.48 240.43 967.44 238.76 972.9 241.55 982.24 246.98 989.96 259.11 995.87 272.26 1008.03 278.29 1009.91 308.73 1011.84 313.8 1015.87 315.06 1021.34 314.1 1028.13 309.98 1037.01 307.92 1038.3 309.52 1042.95 313 1044.3 311.73 1044.97 312.6 1045.7 307.31 1044.96 305.62 1046.11 307.16 1047.93 304.68 1049.58 307.24 1051.98 300.22 1052.12 296.88 1055.29 294.86 1055.82 290.59 1058.59 290.72 1061.83 286.65 1061.49 284.18 1064.24 276.5 1065.53 274.96 1067.29 270.36 1070.14 259.21 1074.27 254.59 1080.38 249.71 1082.03 241.24 1088.86 238.77 1092.11 239.99 1094.09 237.7 1095.77 236.77 1097.66 240.43 1097.94 232.74 1123.37 224.53 1129.48 218.28 1131.78 210.62 1132.48 199.85 1121.94 204.12 1130.7 209.66 1134.03 190.39 1140.71 185.51 1144.4 180.86 1149.93 178.26 1156.96 178.83 1163.39 178.36 1164.12 176.1 1164.96 175.24 1166.3 177.48 1167.05 186.3 1189.28 184.8 1190.71 182.45 1190.02 179.39 1191.66 176.89 1191.42 177.84 1193.84 174.95 1195.11 177.34 1194.93 183.77 1191.79 185.65 1192.77 193.63 1204.51 209.16 1219.62 208.92 1221.17 206.3 1223.23 206.83 1220.63 190.97 1218.37 175.84 1213.32 164.62 1213.14 143.25 1207.19 66.92 1207.07 65.5 1201.56 52.48 1195.25 50.52 1191.2 46.71 1190.06 47.29 1188.74 50.21 1186.73 51.37 1179.48 53.8 1177.49 48.14 1172.08 50.54 1169.13 53.62 1168.99 54.19 1168.36 54.97 1161.57 51.14 1157.15 53.11 1153.56 45.28 1151.48 42.63 1152.39 40.14 1154.42 34.75 1152.03 29.71 1153.62 22.78 1157.92 19.92 1158.54 17.73 1157.72 17.55 1153.25 1.42 1138.61 2.68 1130.53 4.42 1129.31 2.51 1124.41 6.61 1120.96 6.94 1119.86 1 1108.41 4.26 1107.98 3.41 1105.41 6.31 1102.57 4.97 1094.07 8.52 1093.04 15.64 1094.01 20.57 1092.87 21.03 1090.84 27.15 1085.35 34.81 1084.24 42.25 1079.16 40.33 1066.63 44.27 1064.37 48.25 1063.77 49.51 1061.92 52.5 1061.62 50.84 1050.54 43.29 1044.12 51.98 1031.23 52.68 1027.77 50.71 1026.08 51.3 1024.99 53.1 1024.26 58.37 1024.07 63.42 1019.01 63.31 1015.92 69.88 1016.84 70.02 1013.2 65.01 1010.03 65.04 1009.2 67.66 1008.19 66.93 1000.15 71.97 999.07 78.24 995.26 74.42 977.79 68.51 973.67 73.88 972.19 80.22 966.74 78.97 963.3 74.28 961.15 73.25 956.25 75.29 951.08 73.85 950.28 78.29 948.54 84.81 948.11 83.95 943.75 89.78 941.89 92.26 939.54 81.75 927.03 73.97 924.72 69.11 925.48 62.3 923.88 61.41 918.59 62.28 917.79 70.74 919.6 73.35 917.98 78.89 919.24 85.13 917.29 88.92 919.9 93.93 919.29 95.36 917.43 95.74 912.1 98.88 911.06 99.71 908.8 95.16 904.87 75.65 903.23 71.92 904.13 70.69 902.95 70.48 901.93 72.36 900.92 72.56 896.39 70.11 892.51 73.69 891.04 77.96 885.77 74.18 879.89 77.9 876.33 80.3 876.02 80.84 874.36 76.43 873.15 73.17 869.76 69.76 870.04 70.33 867.36 66.86 866.24 68.53 861.09 74.81 860.67 74.58 854.85 65.04 851.42 59.78 844.59 58.86 832.02 59.43 830.52 63.04 827.78 62.2 823.15 59.2 820.33 60.87 817.48 62.39 816.43 63.06 813.73 67.41 815.56 69.42 814.44 73.1 813.99 75.03 812.69 73.87 803.37 68.48 794.01 69.14 792.25 71.42 790.97 69 782.99 70.48 778.4 69.04 775.01 70.46 774.83 71.05 770.6 68.42 767.31 70.07 766.41 66.32 757.78 70.86 753.52 68.87 750.53 70.18 750.62 71.99 744.68 75.39 745.74 78 742.97 76.91 740.23 75.65 739.48 75.11 740.43 74.2 740.51 70.94 737.13 72.16 735.93 71.39 732.4 71.53 731.76 77.31 732.4 76.8 729.28 79.59 726.76 80.56 724.39 76.59 721.91 75.66 717.16 76.92 715.58 75.51 713.46 76.64 711.14 79.93 713.34 84.11 713.28 84.85 710.99 82.83 709.17 85.47 707.64 85.25 704.37 88.69 699.69 87.03 685.53 93.44 682.4 94.48 680.58 96.3 680.88 101.94 677.97 106.2 678.17 108.3 676.01 108.01 674.63 110.82 671.06 103.93 664.6 102.41 653.73 104.21 652.34 100.46 647.12 95.99 635.64 97.04 632.93 98.94 631.7 98.15 629.34 99.47 627.33 95.61 620.37 98.39 616.77 98.43 614.03 100.44 612.61 96.02 607.49 99.24 607.43 99 602.95 97.31 602.09 98.96 600.22 99.64 594.9 101.48 596.33 103.13 595.07 102.08 592.46 102.73 587.14 105.87 587.89 110.01 584.45 116.33 584.83 116.13 578.75 118.86 577.61 121 575.28 120.99 573.76 125.2 575.41 126.66 575.23 127.3 574.38 127.76 571.7 129.19 569.67 127.9 567.07 128.8 565.51 127.16 564.99 131.02 561.02 128 554.53 128.5 549.2 126.29 545.96 127.09 542.37 120.97 538.96 122.14 536.88 127.03 536.47 129.55 534.35 129.27 529.89 130.45 525.98 133.55 520.85 131.46 518.65 134.99 515.81 135.15 513.54 138.66 508.5 143.57 504.78 142.34 500.2 144.99 498.83 147.45 500.59 151.39 497.67 148.9 493.98 150.17 492.15 150.81 488.34 148.42 481.9 148.33 480.77 149.67 479.04 148.62 475.97 149.42 470.67 151 468.17 153.87 466.7 154.12 465.1 148.49 457.69 145.48 461.66 143.04 461.35 140.32 450.5 142.43 449.34 144.13 444.9 138.21 438.1 137.26 433.36 138.86 431.47 138.37 428.22 134.7 426.17 135.08 422.15 131.34 419.56 132.09 414.69 128.63 410.94 132.94 410.65 135.94 407.72 133.32 404.77 126.45 402.85 125.48 396.97 121.94 391.34 123.63 375.51 126.28 372.57 127.94 374.95 129.31 374.35 131.49 371.25 133.26 370.1 132.07 369.23 131.85 364.64 132.98 360.55 135.26 357.55 135.25 353.74 137.75 348.33 140.49 344.49 144.55 345.13 146.63 344.01 151.74 336.52 150.91 334 146.42 332.67 149.21 325.85 149.5 322.64 148.85 316.28 146.4 314.03 146.67 309.72 143.73 303.38 147.87 295.81 152.08 295.4 153.3 294.18 153.89 286.74 156.14 280.38 154.73 278.94 154.88 276.64 158 272.54 158.35 264.36 163.92 262.68 165.66 257.58 168.22 257.98 172 255.66 172.4 251.74 173.75 250.63 174.35 248.64 177.14 248.07 179.47 244.93 180.51 238.45 182 237.21 181.49 235.01 183.75 231.62 184.15 228.48 189.84 221.13 188.87 219.35 189.75 216.59 193.16 213.46 196.54 212.65 199.6 216.1 202.14 216.82 204.68 211.87 210.9 210.99 210.95 208.23 213 206 200.4 189.73 201.09 181.65 208.27 177.01 204.65 158.19 201.21 155.26 202.79 152.69 201.31 152.19 200.52 147.18 201.89 142.2 200.44 137.64 204.76 134.74 207.72 135.06 209.86 133.74 205.25 126.06 201.04 122.86 201.21 119.41 207.78 111.38 207.45 109.82 208.24 108.49 211.22 108.89 212.61 106.3 215.34 104.72 250.3 90.93 252.06 87.55 264.26 49.35 256.69 41.85 258.9 38.11 263.24 35.46 262.94 31.02 264.97 30.92 266.72 29.08 272.44 26.88 274.18 19.17 290.42 14.48 292.09 13.1 292.34 9.31 294.29 3.78 293.9 1.62 294.85 1 300.55 2.97 302.15 4.63 301.97 6.38 306.64 7.02 313.46 14.06 Z M 212.97 1245.76 215.49 1253.18 212.89 1247.65 209.42 1248.1 202.83 1253.06 203.09 1257.53 208.29 1259.51 218.59 1260.17 223.43 1269.68 236 1279.23 234.24 1279.75 236.12 1279.63 236.81 1278.67 241.52 1280.74 241.91 1283.9 250.86 1289.29 270.62 1296.2 282.09 1303.65 303.69 1311.6 316 1313.97 334.45 1312.24 338.27 1312.93 339.22 1313.59 337.37 1313.96 336.3 1314.85 335.83 1317.91 333.67 1318.77 335.1 1319.34 329.88 1324.19 325.18 1322.38 323.89 1324.37 316.46 1325.75 313.64 1322.7 304.84 1322.83 304.52 1325.12 295.35 1326.83 289.51 1326.52 287.01 1329.36 283.25 1329.46 271.19 1324.64 243.62 1321.62 233.99 1322.68 213.32 1319.08 210.53 1319.29 211.77 1321.07 201.59 1321.49 202.66 1322.15 199.49 1322.86 199.72 1233.82 212.97 1245.76 Z M 369.02 1315.18 370.23 1316.94 371.33 1315.75 377.05 1317.21 376.41 1315.72 379.92 1315.73 381 1317.36 382.28 1316.27 388.01 1315.57 388.17 1316.94 390.69 1315.66 388.62 1318.6 384.58 1319.38 384.5 1317.76 374.45 1319.78 373.51 1320.74 373.3 1317.9 371.22 1318.18 369.95 1319.31 364.31 1321.3 363.85 1319.86 362.26 1321.77 357.74 1323.31 356.5 1320.77 353.26 1320.42 356.1 1318.1 363.48 1318.46 360.87 1315.55 369.17 1318.62 369.02 1315.18 Z M 465.46 692.4 467.41 694.45 467.77 692.97 468.88 697.77 461.12 694.78 461.72 693.27 462.11 694.05 462.62 693.12 461.52 693.15 460.36 694.43 459.77 691.34 460.36 691.5 465.46 692.4 Z"/>
</g>
</svg>