<?xml version="1.0"?>
<svg xmlns="http://www.w3.org/2000/svg" version="1.2" baseProfile="tiny" width="800" height="856" viewBox="0 0 800 856" stroke-linecap="round" stroke-linejoin="round">
<g id="ARU">
<path d="M 686.3 828.01 685.58 828.77 684.67 829.11 683.8 828.68 682.22 828.72 681.45 828.2 680.97 827.24 681.41 826.42 681.55 825.46 681.55 825.13 682.41 825.13 683.56 825.13 684.86 824.89 684.91 825.27 684.09 826.23 684.81 827.24 685.77 827.29 686.3 828.01 Z M 672.86 826.9 672.96 828.63 671.23 827.48 669.41 825.61 668.74 823.78 668.71 823.44 669.94 823.35 670.9 823.64 671.33 824.6 671.86 825.75 672.86 826.9 Z M 654.49 812.99 654.15 813.42 653.1 812.94 652.33 811.45 652.47 810.35 653.19 809.97 653.96 809.73 655.83 810.59 655.5 811.26 654.97 812.08 654.49 812.99 Z M 633.66 804.67 638.38 806.63 639.6 806.63 640.69 807.24 640.3 808.09 639.15 808.24 638.71 808.12 636.77 806.8 632.96 805.65 630.48 803.87 626.56 801.64 624.87 800.56 622.42 799.34 621.26 798.26 619.73 796.88 618.5 796.11 617.35 795.34 613.82 792.73 613.43 792.51 608.04 789.58 605.67 788.18 605.37 788.05 603.61 786.82 601.61 785.9 599.85 784.98 599.16 784.9 599 784.6 600.54 784.29 602 784.67 603.53 785.44 604.84 785.87 610.92 789.76 614.25 791.66 616.38 792.81 619.32 794.94 622.77 796.92 627.44 800.52 629.17 801.9 633.66 804.67 Z M 523.37 746.24 521.45 746.29 519.96 745.62 518.33 744.99 516.75 743.98 514.97 742.83 516.32 743.12 519.48 744.51 521.98 744.99 523.37 745.97 523.37 746.24 Z M 474.46 725.78 475.04 726.56 475.47 726.53 476.33 726.36 477.19 727.36 477.89 727.94 478.68 728.15 479.47 729.18 480.42 729.58 481.63 730.01 482.52 730.44 483.64 730.73 485.17 731.16 485.97 731.54 486.78 731.6 487.13 731.25 487.9 731.19 488.8 731.83 489.49 732 489.77 732.23 489.92 732.92 490.29 733.55 490.84 734.27 491.56 734.45 492.11 734.47 492.42 734.96 492.68 735.31 493.4 735.68 494.06 735.62 495.68 736.01 495.71 736.02 496.02 736.66 496.71 737.18 497.03 737.41 497.83 737.87 498.96 737.93 499.04 738.5 497.63 738.45 496.83 737.99 496.02 738.16 495.2 737.39 495.07 737.27 494.11 737.06 493.27 736.69 491.99 735.77 491.36 735.53 490.38 734.55 489.69 733.63 489.07 733.16 487.77 732.47 486.46 731.78 485.31 731.55 483.93 731.4 479.06 729.7 478 728.6 476.94 728.2 475.32 727.48 474.17 726.67 473.37 726.01 472.13 725.58 470.72 724.78 470.63 724.71 469.36 723.74 466.47 722.69 465.6 722.12 465.39 721.97 464.15 721.75 463.58 721.23 463.92 721 464.47 721 464.86 721.25 465.1 721.41 466.6 722.24 468.41 723.1 470.4 723.91 472.39 724.51 473.28 724.66 473.62 725.35 474.46 725.78 Z M 414.56 674.42 414.08 675.13 412.64 674.7 412.55 673.7 412.58 671.95 413.17 672.74 413.65 673.31 413.89 674.13 414.56 674.42 Z M 341.22 635.29 346.14 636.36 348.44 636.36 350.36 636.59 351.59 637.28 352.05 638.21 352.51 639.13 353.51 639.82 354.12 640.51 355.27 640.97 356.96 641.35 358.96 641.74 361.49 642.35 359.95 642.74 358.34 642.74 355.5 641.97 353.89 641.74 353.12 641.43 351.66 641.12 349.59 640.51 345.14 639.59 344.14 639.13 342.53 638.28 340.3 636.98 338.92 636.75 337.23 636.21 335.85 635.75 334.47 635.37 332.01 634.29 331.32 633.22 331.55 632.83 333.24 632.99 334.85 633.22 336.46 633.75 337.92 634.21 339.15 634.75 341.22 635.29 Z M 290.33 603.34 300.24 605.45 304.23 606.75 307.72 608.52 310.1 610.47 312.06 612.47 313.09 613.16 313.98 614.12 314.9 614.74 315.36 615.81 316.36 616.73 316.97 617.61 318.31 618.34 318.92 617.92 319.12 618.02 320.5 619.63 320.71 619.87 320.89 620.57 321.9 621.44 322.04 622.95 322.96 624.06 323.43 625.58 323.03 625.75 322.42 625.37 321.31 624.33 321.08 624.6 320.42 624.6 320.54 623.41 319.93 622.95 319.66 623.29 318.27 621.53 318.24 621.11 317.81 620.19 316.43 618.57 315.74 617.84 315.9 617.63 316.05 617.42 315.33 617.12 314.28 616.69 313.75 616.69 313.09 615.54 311.94 614.62 310.68 613.7 309.45 612.85 308.95 612.01 308.76 611.32 307.8 610.86 306.49 609.82 305.3 608.91 304.76 608.57 302.76 608.27 300.46 607.58 299.08 606.75 297.28 606.02 294.59 605.45 291.83 604.91 290.14 604.45 288.96 604.45 286.11 603.15 284.27 602.8 281.89 601.11 281.25 600.48 280.92 600.2 279.62 599.61 278.47 599.11 277.59 598.46 276.71 598.23 276.28 597.44 274.67 596.89 273.79 596.2 270.83 594.74 269.38 594.09 268.42 593.82 267.92 592.97 269.34 593.13 269.79 593.33 270.99 593.89 273.18 595.28 275.94 596.66 277.66 597.44 281.12 599.04 284.61 601.34 286.99 602.41 290.33 603.34 Z M 242.35 579.38 243.58 580.34 245.46 581.3 249.22 583.26 251.26 584.84 252.72 585.91 253.45 586.41 253.18 586.6 252.06 586.26 250.95 585.41 249.88 584.68 248.88 584.11 248.38 583.76 247.5 583.3 246.23 582.46 244.5 581.69 243.77 580.84 242.81 580.04 241.82 580 241.2 579.73 240.7 579.73 240.31 579.32 240.82 578.96 242.35 579.38 Z M 221.53 565.75 222.45 566.21 223.35 566.94 223.89 567.71 225.09 568.31 225.34 568.46 226.72 568.36 227.16 569.31 226.81 569.4 226.19 569.52 224.07 569.37 223.62 569.19 222.62 568.5 221.98 568.15 221.09 566.67 220.09 566.01 220.23 566.64 218.74 566.5 217.7 565.75 216.81 565.32 215.59 564.31 215.15 564.1 214.87 563.9 213.56 563.13 212.57 562.67 210.99 561.62 211.42 561.09 211.88 560.63 212.43 560.86 213.06 561.2 213.98 561.43 214.59 561.95 215.22 562.41 216.37 562.96 217.21 563.39 218.44 563.99 219.02 564.37 219.83 564.77 220.72 565.12 221.53 565.75 Z M 139.02 492.31 139.8 493.18 140.32 493.58 140.06 494.42 140.81 495.22 141.4 494.63 141.58 494.44 142.13 494.39 142.79 494.79 143.03 495.11 143.14 495.25 144.09 496.32 145.44 497.84 145.84 498.79 145.61 499.51 146.36 500.81 147.48 501.09 148.31 501.64 149 501.87 149.5 502.99 150.16 503.4 150.88 504.15 150.62 504.64 151.05 504.66 151.51 505.7 152.44 506.02 152.64 506.74 153.04 507.31 153.85 507.8 154.71 508.41 156.12 509.76 157.36 511.23 157.85 512.06 158.16 512.18 159.29 513.7 159.95 514.05 160.93 514.19 161.4 514.18 161.9 514.38 161.93 514.39 162.02 514.8 163.35 515.11 164.27 515.95 165.07 517.01 167.64 519.32 169.16 520.87 170.28 521.36 171.41 522.22 172.64 523.58 173.74 525.02 176.42 528.64 179.06 530.98 181.17 532.67 182.47 533.19 183.16 533.65 183.2 533.67 183.64 534.06 184.59 534.37 185.71 534.92 186.12 535.52 187.04 536.42 188.62 538.43 189.95 540.62 191.44 542.63 192.91 544.3 193.75 545.23 194.67 546.23 195.01 547.01 195.76 547.44 196.45 547.87 197 548.48 197.8 548.97 198.5 549.46 199.22 549.66 199.65 550.12 199.99 550.81 200.45 550.87 200.71 551.36 201.4 551.76 201.69 552.16 202.15 552.48 202.47 553.03 202.9 553.03 203.39 553.75 203.88 554.32 204.68 554.47 205.12 554.78 205.63 555.44 206.07 555.76 206.3 555.85 206.81 556.42 207.3 556.71 207.76 557.37 208.46 558.04 209.23 558.61 209.84 558.81 210.88 559.52 210.98 559.56 211.08 559.91 210.93 560.11 208.43 559.53 208.34 559.91 207.88 560.09 207.47 559.86 206.53 559.07 205.78 558.67 204.97 557.55 204.2 556.77 203.62 555.62 203.02 554.81 202.24 554.41 201.58 554.31 200.67 553.3 199.28 552.38 197.98 551.54 196.21 550.23 194.99 549.23 194.44 549.01 193.43 548.1 192.68 546.52 192.31 546.29 191.21 545.94 190.38 545.8 190.09 545.23 189.6 544.51 189.17 544.13 188.77 543.93 187.93 543.53 187.56 543.07 187.36 542.28 187.21 541.71 186.61 541.02 185.69 540.71 185.21 540.4 184.93 540.1 184.71 539.77 184.02 539.93 183.67 539.27 183.01 538.78 182.78 538.29 182.4 537.74 182.06 537.6 181.56 536.71 181.4 536.42 181.17 536.16 180.94 536.21 180.91 536.38 180.02 535.95 178.25 534.5 176.95 532.5 175.87 531.5 175.33 529.74 174.26 529.05 173.49 528.51 172.19 527.59 171.34 526.59 170.81 525.59 169.88 524.21 168.81 523.44 167.2 522.67 166.05 521.98 164.82 521.06 162.82 519.45 161.67 518.07 160.13 516.84 158.14 516 157.14 514.77 156.94 514.36 155.92 513.33 155.14 511.72 155.43 511.11 155.63 510.85 155.46 510.51 155.29 510.13 154.94 509.64 154.36 509.47 153.64 509.45 152.77 508.86 152.39 508.68 152.03 508.29 151.37 508.06 151.11 508.29 149.93 507.89 149.24 507.05 148.84 506.19 148.67 505.82 147.6 505.27 147.05 504.64 146.25 504.09 145.07 503.46 144.29 502.53 143.57 501.33 143.45 500.61 143.83 499.58 142.91 500.71 142.62 500.44 143.8 499.04 143.45 498.13 142.53 497.06 142.17 496.78 141.76 496.46 141.3 496.52 140.68 496.93 139.91 497.58 139.74 497.29 140.28 496.63 140.63 496.2 141.01 495.86 140.6 495.48 140.23 495.88 139.48 496.06 139.19 496.08 138.79 496.11 138.56 495.74 138.3 495.6 137.7 496.34 137.5 496.17 138.59 494.65 138.25 494.13 138.07 493.87 137.04 492.75 135.71 493.24 135.55 493.36 134.88 493.87 134.67 493.67 135.37 493.14 135.62 492.95 135.42 492.75 134.88 492.55 134.26 491.81 133.45 490.95 132.23 489.52 131.51 488.98 131.1 488.43 130.94 488.32 130.41 488 129.9 487.42 129.49 486.64 128.49 486.15 128.11 485.58 126.9 484.74 125.87 483.36 125.32 482.58 125.26 481.98 125.55 481.43 125.69 480.02 126.64 479.88 126.96 479.53 126.96 478.99 126.47 477.78 126.53 476.88 126.97 476.61 127.07 476.54 128.34 479.76 130.19 482.7 130.87 484.02 131.31 484.6 131.82 484.83 132.34 485.46 132.98 486.07 133.84 486.82 134.33 487.19 134.33 487.8 135.14 488.17 135.83 488.89 137.04 489.95 137.81 490.88 138.39 492.14 139.02 492.31 Z M 36.82 1 38.28 1.5 39.85 2.11 41.85 2.96 44.11 3.65 45.3 4.03 47.95 4.11 49.68 5.11 50.98 6.03 51.9 7.03 52.71 8.64 54.09 9.71 55.66 10.48 57.24 10.9 58.7 11.21 60.31 11.25 61.5 11.63 62.92 12.4 64.03 13.17 65.03 13.67 65.95 13.74 66.64 14.47 68.1 13.7 68.75 14.43 69.67 14.47 70.33 14.93 70.06 15.74 69.52 16.16 69.1 16.43 68.86 17.31 68.79 17.58 68.79 18.27 69.11 19.11 69.79 20.84 71.94 24.49 74.62 28.14 77.77 31.48 80.19 33.66 81.53 35.12 84.03 36.93 86.87 38.5 89.52 40.11 92.24 42.26 95.5 44.22 97.62 45.98 99.11 47.06 99.8 48.1 100 49.13 100.88 49.21 101.49 49.86 102.38 51.09 103.68 51.82 105.02 52.47 107.75 53.01 108.79 52.97 109.32 52.78 111.1 53.11 113.6 54.15 115.29 55.3 119.24 58.02 121.12 59.67 123.43 62.55 125.23 65.17 125.54 65.76 126.53 67.62 128.68 70.31 131.1 72 131.5 73.98 131.96 74.45 132.83 75.33 133.21 74.26 137.47 72.84 140.16 73.07 143.35 74.03 147.72 76.99 149.41 78.52 156.05 81.67 161.12 84.7 161.2 84.78 164.65 87.39 166.11 89.43 166.34 89.75 167.11 90.98 167.96 92.33 169.38 94.8 169.33 95.75 170.1 96.05 170.21 96.25 171.95 98.34 171.98 98.9 173.14 99.93 172.98 100.16 176.16 101.74 177.78 103.58 178.2 105.2 179.32 106.34 179.99 107.92 180.47 109.12 180.72 110.1 181.35 111.34 181.08 112.41 182.8 116.06 183.61 118.19 183.8 119.28 185.34 121.36 186.33 123.47 187.26 125.46 187.18 126.73 188.29 127.31 189.18 129.48 188.99 130.23 188.95 130.27 188.91 130.95 189.25 131.41 190.17 131.14 190.45 131.43 190.98 131.99 192.58 134.5 193.67 136.95 194.51 138.63 195.11 139.71 195.59 140.79 196.07 141.63 196.24 141.77 200.58 147.65 200.38 148.22 200.38 148.82 200.46 148.91 201.19 148.99 203.48 151.59 203.45 154.1 204.68 155.79 205.6 156.21 205.86 156.05 206.26 155.82 206.52 155.02 207.02 155.09 209.4 157.13 209.35 157.27 208.87 158.66 210.02 159.12 210.29 158.51 210.58 158.44 211.21 158.28 211.81 158.57 214.47 160.54 215.57 161.63 216.85 162.89 218.41 164.46 219.48 165.56 219.64 165.96 219.08 166.53 219.23 166.76 220.42 166.71 221.53 167.07 222.07 168.41 223.91 170.14 223.72 171.14 224.33 171.14 225.52 172.06 226.21 173.17 225.6 174.21 225.68 174.52 226.57 174.24 227.45 174.47 227.79 174.55 229.71 176.7 230.01 177.39 229.9 178.01 228.79 178.51 229.17 179.39 230.06 178.86 230.67 178.51 231.78 178.7 231.95 178.89 233.24 180.31 236.73 183.69 236.23 184.92 237.1 185.02 237.81 185.11 238.08 185.44 241.49 189.56 240.53 190.21 240.38 191.02 240.76 191.33 241.17 191.19 241.95 192.21 242.77 192.07 244.6 194.24 244.87 194.97 246.21 195.82 247.75 198.27 247.02 199.12 246.29 200.92 247.44 202.11 248.63 202.92 248.95 202.69 251.43 200.88 252.08 200.88 252.52 201.15 253.76 201.91 253.91 202 261.3 207.87 261.22 208.68 259.84 210.6 260.53 210.98 262.01 209.09 262.64 209.18 263.23 209.69 265.02 211.25 263.98 213.01 264.18 213.05 265.25 212.17 265.9 212.12 266.82 212.05 267.28 212.45 268.13 213.18 269.15 214.05 268.74 215.43 269.51 215.09 270.08 215.56 269.4 216.54 269.4 217.54 269.7 218.16 270.24 218.39 270.39 218.25 271.08 217.62 271.43 217.12 272.24 217.04 272.62 217.47 272.77 217.89 273.42 218.19 273.62 218.77 274.61 219.55 274.27 220.27 275.4 220.09 277.23 221.04 277.8 222.03 278.29 222.16 279.11 222.37 279.3 222.37 280.46 222.9 280.68 222.99 281.22 223.61 281.73 223.98 282.14 224.29 282.71 225.1 282.71 225.37 282.45 225.56 282.52 226.26 283.08 226.95 283.71 227.83 284.17 228.67 284.29 229.13 284.63 230.67 285.09 231.13 285.74 231.89 287.17 232.54 287.21 232.58 287.59 232.73 287.9 232.73 288.44 233.12 288.67 233.19 289.51 233.42 289.82 233.65 290.43 233.88 290.66 234.19 291.05 234.42 291.55 234.71 292.54 236.5 293.89 237.18 293.96 237.21 294.43 237.41 294.23 238.42 293.46 238.96 293.15 239.46 293.31 240.65 294.27 240.8 295.57 242.15 294.88 243.22 295.8 243.53 296.99 244.14 298.02 245 298.11 245.09 298.49 245.32 299.11 245.47 299.65 246.24 300.11 247.09 300.78 247.42 300.29 248.75 300.98 250.05 301.6 250.94 302.4 251.7 302.44 252.82 302.44 253.74 303.25 254.66 303.94 255.39 304.4 257.23 304.71 259.07 306.13 260.49 307.43 261.07 308.07 260.91 308.63 261.13 308.62 261.84 310.04 261.64 311.05 261.88 311.54 262.49 312.38 262.83 313.46 263.41 314.61 263.72 315.88 264.6 317.07 265.29 318.22 265.97 318.76 266.05 319.68 266.2 320.37 266.58 321.45 266.74 322.21 267.2 324.63 266.56 326.16 266.52 327.08 266.86 328.24 265.56 329.31 264.6 330.62 264.33 331.21 264.58 335.22 266.4 336.98 267.2 337.93 268.21 337.91 268.94 337.98 269.16 337.6 269.86 336.8 270.24 336.33 270.97 336.3 271.66 336.8 272.16 337.75 271.97 337.72 271.2 339.33 270.51 339.79 270.17 340.39 270.13 341.46 270.65 341.56 270.65 341.98 270.77 342.1 270.81 342.12 270.82 342.86 271.19 343.79 271.8 344.4 271.96 346.09 272.96 347.47 273.72 347.93 273.95 348.62 274.49 349.93 275.18 350.77 275.64 351.54 276.18 352.54 276.79 353.18 277.25 353.58 277.54 353.61 277.56 354.29 277.95 355.64 279.11 358.89 281.25 359.98 282.32 359.98 282.99 360.44 283.79 359.4 285.4 359.25 286.17 359.63 287.02 360.52 287.55 362.43 286.9 363.74 286.29 365.31 286.29 365.7 286.32 365.04 287.63 365.31 287.82 366.28 287.15 366.66 286.63 367.08 287.02 368.77 287.32 369.12 287.62 369.96 288.31 371.19 288.92 372.8 290.15 373.19 290.61 372.96 291.15 373.42 291.38 373.8 291.76 373.87 292.13 372.8 294.15 372.03 295.16 371.98 295.93 372.94 297.18 373.37 297.37 375.48 295.54 377.64 293.67 378.33 293.61 380.86 294.63 382.3 295.74 383.69 296.22 385.7 298.14 386.57 298.76 387.96 299.24 389.06 299.57 390.6 298.57 391.36 298.86 391.6 300.15 391.7 301.64 392.13 302.74 394 302.94 394.91 302.26 396.21 301.21 396.98 301.51 397.18 302.05 396.16 303.7 397.22 304.8 398.22 305.55 398.94 306.77 400.43 307.59 403.02 309.03 406.28 311.09 407.44 312.29 407.15 313.58 409.07 312.82 409.88 313.68 411.56 314.26 412.57 315.17 411.85 316.65 413.77 316.08 414.73 317.18 415.88 317.76 415.11 319.63 415.88 320.35 416.56 319.47 417.69 319.39 419.34 320.09 419.87 320.3 422.84 319.25 425 318.38 426.72 318.34 428.16 318.96 428.93 319.82 428.26 321.31 427.3 322.56 427.11 323.95 428.69 325.96 428.93 327.11 428.69 329.18 428.45 330.18 428.98 331.38 428.5 332.25 426.92 333.21 426.77 334.31 427.63 334.89 429.64 336.02 429.84 336.13 430.59 336.88 430.68 337.82 430.45 338.59 430.22 339.2 430.17 339.36 429.31 341.51 429.36 343.62 430.03 343.86 430.99 343 433.3 342.9 433.3 344.87 434.29 345.96 434.73 346.03 437.42 345.59 437.71 343.86 439.05 343.28 439.05 344.04 438.81 345.06 439.92 346.74 441.3 346.75 443.8 346.5 445.24 345.92 446.59 345.25 448.27 345.25 449.27 344.87 450.71 344.05 451.86 343.52 454.69 343.19 455.56 343.24 456.17 343.58 455.94 344.72 456.33 344.96 457.81 344.77 458.2 344.19 457.38 343.71 457.77 343.04 458.15 341.22 459.2 341.36 461.27 341.56 463.71 341.6 464.39 341.27 464.87 340.07 466.16 338.73 467.22 338.53 468.32 337.67 468.51 336.66 469.52 335.89 470.82 335.94 471.63 335.22 472.01 334.17 473.26 334.17 473.26 334.55 472.93 335.65 472.11 336.47 472.97 337.81 472.37 338.36 473.6 339.01 472.98 339.58 472.11 340.02 472.49 340.26 474.41 340.26 476.41 341.34 478.2 342.28 478.97 343.19 480.27 343.62 480.55 344.19 480.45 345.3 480.17 346.16 480.54 347.44 480.17 349.57 480.08 350.38 480.17 351.63 480.58 351.79 481.99 351.01 483 349.66 484.2 349.18 485.02 349.47 485.69 350.24 487.35 352.13 487.72 352.56 488.41 353.33 488.45 353.71 488.49 354.17 488.95 354.56 489.26 354.87 488.95 355.63 488.95 356.17 489.48 356.56 490.55 356.66 490.77 357.58 491.3 357.87 491.93 357.94 492.55 358.16 493.41 358.59 493.82 357.33 494.9 356.86 495.81 356.81 496 357.29 495.14 358.44 494.59 358.71 495.06 359.42 495.14 360.36 496.16 361.11 496.68 362.62 497.11 363.53 497.79 363.42 498.16 363.69 499.01 363.85 499.62 364.23 500.16 364.61 500.42 364.92 502.66 367.09 503.73 369.14 504.08 371.2 502.15 372.12 500.47 373.46 500.77 374.98 502.19 376.72 504.11 375.48 505.98 375.24 508.14 374.76 509.45 375.32 509.25 375.81 510.83 377.83 510.64 379.03 512.08 378.98 514.81 380.66 517.26 381.33 518.27 381.96 518.46 382.72 518.03 383.87 518.29 384.43 519.37 384.64 518.99 388.53 518.6 389.34 519.18 390.11 520.66 390.3 520.9 389.68 521.24 389.01 523.06 388.05 523.54 388.14 524.5 388.86 524.64 388.98 523.32 390.01 522.36 391.07 523.03 391.94 524.23 392.41 527.39 389.53 527.94 389.86 528.33 390.1 530.1 391.18 531.28 392.55 532.77 393.45 533.06 394.33 533.68 394.51 536.16 395.24 537.61 394.71 538.62 395.38 538.95 395.6 539.49 396.73 539.97 396.83 542.03 397.26 542.34 397.62 542.8 398.17 543.91 398.47 544.86 398.17 545.96 398.26 546.18 398.69 546.59 399.46 546.83 400.31 546.2 400.95 545.82 401.05 545.24 401.19 544.24 402.05 543.66 403.59 543.52 405.27 543.18 405.84 542.56 406.08 542.32 407.23 542.56 408.19 542.74 408.71 541.21 409.39 540.49 410.07 540.3 410.88 540.78 411.46 541 411.27 541.79 410.59 542.41 410.98 542.52 411.42 542.08 411.98 541.79 412.42 541.88 412.99 542.23 413.11 542.46 413.18 543.66 413.28 544.3 413.78 544.52 414.53 544.52 415.25 544.52 416.02 544.52 416.73 544.43 417.12 543.13 417.6 542.84 418.22 543.9 417.93 544.08 417.95 544.47 417.98 545.05 418.17 545.19 418.61 545.29 418.86 545.51 419.46 545.45 419.61 545.05 420.62 545.05 421 545.51 420.93 546.3 420.81 546.68 421.29 547.35 421.6 548.35 422.06 549.29 422.88 549.7 424.41 550.47 425.51 551.59 426.1 552.58 426.26 553.25 428.01 553.3 428.83 552.2 429.45 551.77 429.88 551.34 430.84 550.62 431.56 550.42 432.47 551.19 433.86 551.9 434.7 552.43 435.01 554.02 434.82 555.27 434.39 556.85 434.87 558.38 435.49 559.89 436.61 560.14 437.1 561.36 436.89 562.23 437.32 562.42 437.64 562.71 438.13 562.37 440.1 562.61 440.53 563.03 440.27 563.38 440.05 563.81 440.15 564.12 440.46 564.29 440.87 564.29 441.2 563.67 441.44 563.67 442.16 563.28 442.64 562.37 443.31 562.13 443.89 562.18 444.61 562.61 445.86 563.52 446.24 563.91 446.22 565.35 446.15 567.26 446.19 567.86 446.37 568.31 446.51 568.78 446.66 569.09 446.75 569.47 447.82 569.42 448.69 571.48 450.14 571.7 450.36 573.41 450.8 574.89 450.61 575.09 451.52 574.62 452.2 576.81 453.05 577.87 453.73 577.85 453.92 577.77 454.54 578.3 455.65 577.77 456.94 577.87 457.61 578.64 457.9 579.05 457.9 580.22 457.9 581.27 456.94 581.25 458.04 581.23 458.81 582.28 459.15 582.67 459.44 582.97 459.36 583.29 459.29 583.58 459.39 583.84 459.84 583.93 460.01 583.96 460.13 584.05 460.53 583.1 461.02 583.1 461.26 583.84 461.58 584.69 461.95 585.02 462.84 586.22 464.09 586.5 464.9 587.03 467.16 588.23 468.17 586.94 469.51 586.12 470.04 586.31 471.48 587.94 472.01 588.61 472.73 587.37 473.88 588.66 475.6 590.02 476.63 590.51 477 592.41 475.84 594.32 475.46 594.58 475.5 595.58 475.67 597.2 475.94 598.36 476.36 598.95 476.54 599.15 476.83 599.17 477.38 600.17 477.76 600.64 478.07 600.84 478.13 600.85 478.63 601.37 478.49 601.45 478.61 602.48 478.52 602.53 479.39 602.91 479.39 603.33 479.68 603.54 479.82 604.02 480.83 604.02 481.41 604.79 481.22 605.74 480.98 607.35 480.91 607.52 481.41 607.33 482.56 607.04 482.9 607.42 483.95 607.42 485.54 607.81 487.5 608.33 486.77 608.67 486.3 609.68 485.68 611.26 485.06 612.09 485.06 613.07 485.06 613.07 485.41 614.46 485.6 615.1 485.9 615.77 486.21 616.39 487.12 616.9 487.37 617.98 487.9 618.59 488.14 618.31 488.8 618.41 489.42 618.55 489.76 618.98 489.94 619.45 490.15 620.81 489.76 621.09 490.16 622.01 491.48 622.88 491.77 623.21 492.28 623.11 492.49 627.37 496.16 627.48 496.64 627.24 497.1 626.81 497.48 626.37 498.44 626.61 498.83 627.24 499.11 627.77 499.65 627.74 499.8 627.05 500.27 627.43 500.41 630.54 499.98 630.74 499.95 632.11 499.95 632.5 499.95 632.73 500.11 633.19 500.34 633.58 500.95 633.65 501.72 633.5 501.95 633.22 502.18 633.04 502.33 632.42 502.95 631.81 503.56 631.2 504.63 631.27 505.33 632.37 506.36 633.65 505.63 633.96 505.63 634.28 505.84 635.49 506.31 635.63 507.46 636.03 508.32 638.08 508.57 639.42 507.56 639.76 507.89 640.1 508.81 640.58 509.48 640.38 510.15 641.15 511.01 641.78 512.6 642.56 513.3 644.27 513.7 645.71 513.27 647.72 515.38 649.31 519.12 650.27 521.52 650.65 522.1 650.17 523.25 648.88 524.4 648.68 525.79 649.64 526.13 650.75 525.17 651.56 525.84 656.55 529.72 657.56 531.55 658.42 534.43 658.47 535.77 659.34 537.11 659.14 538.22 659.62 538.7 660.56 539.21 664.08 538.94 665.19 540.47 665.48 541.43 665.28 542.68 666.82 543.88 666.77 544.74 666.34 545.36 666.24 546.66 666.82 547.72 668.74 549.35 670.37 551.89 671.91 554.1 672.05 555.25 673.68 556.78 676.9 559.61 679.73 561.44 681.41 562.25 684.91 562.54 686.01 562.78 686.25 563.64 687.62 564.43 689.08 564.84 690.33 564.84 692.39 564.22 692.92 564.46 693.11 564.99 693.48 565.57 694.17 565.9 694.84 565.52 695.65 563.69 696.99 563.35 697.59 563.48 702.95 564.89 703.33 564.51 704.96 565.18 704.75 565.79 707.41 567.15 708.7 567.82 709.09 568.73 709.09 570.65 710.38 572.33 712.5 574.78 713.65 576.17 714.8 577.99 715.33 579.19 716.14 580.1 717.96 581.64 719.6 583.08 719.98 584.56 720.94 586.67 722.23 588.93 723.34 591.57 727.18 604.43 728.81 612.58 727.7 613.3 727.56 613.88 728.42 614.07 729.24 615.41 730.58 620.93 729.77 621.99 730.1 622.37 731.45 622.42 731.97 625.3 732.12 627.74 733.7 630.96 733.56 633.98 734.57 634.7 734.18 636.38 733.32 637.91 733.08 640.12 732.39 641.7 732.21 642.09 731.93 643 732.98 645.35 733.65 646.69 735.76 647.99 738.02 649.48 739.65 652.07 740.08 654.32 740.71 656.82 742 658.35 742.72 660.94 743.3 663.82 744.11 665.69 745.12 667.52 746.51 670.16 747.14 673.04 748.43 679.7 750.54 684.17 751.36 686.47 751.93 688.58 752.89 690.88 753.61 694.1 753.76 697.17 755.34 700.81 756.83 702.73 758.07 703.98 758.89 706.33 759.9 709.11 760.14 711.9 760.67 713.82 762.39 718.81 763.74 721.06 764.98 721.97 765.61 724.71 767.09 726.2 768.15 729.94 767.67 730.13 766.42 730.9 764.22 734.78 763.54 737.18 762.97 740.59 763.3 743.56 763.93 746.35 765.03 747.79 767.09 748.9 767.68 748.9 768.61 748.9 770.91 750.51 771.37 751.2 771.6 752.66 771.68 753.35 771.91 753.97 772.14 754.97 772.21 755.73 772.98 758.19 773.21 759.03 773.29 760.95 773.37 761.72 773.83 764.18 774.13 765.1 774.75 767.86 774.93 767.89 774.98 768.09 774.59 768.78 774.21 768.94 772.9 769.55 772.52 770.32 772.52 770.86 772.52 771.62 772.75 772.7 772.98 773.39 773.52 773.93 773.7 774.02 776.02 774.32 777.31 775.8 777.46 777.29 777.46 779.31 777.94 781.13 781.39 791.54 786.24 809.53 786.87 814.66 788.68 815.15 789.31 816.15 792.33 818.36 793.58 819.23 792.38 820.04 792.67 821.24 794.25 822.97 796.55 825.08 797.03 827.24 798.71 828.63 799 829.49 798.28 830.02 794.63 832.08 793.77 832.85 793.1 834.48 793.87 835.87 794.39 837.5 794.59 839.23 793.67 842.45 790.75 840.14 789.85 839.95 788.01 840.1 786.62 839.86 785.28 839.81 784.22 839.81 783.26 840.38 782.45 841.1 779.76 842.25 778.08 843.12 775.92 843.5 774.48 844.13 772.42 844.51 771.27 845.42 770.12 846.28 769.06 847.1 767.91 847.92 766.85 849.45 767.14 851.51 765.42 851.56 764.79 852.19 763.64 852.38 762.39 851.47 761.18 851.46 759.85 851.66 758.59 851.85 751.17 851.75 749.25 851.56 742.96 852.19 742.16 851.82 743.87 851.37 744.06 849.6 742.1 846.28 740.8 844.99 738.55 844.94 737.4 845.18 736.2 844.41 735.24 844.27 732.69 844.99 730.73 846.19 729.14 848.2 729.62 850.03 730.34 851.23 731.01 852.23 732.45 852.57 733.32 852.71 733.37 853.67 733.03 854.06 730.82 854.54 727.08 853.87 725.5 852.91 727.27 852.57 727.08 851.08 725.88 849.98 724.54 848.25 720.89 844.46 721.23 843.55 722.67 842.69 723.39 842.06 723.96 839.62 724.68 838.85 725.35 836.35 724.44 833.43 722.33 830.36 721.85 830.36 721.42 828.96 719.45 826.42 718.16 824.5 716.62 823.93 715.95 822.87 713.74 821.62 712.5 819.66 710.38 817.98 709.23 817.21 708.08 816.97 707.65 817.07 705.87 817.5 705.94 816.88 705.06 816.3 704.48 814.86 703.09 814.38 702.53 814.36 701.94 814.33 700.6 813.85 700.39 813.62 699.68 812.84 698.58 811.98 696.57 811.21 695.78 811.64 694.89 812.12 693.74 812.36 692.73 812.17 692.54 812.51 693.02 813.28 691.67 814.96 690.14 815.77 687.4 816.11 685.1 815.58 684.1 815.01 682.89 814.33 681.07 813.65 680.15 813.27 679.19 812.5 679.22 814.3 681.04 815.03 681.16 815.35 680.48 815.74 678.57 815.01 675.38 813.68 675.46 813.45 676.57 813.7 677.01 813.57 678.12 814.12 678.39 811.9 678.27 811.82 677.3 810.92 676.53 810.8 674.85 810.54 673.46 810.35 672.55 810.78 672.21 811.21 672.18 811.28 672.79 811.49 674.65 811.61 674.65 811.86 674.52 812.07 674.52 812.68 674.59 812.72 674.61 813.07 674.19 813.09 674.09 812.9 674.25 812.72 674.25 811.84 672.89 811.74 672.64 811.82 672.5 811.71 672.48 811.57 672.1 811.5 671.88 812.03 670.12 811.4 668.28 810.73 668.47 810.25 667.68 809.89 667.67 810.32 667.36 810.34 667.07 810.15 667.03 809.94 667.24 809.69 666.62 809.4 666.63 809.75 666.4 809.98 665.9 809.82 665.82 809.57 666.12 809.17 661.58 807.08 661.54 806.39 661.42 805.39 660.35 805.05 660.04 803.9 656.74 800.83 655.9 800.85 654.98 800.87 649.53 801.33 648.95 801.44 648.49 802.25 644.77 803.01 644.04 802.63 644.38 802.13 644.92 802.32 646.57 802.09 647.76 801.44 648.1 800.79 653.59 800.17 655.86 800.01 657.24 799.91 657.7 799.02 656.97 799.02 656.04 799.09 655.32 799.14 654.86 799.45 653.06 799.56 651.87 798.95 649.99 799.18 648.68 799.41 646.88 798.98 647.72 798.37 653.52 797.99 655.92 798.02 656.36 798.03 657.09 797.79 657.01 797.64 655.54 797.65 653.17 796.68 652.94 795.8 651.24 795.38 650.6 795.22 650.36 795.38 649.22 796.14 647.68 796.57 646.84 796.6 646.92 796.07 648.07 795.99 649.03 795.53 648.94 795.16 648.83 794.69 647.68 794.23 646.93 794.55 645.92 791.46 643.42 790.7 634.63 791.62 634.75 791 643.13 790.11 643.19 789.27 640.97 787.55 640.44 787.61 633.6 788.39 633.57 788.2 632.71 788.4 631.92 788.45 631.41 788.52 631.12 788.28 631.27 788.04 632.44 787.99 633.52 787.85 640.08 787.18 640.58 787.12 639.28 785.9 636.59 784.28 636.09 783.55 635.57 783.55 632.52 783.52 632.48 783.71 628.38 783.71 628.4 783.31 627.62 783.34 627.62 783.43 626.78 783.51 626.83 783.27 625.99 783.31 625.78 783.48 625.44 783.48 625.3 783.15 625.39 782.91 625.68 782.88 625.94 783.03 626.78 783.03 626.78 782.86 627.55 782.86 627.55 783.07 628.42 783.03 628.45 782.63 631.56 782.6 632.48 782.83 635 782.86 635.44 782.86 634.82 782.21 635.02 781.64 634.13 781.06 633.74 781.1 633.44 781.14 633.14 780.84 632.79 780.48 631.72 779.03 630.87 778.95 629.41 778.57 629.41 779.05 628.77 779.03 628.82 778.74 628.89 778.58 628.99 778.35 628.55 778.17 628.31 778.07 628.21 777.78 628.05 777.32 627.83 777.27 626.73 776.99 626.87 776.19 623.37 775.52 622.54 774.47 622.39 774.28 619.4 773.94 617.95 773.77 617.91 773.69 617.73 773.34 617.53 773.73 615.7 777.27 613.22 777.47 613.22 777.15 615.65 776.84 616.92 773.95 617.04 773.68 609.72 774.44 609.58 774.46 607.01 774.73 605.81 774.85 605.04 774.92 604.31 774.16 603.29 774.16 603.11 774.09 602.48 773.87 601.52 773.96 600.85 774.47 597.8 774.88 593.25 776.23 588.55 777.38 587.78 777.93 586.53 777.82 585.76 777.76 584.61 777.37 583.89 777.12 582.54 777.06 581.79 777.15 581.27 777.23 580.81 777.3 579.46 776.84 578.25 776.75 577.37 777 576.18 777.12 575.57 776.9 574.91 776.66 573.64 776.03 572.72 774.91 570.74 770.88 569.27 769.78 567.72 768.47 567.57 768.38 566.65 767.63 565.84 767.11 565.58 766.99 563.9 766.18 562.52 764.81 557.02 761.9 555.19 761.07 552.13 764.49 553.64 765.83 554.7 764.44 554.84 764.54 558.97 767.92 558.63 768.23 554.75 764.87 553.5 766.41 549.97 763.34 550.93 761.92 547.05 758.69 547.31 758.49 551.29 761.92 550.38 763.27 551.58 764.15 551.85 764.11 554.77 760.83 553.36 760.01 551.58 757.71 550.4 756.82 547.37 755.27 545.63 754.62 542.29 753.3 538.43 752.2 535.38 750.99 533.37 750.36 532.5 750.12 530.73 754.2 533.37 755.28 534.05 753.91 540.23 756.43 540.14 756.74 534.14 754.2 533.47 755.69 531.33 754.85 531.26 755.23 529.51 754.68 529.75 754.22 528.24 753.58 528.96 751.99 523.03 749.45 523.23 749.26 529.25 751.9 528.58 753.41 530.42 754.1 532.26 750.05 530.89 749.67 528.82 748.98 527.21 748.35 524.9 747.37 523.51 747.01 524.18 746.09 525.09 746.21 526.06 746.33 529.32 747.63 530.61 748.16 532.39 748.45 533.92 749.41 540.57 751.21 545.17 752.61 548.7 754.2 551.87 755.45 553.14 756.33 554.79 757.27 555.71 757.73 557.58 758.52 563.19 748.54 563.49 747.98 558.18 744.78 559.28 743.05 557.03 742.93 555.3 742.76 554.83 742.59 554.34 742.42 553.69 742.19 553.17 742.01 552.58 741.8 551.45 741.4 551.39 741.38 551.16 741.3 549.49 740.75 549.23 740.67 548.68 740.52 547.42 740.28 545.83 740.03 545.49 738.66 544.67 738.42 543.28 738.85 542.99 739.62 542.9 741.2 541.08 741.03 540.05 740.57 537.63 740.28 534.69 739.13 533.43 739.02 532.4 739.05 531.92 739.06 531.53 739.08 531.41 739.06 531.05 739.06 531.03 739.1 530.6 739.08 529.91 739.15 528.15 739.77 527.3 739.77 526.23 739.31 524.54 739.15 523.45 738.83 522.47 738.54 520.73 737.48 518.71 736.74 517.8 736.02 516.6 734.92 516.22 736.55 515.26 736.02 515.55 735.64 515.93 734.77 515.26 734.44 514.49 734.39 514.11 734.77 514.64 735.4 514.16 735.88 513.2 735.3 513.33 734.94 512.95 734.39 511.8 734.34 510.99 734.19 510.59 734.62 510.01 734.27 510.18 733.75 509.58 733.04 509.03 732.55 508.08 732.46 507.25 732.78 506.95 732.95 506.27 733.01 505.66 732.93 505.53 732.85 505.18 733.7 504.86 733.81 504.97 733.99 508 734.79 507.97 735.08 504.28 734.16 504.34 733.61 504.25 732.43 502.41 731.6 501.03 731.05 500.77 731.45 500.17 731.25 500.4 730.59 499.02 729.95 498.87 729.41 498.41 729.41 498.55 730.21 497.98 730.16 498.09 729.7 497.34 729.77 495.88 729.9 494.67 729.61 493.63 728.63 493.17 727.68 493.14 727.13 493.69 726.76 494.09 726.04 493.37 724.87 492.74 724.34 490.9 724.2 488.62 724 487.01 724.11 486.71 724.43 486.75 725.46 486.58 725.61 486.26 725.38 486.16 724.61 485.72 724.49 485.14 724.69 485.14 724.95 484.39 724.74 483.32 723.98 482.7 723.72 482.01 723.26 481.01 722.72 479.09 721.42 478.65 721.15 478.63 721.14 477.94 720.73 476.79 720.11 475.64 719.42 475.29 719.14 475 718.9 474.34 718.35 474.16 718.17 473.78 717.78 473.05 717.03 472.7 716.66 471.88 715.82 470.8 715.17 470.73 715.12 469.19 714.2 468.19 713.28 467.43 712.59 466.58 711.67 465.35 711.06 464.54 710.65 464.43 710.6 464.07 710.27 463.74 709.98 463.71 709.94 462.97 709.06 462.96 709.05 462.8 708.91 462.11 707.9 460.33 706.64 458.57 705.37 456.99 704.76 456.37 704.45 456.3 704.02 454.53 703.3 453.04 702.35 452.01 701.95 451.42 701.91 449.54 701.23 449.36 701.14 447.83 700.88 447.23 700.51 446.36 699.58 445.53 699.12 445.06 698.88 444.86 698.85 444.31 698.81 442.63 698.79 441.86 698.36 441.38 697.68 440.95 696.49 440.42 695.29 439.75 694.95 439.65 694.23 439.41 693.32 439.14 692.7 438.41 691.9 437.3 691.98 436.06 691.59 435.96 690.68 436.34 690.15 436.16 689.98 435.8 689.25 435.11 688.79 434.19 688.1 432.57 686.72 432.17 686.26 432.17 685.93 431.83 685.21 430.39 683.96 429.72 683.2 428.91 682.72 427.52 682.14 427.15 682.36 426.97 682.27 425.21 681.42 424.31 681.25 424.3 680.51 424.11 679.98 423.39 679.36 422.43 679.12 421.37 679.07 420.85 679.37 418.16 677.87 418.78 677.05 418.01 676.31 417.2 676.38 417.54 676.72 417.06 677.34 416.72 677.05 416.48 676.62 415.86 676.24 415.76 675.81 415.9 675.33 416.48 674.7 416.77 673.6 417.2 672.21 417.47 671.34 417.38 671.22 416.81 670.93 416.45 670.75 415.61 670.45 415.07 670.29 414.84 669.91 414.84 669.53 414.92 668.84 414.76 668.42 414.84 668.37 414.84 668.14 414.46 667.68 414.07 667.15 413.59 666.75 413.07 666.16 411.39 666.45 410.82 666.55 409.23 666.14 408.56 665.97 408.13 665.59 407.51 665.11 405.88 664.92 404.97 664.82 404.01 664.2 403.72 661.89 403.43 661.37 402.66 660.69 401.7 659.83 400.89 659.01 399.69 657.91 399.11 657.24 398.68 656.05 397.6 654.53 397.02 655.19 396.79 655.45 396.61 655 396.5 654.73 395.96 653.99 395.41 653.67 394.98 653.47 394.77 652.81 394.98 651.86 394.87 651.68 394.27 651.41 393.16 650.76 392.68 650.69 392.36 650.65 391.61 650.13 390.95 649.52 390.37 648.98 390.07 648.75 389.56 648.37 389.02 648.14 388.21 648.4 387.61 649.06 386.36 649.34 385.67 649.34 384.6 648.8 383.37 648.49 383.01 648.4 382.45 647.65 381.68 647.25 381.39 646.99 382.14 645.81 382.6 645.7 381.42 644.75 379.83 644.37 378.8 643.28 377.96 643.57 377.7 642.64 378.37 642.07 378.51 640.86 379.09 639.3 378.17 638.55 377.39 638.33 375.8 637.55 373.76 636.68 371.72 636.28 371.33 636.06 370.39 635.53 368.15 633.84 366.33 632.02 364.78 630.35 363.86 629.43 362.56 628.88 360.06 627.36 358.36 625.98 357.53 625.5 356.55 624.94 355.68 623.93 355.14 621.57 355.16 620.71 355.65 619.93 355.88 617.74 355.28 611.73 354.76 610.32 355.51 609.14 356.52 607.47 357.84 605.05 358.47 604.9 359.63 602.83 360.69 602.08 360.72 600.62 360.26 600.28 359.26 600.74 358.53 601.28 358.42 601.36 358.19 601.68 356.11 603.35 355.91 603.87 355.16 604.07 354.16 604.85 353.38 605.91 351.82 607.21 350.87 608.59 350.59 609.37 350.3 612.59 350.64 614.84 351.02 616.56 350.85 616.74 351.08 617.4 351.19 620.22 350.1 620.72 349.49 620.51 348.8 619.87 348.23 619.44 347.85 619.07 347.31 618.23 346.53 617.48 345.06 615.67 345.17 614.49 345.81 613.94 346.07 612.91 345.23 611.96 344.37 611.21 343.19 610.86 343.19 610.37 343.85 610.09 343.16 609.45 341.4 608.44 340.84 607.5 339.54 606.5 339.45 606.45 338.73 605.8 338.38 606.23 337.58 605.65 337.06 604.67 336.26 603.87 335.88 604.04 335.04 603.46 334.55 602.72 333.54 602.28 333.06 602.49 332.39 602.43 331.67 601.68 330.46 600.56 329.95 599.35 329.66 598.95 328.08 597.77 325.95 596.04 323.9 594.77 319.55 593.33 317.42 592.44 316.04 591.49 314.83 590.54 313.57 591.26 311.93 591 309.68 589.65 308.87 588.35 308.54 587.54 308.39 587.35 308.39 586.85 307.06 586.01 305.84 585.62 304.84 585.24 303.92 584.85 302.76 584.47 301.84 584.24 301.15 583.93 300.15 583.47 299.16 583.01 298.67 582.52 297.99 582.39 296.61 582.68 295.26 583.31 294.42 582.62 293.62 582.51 292.84 581.96 292.47 581.24 294.42 582.05 295.4 582.08 295.57 581.76 297.3 581.76 297.85 581.44 298.22 580.52 298.02 578.88 297.19 578.07 296.47 577.53 295.92 576.98 295.29 576.84 294.31 576.35 294.02 576.41 293.67 576.98 294.02 577.82 293.82 578.45 293.79 579.05 293.21 578.97 293.13 578.42 292.75 577.93 292.87 576.95 291.77 576.75 290.54 576.84 289.18 576.87 288.49 576.64 288.48 576.63 287.8 576.18 287.03 575.87 285.91 575.35 282.62 574.04 281.7 573.99 281.06 574.27 280.2 574.04 279.42 573.92 278.45 573.9 273.7 583.95 261.72 578.1 262.53 576.29 262.29 575.03 261.75 574.53 260.89 574.3 260.08 574.33 259.47 574.24 256.36 572.74 254.98 568.52 255.29 567.83 253.98 562.8 254.75 561.46 254.95 561.06 254.56 560.23 253.14 559.23 252.58 558.97 250.88 558.04 249.19 557.78 248.55 557.94 248.49 557.91 248.19 557.86 246.45 557.22 245.11 556.6 243.61 556.18 242.65 556.03 242.45 556.21 240.74 555.84 239.28 555.68 237.83 555.08 235.51 554.3 234.17 553.76 233.68 553.29 232.44 552.96 231.56 552.3 230.9 551.85 230.33 551.46 229.75 551.28 228.87 551 228.7 550.65 228 550.23 225.23 548.81 224.35 548.87 223.08 548.24 222.11 547.75 222.01 547.7 221.71 547.51 221.01 547.05 220.47 546.7 220.25 546.45 219.35 546.28 217.86 545.2 217.05 544.43 216.63 543.82 216.09 542.82 215.13 542.13 214.44 541.63 214.17 540.79 213.52 540.1 211.79 538.68 210.95 537.76 209.53 536.26 208.45 534.53 207.22 532 206.46 530.73 205.19 529.04 203.96 528.35 203.85 527.66 205.5 528.85 207.42 531.19 208.15 532 208.79 532.57 209.21 534.28 209.99 534.72 211.56 536.91 212.71 537.83 215.31 538.48 216.74 539.87 217.36 539.87 217.48 539.58 217.82 538.75 218.47 538.45 219.01 537.6 219.32 534.72 220.43 534.11 220.27 533.42 219.43 533.04 219.08 532.34 219.28 531.85 218.93 530.69 218.62 529.47 218.87 529.05 219.01 528.81 218.16 528.28 216.94 528.12 216.36 528.31 216.01 528.43 214.98 527.85 213.48 527.01 213.07 525.6 211.18 524.52 211.04 524.25 209.3 523.44 208.18 522.75 207.49 522.33 206.76 522.06 205.65 520.94 204.04 519.26 202.08 517.57 200.16 515.07 198.97 513.73 196.13 510.85 195.29 510.39 193.68 509.24 192.22 508.05 191.1 507.17 189.88 506.47 189.34 506.36 188.42 505.86 185.92 503.9 186.34 503.4 184.31 501.25 182.39 502.41 181.47 502.48 181.39 501.29 181.23 500.95 181.12 500.72 179.86 500.89 179.86 501.37 179.24 501.33 179.27 500.85 178.25 500.8 177.18 500.57 174.41 499.87 172.88 499.87 172.83 499.87 172.33 499.6 171.14 499.57 170.15 499.14 168.57 497.61 168.27 496.88 168.84 496.3 169.61 497.26 170.65 498.26 170.91 497.3 170.53 496.65 170.99 495.84 171.03 495.11 170.42 494.77 169.92 493.73 169.84 493.58 169 493.39 168.34 493.46 167.86 493.7 167.12 492.97 166.12 492.35 165.08 492.35 161.66 491.85 159.48 491.35 156.48 490.66 154.37 490.2 152.64 489.28 149.84 488.66 148.23 488.28 146.27 487.24 144.05 485.73 141.23 484.45 141.05 484.37 140.86 482.83 139.67 482.1 139.63 481.14 139.44 480.41 138.75 480.11 138.75 477.88 138.33 477.46 137.87 476.85 137.1 475.77 136.64 475.08 136.21 474.48 134.6 473.7 136.02 473.2 137.37 468.48 137.44 463.56 135.76 459.53 135.06 458.02 134.8 456.69 133.68 454.43 133 453.57 132.72 452.97 129.69 448.59 126.26 444.1 123.01 440.69 121.82 440.07 121.13 438.96 120.29 438.61 118.41 437.69 116.6 437.73 115.41 438.08 114.61 438.5 114.68 437.92 116.3 436.23 116.45 435.27 116.61 434.65 116.21 434.21 115.95 433.93 115.84 435.12 115.34 436.16 114.88 436.35 113.26 437.23 112.07 438.27 110.77 439.65 110.16 440 109.51 439.78 108.48 438.95 107.09 437.57 100.24 430.49 100.36 430.11 100.65 430.11 100.85 430.57 102.06 431.67 102.52 431.7 104.79 429.08 105.86 429.88 106.58 429.02 107.44 429.48 108.42 427.98 104.99 425.51 104.59 426.74 104.19 426.6 104.74 425.06 103.44 424.13 103.18 424.33 100.65 422.45 100.27 422.86 99.9 422.6 100.28 421.94 96.15 419.03 92.59 423.15 96.01 426.05 95.84 426.2 97.85 427.98 97.68 428.21 95.58 426.54 94.77 427.43 96.67 429.19 96.15 429.77 81.27 417.27 81.27 416.99 87.23 416.52 87.23 416.12 85.53 414.62 85.39 414.08 77.93 414.65 76.35 413.27 76.58 412.9 82.37 412.47 82.08 411.52 80.52 410.13 73.24 410.65 73.1 410.65 65.12 403.83 65.55 403.46 65.01 402.62 64.26 401.38 63.05 400.17 61.67 399.6 60.72 399.02 60.63 398.39 59.16 397.38 58.13 396.75 57.38 396.55 56.23 396.29 54.87 395.28 54.07 394.1 53.2 393.26 52.74 392.66 52.31 392.2 52 391.85 52.69 390.9 52.69 389.75 51.79 388.54 50.99 387.65 50.07 386.59 49.46 386.01 47.85 385.58 46.84 385.75 46.58 386.21 46.9 387.08 46.76 387.25 46.07 386.79 45.35 385.81 44.83 385.06 45.58 383.56 46.14 382.43 44.8 380.94 44.08 380.14 43.59 379.45 43.1 378.99 42.55 378.35 42.12 377.63 41.32 376.71 40.25 375.79 37.43 374.47 35.39 373.98 33.86 373.75 30.84 372.83 29.54 371.5 27.73 369.17 26.61 365.57 26.4 364.16 24.71 360.3 22.14 355.01 19.84 352.99 17.59 351.58 15.23 350.37 12.41 348.67 10.69 347.61 9.45 346.43 8.39 346.07 7.46 346.08 6.77 345.42 6.67 344.57 5.76 343.96 5.26 343.36 4.24 342.89 3.21 342.12 2.93 341.86 3.17 341.54 2.04 339.98 1.71 338.85 1.51 338.14 1.06 337.01 1 335.9 1.31 334.52 1.54 333.14 2.15 330.84 2.24 330.64 4.84 325.78 8.32 319.92 9.21 318.42 11.85 314.63 14.42 309.9 18.66 305.2 22.31 299.95 23.87 296.76 30.23 287.64 33.32 281.31 34.53 278.55 34.82 275.61 35.09 274.23 34.31 271.94 34.25 271.76 33.77 269.17 33.26 266.91 33.41 265.98 34.22 264.63 34.25 262.86 34.37 261.23 34.22 259.57 34.41 258.25 34.44 256.98 34.63 255.47 34.51 254.58 34.53 253.19 34.77 252.59 35.47 251.42 36.55 249.67 36.96 250.07 37.75 249.5 37.96 248.61 37.58 248.13 36.57 247.91 35.64 248.01 35.42 247.84 35.59 247.46 36.19 247.48 37.36 247.58 39.79 249.19 40.58 247.94 41.32 246.52 41.66 245.78 43.19 243.26 44.03 241.99 42.88 240.69 41.8 238.89 42.11 238.68 43.82 240.81 45.04 240.31 46.24 239.18 47.39 237.57 44.82 235.13 44.9 234.91 48.42 237.98 49.12 237.45 50.17 236.74 50.79 236.11 52.28 234.57 55.45 232.75 56.8 231.49 58.64 228.42 60.48 225.08 61.09 224.12 60.29 223.66 60.52 223.2 61.48 223.54 63.24 220.66 64.74 217.21 65.7 213.83 66.35 212.64 66.97 211.72 67.31 210.15 66.2 209.8 66.43 209.26 67.58 209.57 69 206.35 71.3 201.7 71.99 199.05 70 199.01 70.11 198.25 71.96 198.29 72.26 196.75 72.57 194.83 73.3 192.11 74.53 188.27 75.18 184.58 76.1 178.4 76.22 172.95 75.99 170.65 75.45 169 75.3 167.77 74.77 164.21 74.56 162.98 74.08 161.18 73.96 160.1 73.67 159.04 73.38 157.6 72.3 155.45 71.29 154.45 70.6 153.38 70.04 151.15 69.54 147.66 69.38 144.82 68.73 141.9 68.04 141.02 66.95 138.05 66.88 137.91 66.65 137.4 65.62 133.46 65.24 132.34 64.63 132.04 64.13 130.62 63.21 129.2 62.82 129.16 62.7 127.32 61.59 124.4 61.21 124.25 60.4 120.71 59.87 117.34 59.15 115.16 58.61 114.4 58.48 114.27 58.18 113.81 57.21 113.28 56.61 112.76 56.68 112.62 56.14 111.77 56.18 110.7 56.45 109.99 56.45 109.6 56.21 108.28 55.61 107.56 55.25 106.36 55.49 105.28 55.61 104.8 55.85 103.84 55.73 102.76 55.45 102.21 54.99 102.48 54.76 101.6 55.13 101.33 55.13 100.76 54.45 100.56 54.19 99.95 54.72 99.87 54.84 99.37 54.22 99.18 54.49 98.61 54.61 97.76 53.53 96.57 53.34 96.03 53.65 95.69 52.92 95.5 52.04 94.81 51.27 93.92 50.08 91.93 49.73 91.27 49.08 90.08 49.08 89.05 49.73 86.48 49.73 86.33 49.61 85.13 49.61 84.05 49.49 82.61 49.49 80.93 49.48 80.75 49.26 79.7 48.97 78.55 48.57 77.68 47.73 75.91 47.59 75.61 47.36 75.17 47.47 74.58 47.08 73.85 45.86 72.04 45.89 71.05 45.46 70.04 44.94 69.13 44.13 68.71 42.81 67.49 42.41 66.28 42.37 65.67 42.56 64.81 42.01 63.56 42.29 61.76 42.28 60.47 41.89 57.37 41.79 56.34 41.6 54.78 40.92 53.29 40.35 52.05 39.54 50.03 38.22 48.67 37.37 47.79 36.68 46.7 34.69 44.97 34.16 44.49 32.88 43.4 32.79 43.3 32.23 42.8 32 41.37 31.6 41.28 31.19 41.39 30.6 40.8 29.6 40.19 28.72 39.38 27.64 38.27 26.8 37.46 25.07 36.58 23.88 35.54 23.61 34.7 22.46 33.93 21.12 32.01 20.39 31.09 19.28 30.17 18.09 29.52 17.64 29.08 16.17 27.41 16.24 26.26 16.59 25.76 17.28 24.87 17.66 23.38 17.97 21.84 18.62 20.88 19.58 19.92 20.54 20 21.12 19.27 21.08 18.35 21.43 17.5 21.69 16.01 21.73 15.09 22.42 14.51 22.62 13.59 22.85 12.9 23.92 12.25 24.8 11.02 25.53 10.25 27.18 9.06 27.68 8.02 28.22 6.26 28.37 4.99 28.87 4.03 29.72 3.23 30.33 3.07 30.68 3.84 31.25 2.46 32.6 1.81 33.44 1.04 34.17 1.31 35.55 1.12 36.82 1 Z"/>
</g>
</svg>