<?xml version="1.0"?>
<svg xmlns="http://www.w3.org/2000/svg" version="1.2" baseProfile="tiny" width="800" height="870" viewBox="0 0 800 870" stroke-linecap="round" stroke-linejoin="round">
<g id="BOL">
<path d="M 752.69 689.12 754.35 685.54 750.18 671.06 753.04 668.5 752.61 667.15 693.34 631.81 633.61 632.15 592.42 642.74 518.16 654.4 505.93 684.32 483.11 715.68 483.64 747.94 458.49 825.47 450.35 819.43 449.75 821.04 448.66 820.42 447.3 817.51 448.55 814.86 447.78 810.04 373.79 809.93 372.28 815.56 370.77 815.95 361.74 836.27 355.92 842.26 353.7 846.62 351.94 852.47 352.09 859.73 350.11 865.71 348.49 866.78 347.11 858.69 341.68 854.02 341.18 847.92 342.51 845.13 332.62 834.72 332.26 830.85 334.01 828.83 327.01 822.52 320.81 822.53 304.95 815.42 272.36 816.25 266.17 814.83 260.77 817.05 254.3 816.88 243.09 805.29 235.41 804.24 235.69 801.36 233.07 798.63 223.69 795.39 222.12 796.41 222.77 799.96 219.57 809.06 219.15 815.29 216.4 817.57 189.7 825.28 186.84 837.96 177.42 841.58 174.55 844.6 171.21 844.77 171.7 852.07 164.57 856.41 160.94 862.58 135.03 868.58 120.47 867.1 115.14 863.96 114.46 856.46 116.91 845.62 110.48 830.85 112.22 825.75 110.1 820.57 110.71 815.71 102.71 808.16 103.2 794.2 95.31 783.46 95.62 763.58 80.64 740.03 73.11 739.67 71.02 736.22 70.89 726.13 78.1 719.97 62.42 711.16 57.33 704.21 58.26 702.37 63.4 699.73 60.14 694.19 60.68 687.76 56.27 686.57 55.71 683.84 70.2 681.39 72.54 673.69 72.16 668.13 67.11 666.51 61.61 661.32 66.11 658.54 67.84 654.71 69.74 654.01 80.21 639.56 48.9 615.78 44.11 608.92 47.24 604.65 42.74 596.39 37.98 572.16 38.92 568.45 32.2 557.45 36.79 551.57 21.84 543.9 21.06 534.09 18.67 528.6 11 521.28 10.27 514.26 10.91 506.16 1 500.09 1.9 495.64 11.28 488.35 13.51 488.85 16.69 486.64 15.57 482.89 20.45 479.35 20.64 477.29 29.35 467.96 30.29 463.87 41.38 459.44 39.18 453 42.45 444.27 53.49 438.02 43.73 428.24 34.78 430.24 25.8 425.25 14.12 390.96 23.93 372.24 27.43 370.47 29.11 367.38 33.02 367.03 28.77 360.94 22.94 357.6 17.3 348.87 16.7 347.2 18.53 342.77 17.48 337.34 25.29 334.01 26.49 322.87 31.51 322.91 31.28 317.89 42.62 309.98 41.53 304.29 42.51 300.12 51.75 298.37 49.12 288.83 43.59 283.23 43.94 276.37 41.29 271.43 42.1 269.37 36.31 261.86 41.47 261.75 40.9 258.76 42.93 256.97 45.12 250.81 45.29 235.6 43.48 231.87 45.03 221.72 43.26 218.96 43.84 209.17 51.66 202.48 51.15 201.05 57.69 200.54 59.17 197.35 56.43 195.83 56.77 193.43 62.43 187.44 46.27 152.87 4.11 84.77 12.83 84.47 15.5 82.96 50 89.18 51.75 87.46 55.3 86.96 57.66 88.05 56.16 91.51 56.48 96.72 68.37 94.86 72.88 90.77 79.73 90.32 82.8 87.78 88.34 86.75 99.41 71.81 99.12 69.65 105.59 65.33 119.35 65.45 125.63 68.36 127.63 63.21 131.06 61.25 133.63 56.31 143.5 51.5 145.38 46.36 151.11 46.54 151.9 42.73 157.23 42.48 160.39 44.23 163.46 42.49 163.73 40.85 170.68 38.66 172.26 34.74 186.16 23.3 197.33 17.69 197.78 14.96 211.36 13.67 227.65 7.86 234.02 7.02 237.03 9.28 246.62 5.99 247.43 8.43 258.68 5.48 266.93 11.1 267.3 9.25 270.58 8.44 271.86 3.45 275.41 1 279.12 2.13 284.87 12.17 282.43 17.88 285.51 36.3 283.66 41.48 279.36 45.95 278.78 50.45 275.59 53.46 276.9 61.18 275.99 64.21 279.28 66.09 277.96 75.41 283.25 79.35 284.9 86.33 281.8 90.5 283.04 94.51 278.25 98.58 278.64 105.3 284.26 120.41 289.6 121.84 292.32 132.21 290.68 136.54 295.04 138.61 295.61 134.39 296.92 133.41 296.53 136.29 300.77 137.29 304.35 153.23 317.16 155.57 321.95 163.93 324.72 159.74 326.58 165.5 335.44 169.13 337.62 168.34 338.75 172.91 337.17 177.26 345.02 183.92 350.27 184.37 351.3 186.84 355.43 184.51 359.58 187.98 361.78 186.02 373.69 189.84 378.44 185.46 383.17 183.28 388.43 183.32 399.43 189.53 403.54 189.84 407.18 196 413.75 199.54 418.94 200.16 419.88 198.32 425.68 195.49 429.78 196.13 435.43 209.04 440.22 209.32 450.65 220.4 456.56 216.6 459 221.62 464.49 223.73 470.34 223.49 476.68 228.45 486.26 226.67 493.71 228.67 493.74 235.78 509.65 247.97 512.37 254.32 527.18 252.22 534.59 255.29 544.83 249.98 550.13 253.39 557.33 253.09 558.16 250.09 561.95 249.34 564.62 250.26 563.44 250.88 563.62 254.45 568.96 254.29 569.74 257.08 580.09 263.96 601.42 271.5 603.15 280.16 607.28 284.07 602.7 290.6 600.51 296.47 603.09 304.75 606.64 308.76 606.01 312.15 610.01 317.47 611.6 324.13 613.97 325.13 615.33 356.8 595.02 357.1 616.65 381.46 620.77 433.23 732.52 437.18 735.18 436.88 739.03 434 743.12 433.56 742.32 440.72 740.08 444.7 741.55 447.13 741.07 451.42 735.9 455.05 732.73 461.94 732.55 477.49 736.37 484.46 735.28 487 737.73 490.99 737.52 494.44 746.64 504.76 753.56 507.16 763.26 515.62 769.86 511.71 776.34 515.73 777.54 523.88 782.15 529.68 783.82 535.97 782.29 536.22 791.81 556.11 799 562.14 792.33 564.42 779.41 603.49 778.58 606.45 781.79 607.17 782.56 615.04 777.19 616.16 755.38 661.02 773.31 676.91 770.23 681.11 766.1 680.26 752.69 689.12 Z"/>
</g>
</svg>