<?xml version="1.0"?>
<svg xmlns="http://www.w3.org/2000/svg" version="1.2" baseProfile="tiny" width="800" height="796" viewBox="0 0 800 796" stroke-linecap="round" stroke-linejoin="round">
<g id="BRA">
<path d="M 281.42 1 282.15 1.77 283.28 1.43 284 3.36 286.36 4.99 285.1 10.32 285.12 12.42 284.24 13.25 283.96 14.56 282.51 15.12 282.41 16.13 283.47 16.42 284.08 15.91 284.34 16.66 287.22 16.37 287.66 17.2 290.19 17.8 292.43 19.08 291.3 20.81 291.31 22.85 293.3 23.94 292.75 25.16 295.59 27.97 294.33 28.96 294.38 30.3 294.02 30.71 292.54 31.29 292.58 32.79 290.49 34.42 288.89 34.82 288.52 35.59 289.72 37.01 289.26 38.47 289.84 39.88 288.39 41.6 287.58 43.09 287.73 44.62 286.57 45.82 286.65 47.3 285.91 50.66 285.95 53.57 287.62 58.03 287.82 60.03 289.81 61.56 291.35 61.83 290.86 70.57 292.78 70.54 293.05 71.03 292.31 71.7 292.48 72.27 293.51 72.97 294.93 72.99 298.31 77.21 299.38 77.4 300.95 79.73 302.93 80.73 307.85 81.74 308.3 82.38 308.06 83.06 310.25 84.25 311.49 83.61 312.29 81.95 314.47 82.31 315.23 81.96 316.13 82.44 316.94 81.35 316.32 78.5 318.68 78.24 318.7 76.9 319.85 75.81 321.48 76.56 323.06 76.46 323.81 77.61 326.28 77.63 326.46 74.28 328.1 74.68 330.18 74.01 331.13 73.2 333.79 73.78 335.73 73.56 337.99 69.6 340.31 67.75 342 68.57 345.08 67.03 346.58 69.13 348.56 69.13 350.89 70.23 352.45 69.1 353.41 69.23 354.37 68.69 355.73 69.26 357.4 68.65 359.08 69.04 359.87 68.69 361.73 69.71 363.34 69.67 367.28 70.9 368.99 69.85 368.96 66.64 366.2 63.86 366.19 62.85 364.45 62.12 365.34 60.3 366.28 60.44 367.28 59.22 367.44 56.94 368.23 56.63 371.89 58.39 372.49 59.29 377.75 58.45 379.97 59.16 380.7 56.95 382.67 57.39 383.94 55.98 384.75 55.75 385.45 56.83 388.76 54.59 388.16 56.15 390.31 58.53 391.07 58.66 392.96 57.8 393.87 58.29 393.15 59.31 393.6 60.62 395.8 60.57 396.93 60.77 397.09 61.06 397.21 61.26 397.38 61.56 397.38 61.56 397.49 61.76 397.04 61.84 396.86 61.87 397.07 62.05 398.2 63.03 398.8 63.23 400.58 63.85 401.05 64 401.09 64.02 402.5 64.5 402.93 64.47 403.19 64.45 403.21 64.44 403.21 64.44 403.61 64.41 404.28 64.35 405.04 65.11 405.55 65.01 405.75 64.97 405.97 64.63 406.16 64.34 406.16 64.33 406.7 63.49 407.13 63.66 407.51 63.82 407.7 63.72 407.7 63.72 409.18 62.97 409.18 62.75 409.18 62.57 409.18 62.57 409.18 62.24 409.18 61.92 409.51 61.89 409.56 61.89 409.7 61.87 409.7 61.87 409.71 61.87 410.29 61.83 410.92 61.3 411.4 60.89 412.26 60.17 412.26 60.17 412.37 60.07 412.37 60.07 412.63 59.85 413.03 60.09 413.03 60.1 413.22 60.2 413.37 60.29 413.53 60.39 413.6 60.43 413.63 61.05 413.97 61.17 414.25 61.27 414.6 61.39 414.61 61.39 414.98 61.52 415.8 61.81 416.19 61.94 416.45 62.03 416.98 62.21 417.35 62.34 418.8 62.24 418.82 62.24 419.06 62.07 419.71 61.61 419.96 61.43 420.1 61.33 420.33 61.16 421 60.69 421.45 60.37 421.75 60.59 421.93 60.73 423.26 61.71 423.69 62.03 423.57 62.21 423.38 62.52 422.64 63.72 423.26 63.17 424.91 63.02 425.04 63.01 425.29 62.98 425.37 62.98 425.45 62.97 426.36 62.88 426.85 63.13 426.87 63.15 427.48 63.45 428.2 63.82 428.43 63.93 428.59 64.02 429.44 63.82 429.45 63.82 430.22 63.64 430.24 63.6 430.53 63.05 430.61 62.91 430.77 62.62 430.77 62.61 430.83 62.51 430.87 62.42 431.03 62.14 431.03 62.14 431.26 61.71 431.56 61.57 431.56 61.56 431.73 61.49 431.81 61.45 432.72 61.02 432.76 61 432.84 60.96 433 60.89 433.31 60.74 433.6 60.6 433.73 60.54 434.02 60.4 434.02 60.4 435.17 59.86 435.18 59.83 435.79 58.45 435.81 58.41 435.81 58.39 436.05 57.85 436.06 57.84 437.05 57.15 437.37 56.92 437.41 56.9 437.85 55.61 437.69 55.13 437.69 55.13 437.4 54.23 438.38 52.92 438.41 52.88 438.63 52.6 438.84 52.14 438.86 52.11 440.21 49.28 440.25 49.2 440.69 48.29 440.77 48.12 441.14 47.33 441.14 47.33 441.91 45.74 441.93 45.68 441.8 45.29 441.63 44.81 441.57 44.61 441.65 44.37 441.7 44.25 441.92 43.63 442.77 42.44 443.31 41.96 443.55 42.16 443.76 42.33 444.83 41.02 448.65 34.66 448.65 34.66 448.72 34.55 448.85 34.33 448.85 34.32 448.87 34.28 449.17 33.14 449.31 32.63 449.48 32.58 449.48 32.58 449.5 32.58 449.8 32.49 449.89 32.46 449.95 32.44 450.09 32.4 450.21 32.37 450.22 31.72 450.22 31.63 450.22 31.24 450.27 31.19 452.23 29.51 452.38 29.39 452.65 29.15 453.07 28.15 453.08 28.14 453.62 26.84 454.04 26.59 454.06 26.58 454.96 26.05 455.54 25.7 455.93 24.48 455.94 24.47 456.05 24.13 456.08 24.1 456.47 23.17 456.82 22.38 457.06 21.83 457.76 22.71 458.2 23.26 457.45 20.67 457.82 18.66 458.24 18.98 460.72 20.89 460.94 21.05 462.11 21.95 462.87 22.79 464.62 24.75 464.87 25.04 465.45 26.69 465.45 27.19 465.45 27.25 465.45 27.44 465.46 30.97 465.46 31.49 465.8 31.43 466.18 29.92 466.55 28.4 467.4 29.44 467.39 30.22 467.39 30.6 467.39 31.18 467.38 31.9 467.37 33.53 467.37 33.97 467.37 34.38 467.36 35.44 467.38 35.59 467.95 41.35 468.35 42.16 468.78 43.01 468.77 43.34 468.72 44.7 469.19 45.84 469.65 46.96 469.88 47.52 469.9 47.58 470.13 48.14 470.54 49.13 470.75 49.64 470.7 50.65 471.01 51.1 471.52 51.84 471.58 51.92 471.92 52.42 471.87 53.41 472.11 53.56 472.56 53.83 472.58 56.81 472.86 57.17 473.75 58.29 474.35 59.04 474.37 59.6 474.39 60.2 474.41 60.7 475.23 61.91 475.58 62.43 475.46 64.67 477.44 65.6 477.43 66.1 477.4 67.17 478.75 68.53 478.82 68.73 479.62 71.03 480.58 71.46 480.98 71.63 481.43 71.52 482.22 71.31 482.56 71.22 483.09 71.09 485.39 71.66 486.46 72.16 490.02 73.84 490.15 74.24 490.2 74.39 490.76 76.15 490.93 76.68 491.77 79.29 491.46 80.36 491.01 81.93 489.06 83.01 487.85 83.67 488.48 83.94 489.6 83.57 490.1 83.41 491 83.11 491.04 83.21 491.38 84.03 490.58 85.73 489.11 86.41 488.79 86.56 487.64 87.81 486.67 88.86 483.99 90.42 483.75 90.56 483.21 91.7 482.79 92.62 482.71 92.77 482.62 92.97 482.45 93.34 481.83 93.75 481.57 93.91 480.92 94.34 480.01 94.94 479.63 95.67 479.08 96.71 478.92 97.01 478.81 97.23 478.28 98.23 478.14 98.5 477.46 99.79 477.15 100.4 473.58 104.21 473.35 104.45 473.17 104.47 470.84 104.71 469.27 105.85 468.32 107.32 468.2 107.52 467.43 108.7 467.36 108.81 467.2 109.06 467.06 109.08 464.85 109.31 464.13 110.29 463.04 111.79 462.59 112.75 461.8 114.44 461.57 114.94 461.52 115.03 461.04 116.06 460.91 116.34 460.44 116.57 460.64 117.14 461.1 116.72 462.36 115.59 462.71 114.74 463.02 113.96 463.07 113.84 463.22 113.49 463.53 112.72 464.05 112.18 465.14 111.04 465.49 111.1 466.71 111.32 466.49 112 465.94 113.65 465.84 113.96 464.31 115.43 463.49 116.23 462.59 116.76 460.85 117.8 460.91 118.21 461.88 117.9 464.03 117.21 463.95 117.3 463.83 117.44 463.72 117.57 463.43 117.9 463.19 118.19 463.69 118.36 464.34 117.89 465.62 116.97 466.04 116.48 467.45 114.87 468.35 113.04 468.53 111.87 468.62 111.3 469.93 109.41 470.25 109.38 471.48 109.26 472.28 109.18 472.56 109.15 473.73 108.65 474.52 108.32 474.83 108.18 475.84 108.18 475.99 108.45 476.19 108.81 476.71 109.73 476.85 109.97 475.87 111.14 474.41 112.89 474.19 113.16 473.56 115.31 474.05 116.91 472.13 118.9 469.21 120.06 467.94 122.07 469.11 121.22 470.19 120.44 470.57 120.16 471.69 119.79 472.87 119.41 472.99 120.34 473.17 121.75 474.14 120.01 474.41 119.51 474.67 119.76 475.4 120.48 474.71 118.57 474.59 118.23 475.11 116.63 475.64 115.06 476.06 113.8 476.7 113.07 477.37 112.31 477.7 111.93 478.61 111.59 479.41 111.3 479.57 111.24 481.01 110.1 482.49 109.93 482.63 109.92 482.8 109.99 482.86 110.02 483.27 110.19 483.3 110.2 484.19 110.59 484.5 110.72 485.5 110.76 486.15 110.78 486.21 110.78 486.81 110.81 487.1 110.82 488.94 111.27 489.34 111.37 493.2 112.32 494.51 112.64 495.32 112.84 495.71 112.94 496.33 113.09 496.85 113.22 497.26 113.18 497.44 113.16 498.96 113.02 499.41 112.98 500.61 112.87 501.01 112.62 501.44 112.34 502.07 111.94 502.35 111.77 502.6 111.61 503.1 111.29 503.72 111.19 503.91 111.16 505.09 110.97 505.33 110.93 505.89 110.83 506.06 110.86 506.55 110.94 506.68 110.96 506.73 110.97 507.37 111.08 507.53 111.1 508.25 111.22 509.21 111.38 509.36 111.4 510.07 111.52 510.47 111.8 510.63 111.9 510.8 112.02 511.84 112.75 511.96 112.72 512.31 112.65 512.4 112.63 512.89 112.52 513.04 112.49 513.41 112.41 513.56 112.38 514.04 112.51 514.35 112.6 514.54 112.65 514.87 112.74 515.89 113.03 516.07 113.07 516.54 113.21 516.67 113.1 516.68 113.08 517.03 112.77 519.19 113.06 521.67 113.4 521.98 113.44 522.32 113.91 522.66 114.35 522.53 115.94 521.91 116.52 521.67 116.73 521.49 116.9 521.4 116.98 520.71 118.63 520.68 119.15 520.67 119.25 520.67 119.33 520.65 119.69 520.6 120.67 520.43 121.02 520.32 121.28 520.21 121.51 520.09 121.78 520.13 122 520.26 122.75 520.34 123.24 520.09 123.48 519.83 123.72 519.45 124.09 519.44 124.69 519.44 125.73 519.43 126.04 519.11 126.81 518.39 127.16 517.52 127.58 517.18 128.34 517.25 128.61 517.32 128.93 517.43 129.41 517.49 129.62 515.79 130.99 515.37 131.33 515.16 131.88 514.94 132.5 514.59 133.45 513.22 137.17 513.19 137.25 513.08 137.54 513.01 137.75 512.77 137.8 512.42 137.88 511.96 137.98 511.92 138.02 511.64 138.26 511.64 138.27 511.2 138.66 511 138.84 510.75 139.07 508.85 139.59 506.95 140.11 506.54 140.22 506.42 140.25 506.42 140.27 506.27 140.58 505.98 141.22 503.58 141.35 502.6 141.41 502.24 141.43 501.5 141.47 501.33 141.48 500.84 141.5 500.58 141.52 500.06 142.34 500.1 142.45 500.17 142.66 500.27 142.97 499.52 143.57 499.41 143.55 498.35 143.36 497.28 143.17 495.62 144.05 495.32 144.22 495.03 144.37 493.94 144.95 493.8 145.03 493.35 145.27 492.56 144.88 491.75 144.47 491.43 144.31 490.85 144.02 490.52 143.85 490.27 143.72 489.98 143.75 489.19 143.81 489.03 143.62 488.63 143.13 487.99 143.44 486.57 144.14 486.27 144.28 485.7 144.56 485.26 144.5 484.69 144.42 484.12 144.34 483.71 144.74 483.46 144.99 483.31 145.13 481.4 145.55 481.21 145.59 480.94 145.65 480.88 145.66 480.96 146.19 481.07 146.91 481.17 147.57 482.05 147.62 482.57 147.25 482.76 147.12 483.34 146.7 484.11 146.15 484.58 146.14 486.38 146.09 486.38 146.09 488.18 145.58 489.46 145.22 489.79 145.41 489.96 145.5 492.51 146.96 493.8 146.78 494.26 146.72 494.93 146.47 495.67 146.21 495.72 146.15 497.16 144.62 497.8 144.46 500.38 143.83 504.07 142.92 504.17 143.76 504.21 144.07 504.25 144.38 503.59 145.17 503.52 145.25 502.44 146.54 502.25 146.76 502.2 146.95 501.81 148.44 501.89 150.2 501.9 150.49 501.73 150.87 501.3 151.82 501.9 152.13 502.6 151.45 502.62 151.43 503.76 150.3 504.97 148.44 506.98 145.34 506.99 145.12 506.99 145.11 507.05 144.18 508.09 143.6 508.18 143.56 508.26 143.51 508.53 143.11 509.48 141.74 510.24 140.64 510.56 140.55 510.81 140.48 511.48 140.3 511.79 140.21 511.82 140.37 511.92 140.93 511.78 141.14 510.61 143.04 511.09 143.81 511.76 143.68 511.83 143.37 511.89 143.08 511.95 142.79 512.02 142.45 512.63 141.76 512.74 141.63 514.51 139.63 515.06 139 515.54 138.46 515.66 138.33 515.64 137.96 515.63 137.72 515.62 137.6 516.51 136.35 516.7 136.09 516.83 136.21 517.24 136.58 517.29 136.63 518.01 137.28 517.64 136.18 517.57 135.99 517.63 135.7 517.78 134.92 517.81 134.77 517.94 134.76 518.4 134.71 518.67 134.68 518.75 134.76 518.78 134.79 519.39 135.42 519.33 136.02 519.11 138.05 519.96 139.79 520.28 139.66 521.7 139.06 521.97 138.95 522.25 138.83 523.56 138.28 523.45 137.67 519.76 138.12 520.2 134.47 520.24 134.14 520.9 133.36 521.34 132.86 521.47 131.97 521.26 132.24 521.13 132.4 520.87 132.07 520.38 131.46 521.5 130.32 521.92 129.89 522.28 129.89 522.58 129.88 523.28 129.88 523.36 130.42 523.37 130.54 523.38 130.63 524.32 130.79 524.34 130.79 524.39 130.8 524.03 129.59 523.99 129.45 523.7 128.46 523.62 128.17 523.87 127.47 524.21 126.94 525.25 125.3 526.01 125.07 526.09 125.05 526.47 124.93 526.8 124.83 527.08 124.16 527.29 123.63 527.4 123.37 527.8 122.96 527.94 122.82 528.27 122.47 528.78 121.95 528.94 121.78 529.46 121.88 529.6 122.99 530.04 123.07 530.71 121.33 531.48 120.86 531.66 120.75 532.1 119.74 532.23 119.45 532.92 120.32 532.93 120.33 533.25 120.72 533.57 120.1 533.88 119.51 533.98 119.33 533.98 119.32 534 119.32 534.26 119.5 534.6 119.72 534.81 119.86 535.01 119.76 535.23 119.64 535.67 119.41 536.11 119.17 536.01 120.2 536.76 119.81 536.84 119.77 537.53 120.57 537.36 121.41 537.47 121.68 537.79 122.45 538.22 121.71 538.4 121.39 538.56 121.11 538.6 120.64 538.63 120.34 538.67 119.85 539.21 120.29 539.5 120.53 540.22 122.34 540.33 122.61 540.4 122.81 540.72 123.59 541.69 123.63 542.32 123.65 541.65 122.91 541.52 122.77 541.43 122.66 541.18 122.4 540.97 122.16 540.95 121.2 540.95 121 540.94 120.47 540.93 120.27 541.84 120.28 542.29 120.28 542.29 120.36 542.26 121.32 543.34 120.73 543.56 120.61 543.68 120.54 543.82 120.46 544.35 120.17 544.73 120.83 544.89 121.12 544.97 121.27 545.27 121.79 545.79 121.52 545.46 120.98 545.45 120.97 545.39 120.87 545.86 120.98 546.23 121.07 546.25 121.13 546.57 121.8 546.17 121.98 545.88 122.11 545.75 122.17 545.3 122.37 545.45 122.4 545.69 122.47 545.84 122.5 547.31 122.88 547.31 122.9 547.6 124.26 547.35 124.54 547.15 124.77 547.48 124.48 547.52 124.44 547.71 124.28 547.69 124.13 547.69 124.04 547.65 123.6 547.6 122.98 548.22 121.81 548.77 121.64 548.82 122.16 548.82 122.19 548.84 122.39 548.93 123.43 549.04 124.58 549.09 125.04 550.09 123.67 550.28 123.41 551.08 122.31 551.43 122.34 551.41 122.84 551.37 123.71 551.65 124.15 551.81 124.4 551.89 124.53 552.07 124.81 551.94 125.35 552.63 125.88 552.64 125.65 552.64 125.4 552.64 125.18 552.66 124.25 553.27 123.55 553.51 123.27 553.99 122.72 554.07 122.63 554.69 123.37 554.58 123.65 554.57 123.67 554.56 123.71 554.36 124.21 553.84 124.36 553.94 124.73 554 124.94 554.1 125.29 554.53 124.78 554.67 124.61 554.54 125.72 554.49 126.16 554.95 126.61 555.25 126 555.5 125.48 555.98 125.6 556.35 125.69 555.96 126.96 555.83 127.39 556.05 126.87 556.43 125.95 556.66 125.41 556.76 125.17 556.79 125.09 557.11 125.03 557.59 124.94 558.12 124.83 558.66 125.62 558.62 126.05 558.53 126.86 558.25 127.12 557.99 127.37 557.73 127.37 557.11 127.36 557 127.82 557.28 127.94 557.6 128.07 557.94 128.21 558.11 128.28 558.82 127.73 558.93 127.65 559.05 127.55 559.16 127.47 559.32 128.09 559.23 128.17 558.98 128.4 558.74 128.61 558.56 128.77 559.1 128.57 559.47 128.44 559.65 128.37 559.76 128.55 560.08 129.09 560.14 129.09 561.45 129.1 561.82 129.1 562.4 129.11 562.73 128.94 563.39 128.61 563.54 129.39 563.55 129.44 563.63 129.82 563.69 130.14 563.71 129.98 563.78 129.53 563.79 129.46 563.79 129.43 563.87 128.86 564.25 129.18 564.68 129.55 565 128.85 565.85 126.93 567.13 126.79 567.43 127.2 567.08 127.54 567.01 127.61 566.66 127.97 566.63 128.83 566.63 128.93 566.62 129.2 566.58 130.58 566.91 130.37 567.17 130.21 567.56 128.82 567.97 129.19 567.13 130.89 567.08 130.99 566.85 131.46 567.21 131.46 567.23 131.47 567.38 131.47 567.51 131.31 568.65 129.9 568.95 130.37 569.38 131.05 569.5 131.24 569.01 131.94 568.87 132.15 568.39 132.83 568.26 133.02 568.16 133.16 568 133.39 569.23 133.01 569.78 131.76 570.41 130.32 570.48 130.29 570.66 130.2 571.13 129.98 571.59 130.23 571.62 130.46 571.69 131.2 571.73 131.53 570.77 131.62 570.77 132.15 570.77 132.4 570.77 132.59 571.8 131.77 571.64 132.78 571.61 133 571.5 133.67 571.63 133.42 571.91 132.9 572.44 131.91 572.66 131.5 572.77 131.28 573.04 131.88 573.07 131.94 573.2 132.24 573.45 132.81 573.49 132.9 573.52 132.97 573.65 133.25 573.22 134.08 573 134.51 573.51 134.27 573.82 133.25 573.94 132.84 573.96 132.79 573.98 132.7 574.07 132.63 574.08 132.62 574.25 132.49 574.71 132.12 574.7 132.42 574.7 132.63 574.68 133.31 574.61 133.44 574.41 133.82 574.22 134.19 573.97 134.66 574.3 134.93 574.66 135.23 574.21 134.6 574.76 134.16 575.07 133.9 575.26 133.47 575.46 133 575.89 132.02 575.94 131.9 576.11 131.52 576.89 131.68 576.01 133.63 576.12 133.68 576.8 134.06 576.66 134.86 576.63 135.02 576.74 135.7 576.82 136.15 576.82 136.15 576.9 136.65 577 137.26 577.08 137.74 577.02 137.1 576.99 136.8 576.97 136.61 576.94 136.27 577.83 136.16 578.27 136.1 578.44 134.96 578.56 134.21 579.21 134.29 579.51 134.33 579.97 134.38 579.97 134.41 579.99 135.01 580 135.32 580.01 135.54 580.48 135.07 580.71 135.31 580.66 135.6 580.45 136.65 580.05 136.7 579.58 136.77 580 137.05 580.07 137.1 580.19 137 580.2 136.99 580.86 136.44 581.03 136.3 581.2 136.17 581.43 135.63 581.69 135.06 581.86 134.67 581.89 134.6 582.42 134.58 582.47 134.58 582.73 134.57 582.7 134.79 582.59 135.73 582.37 135.82 582.12 135.91 581.98 135.97 581.92 135.99 581.58 136.12 581.44 136.5 580.87 137.99 580.82 138.14 581.04 138.53 581.12 138.66 581.19 138.78 581.53 139.39 581.59 139.49 581.71 139.69 581.8 138.87 581.91 137.82 582.46 137.28 582.38 137.87 582.35 138.13 582.53 137.85 582.8 137.45 582.95 137.22 583.42 136.51 583.93 135.74 583.88 135.57 583.74 135.16 584.55 135.04 584.98 137.17 584.92 137.22 584.71 137.39 584.46 137.6 584.09 137.9 583.57 138.33 583.11 138.72 583.04 138.77 583.1 138.74 583.81 138.32 583.39 139.67 583.71 139.86 584.26 140.19 584.18 140.55 584.13 140.78 584.05 141.11 583.83 142.09 583.71 142.64 583.58 143.25 584.26 143.88 584.96 143.8 585.42 143.75 585.52 143.17 585.54 143.07 585.58 142.83 586.57 142.58 586.33 142.03 585.96 141.21 585.81 140.89 585.94 140.6 586.28 139.83 587.87 138.22 587.98 138.23 588.69 138.36 588.9 138.4 589.35 138.48 589.94 138.58 590.59 138.7 591.15 138.8 591.65 139.54 591.77 139.72 591.03 140.34 590.85 140.49 591.16 140.57 592.04 139.79 592.04 139.63 592.08 138.69 592.46 138.39 593.93 137.21 594.04 138.67 593.29 139.31 592.8 139.72 592.67 139.83 592.73 140.62 592.76 141.01 592.35 140.92 592.07 140.87 592.8 141.75 592.26 141.89 591.78 142.01 592.91 141.92 592.63 141.17 593.04 141.06 593.11 141.04 593.46 140.95 593.69 141.18 594.11 141.59 594.28 141.76 594.5 141.97 594.53 142.01 594.56 142.04 594.65 142.12 594.75 142.22 594.68 142.12 594.58 141.98 594.52 141.89 594.48 141.83 594.32 141.6 594.07 141.24 594.14 141.03 594.37 140.32 594.76 140.57 595.02 140.95 595.32 141.4 595.14 141.75 594.96 142.09 595.19 142.89 595.3 143.29 595.53 143.3 595.6 143.31 595.66 143.31 595.96 143.32 596.78 143.36 597.01 143.37 596.69 143.89 596.44 144.28 595.34 144.92 595.27 144.96 594.8 145.23 596.92 145.05 597.17 145.03 597.32 145.02 597.72 144.99 597.83 144.38 598.02 143.39 598.03 143.35 598.33 143.46 598.75 143.62 599.2 143.79 598.97 144.06 598.45 144.65 598.41 144.7 598.41 144.91 598.39 145.41 598.38 145.5 598.64 145.5 599.07 145.5 599.28 145.5 599.78 145.51 600.25 145.51 600.44 145.51 600.57 146.21 600.28 146.39 599.26 147.05 599.99 147.04 600.96 147.02 601.63 148.93 599.6 149.49 599.21 149.59 599.01 149.65 599.28 149.61 599.46 149.59 599.67 149.56 600.4 149.46 601.09 149.37 601.34 149.34 601.66 149.29 601.83 149.27 601.98 149.25 601.85 149.34 600.62 150.31 600.24 150.61 599.73 151.39 599.48 151.78 599.35 151.97 599.28 152.07 599.29 152.13 599.38 152.52 598.3 153.7 597.56 154.5 597.57 154.79 597.62 156.11 598.29 156.5 597.94 155.6 598.13 155.3 598.76 154.33 598.93 154.17 599.48 153.63 599.56 153.55 600.01 153.11 600.14 152.99 600.48 152.66 601.47 151.7 602.64 152.65 602.67 152.67 603.27 153.16 603.37 153.25 603.44 153.45 603.52 153.69 603.84 154.64 604.21 155.71 604.04 156.03 603.88 156.32 603.32 157.38 602.7 157.35 602.54 157.35 602.09 157.33 601.8 157.32 601.69 157.24 601.03 156.73 600.29 157.05 600.6 156.97 601.09 156.84 601.49 157.34 601.28 157.66 601.03 158.02 601.2 158.59 600.7 159.3 600.59 159.47 600.07 159.53 599.71 159.57 599.47 160.24 599.42 160.37 599.06 160.59 597.95 161.29 599.63 160.33 600.33 159.93 599.36 162.03 598.68 163.5 598.09 164.79 598.2 165.7 598.2 165.76 598.27 166.31 597.72 167.3 597.49 167.72 597.56 168.28 597.63 168.94 597.71 169.64 598.02 169.74 599.11 170.09 597.6 171.97 596.89 172.86 596.83 172.93 596.4 173.04 595.34 173.3 595.45 174.18 595.59 175.27 595.63 175.62 596.51 175.4 596.39 175.08 596.32 174.89 596.32 174.87 596.14 174.36 596.07 174.16 595.95 173.84 596.21 173.69 596.96 173.24 597.41 173.24 597.88 173.24 598.2 173.24 598.54 172.55 599 171.62 599.26 171.42 599.84 170.99 600.37 170.6 600.44 170.54 600.53 170.47 600.88 170.22 601.41 169.82 602.09 168.95 602.71 168.15 603.03 165.56 603.05 165.33 603.1 164.96 603.5 163.66 603.91 162.34 604.02 162 603.98 162.94 603.96 163.27 603.96 163.31 603.95 163.48 603.95 163.63 603.94 163.87 603.93 164.03 603.92 164.21 604.12 163.68 604.17 162.83 604.19 162.34 604.22 161.93 604.26 161.22 603.87 160.54 603.8 160.43 604.25 159.94 604.49 159.67 605.27 158.82 606.67 158.71 608.02 158.01 608.49 157.77 608.9 157.55 609.23 157.38 609.39 157.3 609.59 157.19 610.44 157.14 610.93 157.11 611.09 157.1 610.95 157.83 610.88 158.2 610.1 158.32 610.09 158.32 609.47 158.41 609.3 158.44 609.47 158.42 610.09 158.33 610.14 158.32 610.19 158.41 610.31 158.61 610.68 159.27 610.79 159.45 610.48 160.32 610.08 160.4 609.48 160.52 609.31 160.93 609.15 161.27 608.49 162.78 608.14 162.97 607.65 163.24 607.25 163.46 606.92 163.65 604.84 164.8 604.47 165.01 604.42 165.97 604.56 165.47 604.7 164.98 605.35 165.31 605.57 165.42 605.77 165.14 606.04 164.77 606.08 164.71 607.75 164.5 607.87 165.47 607.65 165.79 607.45 166.06 607.41 166.13 607.25 166.35 608.04 165.92 609.45 164.23 609.47 164.21 610.38 163.12 611.41 161.88 612.85 160.17 613.88 162.11 613.84 161.47 613.8 160.66 613.94 160.58 614.1 160.5 614.29 160.4 614.91 160.07 615.51 160.3 616.4 159.36 616.63 159.1 617.02 158.7 617.13 158.87 617.51 159.42 617.44 159.59 617.29 159.93 617.53 159.72 617.6 159.66 618.12 159.21 618.31 159.04 618.55 158.83 618.63 158.89 619.03 159.23 619.13 159.31 619.24 159.4 619.26 159.56 619.33 160.02 619.42 160.65 619.47 160.97 619.49 160.66 619.57 159.45 619.71 159.47 620.29 159.55 620.5 158.98 620.65 158.59 620.91 157.88 621.29 157.96 621.37 158.35 621.52 159.08 621.72 160.11 621.99 159.88 622.32 159.61 622.29 158.98 622.82 160.47 622.74 159.87 622.73 159.8 622.43 157.6 622.56 157.61 622.9 157.66 623.02 157.67 623.3 157.71 624.53 157.86 623.31 157.7 623.19 157.68 622.11 156.83 623.04 155.72 624.13 155.87 624.23 155.88 624.96 155.98 625.34 156.03 627.14 156.27 628.54 156.88 629.48 157.29 630.24 157.61 630.59 157.77 631.88 158.33 636.88 160.49 637.21 160.64 638.13 161.03 637.79 160.77 637.56 160.58 637.18 160.28 637.78 160.31 637.99 160.5 639.29 161.63 640.56 162.74 641.71 162.88 642.14 162.94 642.25 163.18 642.36 163.43 642.41 163.55 642.63 164.04 643.17 164.09 643.31 164.11 643.5 164.12 644.21 164.19 643.65 163.88 643.6 163.85 642.89 163.46 642.54 163.27 642.62 163.28 642.85 163.31 644.38 163.48 644.57 163.51 644.64 163.58 644.69 163.63 644.9 163.87 645.16 164.18 646.12 164.29 646.84 164.38 647.1 164.81 647.56 165.55 647.76 165.53 648.11 165.49 649.3 165.35 649.05 164.73 649 164.61 648.09 164.28 647.86 164.19 647.63 164.1 647 163.87 646.95 163.36 646.93 163.19 647.12 162.99 647.47 162.62 647.54 162.74 647.75 163.04 647.75 163.05 647.98 163.4 648.48 163.65 649.48 164.16 649.76 164.31 650.05 164.45 650.22 164.54 650.19 165.17 650.19 165.38 650.62 165.42 650.76 164.92 650.62 164.73 650.21 164.18 650.09 164.11 648.52 163.27 647.81 162.89 648.16 162.9 651.11 162.97 651.25 163.2 651.33 163.32 651.37 163.38 651.43 163.48 651.59 163.73 651.74 163.97 651.89 164.2 651.88 163.96 651.88 163.68 651.87 163.53 655.91 163.62 655.95 163.66 657.36 165.3 658.98 166.34 660.68 167.42 661.51 167.34 662.85 167.21 664.03 167.45 665.69 167.79 667.22 166.95 667.47 166.97 668.23 167.03 670.35 167.2 670.54 167.21 670.89 167.16 673.53 166.73 673.68 166.7 674.55 166.56 674.98 166.49 675.88 167.12 676.82 166.59 676.85 166.58 677.39 166.28 677.42 166.26 681.24 166.02 681.55 165.8 682.4 165.19 682.78 164.92 684.21 165.48 688.9 165.87 689.86 165.95 690.2 165.98 690.22 165.98 693.68 166.26 694.65 166.85 698.24 169.01 698.51 169.17 699.13 169.36 699.71 169.53 700.21 169.68 700.23 169.69 700.66 169.82 700.75 169.96 700.82 170.07 701.08 170.47 701.21 170.66 703.65 172 704.11 172.24 705.59 173.05 705.61 173.04 706.01 172.8 707.94 173.73 708.31 173.92 709.44 175.07 709.77 175.41 710.65 176.3 711.38 177.05 711.61 177.29 712.97 177.45 713.48 177.52 713.73 177.55 713.87 177.74 715.07 179.41 715.38 179.54 715.82 179.73 716.96 180.22 717.1 180.29 720.59 183.24 722.74 183.84 722.93 183.89 723.53 184.06 723.93 183.62 724.02 183.51 725.76 186.54 725.97 186.9 727.88 188.44 728.44 188.89 729.17 189.75 730.49 191.3 732.4 193.54 732.78 193.99 734.16 195.14 736.43 197.04 738.45 197.75 739.48 199.91 739.76 200.17 740.63 201 742.04 202.33 742.91 202.66 743.07 202.62 743.75 202.41 743.95 202.36 744.19 202.46 747.07 203.68 747.44 203.84 748.85 206.38 748.91 206.5 749.14 206.91 749.37 207.33 749.38 207.35 750.96 208.82 751.3 208.69 751.57 208.58 751.95 208.43 752.47 208.63 752.48 208.64 753.34 208.97 753.69 208.82 754.29 208.57 754.79 208.36 754.86 208.34 756.51 208.94 757.36 209.97 757.68 210.37 759.05 211.16 759.56 211.46 759.84 211.62 760.19 211.83 760.7 211.78 760.9 211.75 761.79 211.66 762.11 211.63 764.13 211.43 764.36 211.41 764.7 211.37 764.28 211.41 764.14 211.42 763.8 211.45 764.11 211.22 765.46 211.5 766.85 211.8 767.12 211.81 767.77 211.82 768.38 211.83 769.35 211.86 771.41 211.9 772.04 211.74 775.25 210.9 778.37 211.49 778.97 211.6 782.27 212.22 784.92 213.27 786.25 214.41 787.35 216.22 787.42 216.33 788.22 217.64 788.23 217.66 788.53 218.16 789.54 219.81 789.86 221.23 790.36 223.43 790.42 223.73 790.68 224.85 790.88 225.74 791.1 226.71 791.36 227.87 791.6 228.91 791.71 229.41 791.73 229.44 792.48 230.27 792.56 231.47 792.72 233.77 792.84 234.04 793.21 234.84 793.27 234.86 793.45 234.93 793.92 235.11 794.02 236.27 794.03 236.37 794.05 236.55 794.13 237.46 794.47 237.8 795.07 238.41 795.39 241.65 795.56 243.26 795.6 243.67 795.75 243.85 796.18 244.36 796.56 246.38 796.65 246.84 796.9 248.19 797.28 248.74 797.37 248.87 797.5 249.07 798.14 250.01 798.22 250.13 798.1 251.13 798.09 251.19 798.04 251.57 798 251.88 798.23 252.36 798.85 253.63 799 253.94 798.88 256.93 798.84 257.85 798.75 260.32 798.54 260.92 798.25 261.79 798.16 262.06 798.11 262.2 798.14 262.26 798.62 263.36 797.88 264.76 798.13 265.38 798.17 265.47 798.32 265.83 798.08 266.54 797.8 267.36 798.4 269.47 796.06 276.43 795.98 276.92 795.62 279.02 795.53 279.6 795.34 280.01 794.22 282.49 794.05 282.85 793.88 283.23 793.71 283.6 793.43 284.23 792.98 285.22 792.99 285.75 792.99 286 792.99 286.12 792.99 286.32 792.85 286.56 792.01 287.96 792 288.26 791.98 288.85 791.96 289.28 791.5 290.11 790.96 291.08 788.76 295.03 788.58 295.36 787.95 296 787.81 296.13 785.57 298.38 784.85 299.1 784.72 299.78 781.6 303.02 781.35 303.46 780.64 304.71 780.46 305.02 780.05 305.21 778.85 305.78 777.82 307 777.01 308.14 776.12 309.39 775.09 310.85 774.98 311 774.73 311.35 774.62 311.51 773.97 312.42 773.67 312.85 773.53 313.05 773.23 313.47 772.54 313.69 771.9 314.59 771.71 314.87 771.63 314.98 768.7 317.3 768.31 317.98 768.49 318.99 766.58 321.55 766.23 322.01 766.18 322.09 766.14 322.1 765.26 322.37 764.74 322.53 764.47 322.61 762.11 323.33 756.93 326.86 754.55 329.66 753.45 330.96 753.31 331.2 751.17 334.86 751.15 334.85 751 334.73 750.91 334.66 750.7 334.5 750.66 335.02 750.62 335.44 750.6 335.78 750.59 335.91 750.39 336.13 750.11 336.44 748.24 338.53 747.9 339.42 747.66 340.02 747.37 340.77 746.55 341.96 744.93 344.3 743.89 346.69 743.23 348.23 741.56 352.07 741.31 352.45 740.13 354.31 740.02 354.49 739.16 355.84 739.13 355.89 738.56 356.78 738.09 357.53 737.89 357.78 737.72 357.99 737.26 358.58 737.03 358.88 736.57 359.47 736.17 359.98 735.17 361.26 734.94 361.56 734.24 363.13 733.97 363.72 733.73 364.27 733.56 364.35 732.98 364.64 732.37 365.37 728.05 370.46 727.03 371.67 726.33 372.04 724.67 372.92 723.93 373.31 723.41 373.23 722.78 373.13 722.97 372.75 723.43 371.88 723.6 371.56 723.93 370.93 723.88 370.43 723.78 369.62 723.74 369.23 723.73 369.1 723.51 367.2 723.45 367.2 722.38 367.26 721.37 367.32 721.22 367.13 721 366.86 720.9 366.74 720.81 366.62 720.73 366.53 720.64 366.41 720.73 366.27 720.86 366.07 720.87 366.06 720.87 366.06 720.66 365.55 720.5 365.17 720.19 365.19 719.04 365.27 718.93 365.63 718.63 366.59 718.4 367.31 718.22 367.9 717.84 369.13 717.29 369.5 717.64 369.99 717.94 370.43 718.08 370.09 718.2 370.11 718.35 370.14 718.5 370.17 718.54 370.18 718.91 370.25 719.05 370.28 718.1 372.49 717.99 372.76 718.97 373.28 720.22 372.11 720.11 371.76 719.9 371.06 719.69 370.38 720.11 370.57 720.41 370.71 721.01 370.98 721.64 372.29 719.65 374.06 718.05 375.47 717.44 375.7 717.39 375.54 717.21 374.89 716.91 375.36 716.71 375.66 716.21 376.45 716.17 376.51 715.99 376.79 714.43 377.81 714.02 379.87 713.9 380.49 713.84 380.82 714.86 380.72 715.29 380.68 715.32 380.82 715.61 382.02 715.31 382.62 715.24 382.75 714.99 383.26 714.72 383.79 714.42 384.37 714.31 384.61 714.99 384.7 715.1 384.71 715.12 384.78 715.21 385.07 715.29 385.31 715.4 385.65 715.61 386.28 715.1 386.65 715.08 386.63 714.64 386.29 714.43 386.57 714.25 386.8 713.57 387.67 713.33 388.71 713.42 388.93 713.59 389.38 713.79 389.9 713.52 390.37 713.16 391 712.51 390.7 712.43 390.67 711.99 390.46 711.76 390.91 711.76 391.65 711.76 391.88 712.31 392.07 712.69 392.19 713.45 392.44 713.54 392.99 713.57 393.17 714.27 392.93 714.2 392.77 713.96 392.17 713.93 392.1 713.84 391.89 713.65 391.43 713.8 391.34 713.93 391.26 714.39 390.99 714.55 390.89 714.88 391.58 714.87 392.02 714.87 392.22 714.84 393.66 714.83 393.87 714.28 395.36 714.16 395.69 713.94 396.28 713.61 397.15 713.45 398.19 713.37 398.71 713.57 399.07 713.67 399.26 713.15 401.43 713.14 401.5 713.01 402 712.85 402.7 712.79 402.95 712.69 403.34 712.08 405.89 712.05 407.17 712.04 407.78 712.65 409.15 712.66 409.17 712.86 409.6 712.95 412.53 712.96 412.97 713.11 417.59 713.35 418.99 713.53 420.06 713.61 420.5 713.74 421.27 714.26 424.26 714.22 424.51 714.19 424.71 714.15 424.95 714.06 425.49 714.19 425.81 714.54 426.75 715.36 428.88 715.48 429.21 715.87 430.23 716.03 430.65 716.16 430.98 716.2 431.08 714.56 435.19 714.23 436.01 714.3 436.88 714.31 437.08 713.24 438.69 712.88 439.24 713.01 440.63 713.06 441.21 713.08 441.44 712.87 441.73 712.03 442.89 711.97 443.23 711.95 443.37 711.82 444.17 711.41 446.67 711.31 447.28 711.14 448.36 710.77 448.88 710.73 448.94 710.48 449.29 710.37 449.45 710.35 450.87 710.34 451.42 710.53 451.74 710.65 451.94 710.84 452.27 710.16 453.22 709.64 456.43 709.51 456.63 708.97 457.44 708.91 458.35 708.82 459.65 708.75 460.72 708.96 461.73 709.2 462.86 709.22 462.96 709.34 463.5 709.34 464.27 709.35 466.08 709.36 466.55 710.29 467.99 710.53 468.37 710.23 468.71 709.35 469.72 709.22 469.86 709.12 469.98 707.82 471.47 707.89 471.84 707.91 471.98 706.52 472.59 704.99 473.25 704.44 473.49 703.05 474.96 702.09 476.53 701.9 476.85 700.76 478.71 700.11 480.52 698.6 484.69 698.47 486.15 698.41 486.85 698.38 487.19 698.35 487.55 698.12 490.2 698.04 491.14 698.48 495.31 698.62 496.61 698.67 497.09 699.2 502.21 697.25 507.33 696.9 508.25 696.5 508.41 694.61 509.16 691.96 511.48 690.41 514.21 690.19 514.59 689.23 516.27 689.07 516.56 689.33 517.39 689.42 517.67 688.85 519.82 687.78 520.97 687.71 521.04 687.07 521.72 686.94 521.86 686.54 521.83 686.52 521.83 685.65 521.79 686.12 521.01 686.33 520.65 686.49 520.39 686.34 520.32 686.1 520.22 685.82 520.98 685.5 521.82 685.7 521.84 686.1 521.88 687.04 521.99 687.28 522.01 687.47 522.04 685.65 525.83 685.49 526.15 684.75 527.7 684.37 528.22 684.2 528.45 683.94 528.52 683.49 528.66 683.42 528.68 683.24 528.73 682.97 528.81 682.93 528.91 682.82 529.12 682.77 529.22 682.49 529.77 682.27 530.22 682.22 530.31 681.25 531.27 680.6 531.92 679.96 531.92 679.69 531.92 679.24 532.14 678.22 532.66 677.53 533 677.45 533.23 677.29 533.68 676.55 535.7 676.16 536.78 675.56 538.44 675.45 538.52 674.4 539.37 674.29 539.46 673.49 540.85 673.47 541.28 673.44 541.87 673.42 542.42 673.39 543.15 672.99 543.64 672.39 544.38 671.62 545.35 671.24 545.82 671.47 547.65 671.53 548.11 671.57 548.12 671.69 548.15 671.92 548.2 672.28 548.28 672.42 548.31 672.35 548.75 672.09 550.53 672.59 552.65 672.61 552.73 673.01 554.41 672.77 556.37 671.82 556.92 671.09 557.34 670.95 557.42 670.17 557.86 667.91 559.16 667.31 559.32 665.7 559.75 662.41 560.63 658.97 562.08 656.94 563.77 655.57 564.91 655.33 565.11 652.99 567.05 652.14 569.38 652.49 570.6 652.91 570.97 653.29 571.33 653.86 571.85 653.95 571.79 654.03 571.74 654.04 571.73 654.46 571.44 654.59 571.35 654.88 571.15 654.79 571.43 654.57 572.07 654.3 572.03 654.1 572 653.7 572.3 652.77 572.98 652.65 573.13 651.86 574.19 651.75 574.34 651.46 575.22 652.03 575.52 652.42 575.72 652.32 575.84 651.84 576.41 651.79 576.38 650.45 575.57 647.4 575.3 644.53 575.21 643.64 575.18 641.45 575.11 640.9 575.18 638.35 575.48 638.09 575.51 637.67 575.56 636.03 575.75 633.56 576.04 630.43 575.65 629.66 575.55 629.59 575.47 629.41 575.25 629.32 575.14 629.35 574.88 629.38 574.6 629.44 574.05 629.47 573.74 630.23 572.32 630.55 571.73 631.08 571.35 631.33 571.17 631.2 570.2 630.57 570.04 630.15 569.93 627.46 570.85 626.99 571.31 626.48 571.81 626.19 572.09 626.09 572.71 626.8 573.23 626.96 573.34 626.5 572.72 626.54 572.66 626.78 572.33 627.62 572.21 628.05 572.14 628.68 572.05 627.76 572.83 627.31 573.21 628.52 574.4 628.4 574.86 628.26 575.37 628.52 575.41 628.8 575.46 627.74 576.25 627.12 576.44 626.79 576.54 626.13 576.74 625.93 576.8 625.88 576.78 625.37 576.55 625.15 576.45 624.66 576.23 624.58 576.19 624.64 576.23 624.98 576.43 625.69 576.86 621.76 577.36 620.52 577.51 620.4 577.53 620.34 577.53 620.22 577.55 619.77 577.6 611.71 578.61 611.4 578.14 612.29 577.31 612.5 577.4 613.7 577.9 613.99 577.51 614.12 577.34 616.5 577.71 616.55 577.72 616.65 577.74 618.17 577.42 618.3 577.4 619.17 577.22 619.71 577.11 618.61 576.54 618.61 576.54 617.98 576.21 617.92 576.18 617.5 575.97 617.41 575.92 617.3 575.86 617.08 575.75 615.21 574.78 614.76 574.54 614.02 574.7 611.8 575.16 610.99 575.91 610.94 576.12 610.79 576.73 610.77 576.49 610.75 576.18 610.71 575.69 610.68 575.32 610.7 575.29 610.94 574.93 610.99 574.86 611.08 574.72 610.6 574.89 610.51 575.05 610.32 575.36 610.24 575.5 610.01 575.9 609.32 577.06 608.28 577.31 608.1 577.35 607.61 577.47 606.74 577.68 606.46 577.5 606.7 577.23 607.03 576.84 606.92 576.76 606.64 576.53 606.19 576.59 605.51 576.68 605.16 576.73 604.2 576.86 604.67 576.41 604.9 576.2 605.47 575.66 605.41 575.58 605.01 575.04 604.95 574.96 604.09 575.15 603.21 575.33 602.73 576.39 602.6 576.69 602.25 576.76 601.65 576.89 598.08 577.63 597.88 577.67 597.45 578.95 596.99 580.31 597.11 580.82 597.18 581.09 597.22 581.27 598.36 580.33 598.51 580.4 598.66 580.47 598.67 580.48 599.03 580.64 599.03 580.65 598.84 581.11 598.76 581.29 598.27 582.47 598.22 582.6 598.51 582.68 599.06 581.89 599.22 581.65 599.41 581.39 599.46 581.31 600.12 581.17 600.06 581.32 599.75 582.05 599.95 582.12 601.36 582.61 601.24 582.63 600.42 582.82 600.21 582.86 600.04 583.17 599.62 583.91 599.2 583.74 598.38 583.4 597.96 583.52 597.73 583.58 597.53 583.64 597.26 583.71 596.75 583.85 595.59 584.17 594.75 584.4 594.4 584.49 594.43 584.25 594.45 584.01 593.59 583.6 593.07 583.35 593.01 583.39 590.52 584.96 590.11 585.76 589.97 586.03 589.75 586.45 589.54 586.88 589.04 587.09 588.91 587.15 588.54 586.95 588.35 586.84 587.77 586.53 587.04 587.13 586.49 587.58 586.83 588.32 585.47 588.19 585.04 588.16 583.92 589.11 583.72 589.27 583.26 589.29 582.79 589.32 582.54 590.49 582.77 591.14 582.78 591.18 582.95 591.63 583.2 592.33 582.74 593.24 582.24 593.33 581.11 593.55 580.73 593.62 580.68 593.55 580.47 593.33 580.15 592.97 579.93 592.74 579.82 592.62 578.34 592.43 577.83 592.36 577.58 592.33 576.57 592.2 576.56 592.19 575.9 592.11 575.72 592.08 575.35 592.04 574.91 591.98 574.1 591.87 572.11 592.15 569.72 593.04 568.24 593.6 568.18 593.82 567.86 594.9 567.77 594.95 567.52 595.13 567.21 595.33 567.19 595.8 567.19 596.05 567.17 596.44 567.17 596.53 567.16 596.61 566.7 596.85 565.04 597.24 564.82 597.29 564.47 597.38 564.33 597.06 564.23 596.81 562.82 596.81 561.44 597.32 551.7 602.53 550.32 604.14 549.92 604.6 550.34 605.2 549.88 605.48 549.69 605.6 546.64 607.52 546.34 607.87 545.76 608.52 542 610.65 540.58 611.46 539.12 612.29 537.92 612.96 532.91 617.1 531.93 618.27 531.81 618.42 531.86 618.51 532.17 619.04 532.05 619.48 531.79 620.42 528.21 623.51 527.99 623.7 526.98 624.58 525.9 626.44 525.72 626.74 524.87 626.02 525.16 625.57 525.31 625.35 525.59 624.92 525.55 624.27 525.54 624.13 525.72 624 526.07 623.76 526.27 623.62 526.86 623.22 527.11 623.04 525.6 623.35 525.28 623.55 524.83 623.82 524.67 623.92 524.44 624.06 524.41 624.08 523.6 624.57 523.26 624.35 523.28 623.87 523.28 623.84 523.35 622.67 523.37 622.43 523.4 621.9 522.89 622 522.87 622.11 522.79 622.6 522.69 623.13 522.6 623.62 522.16 623.2 521.93 622.98 521.57 622.63 521.65 621.83 521.23 621.99 521.37 623.13 521.39 623.28 521.42 623.55 521.33 623.79 521.11 624.39 520.94 624.89 520.9 624.99 521.61 625.88 521.44 625.95 520.95 626.14 520.36 627.05 519.93 626.7 519.73 626.54 519.68 626.5 518.75 626.57 518.25 626.61 517.08 626.7 515.93 625.63 515.55 625.28 515.52 625.25 515.39 625.13 515.34 625.09 515.01 624.78 515.18 625.05 516.1 626.45 516.22 626.63 516.06 627.32 515.93 627.28 515.67 627.2 515.05 627.01 515.73 627.43 516.52 627.43 516.89 627.43 517.05 627.43 517.05 627.43 519.63 627.45 519.73 627.54 520.1 627.88 520.15 627.92 520.68 628.41 521.42 628.38 521.43 628.38 521.61 628.38 522.46 628.35 522.93 628.99 522.57 629.31 521.25 630.47 520.2 632.29 520.14 632.4 519.42 633.64 518.79 634.72 518.62 635.02 518.23 636.41 518.02 637.14 517.99 637.24 517.56 638.76 517.79 639.68 518.06 640.75 518.13 641.03 517.66 641.29 516.64 641.85 515.52 642.47 514.59 641.92 514.72 641.75 514.86 641.56 514.77 641.32 514.7 641.13 514.26 639.99 514.04 639.44 514.03 639.41 513.88 639.01 513.36 639.16 513.88 640.02 513.73 640.13 513.01 640.72 513.5 640.53 513.82 640.41 513.88 640.52 514.53 641.58 514.61 642.42 514.64 642.77 514.66 642.93 514.53 643.09 514.22 643.44 514.36 643.58 515.22 644.44 515.47 644.69 515.74 644.76 516.88 645.08 517.12 645.15 516.9 644.99 516.5 644.71 515.91 644.3 515.84 644.25 515.52 644.02 515.69 643.5 516.94 642.5 517.08 642.39 518.78 641.03 519.36 641.53 519.37 641.54 519.92 642.01 520.01 642.09 519.87 642.35 518.67 644.57 517.99 645.82 517.93 646.56 517.93 646.56 517.9 646.85 517.64 647.18 516.53 648.6 516.21 649.75 516.19 649.82 515.9 650.92 516.04 651.45 516.2 652.03 516.51 653.18 516.66 653.21 517.13 653.31 517.79 653.44 518.19 653.52 518.07 653.83 517.88 654.35 517.78 654.37 517.62 654.4 517.36 654.45 516.98 656.03 517.05 656.33 517.26 657.26 517.44 658.04 517.69 658.06 518.37 658.12 518.26 658.5 517.96 659.5 517.92 659.62 517.7 660.38 518.78 660.99 519.08 660.69 519.13 660.65 519.67 660.1 519.75 660.17 520.5 660.9 519.27 661.56 518.7 661.86 517.87 662.31 517.59 662.84 517.92 664.37 518.63 664.11 518.82 664.04 518.94 664 518.99 664.18 519.12 664.7 518.85 665.43 518.49 666.39 518.44 666.53 517.83 666.65 517.44 666.73 517.28 666.76 516.83 667.78 517.65 668.91 518.41 669.95 518.17 670.5 517.88 670.38 517.81 670.36 517.79 670.35 517.54 670.25 517.35 670.46 516.89 670.94 516.75 671.09 517.22 674.05 517.46 674.45 517.6 674.7 517.6 674.7 517.96 675.31 518.27 675.83 518.34 675.96 518.07 676.44 517.27 677.82 517.61 678.5 517.83 678.96 517.66 679.36 517.52 679.69 517.23 680.33 517.23 680.34 517.11 680.61 516.77 681.37 516.6 681.77 516.61 681.92 516.72 682.97 516.6 683.23 515.68 685.12 514.87 686.8 514.64 687.28 514.51 687.56 514.61 688.31 514.65 688.67 513.51 690.14 511.71 691.15 511.68 691.17 507.8 693.33 507.26 693.73 503.61 696.43 503.03 696.86 502.89 697 502.88 697.01 495.41 704.88 494.66 705.97 490.45 712.07 489.39 713.59 489.21 713.86 487.31 718.3 483.61 726.9 482.9 728.57 472.08 743.51 470.73 744.72 466.17 748.8 462.8 751.81 459.61 754.11 456.09 756.03 451.12 758.72 447.12 763.04 447.61 761.38 447.77 760.85 447.89 760.43 447.87 760.35 447.72 759.74 447.6 759.28 448.36 758.58 447.55 757.47 446.75 756.36 448.69 756 451.58 756.92 451.65 756.95 452.36 756.52 452.6 756.38 452.81 755.76 451.99 755.63 451.58 755.56 452.14 755.46 453.36 755.23 455.75 754.78 457.82 752.55 459.44 750.82 459.67 750.37 460.35 749.05 460.65 749.26 461.83 750.1 464.22 748.65 465.73 745.64 465.69 744.38 465.66 743.27 465.59 740.61 465.68 740.66 466.75 741.29 469.28 740.19 469.89 739.38 469.83 738.71 469.72 737.51 469.69 737.15 471.25 737.14 471.45 737.04 472.53 736.43 474.18 735.51 474.99 734.36 475.54 731.38 474.64 726.87 474.57 726.53 475.24 726.19 475.62 726.49 476.62 727.3 476.07 727.45 476.08 727.5 476.28 728.31 477.74 728.57 478.12 726.47 478.28 725.57 478.34 725.25 478.45 724.64 478.06 724.14 477.32 723.21 477.09 722.92 476.59 722.98 475.91 723.07 475.9 723.44 475.88 724.5 475.87 724.94 473.33 724.83 473.37 725.32 473.4 725.72 473.41 725.84 472.89 725.82 470.65 725.74 470.31 727.52 471 727.81 471.23 727.91 470.58 727.92 470.45 727.87 467.91 727.01 467.98 726.78 468.09 726.39 468.27 725.77 468.52 724.89 468.04 724.52 467.9 724.42 467.69 724.25 467.29 723.96 467.09 724.03 467.02 724.05 466.96 724.07 466.77 724.14 466.3 724.31 465.93 724 465.84 723.93 465.39 723.56 465.26 723.46 465.02 723.26 464.54 722.87 464.33 722.7 463.84 721.54 463.63 721.06 463.69 720.96 464.29 719.84 463.96 719.66 463.53 719.42 463.34 719.31 463.15 719.2 462.98 719.11 462.92 719.54 462.84 720.06 462.75 720.71 462.67 721.25 462.66 721.32 462.55 722.08 462.49 722.52 462.33 723.65 463 724.97 463.7 725.23 463.88 725.3 464.1 725.38 464.25 725.43 464.74 725.62 465.32 726.77 465.52 726.73 467.1 726.43 467 726.62 466.49 727.58 466.34 727.85 466.1 727.77 464.87 727.37 463.83 728.55 463.51 728.92 462.83 731.52 462.94 732.58 463.07 733.84 463.13 734.44 463.24 735.49 462.95 734.15 462.85 733.7 462.53 732.21 462.48 731.99 461.54 731.83 460.75 734.63 461.45 736.63 461.49 736.76 460.55 736.7 460.14 736.68 459.91 736.67 458.82 737.75 459.16 739.94 460.05 741.06 460.1 741.12 459.05 741.42 457.56 741.85 457.12 741.98 456.54 742.14 455.95 743.72 456.45 744.76 456.5 744.86 455.21 744.89 454.33 744.92 453.16 744.94 452.86 744.95 452.18 745.58 451.65 746.08 451.58 745.95 451.43 745.71 451.31 745.51 450.7 745.72 450.1 745.93 449.92 746.23 449.52 746.89 449.39 747.1 448.56 748.46 447.99 753.44 447.52 753.11 447.43 753.05 447.66 751.78 447.81 750.94 447.85 750.75 446.72 750.83 446.26 750.86 446.38 751.33 446.52 751.91 446.55 752.02 446.56 752.07 447.36 751.57 447.46 751.51 447.3 752.47 447.2 753.11 444.17 754.53 444.16 755.03 444.15 755.27 444.14 755.43 444.1 756.52 443.46 756.63 443.9 757.51 443.99 757.34 444.14 757.07 444.16 757.08 445.18 757.81 446.45 758.71 446.28 758.7 445.88 758.67 445.77 758.66 445.57 758.65 445.3 758.63 444.92 758.81 444.49 759.01 444.14 759.17 443.92 759.28 443.87 759.41 443.76 759.69 443.66 759.94 443.48 760.41 443.26 760.94 443.4 760.9 444.13 760.67 444.36 760.6 444.47 761.03 444.37 761.08 444.13 761.2 444.11 761.21 443.82 761.35 443.75 761.38 443.57 761.47 444.04 761.65 444.13 761.59 445.32 760.89 445.63 760.71 446.27 760.34 446.94 760.37 447.03 760.7 446.93 760.74 446.47 760.93 445.59 761.28 445.32 762.29 445.89 762.03 446.62 761.7 446.56 763.22 445.35 763.77 444.11 765 441.67 768.44 439.4 774.84 439.3 775.12 439.26 775.22 439.13 775.59 438.68 776.88 438.13 777.95 437.72 778.75 436 782.12 432.87 785.96 427.95 789.94 425.26 792.12 425.03 792.3 424.46 792.76 423.63 793.44 421.52 794.79 420.89 795.2 420.69 795.33 419.68 795.14 419.39 794.32 417.58 794.07 417.77 783.37 419.42 781.14 423.31 778.74 422.27 778.23 424.56 777 425.03 775.99 426.33 775.64 426.75 774.88 423.29 772.01 420.32 771.55 418.9 769.46 417.66 769.61 416.14 768.47 413.15 761.36 411.42 760.86 410.92 759.7 408.85 758.81 408.61 758.05 407.17 757.39 405.95 757.76 398.62 753 399.32 752.2 397.19 749.53 393.13 748.3 390.88 748.41 388.66 747.31 387.24 745.13 386.49 745.83 385.68 745.96 382.55 744.55 379.92 740.09 375.45 736.23 374.6 736.42 374.16 738.44 373.33 738.48 369.83 740.95 367.02 740.6 367 737.3 367.44 736.47 366.95 735.3 364.58 734.01 363.57 731.47 359.36 729.05 357.83 726.85 356.34 726.27 356.18 725.33 354.61 725.13 353.97 723.35 350.16 720.82 345.43 720.75 344.58 721.3 343.44 723.08 343.6 723.69 342.61 724.7 341.19 724.87 340.44 724.26 339.2 724.5 338.76 725.13 337.37 724.37 335.86 724.56 335.5 723.35 334.24 722.62 336.54 721.88 338.43 719.8 339.86 718.99 340.32 716.33 341.65 714.78 344.68 713.92 346.41 712.04 347.39 711.61 347.64 710.66 350.56 708.31 351.6 706.35 352.75 705.98 353.42 705.15 354.02 702.9 355.1 701.11 358.53 700.09 358.99 699.09 358.81 698.19 360.86 696.76 361.21 694.61 363.41 693.94 364.32 692.57 366.85 690.68 366.96 688.61 369.46 688 369.19 686.46 369.73 685.62 372.28 685.9 373.37 686.91 373.88 685.03 371.8 683.28 374.59 681.91 375.23 680.75 376.25 681.59 377.44 679.9 378.49 680.23 379.93 678.93 379.69 678.06 380.96 676.78 382.23 676.57 383.55 675.46 384.81 676.12 385.15 675.26 386.89 675.27 385.86 673.95 388.75 673.67 389.49 672.58 389.57 670.94 390.65 670.58 391.43 668.8 391.99 669.83 393.98 669.61 394.1 668.35 395.19 669.09 396.16 667.22 397.21 668.21 398.74 667.59 398.27 666.68 399.45 666.28 400.7 667.41 401.04 667.28 400.99 666.15 402.15 666.99 403.49 665.66 404.31 663.2 404.78 663.99 406.08 664.05 408.8 661.34 409.89 661.49 410.67 660.61 411.35 661.4 412.12 660.18 412.07 658.86 412.76 659.28 413.63 657.76 413.3 657.48 414.53 655.92 413.28 652.26 413.95 646.52 415.07 645.89 416.21 642.92 413.55 640.17 413.33 638.49 411.21 636.89 411.07 636.24 411.58 635.49 410.96 634.26 411.48 633.32 410.72 631.87 411.07 631.2 410.12 629.9 408.97 629.88 407.68 628.76 406.27 628.95 406.23 629.77 405.84 629.9 405.26 628.76 405.64 627.44 404.52 628.31 403.57 628.46 403.01 629.38 402.02 628.62 401.21 628.91 400.69 629.65 400.01 629.54 399.14 631.54 397.91 629.99 395.75 629.28 395.34 626.52 399 620.37 398.58 617.81 401.06 610.03 401.12 606.84 402.6 604.21 401.21 601.62 401.2 599.48 402.17 598.45 401.45 597.1 400.4 596.81 399.52 595.36 394.3 593.05 393.62 593.98 389.83 594.76 389.1 595.31 388.91 596.08 387.41 595.96 386.3 596.63 385.09 596.32 382.93 597.07 381.13 595.97 380.58 596.67 379.14 596.02 378.55 595.02 378.75 592.29 378.18 590.43 376.64 588.95 376.54 585.77 377.32 584.23 376.36 582.26 376.96 580.62 374.95 578.31 373.96 573.65 374.22 572.2 374.94 571.13 375.06 569.5 372.56 566.93 372.48 564.16 371.46 563.87 370.15 561.82 362.93 561.81 360.23 560.28 358.97 557.67 356.61 558.19 355.65 560.02 354.09 561.41 352.96 560.49 352.36 561.39 351.84 560.91 350.73 561.18 350.68 561.97 350.26 562.21 346.81 560.68 341.87 561.06 339.41 560.73 335.56 559.78 334.34 558.53 332.54 557.97 331.81 558.23 331.64 558.77 330.16 558.93 326.68 557.81 326.35 556.74 327.07 556.22 328.1 553.67 327.09 552.91 328.24 551.87 327.54 550.93 328.62 549.72 327.74 548.65 328.17 547.74 327.12 546.48 329.41 542.63 328.12 541.4 329.43 540.33 329.19 536.57 330.17 535.25 330.03 534.48 327.95 533.64 329.41 532.38 328.85 531.61 327.26 531.34 327.76 530.74 329.13 530.35 328.03 528.94 327.3 529.67 326.71 529.54 327.02 528.65 326.14 527.75 326.52 527.03 326.07 525.82 326.58 524.5 324.79 522.95 324.59 520.61 323.33 520.74 323.16 519.96 323.91 519.2 323.13 518.68 327.29 515.93 328.57 516.2 329.52 514.89 323.96 509.97 330.73 496.05 332.39 495.7 332.15 493.27 331.16 493.04 331.41 492.12 335.42 480.01 337.49 479.3 335.26 477.43 332.31 471.26 332.78 471.19 332.26 469.23 330.83 467.44 330.46 464.91 328.45 463.66 326.41 464.87 323.4 462.25 321.25 461.51 318.42 458.3 318.49 457.23 317.73 456 318.07 455.21 316.88 453.05 316.94 448.23 317.92 446.09 319.53 444.96 319.67 443.63 319.22 442.88 319.91 441.65 320.16 439.43 318.89 439.56 317.7 440.45 316.87 440.55 282.22 439.32 280.94 423.27 274.23 415.71 280.53 415.62 280.11 405.8 279.37 405.49 278.88 403.42 277.64 401.77 277.83 400.72 276.73 399.48 275.93 396.91 276.61 395.09 278.03 393.06 276.75 391.85 276.22 389.16 269.6 386.83 266.39 384.69 266.15 383.83 264.49 383.88 264.44 382.77 264.8 382.58 263.97 382.29 262.8 382.52 262.54 383.45 260.31 383.55 258.67 382.49 255.49 384.14 253.19 383.19 248.6 383.83 247.76 381.87 242.82 378.09 242.81 375.88 240.5 375.26 237.53 375.81 235.56 374.27 233.75 374.35 232.05 373.69 231.29 372.14 229.46 373.32 226.22 369.88 224.74 369.79 222.98 365.79 221.71 365.59 219.92 366.47 219.62 367.04 218.01 366.85 215.98 365.75 214.85 363.84 213.57 363.74 210.16 361.82 208.53 361.8 207.06 362.48 205.59 363.84 201.9 362.65 201.21 363.26 199.93 362.18 198.64 362.91 198.33 362.14 196.7 362 194.26 359.94 194.75 358.59 194.4 357.17 193.73 357.42 190.98 356.29 190.4 354.5 189.54 355.8 188.06 353.21 184.08 352.48 182.97 347.54 181.66 347.23 181.78 346.34 181.37 346.64 181.2 347.95 179.85 347.31 180.35 345.96 179.51 342.75 177.85 342.31 176.11 337.62 175.99 335.54 177.48 334.28 177.09 333.03 178.05 331.74 177.54 329.57 175.9 328.35 176.31 325.46 175.29 324.88 175.57 323.94 175.17 321.54 176.16 320.61 176.33 319.22 177.67 317.83 178.24 316.22 177.29 310.51 178.04 308.74 176.26 305.63 175.11 305.27 174.01 306.03 173.61 307.58 172.6 307.83 172.48 308.41 169.92 306.66 166.43 307.58 166.18 306.82 163.21 307.84 162.27 307.14 160.3 307.4 155.25 309.2 151.03 309.6 150.89 310.45 147.43 312.19 143.12 315.74 142.63 316.95 140.47 317.63 140.39 318.14 139.44 318.68 138.46 318.14 136.81 318.21 136.56 319.4 134.78 319.34 134.2 320.93 131.14 322.43 130.34 323.96 129.28 324.57 128.66 326.16 126.71 325.26 122.44 325.23 120.44 326.56 120.53 327.23 117.09 331.87 115.38 332.19 114.42 332.97 112.3 333.12 110.9 334.38 107.21 334.96 107.11 333.34 107.58 332.27 106.85 331.93 105.74 332.09 105.2 332.62 94.5 330.69 93.68 331.16 90.97 331.25 87.68 331.59 86.37 330.68 83.41 330.64 79.22 332.73 75.29 333.5 73.31 332.71 71.79 330.91 69.57 332.29 69.48 308.66 69.88 307.77 70.86 307.36 71.51 306.45 69.97 303.11 70.73 303.2 70.51 302.23 71.67 301.36 71.97 300.2 69.91 300.65 68.63 302.2 66.9 303.09 65.97 304.4 64.37 305.18 62.15 307.96 59.11 308.96 58.12 310.57 55.91 311.69 54.86 311.29 54.4 311.79 38.07 311.82 38.46 309.42 38.17 308.07 36.13 306.79 36.39 304.89 35.49 303.74 35.55 302.32 34.02 301.41 30.75 301.22 26.75 299.91 17.07 299.93 19.6 296.33 20.55 296.14 21.77 294.56 22.19 292.64 21.44 290.3 19.87 289.47 17.62 285.33 15.83 285.04 14.19 283.46 14.18 280.75 10.36 278.56 10.17 276.51 9.3 275.6 8.19 271.51 5.49 269.83 5.25 268.39 6.88 268.31 7.01 266.77 4.39 265.32 1 261.63 1.88 261.23 2.39 260.09 1.65 257.79 3.39 258.37 4.18 257.67 6.05 257.63 7 257.07 6.63 255.41 4.85 253.03 5.61 251.8 5.94 248.6 9.48 244.97 10.69 244.61 13.93 241.76 16.77 241.12 17.78 240.12 18.52 238.31 17.26 232.99 17.3 231.16 18.4 230.05 18.78 227.97 21.5 224.49 22.07 223.08 22.45 220.74 22.07 220.07 22.59 217.7 23.19 216.9 22.91 216.33 23.68 215.07 23.73 213.52 23.19 212.75 24.63 211.66 25.56 211.74 26.52 210.98 28.93 211.04 29.42 210.81 29.68 209.82 31.2 209.03 32.17 209.2 33.89 207.54 34.18 205.98 35.04 205.28 36.88 205.5 37 205.04 40.08 203.19 40.46 202.34 42.65 201.97 43.52 200.04 45.87 199.33 49.62 200.3 50.9 198.98 51.81 199.37 52.1 198.33 52.99 199.17 53.83 198.23 55.55 197.99 56.01 198.52 56.4 198.31 56.42 197.53 57.41 197.3 59.64 197.7 60.28 197.3 63.11 197.38 65.35 194.57 65.85 193.22 66.74 192.72 68.35 193.68 68.55 192.36 68.96 192.17 69.62 192.22 69.26 193.13 69.58 193.43 71.57 192.27 71.9 192.76 73.3 192.17 74.56 192.23 75.21 193.16 75.69 192.4 76.32 193.13 76.47 194.26 75.89 194.7 76.21 195.39 78.35 196.9 78.63 195.28 79.16 195.05 80.37 195.37 81.26 197.02 81.91 197.02 82.36 196.76 83.09 194.31 83.65 193.69 93.38 139.79 93.29 138.27 94.64 136.6 95 135.34 94.87 132.07 93.72 130.14 93.83 128.94 92.16 127.25 90.11 123.55 91.28 121.38 90.42 118.7 87.63 117.48 85.19 115.01 84.02 114.61 80.76 110.93 81.38 96.92 82.69 96.33 83.38 96.63 84.1 96.14 86.25 96.28 87.21 95.5 87.75 95.65 88.98 94.5 90.17 95.5 90.98 94.23 92.97 93.23 95.13 95.22 96.5 94.98 96.65 95.78 98.4 95.93 98.71 95.18 100.22 95.1 98.77 93.31 99.53 92.52 99.1 91.33 99.71 91 99.71 90.5 98.78 90.16 98.51 89.45 98.93 89.12 97.28 87.3 95.54 86.52 93.59 86.96 90.12 86.32 88.24 86.69 87.83 85.85 85.85 86.7 85.11 86.4 85.09 73.27 86.65 73.52 88.14 72.74 89.05 73.08 91.19 72.04 94.47 73.05 120.26 72.96 119.01 72.58 118.81 71.75 117.88 71.91 118.03 70.89 116.97 70.69 117.7 69.74 118.68 66.7 119.12 67.87 120.48 68.44 122.32 71.85 123.25 72.6 124.42 72.53 126.99 71.28 131.45 65.92 134.88 64.59 135.88 65.13 140.84 72.92 141.83 76.99 141.05 82.41 141.25 84.36 145.87 83.23 157.41 93.05 159.43 92.29 160.95 93.26 162.21 92.17 163.72 92.05 166.72 88.9 168.43 88.35 169.02 87.72 171.52 87.61 172.9 88.43 173.73 90.24 172.05 93.55 173 94.95 175.13 93.92 175.89 92.58 175.89 91.21 177.61 89.42 180.14 89.33 180.79 86.09 181.47 85.04 183.65 85.01 185 83.58 186.31 83.34 187.7 82.08 188.61 82.77 189.75 82.66 192.27 81.05 193.6 78.84 196.37 77.37 197.15 78.09 196.5 79.91 197.26 80.4 198.42 78.61 202.4 75.32 203.26 73.2 203.15 68.83 203.93 68.14 206.13 67.46 208.76 67.68 212.34 65.19 216.49 64.48 217.36 62.1 217.61 59.19 217.31 58.93 210.52 58.15 209.45 58.47 207.5 57.42 205.64 58.15 203.44 57.72 203.41 56.79 204.44 54.57 204.56 52.72 202.7 48.65 199.86 44.59 200.12 41.85 199.48 38.41 200.42 36.81 200.48 35.2 197.5 32.03 195.37 31.18 193.42 29.61 191.19 26.97 189.6 23.57 188.17 22.88 188.11 21.01 189.3 20.92 190.9 21.72 192.33 24.23 197.34 23.61 201.65 24.45 203.09 28.23 204.05 29.09 205.29 28.92 207.54 27.55 209.2 28.15 211.29 27.66 214.72 29.64 215.42 29.37 215.91 27.58 217.34 27.44 219.94 29.1 220.39 30.42 222.76 31.04 223.4 32.07 223.22 33.09 225.65 34.65 227.93 32.15 229.92 33.36 230.23 32.77 229.13 28.6 229.74 26.13 231.32 25.79 233.74 26.36 234.15 25.64 233.85 24.77 234.28 24.07 235.26 24.02 235.54 23.22 236.86 23.07 242.16 25.08 243.59 24.22 243.71 23.53 244.87 23.2 246.28 24.08 248.37 23.49 249.27 22.06 250.42 21.48 254.04 21.6 255.04 20.31 254.73 19.88 254.97 18.47 256.2 17.8 258.65 18.04 259.41 16.96 258.88 15.88 260 15.8 262.37 16.92 263.5 16.09 265.43 16.23 266.69 14.69 267.33 12.2 268.44 12.46 269.46 11.51 270.49 11.43 273.81 7.67 272.29 3.04 271.77 2.42 270.84 2.39 272.27 1.87 276.82 2.78 277.66 2.07 279.04 2.33 281.42 1 Z M 496.65 101.14 497.45 102.43 496.72 103.74 494.14 105.17 492.18 108.01 489.55 109.17 488.95 108.18 487.58 107.48 482.39 107.47 481.33 105.39 481.3 103.65 483.02 103.8 483.92 103.28 486.23 103.56 489.45 101.57 491.33 101.72 495.97 100.69 496.65 101.14 Z M 501.09 110.44 499.78 110.94 495.39 110.94 492.77 110.21 493.61 108.78 496.64 106.84 499.16 106.74 500.93 106.83 502.8 108.18 502.72 108.8 501.09 110.44 Z M 483.43 69.13 481.11 70.54 480.39 70.33 479.43 67.42 478.71 66.79 479.26 64.54 481.24 64.07 481.48 63.7 481.86 63.59 482.69 64.86 483.75 68.45 483.43 69.13 Z M 480.82 103.48 480.84 104.94 478.44 103.61 478.53 102.8 479.92 101.33 480.97 96.91 482 95.66 482.76 97.06 482.66 100.38 483.52 101.99 482.92 102.54 482.41 103.16 480.82 103.48 Z M 488.04 95.51 488.45 96.2 488.32 97.63 486.42 99.71 483.65 101.3 483.24 100.9 483.13 99.05 483.82 95.98 486.16 96.02 487.17 95.24 488.04 95.51 Z M 519.82 674.15 518.68 675.02 518.68 669.89 519.67 669.13 518.89 667.19 521.67 666.11 522.39 666.9 522.76 666.96 521.71 668.48 521.74 669.66 519.78 673.07 519.82 674.15 Z M 480.59 107.59 479.89 108.58 477.47 107.78 476.55 106.77 476.03 105.47 476.42 104.64 477.45 104.05 480.41 105.51 480.59 107.59 Z M 585.36 593.9 586.56 595.67 585.71 595.99 585.01 594.96 582.33 595.5 581.93 594.5 583.62 593.09 584.29 591.18 585.27 591.38 586.51 592.2 586.2 593.24 585.36 593.9 Z M 601.81 164.29 601.01 166.08 601.65 165.33 601.44 168.3 599.58 170.07 599.36 169.47 600.02 167.52 599.56 165.72 600.11 164.53 601.44 163.26 601.81 164.29 Z M 486.32 92.97 484.27 93.52 483.9 92.94 484.15 91.76 485.15 91.02 487.92 90.86 488.73 89.86 487.35 92.61 486.32 92.97 Z M 606.85 578.36 608.19 579.39 609 578.99 609.73 580.05 608.98 580.33 608.85 579.84 607.62 580.66 605.38 580.19 604.52 581.13 603.92 580 606.85 578.36 Z M 488.23 89.7 487.23 89.88 487.3 89.1 488.47 87.61 490.7 86.45 490.74 87.47 490.12 88.49 488.23 89.7 Z M 481.03 64.05 479.74 64.42 479.38 64.41 477.92 63.35 478 62.85 479.57 62.15 480.9 62.49 481.57 63.3 481.03 64.05 Z M 591.59 133.91 591.9 134.17 592.72 133.94 593.64 134.84 591.15 136.79 590.46 135.44 591.15 135.07 591.23 135.86 591.57 134.94 591.1 134.46 591.59 133.91 Z M 474.36 108.18 470.11 108.95 470.53 108 472.22 107.34 474.12 107.38 474.71 107.47 474.36 108.18 Z M 596.82 140.08 596.65 141.07 597.57 140.25 598.14 141.42 597.97 142.06 597.45 141.81 595.49 142.43 595.63 140.77 596.82 140.08 Z M 561.51 126.55 561.8 128.52 560.08 128.87 559.62 128.08 560.05 126.86 560.49 128.23 560.77 126.63 561.31 126.03 561.51 126.55 Z M 524.89 626.67 523.98 627.21 523.12 625.63 523.64 625.34 523.85 624.47 525.14 624.36 524.66 626.13 524.89 626.67 Z M 578.22 135.64 577 136.08 577.23 134.68 577.98 134.42 577.94 132.15 578.41 131.11 578.72 131.64 578.22 132.64 578.22 135.64 Z M 486.71 102.36 484.38 103.13 486.34 101.31 488.13 101.14 486.71 102.36 Z M 618.23 155.02 617.83 156.13 616.72 156.07 617.12 155.1 618.05 154.29 619.28 154.05 619.4 154.5 618.23 155.02 Z M 599.79 167.64 599.23 169.4 598.12 168.68 599.01 167.1 599.79 167.64 Z M 618.96 155.45 618.37 157.27 618.28 156.83 617.06 157.54 616.5 157.16 616.94 156.31 618.22 156.58 617.98 155.82 618.96 155.45 Z M 601.39 159.61 600.71 159.62 601.3 158.67 601.21 157.94 602.23 157.73 602.59 158.28 601.39 159.61 Z M 584.9 143.24 584.35 143.64 584.1 143.18 584.91 140.66 585.51 141.31 585.35 141.8 584.76 141.85 584.9 143.24 Z M 446.75 759.69 444.84 760.43 444.21 760.13 445.06 759.29 446.75 759.69 Z M 584.76 138.85 584.44 140.11 583.58 139.61 584.06 138.49 584.76 138.85 Z"/>
</g>
</svg>