<?xml version="1.0"?>
<svg xmlns="http://www.w3.org/2000/svg" version="1.2" baseProfile="tiny" width="800" height="714" viewBox="0 0 800 714" stroke-linecap="round" stroke-linejoin="round">
<g id="CHI">
<path d="M 742.63 2.98 744.8 5.05 745.48 6.6 745.7 9.37 749.92 11.54 748.62 13.2 750.52 16.31 750.26 17.36 751.6 24.2 752.87 26.53 751.99 27.74 753.34 29.68 762.19 36.4 759.23 40.48 758.69 40.67 758.2 41.76 756.93 42.54 758.48 44.01 759.91 44.47 760.02 46.04 759.36 48.21 755.26 48.9 755.42 49.68 756.67 50.01 756.52 51.83 757.44 53.39 755.99 54.14 755.72 54.66 757.16 56.62 761.59 59.11 759.55 60.85 759.59 63.7 760.18 64.68 762.31 64.78 766.54 71.43 766.45 77.05 768.68 80.08 768.54 84.02 770.8 86.16 770.63 87.53 771.23 88.99 770.74 90.44 772.56 94.61 771.86 97.67 772.05 99.79 773.56 100.67 777.67 101.09 784.99 99.4 788.51 102.88 782.84 120.63 782.02 122.2 765.78 128.6 764.51 129.34 763.87 130.54 762.48 130.36 762.11 130.97 762.27 131.7 759.22 135.43 759.14 137.03 761.09 138.52 763.24 142.09 762.24 142.7 760.86 142.55 758.86 143.9 759.53 146.02 758.9 148.33 759.26 150.66 759.95 150.89 759.22 152.08 760.82 153.45 762.5 162.19 759.16 164.35 758.84 168.1 764.69 175.66 763.74 176.69 763.72 177.98 760.83 178.38 759.65 180.68 758.47 180.35 757.04 178.75 755.48 179.13 753.89 180.58 753.48 181.86 753.93 182.69 751.29 186.1 751.1 187.56 750.05 189.14 750.29 190.16 749.6 190.74 749.11 193.74 748.03 195.2 746.74 195.47 746.46 196.39 745.83 196.91 745.65 198.73 743.89 199.81 742.7 199.62 741.89 201.99 739.3 202.77 739.14 206.57 737.69 208.48 737.62 209.54 738.28 210.22 737.23 213.17 736.96 216.63 736.39 217.19 734.44 217.39 732.51 220.9 733.88 223.84 733.75 225.85 734.89 226.89 735.19 229.85 735.06 231.34 733.76 234.51 735.85 235.13 736.23 236.3 733.86 239.78 732.89 240.3 731.01 240 729.73 241.79 728.57 244.3 728.57 246.07 727.52 247.46 726.99 249.36 727.09 251.49 727.65 251.9 726.82 252.43 725.81 253.87 725.17 254.15 724.4 253.05 723.17 254.41 722.39 261.76 724.03 264.38 724.48 267.11 727.67 268.01 728.89 269.37 727.5 270.74 725.5 270.87 727.1 272.62 726.76 274.88 728.49 276.08 728.32 277.95 730.02 278.9 730.25 280.41 729.51 281.29 729.95 283.49 732.7 286.65 731.91 288.71 730.92 289.25 732.19 294.29 733.32 294.43 734.72 292.59 737.34 296.04 737.22 296.78 735.89 297.46 735.16 298.62 734.78 301.08 735.27 302.51 734.65 303.31 734.69 303.84 735.8 306.83 735.5 308.6 734.91 309.45 736.07 311.17 734.24 312.52 733.09 311.7 731.87 312.34 732.44 314.47 730.16 316.2 728.52 318.54 728.45 319.59 726.81 320.91 727.78 321.94 726.34 324.32 725.79 326.14 725.92 328.21 724.75 329.19 722.48 329.38 721.93 330.35 724.78 331.93 724.41 333.6 725.44 335.1 725.2 337.58 726.61 340.6 724.81 342.44 725.58 342.69 725.16 343.41 725.75 344.62 725.09 345.56 724.88 346.81 724.58 347.2 723.9 347.28 721.95 346.52 721.95 347.22 720.96 348.3 719.69 348.83 719.78 351.66 716.84 351.49 714.92 353.08 713.46 352.73 713.16 355.21 713.65 356.42 712.88 357 712.03 356.34 711.71 358.81 710.95 359.68 711.73 360.08 711.84 362.16 710.34 362.19 712.4 364.57 711.46 365.23 711.45 366.5 710.16 368.17 711.95 371.41 711.33 372.34 711.7 373.44 710.82 374.01 710.33 375.27 712.41 380.6 714.15 383.03 713.31 383.67 714.02 388.72 717.22 391.72 715.92 393.38 716.05 394.02 715.08 395.02 713.09 394.93 710.48 396.29 709.63 396.15 709.14 396.99 706.17 398.45 706.94 405.02 705.34 407.2 705.45 408.72 704.22 409.43 705.16 410.27 704.81 411.34 702.87 411.37 701.34 410.34 700.82 411.42 701.47 412.41 700.89 413.14 701.32 415.35 703.16 416.5 702.71 417.6 701.41 418.77 701.65 420.22 698.97 419.92 698.9 420.22 699.26 421.86 698.69 422.42 700.21 423.99 700.63 423.95 700.88 423.51 701.47 423.86 701.97 425.13 700.76 426.42 699.18 425.93 698.34 428.69 697.73 428.64 698.66 430.03 696.55 432.01 698.29 436.02 697.52 436.44 698.74 437.97 698.47 439.93 697.81 440.01 698.48 441.59 697.79 443.73 698.92 447.43 697.86 448.03 697.55 448.84 700.05 453.19 700.59 457.52 699.7 458.13 697.99 458.34 697.05 458.86 695.03 458 694.72 459.26 694.02 459.75 693.24 461.07 694.63 462.38 695.02 464.54 693.34 465.81 693.08 466.5 693.51 472.34 695.95 475.52 700.39 477.11 700.49 479.81 697.57 480.01 696.8 482.4 698.41 482.92 698.15 484.16 699.73 484.04 701.24 485.61 703.29 486.17 703.04 486.94 701.93 487.09 700.2 488.74 701.96 491.48 699.97 493.93 698.31 494.61 699.45 496.41 699.35 498.51 698.48 498.98 698.58 499.45 699.15 500 700.88 499.59 709.95 500.35 712.06 502.17 711.67 503.23 710.22 503.71 710.04 506.18 709.38 507.05 707.05 507.33 705.29 506.12 702.39 507.03 699.81 506.44 698.6 507.19 694.67 506.35 694.26 506.72 694.68 509.18 697.84 509.93 700.1 509.57 703.71 510.64 708.6 516.46 707.45 517.55 704.74 518.41 705.14 520.44 702.11 520.64 700.04 521.45 700.72 521.81 699.77 524.22 700.24 526.5 702.42 527.5 703.01 529.09 700.06 531.62 697.56 532.31 700.31 534.23 702.09 542.34 699.17 544.11 696.83 544.61 697.17 548.35 695.95 548.82 695.94 549.2 698.27 550.68 698.2 552.37 695.15 551.94 695.2 553.38 692.85 555.73 690.4 555.82 689.57 556.15 689.29 556.66 690.21 557.45 689.88 559.06 685.85 565.04 689.36 568.03 690.13 573.17 688.74 573.31 688.15 574.17 686.3 574.45 684.47 575.5 685.36 581.32 681.91 583.68 678.35 584.2 675.51 586.75 675.29 587.69 673 588.22 669.69 587.77 668.04 588.25 668.67 592.2 667.32 593.52 667.71 594.71 666.2 594.91 668.96 600.23 668.81 600.74 666.9 602.34 667.79 604.62 666.98 605.19 666.39 608.94 673.89 615.74 673.97 617.82 674.99 618.2 676.32 617.91 679.54 615.92 681.88 615.18 684.39 616.29 685.54 615.34 686.77 614.92 690.41 615.89 689.49 617.56 691.28 619.61 690.91 622.76 690.65 623.05 689.22 623.12 688.1 624.49 690.73 627 689.6 627.93 689.06 631.3 687.7 632.23 687.44 632.85 689.21 633.37 690.12 635.25 696.17 638.19 696.83 640.75 732.29 640.8 742.22 643.57 747.43 643.65 754.46 646 761.82 647.05 761.58 648.26 760.52 647.07 752.76 646.41 747.4 644.48 742.9 645.73 742.12 648.11 740.94 648.35 740.56 648.7 741.1 649.47 738.8 650.93 735.39 649.92 732.29 651.27 729.69 651.74 728.64 653.06 726.64 652.7 725.24 653.46 722.55 654.35 723.02 653 721.48 653.46 722.08 653.85 720.93 653.9 719.22 654.64 718.79 654.05 717.72 654.88 716.43 654.49 718.96 655.47 718.46 655.9 717.53 656.01 716.41 657.82 717.96 658.25 717.15 658.68 716.63 661.79 715.36 662.59 715.36 665.15 714.41 666.47 715.83 671.01 715.23 670.96 714.8 674.01 710.87 675.68 708.74 676.13 700.74 674.22 697.6 672.82 698.03 672.17 697.32 672.39 696.88 672.9 695.83 672.17 695.19 672.7 693.8 672.34 686.78 666.78 686.99 666.26 687.93 666.09 687.47 665.23 689.73 664 693.13 663.86 693.55 666.51 691.7 667.26 690.31 667.26 691.64 667.71 693.93 667.14 694.09 666.72 695.33 666.4 694.93 663.82 697.99 663.51 698.78 664.05 698.82 666.04 700.05 667.49 698.68 668.43 694.32 669.54 696.55 669.93 697.55 669.4 699.72 668.88 700.39 667.68 699.77 665.21 700.45 665.25 700 664.7 700.75 663.8 700.56 663.27 702.98 663.19 703.49 662.36 706.41 662 707.62 661.48 709.31 659.91 709.58 658.97 711.84 657.45 710.75 655.96 707.08 655.64 706.75 654.12 703.76 651.23 694.72 651.09 692.51 650.39 690.95 650.85 688.84 650.71 688.82 651.29 687.77 652.11 687.12 652.24 687.44 653.26 684.99 651.84 685.57 651.65 685.98 651.08 688.19 651 687.99 650.02 686.39 650.8 685.33 650.88 684.75 651.55 683.42 651.1 684.1 650.37 681.16 651.24 679.28 650.54 679.44 651.19 678.82 651.16 678.62 651.4 678.94 651.84 678.49 652.87 676.79 654.66 677.67 654.18 679.58 652.1 682.9 653.23 679.02 655.86 677.72 655.33 678.07 655.75 676.39 656.59 677.84 657.64 677.11 660.6 676 660 676.3 660.7 674.29 661.34 673.49 660.25 674.36 659.73 673.16 659.65 673.39 661.32 668.76 659.49 671.09 659.36 669.66 658.78 671.38 658.38 672.27 658.86 672.36 657.74 673.87 657.78 673.67 657.5 672.36 657.64 671.58 658.07 671.5 657.37 670.53 657.74 669.73 657.05 667.12 656.48 666.21 655.8 667.73 655.52 668.11 656.34 668.92 656.06 669.48 655.48 672.58 655.76 672.1 654.81 671.12 655.25 671.25 654.07 671.58 654.42 672.73 653.68 672.44 653.18 674.59 653.09 674.24 651.33 677.11 651.6 674.38 651.19 674.79 650.45 676.52 650.29 679.21 651.04 678.53 650.17 674.79 650.33 672.86 648.42 673.25 649.98 671.65 650.14 673.21 650.26 674.01 651.65 672.4 652.54 671.98 653.6 670.94 653.69 670.43 652.79 671.25 651.98 669.16 651.09 670.06 652.82 668.64 653.4 668.41 652.78 667.84 653.56 666.85 653.16 667.27 653.99 666.74 653.68 665.92 654.37 664.79 654.21 665.4 655.25 664.56 654.42 663.37 654.65 664.62 653.46 665.25 653.53 666.37 652.97 664.26 652.18 665.19 650.98 666.74 651.57 665.84 650.52 667.25 648.76 666.89 648.75 666.29 649.47 664.59 649.13 664.53 648.16 665.84 648.32 666.43 647.19 665.28 646.46 666.05 645 663.12 642.63 663.43 641.46 666.6 644.86 667.29 644.85 666.66 643.72 668.3 643.64 670.58 645.54 672.35 644.97 672.46 643.14 673.9 643.67 674.51 642.93 676.91 642.17 677.11 643.64 675.49 643.79 674.77 645.48 675.53 645.8 675.79 644.81 677.17 644.57 679.12 646.16 680.16 643.58 681.49 642.36 681.17 641.81 679.95 642.6 678.91 644.98 677.78 644.52 677.75 641.94 678.12 641.5 678.72 642.51 679.41 640.23 681.17 640.15 682.29 642.52 685.17 644.17 684.46 647.24 683.79 647.7 682.3 647.03 681.05 648.4 679.73 648.03 680.11 648.65 677.42 649.41 678.32 649.68 681.84 648.58 683.54 648.86 683.11 648.56 685.22 649.54 686.03 648.94 683.12 648.25 684.61 648.08 685.85 647.28 686.73 644.78 683.35 642.02 683.21 640.39 683.85 639.64 684.97 640.53 684.76 639.58 685.68 640.03 687.22 639.31 685.92 637.94 686.97 636.87 683.45 634.7 682.64 633.01 682.97 634.39 682.33 633.09 675.41 631.23 675.05 627.37 676.62 626.86 675.41 626.75 674.62 627.19 675.21 630.16 673.36 631.14 671.82 631.22 672.03 631.59 675.93 631.81 676.26 632.44 675.71 633.15 674.82 633.41 674.89 633.77 676.36 632.96 676.79 632.21 685.63 636.16 685.16 636.93 683.39 637.92 678.13 636.34 677.64 636.84 675.23 635.12 674.88 635.57 673.37 635.16 673.28 633.76 671.5 633.15 672.94 635.39 674.49 635.9 675.37 635.58 677.07 637.12 675.46 636.35 673.83 636.86 674.07 637.17 675.63 636.54 675.55 638.44 672.92 638.78 672.95 639.07 675.28 638.85 677.24 637.44 678.55 638.46 678.19 639.05 674.49 639.94 674 642.98 672.51 642.85 671.82 641.65 672.11 639.72 669.6 634.3 671.95 644.17 666.02 641.26 665.22 637.58 669.81 641.81 665.87 636.36 667.45 635.98 667.75 635.36 668.35 635.31 668.55 635 667.67 635.29 666.76 635.82 666.74 635.19 666.33 635.95 665.49 635.9 665.37 634.55 663.81 637.22 661.93 635.02 664.02 634 662.49 634.38 659.81 633.97 660 633.09 660.72 633.23 660.99 632.63 662.35 632.54 659.98 632.55 659.54 630.33 660.45 629.18 666.08 633.99 665.3 632.61 664.66 632.23 664.26 631.31 664.92 632.3 666.05 632.43 666.27 632.13 665.05 631.97 665.12 630.77 664.32 630.5 663.82 629.4 663.76 627.78 662.45 626.36 663.54 625.9 664.46 627.67 664.05 625.26 661.88 623.68 663.24 625.58 660.32 627.2 658.48 624.56 657.93 626.34 656.07 625.99 655.54 623.58 657.2 622.23 657.44 621.59 657.04 621.13 656.6 622.12 655.97 622.23 655.37 623.23 654.66 623.46 653.89 621.74 654.93 620.25 660.33 619.96 662.12 622.45 662.84 622.15 660.64 619.35 661.81 618.58 663.43 619.27 662.41 618.59 663.03 616.17 665.33 615.77 667 617.13 667.46 617.1 667.03 616.31 669.93 616.5 663.29 614.39 663.93 613.32 665.39 613.28 665.93 612.73 666.35 611.03 664.77 612.98 663.13 613.36 662.79 613.78 661.87 618.07 660.28 618.8 659.6 619.48 657.86 619.63 656.13 618.07 657.39 617.45 657.33 616.8 656.04 616.7 655.88 617.83 654.25 614.64 655.47 614.18 656.57 615.06 656.84 614.74 655.99 614.03 654.14 614.22 652.87 612.56 655.04 612.54 656.15 613.84 655.39 612.88 660.93 614.22 655.75 611.99 656.96 611.58 657.3 611.03 658.48 610.78 656.93 610.83 656.53 611.53 654.14 611.61 654.67 612.04 653.71 612.14 652.32 611.31 653.81 609.86 655.64 610.18 653.56 609.8 654.61 609.23 653.28 609.64 652.75 608.42 652.26 610.99 648.27 609.36 650.06 608.21 649.25 608.35 648.93 608.91 648.38 608.89 646.72 608.23 647.63 607.33 646.57 607.99 645.53 607.63 645.82 606.96 647.27 606.02 648.83 605.84 648.52 606.84 649.65 606.25 648.9 605.39 649.97 605.97 651.35 605.54 649.49 605.11 647.16 605.76 647.98 605.06 649.56 604.69 650.33 604.18 653.65 606.29 653.58 606.61 651.99 607.41 653.81 606.73 655.38 609.18 655.42 608.5 657.29 608.07 658.54 609.07 661.18 609.33 658.88 608.83 658.27 607.72 659.46 608.12 659.47 607.47 655.53 607.78 651.87 603.71 652.62 602.35 661.19 605.14 660.78 604.19 658.11 603.75 659.41 602.55 661.95 602.34 660.26 602.23 661.41 600.69 660.32 601.44 660.06 602.13 659.13 602.24 657.97 603.45 655.52 601.77 652.56 601.48 652.15 599.83 653.1 600.16 654.83 598.98 657.46 598.89 658.02 598.46 653.99 598.7 653.23 599.2 652.52 596.99 654.33 595.76 656.9 595.18 658.43 595.55 657.95 597.15 658.84 595.63 660.03 595.52 660.7 597.33 662.37 598.17 662.26 597.6 663.75 598.84 664.07 600.07 664.37 598.79 663.05 598.15 662.97 597.44 661.36 597.23 661.05 595.14 656.65 594.49 657.11 590.32 658.26 590.18 662.04 592.55 661.86 591.61 658.24 589.85 659.48 588.32 658.19 586.79 658.26 588.01 656.48 589.95 654.92 589.1 656.05 590.22 655.2 595.08 654.02 595.1 650.77 592.44 651.49 588.38 651.16 586.69 650.62 587.05 650.03 586.49 650.15 585.08 651.2 585.25 650.89 584.16 652.39 584.25 650.25 583.28 650.25 582.96 651.72 582.86 650.35 582.76 650.31 581.55 651.53 580.84 651.28 580.15 654.37 582.51 652.85 580.67 654.84 579.98 657.42 580.55 655.99 579.77 653.08 580.3 652.75 579.52 653.97 579.35 654.36 578.83 653.79 579.23 651.88 579.45 651.04 577.94 654.91 575.61 659.49 577.79 657.71 576.59 657.95 575.03 660.68 574.59 660.38 574.34 659.46 574.63 658.12 574.48 656.43 574.03 655.79 573.37 654 573.23 654.8 572.83 659.32 572.69 655.98 572.53 653.4 573.03 653.63 571.76 648.96 568.58 650.16 567.95 650.06 567.53 650.99 566.92 648.68 568.4 649.21 567.92 647.59 568.57 646.32 567.01 648.57 565.57 650.97 566.26 653.69 569.61 653.63 571.59 654.05 570.31 655.34 571.07 652.97 566.91 654.96 566.67 655.58 568.22 655.15 566.67 656.51 566.36 659.08 567.75 660.67 567.4 661 568.7 661.66 568 662.75 567.67 662.88 567.39 662.94 568.11 662.09 568.82 662.38 569.65 662.48 568.98 663.23 568.52 666.01 569.45 665.16 571.58 666.18 570.62 667.2 571.36 667.16 570.62 667.99 570.08 669.59 570.74 671.91 569.65 672.13 567.3 671.57 569.32 670.27 570.18 668.04 569.23 666.21 566.96 667.27 566.67 665.15 566.88 665.01 564.59 666.87 564.8 666.98 564.52 666.16 563.08 663.83 562.48 663.48 561.01 664.58 560.04 663.61 558.6 663.31 558.55 663.85 559.91 662.74 561.46 663.13 562.65 659.88 563.72 657.52 562.5 651.87 562.74 651.4 561.83 649.74 562.12 648.91 562.71 645.16 561.6 644.91 561.05 646.53 559.6 646.72 558.94 648.54 557.77 651.03 558.31 651.32 559.34 650.48 560.64 653.16 560.18 653.36 559.55 653.83 559.41 655.8 559.28 652.61 559.07 650.09 557.04 650.53 556.02 649.65 556.34 649.59 556.79 648.92 555.9 649.35 555.77 649.63 554.87 650.35 554.53 652.84 551.88 655.92 551.95 657.02 551.29 657.9 551.15 657.46 550.76 655.45 551.4 654.21 550.41 655.14 548.37 657.47 548.29 658.48 547.62 657.76 547.35 656.55 547.93 652.74 544.44 654.14 544.6 653.87 543.88 650.2 543.58 649.88 544.07 646.68 544.26 647.24 545.11 651.62 545.62 651.29 546.31 646.89 545.62 646.01 545.97 643.82 544.2 643.37 544.18 642.99 544.71 640.24 543.66 638.97 542.31 638.64 541.02 641.09 539.08 640.39 538.83 637.34 540.8 633.22 541.81 632.43 541.14 630.36 541.72 630.13 542.46 633.16 542.81 632.15 543.36 634.31 545.41 633.82 546.27 631.53 547.22 629.79 547.04 627.19 544.41 627.54 541.2 628.27 540.99 628.52 539.86 630.02 540.29 630.91 539.62 630.3 538.93 633.66 538.52 633.18 537.4 633.8 537.31 635.49 536.24 636.05 536.39 636.88 535.38 637.46 535.65 637.72 534.83 639.03 533.65 641.19 533.99 642.04 532.39 644.77 532.99 643.82 531.78 644.31 530.59 645.74 529.54 645.42 528.68 644.72 528.83 644.85 529.69 641.76 531.72 639.45 531.79 638.58 530.28 640.37 529.96 638.94 529.17 638.46 527.16 640.24 527.6 641.1 526.91 642.08 527.46 643.68 527.04 643.43 526.49 645.5 526.17 645.92 526.82 646.36 526.83 646.69 526.42 648.97 526.85 650.54 528.65 649.64 530.09 650.42 530.41 650.72 529.26 651.51 528.61 649.97 527.1 650.18 525.96 652.97 526.13 653.3 527.31 653.36 526.61 656.82 526.22 659.41 531.03 658.56 532.34 657.89 532.76 658.3 533.04 659.23 532.24 660.75 532.2 663.3 534.06 662.56 536.41 660.72 538.16 660.95 539.49 660.5 538.26 659.94 539.36 659.16 539.57 660.12 540.73 661.52 540.59 663.29 537.34 665.72 535.49 667.89 535.41 666.68 534.37 667.72 532.64 668.75 531.87 669.74 530.52 670.76 530.3 670.9 529.98 670.25 529.6 669.51 529.98 668.08 531.84 665.74 533.71 666.14 534.44 664.37 535.7 665.62 530.76 665.11 529.2 667.28 526.83 667.11 526.37 670.43 523.96 674.23 523.52 671.03 522.6 670.24 522.87 668.36 524.79 666.48 525.61 668.11 519.31 671.48 516.94 672.65 516.89 672.5 516.7 673.07 516.45 677.2 519.34 679.53 519.62 680.77 519.02 680.56 517.93 679.37 518.14 679.04 518.72 678.55 518.82 673.27 515.52 671.94 515.62 670.76 516.42 670.26 516.21 669.08 516.12 667.65 515.51 667.45 514.61 668.24 514.82 668.74 515.83 668.93 515.65 668.77 514.74 668.99 514.51 671.19 514.77 671.78 513.75 670.15 512.18 670.09 510.5 671.18 510.09 673.36 510.28 674.58 509.77 675.15 510.1 677.51 508.39 678.32 508.49 681.63 506.25 682.66 506.04 682.1 504.77 683.18 502.44 684.32 501.86 684.39 499.6 683.34 500.41 682.95 501.81 680.41 499.57 678.49 499.43 678.56 498.36 677.27 497.69 673.54 497.12 673.66 496.53 674.39 496.34 674.36 496.02 672.21 496.11 671.65 495.54 671.91 494.51 672.53 494.75 673.3 493.52 674.48 494.46 675.3 494.17 674.55 492.75 675.37 491.21 676.24 491.02 675.77 489.91 676.88 489.49 677.44 488.2 678.07 488.01 676.02 487.56 676.47 487.04 677.41 486.75 678.01 485.73 679.22 485.38 679.04 484.76 677.04 484.97 675.27 482.19 676.07 481.29 675.78 479.81 676 479.95 677.9 478.73 679.31 478.43 678.59 476.42 679.67 474.4 681.75 474.9 680.55 472.77 681.4 473.24 682.44 472.87 679.68 469.8 679.88 468.64 680.46 468.69 680.75 468.07 679.59 466.98 680.68 464.84 685.4 466.29 685.79 465.81 683.95 465.05 680.03 460.95 681.68 459.78 684.67 458.98 685.98 460.03 687.29 464.25 688.25 464.5 686.84 461.04 687.57 454.93 686.39 454.88 685.65 456.11 683.68 456.08 679.25 453.79 680.14 453.37 680.86 452.37 682.5 451.53 683.46 450.42 686.85 450.35 688.93 449.4 689.55 448.78 690.25 446.27 689.27 446.42 688.38 449.19 684.95 450.13 683.52 449.79 680.96 446.4 677.42 445.88 676.23 446.61 676.43 447.29 675.63 447.44 675.23 447.95 676.28 449.88 674.46 451.05 673.5 451.27 672.21 450.1 672.21 451.44 669.41 451.17 670.45 451.87 662.93 450.66 663.37 450.53 664.87 448.19 662.4 447.33 661.03 445.5 661.53 443.26 659.71 438.94 659.5 436.4 661.07 435.69 661.31 435.27 660.5 434.36 661.89 430.6 663.26 429.37 663.66 428.26 662.76 427.08 662.96 423.95 663.61 422.31 664.81 420.81 663.78 418.42 664.55 417.64 667.58 416.6 668.37 415.51 670.09 417.16 669.5 412.61 670.45 412.19 671.86 409.76 672.31 409.69 672.14 408.2 672.96 407.88 673.23 406.59 671.64 400.98 667.94 393.43 667.12 388.38 667.74 387.55 667.45 386 668.35 385.26 668.66 383.42 667.92 380.57 664.66 376.06 664.43 374.31 665.09 373 665.94 372.58 666.06 371.25 664.35 368.85 665.15 366.48 666.16 365.46 666.64 366.32 670.58 367.14 672.38 366.64 674.13 364.82 674.2 363.32 673.48 362.72 674.15 359.79 672.99 358.47 673.49 357.94 674.52 357.97 674.02 357.27 674.89 355.47 675.37 355.87 675.07 357.6 677.15 357.66 677.73 355.76 677.43 353.85 678.22 354.17 680.53 349.2 680.39 345.84 681.07 344.79 680.95 343.63 685.03 340.18 683.86 336.27 686.33 334.12 686.36 332.63 687.54 331.48 688.56 332.09 688 330.85 688.41 329.59 691.43 327.8 691.98 327.07 692.2 323.7 694.18 320.59 694.75 318.8 694.62 316.96 695.14 315.84 694.55 315.01 696.06 313.13 695.37 309.32 698.29 305.89 699.49 302.82 701.28 302.2 702.13 301.29 702.52 298.79 702.96 298.48 700.94 296.44 701.21 295.31 701.91 294.99 701.96 294.13 700.05 290.37 701.47 290.34 701.84 288.91 702.63 289.21 703.66 288.59 703.59 287.27 704.39 286.96 703.78 284.61 704.01 284.16 704.57 284.41 704.96 284 704.49 283.07 705 283.26 705.72 282.53 705.96 281.5 705.07 279.68 705.29 279.21 705.87 279.18 705.93 277.77 706.49 277.27 705.27 276.31 705.24 274.96 704.02 273.42 704.92 269.41 704.36 268.97 704.78 267.61 704.04 266.83 704.67 265.66 703.95 265.03 703.49 260.68 701.65 254.15 702.09 251.51 700.98 247.43 700.82 243.95 702.07 237.76 702.49 237.22 702.93 238.31 704.37 238.23 705.19 237.36 705.71 235.96 706.78 236.25 707.18 235.07 706.33 232.9 707.4 232.09 708.66 231.91 709 230.79 707.73 228.27 708.8 225.73 707.88 223.47 708.35 223.06 708.38 222.03 707.79 221.61 707.8 220.42 704.92 217.97 704.78 216.82 705.45 216.26 704.44 212.75 704.92 211.61 706.73 210.69 707.21 209.63 708.52 208.33 708.5 206.21 709.2 205.68 709.41 204.71 710.09 204.21 711.03 202.32 710.38 201.26 711.19 199.8 710.67 197.81 711.35 197.09 711.51 194.85 713.34 190.52 713.4 189.63 714.05 190.01 715.15 189.57 715.86 188.77 716.16 186.08 714.82 184.06 715.43 182.99 714.66 180.33 715.38 179.28 716.43 179.77 716.88 179.26 716.93 178.21 717.61 178.21 718 176.92 717.29 174.89 718.22 173.13 718.88 172.67 719.88 169.36 719.49 168.56 719.72 165.88 721 164.9 720.11 164.05 720.62 163.24 720.15 161.76 720.94 158.49 719.1 154.57 719.89 153.89 719.93 152.44 720.79 152.08 721 149.6 722.66 149.04 724.3 146.84 724.48 143.67 723.23 142.16 723.92 140.02 722.78 138.28 721.89 134.84 722.39 132.55 721.91 131.67 722.62 129.28 722.41 127.79 723.39 124.66 723.1 121.95 723.55 119.71 723.1 118.99 723.44 117.72 724.37 116.78 725.39 114.37 725.16 112.89 723.77 111.66 723.21 111.64 722.51 112.93 721.08 112.56 721.63 110.72 721.56 107.55 722.31 106.38 721.95 104.98 722.61 103.86 723.21 103.42 723.77 104.84 725.08 104.59 726 103.81 727.32 101.37 726.85 99.35 727.76 96.11 727.52 94.86 728.25 93.56 727.81 92.94 727.98 91.05 729.96 81.67 729.92 77.67 730.89 76.93 731.6 73.97 730.89 72.39 731.43 71.57 731.1 70.19 729.34 66.35 730.25 64.83 729.05 62.52 728.92 57.28 729.67 55.91 729.21 54.24 730.21 52.79 729.91 51.21 730.35 49.16 730.18 45.21 729.52 41 728.72 39.84 728.94 38.16 728.49 36.34 727.41 34.13 727.68 31.49 725.98 25.05 726.4 24.19 726.21 22.35 727.03 18.56 725.71 16.78 726.57 16.05 729.41 16.22 733.83 14.69 736.01 12.49 737.23 9.96 736.01 5.61 736.38 3.81 738.92 3.95 742.43 1 742.63 2.98 Z M 747.78 653.7 749.15 653.88 750.91 653.09 754.5 652.26 755.2 650.87 758.52 653.18 758.41 694.54 755.79 693.55 756.65 694.89 753.8 695.6 749.72 695.73 739.29 693.41 740.01 691.09 738.79 692.5 738.11 690.76 738.34 693.11 737.14 693.23 737.66 691.9 736.72 691.19 736.83 693.17 734.28 693.39 733.68 690.52 733.67 693.41 731.14 693.71 731.65 692.57 731 693.32 729.91 693.75 728.6 693.29 729.72 693.94 727.09 693.78 726.89 692.81 728.9 690.97 728.64 690.61 726.78 692.45 726.44 693.61 722.44 692.26 721.48 692.43 721.82 692.77 718.95 693.67 717.67 692.62 723.04 691.02 724.74 689.98 724.7 689.58 722.71 689.51 722.28 690.04 721.26 690.4 722.25 691.12 719.67 691.79 719.51 691.17 717.99 692.09 715.97 691.89 716.11 691.04 718.56 690.86 715.94 690.37 714.75 692.24 713.74 692.46 713.51 692.1 714.74 691.32 714.75 690.79 715.75 690.52 714.96 690.53 714.03 690.98 715.19 689.68 713.2 688.99 713.64 689.96 712.78 689.79 711.5 690.97 708.88 690.42 708.94 689.87 710.6 690.01 711.87 689.52 709.82 689.5 710.34 687.84 709.98 687.82 708.95 688.52 707.79 687.47 708.1 688.51 706.84 687.73 708.16 689.42 706.75 689.17 706.92 690.12 706.03 690.29 705.41 690.86 705.08 689.24 704.27 690 703.03 689.74 704.07 688.77 702.35 689.55 702.47 690.26 701.75 690.12 701.43 689.23 699.7 688.68 701.08 689.27 699.65 689.94 699 690.07 696.68 689.77 696.05 689.1 697.96 689.15 695.12 687.45 697.22 687.51 695.94 686.23 702.66 688.82 700.22 687.01 704.13 688.04 701.25 686.77 702.08 686.56 698.74 686.42 698.28 686.05 699.65 686.1 698.99 685.63 700.66 685.35 704.35 687.39 703.67 686.8 706.12 686.9 703.31 686.45 702.94 685.39 705.21 686.19 704.74 685.75 704.17 685.43 708.21 685.91 706.82 684.86 707.95 684.86 711.38 685.79 713.1 687.55 711.84 686.07 714.59 686.29 715.38 687.48 715.91 684.4 718.6 683.96 719.3 684.68 720.49 684.12 721.33 684.17 721.96 684.56 720.25 685.82 719.6 685.98 718.64 689.65 719.5 688.1 721.38 689.19 719.74 687.75 720.83 686.07 722.3 685.21 727.8 688.44 728.99 688.55 727.16 687.06 731.25 688.16 723.11 684.99 723 683.5 716.65 682.65 716.06 681.03 717.55 681.58 715.65 680.27 730.21 685.97 730 685.02 731.74 685.3 729.03 683.76 730.26 683.64 730.39 683.11 731.4 682.62 732.61 682.88 733.9 684.74 733.16 685.01 735.91 686.19 734.37 687.33 734.92 687.41 736.4 686.71 737.21 687.38 735.91 688.19 737.09 688.03 737.11 688.75 737.86 687.21 735.34 683.27 739.73 684.61 739.48 685.61 742.2 686.07 740.77 685.23 741.07 684.17 742.73 684.37 747.46 686.27 747.21 687.03 744.45 688.39 743.78 689.58 744.42 691.09 744.15 689.57 745.02 689.32 746.22 687.89 747.35 687.72 748.55 689.1 747.88 687.27 748.66 686.31 751.84 686.71 750.88 685.77 734.55 680.99 731.32 679.35 731.82 679.33 729.29 674.85 730.04 673.12 732.52 672.76 733.4 672.38 734.24 671.55 737.94 671.38 744.93 668.72 745.34 668.36 744.17 665.94 734.92 666.32 733.43 666.63 731.58 667.63 728.86 668.31 724.42 666.45 724.71 659.69 726.45 658.84 726.28 660.5 727.94 660.42 730.09 659.61 730.87 657.94 730.47 657.26 728.26 657.21 726.93 657.73 727.67 655.99 724.56 655.25 726.21 654.66 730.17 654.43 732.31 656.29 734.48 656.42 735.67 655.51 738.32 654.73 740.25 652.73 739.85 651.02 741.33 650.04 743.15 649.31 747.78 653.7 Z M 660.94 452.39 660.33 452.8 659.25 452.67 661.09 453.19 662.65 452.91 664.53 451.67 665.34 452.17 666.04 451.63 667.33 451.94 667.17 453.2 668.24 453.6 666.87 454.09 666.58 454.48 669.22 456.66 669.1 457.35 668.06 457.62 668 458.48 669.96 459.24 670.49 460.4 670.42 461.69 666.75 461.64 664.59 462.61 665 463.43 664.34 464.27 666.11 465.32 663.65 465.91 662.45 465.34 663.29 464.69 663.36 463.43 662.09 465.45 663.05 465.81 662.45 466.87 668.07 470.29 668.5 471.75 668.22 472.13 664.87 471.46 665.71 473.43 666.87 473.56 668.07 476.75 666.57 476.1 663.81 476.77 663.5 475.73 663.02 477.77 664.65 479.82 661.96 479.85 662.17 481.64 661.41 481.99 659.89 481.01 657.04 480.84 656.71 481.71 655.93 480.61 651.4 479.32 650.82 478.29 652.41 475.3 652.86 475.46 653.86 474.45 653.5 473.81 654.56 473.24 654.21 472.33 655.13 472.1 655.4 471.59 656.05 467.68 654.86 463.59 655.73 461.52 655.27 460.24 655.93 459.06 657.37 458.04 657.76 456.67 657.4 454.05 658.05 454.02 658.4 453.47 657.45 451.75 658.24 451.21 660.44 451.38 660.94 452.39 Z M 645.91 579.67 647.13 580.82 646.81 581.45 647.02 582.37 646 582.95 647.19 582.42 647.03 581.26 648.07 579.94 649.05 580.26 649.19 583.1 647.44 584.44 649.18 583.39 650.18 584.74 649.59 585.45 649.48 586.42 650.54 587.65 649.97 587.85 650.77 590.88 649.11 594.87 650.02 596.42 648.47 597.01 648.51 597.91 648.85 596.86 650.08 596.77 651.34 598.93 651.26 599.41 648.17 598.81 650.86 599.7 651.03 601.92 649.63 600.84 650.27 602.38 649.2 603.42 646.64 601.61 648.83 603.55 646.86 604.97 645.7 604.6 646.51 603.47 645.17 604.64 644.05 604.68 643.61 604.31 643.83 603.89 644.45 603.58 643.67 603.69 643.51 604.44 643.95 604.78 642.45 604.27 642.2 603.75 643.16 603.03 645.27 602.24 647.05 602.96 645.26 602.02 642.98 602.88 642.31 603.42 642.08 601.28 644.16 601.68 646.93 600.14 644.83 601.02 643.4 601.19 643.09 600.58 643.69 599.79 644.62 599.5 645.16 598.72 644.76 598.72 644.48 599.29 643.52 599.59 642.79 600.5 641.46 597.93 642 597.47 643.45 597.97 641.87 597.28 642.41 596.62 645.78 597.07 644.03 596.77 644.82 596.13 644.71 595.65 644.62 596.21 643.8 596.75 642.05 596.28 642.17 595.28 644.99 593.54 647.05 593.42 645.06 593.28 647.21 591.19 645.73 592.13 645.05 592.95 643.43 591.89 644.67 593.44 643.92 593.97 643.44 593.91 642.32 594.78 642.15 592.77 642.16 594.81 640.98 595.53 640.75 593.85 641.47 593.31 640.62 593.3 640.21 596.41 638.61 595.65 640.41 596.74 639.85 600.15 640.53 598.64 641.47 599.34 639.86 602.17 637.65 601.36 635.7 598.31 636.82 598.12 635.49 597.51 637.42 597.42 634.21 596.8 637.12 594.9 635.46 595.63 634.14 595.52 635.06 594.67 636.17 594.49 635.24 594.36 634.12 595.12 633.72 594.95 634.22 593.51 632.88 594.01 633.73 593.92 632.51 594.7 632.14 594.25 633.06 593.76 633.92 592.78 632.31 593.93 631.12 592.11 631.16 590.84 633.6 590.47 633.49 590.83 632.14 591.33 631.75 591.79 633.59 590.97 634.65 592.74 636.98 594.48 637.69 594.54 635.9 593.39 638.11 593.45 640.45 593.07 635.85 593.26 634.46 591.7 636.04 591.81 633.74 590.42 635.44 590.04 637.55 592 636.42 590.36 638.64 591.73 637.95 590.37 640.07 590.96 638.16 588.9 642.15 592.4 643.22 587.16 644.51 587.18 641.1 585.49 643.08 584.58 644.62 586 643.57 584.09 640.57 585.15 640.23 584.3 641.91 583.65 639.63 583.7 640.33 583.08 642.79 582.55 642.96 581.93 642.62 581.98 642.16 582.38 639.65 583.24 638.66 582.37 639.26 581.37 642.07 582.31 639.73 581.15 641.17 580.71 643.22 579.55 643.63 580.81 643.89 579.4 645.91 579.67 Z M 696.02 652.68 696.95 653.51 700.34 653.73 704.93 652.75 706.52 654.22 706.36 654.54 705.99 654.49 706.64 655.67 706.29 656.36 704.75 656.36 703.37 657.3 702.77 657.26 697.21 659.41 695.54 661.54 694.81 661.88 692.96 661.84 689.81 660.02 688.92 659.99 691.04 660.97 688.13 660.3 684.39 660.71 688.36 660.83 691.77 662.88 690.5 663.29 688.83 662.67 688.19 663.1 689.69 663.53 688.86 663.74 686.14 662.81 687.08 663.77 685.39 662.99 685.69 663.69 687.87 664.11 686.97 664.98 685.27 664.31 686.28 665.91 685.23 666.44 684.2 666.31 683.01 665.25 684.7 667.41 685.48 666.64 686.13 666.82 687.9 669.51 684.04 668.88 681.03 666.77 680.86 667.81 680.46 666.42 678.6 666.5 679.15 665.93 673.83 664.31 670.99 662.23 674.39 662.88 677.94 662.51 681.6 663.8 681.47 664.6 680.19 664.54 682.24 664.92 682.05 664.1 682.9 664.13 679.82 662.74 682.22 662.95 681 662.03 683.25 662.34 683.38 662.12 681.91 661.28 681.74 661.85 680.78 661.5 679.95 662.17 678.36 661.67 678.57 660.71 679.78 659.99 678.38 660.27 678.14 657.64 676.66 656.57 678.49 656.33 680.7 655.23 680.17 656.02 681.54 655.28 682.5 654.05 684.26 655.06 684.04 655.72 681.88 656.83 681.96 657.42 682.29 657.44 682.61 656.8 684.63 655.63 685.61 655.78 683.85 656.74 684.96 656.15 684.27 656.77 686.74 656.04 687.24 657.14 687.5 655.75 689.78 654.75 690.53 653.99 691.3 653.92 691.74 653.08 692.98 653.07 694.52 653.43 696.02 652.68 Z M 762.79 695.92 763.6 697.83 761.56 697.02 761.52 698.39 758.42 697.99 759.52 699.16 758.46 699.34 751.06 696.83 750.02 697.81 751.84 697.77 751.66 698.58 755.89 699.8 763.2 699.85 764.99 700.72 763.58 700.92 766.28 701.56 766.1 701.9 765.03 701.73 762.89 702.32 761.13 701.85 761.08 702.25 759.5 702.44 757.59 701.14 756.46 701.49 759.81 702.63 758.69 703.31 759.62 703.29 760.47 702.64 761.06 702.52 764.64 703.44 763.67 703.82 763.74 704.05 765.17 703.49 765.74 704.05 767.16 703.68 766.67 705.07 769.23 705.37 767.72 706.32 770.38 707.77 770.1 708.39 769.32 708.56 769.64 709.04 768.4 709.89 767.4 707.58 765.44 708.13 764.59 707.92 765.58 706.42 763.48 705.24 762.65 705.11 762.19 705.71 761.34 705.73 759.6 704.07 758.69 704.06 758.03 704.94 756.61 705.21 754.91 704.47 755.7 705.78 754.44 706 751.73 704.59 751.8 704.21 753.74 703.47 756.34 703.64 755.39 702.8 751.73 703.75 752.03 703.34 753.32 702.78 753.36 701.5 754.16 701.29 753.94 700.71 755.09 699.87 752.96 700.72 751.91 700.66 751.66 701.53 750.65 701.58 749.26 699.27 749.05 701.14 747.36 700.41 747.25 699.57 746.44 699.48 747.33 698.94 747.07 698.63 746.35 699.15 743.1 699.67 746.92 699.72 746.13 699.82 746.75 700.82 742.22 701 743.36 701.11 743.08 702.29 743.54 701.79 746.01 702.59 747.13 703.75 746.44 704.93 747.84 704.72 749.07 704.93 747.82 704.88 748.93 705.51 748.48 705.92 746.97 705.06 746.46 705.58 744.99 705.43 744.59 703.79 743.7 706.12 741.85 703.81 743.7 703.32 741.93 703.49 742.08 702.91 741.28 703.51 740.58 703.52 740.37 702.79 736.72 702.06 738.48 702.17 737.55 701.63 740.71 701.65 738.7 701.43 739.4 700.81 742.16 699.95 742.16 699.75 738.9 700.87 735.41 701.59 733.7 700.81 734.81 700.83 735.64 700.4 733.77 699.77 735.67 699.68 732.35 699.53 732.89 698.49 733.24 699.15 734.3 697.89 740.71 697.12 740.9 699.55 741.28 697.05 743.6 696.87 743.79 697.22 742.78 697.65 745.18 697.57 744.01 696.94 745.94 696.23 747.99 697.01 747.43 696.43 750.65 696.65 751.59 696.07 754.7 696.2 757.09 695.36 761.11 695.43 762.79 695.92 Z M 675.94 666.75 676.85 668.57 676.82 666.76 678.51 667.52 678.03 669.66 678.97 668.8 679.4 672.1 680.5 670.22 679.59 667.86 682.02 668.89 683.03 672.15 683.11 671.5 683.7 671.92 683.85 670.87 682.97 669.1 688.52 671.3 688.42 671.52 686.68 671.73 687.55 672.74 686.61 673.25 687.85 673.16 687.86 672.38 688.65 672.08 691.34 672.94 689.78 673.53 691.7 673.34 692.94 674.11 693.16 674.43 690.8 674.69 692.31 674.98 691.61 675.48 688.61 675.05 689.84 676.67 687.67 676.05 689.3 677.22 687.67 677.33 690.05 678.23 689.09 678.94 686.91 678.92 687.05 677.22 685.64 679.72 684.08 679.39 684.54 678.32 683.57 679.33 684.05 678.11 683.23 679.31 682 679.51 682.43 679.89 680.77 679.46 680.54 680.25 678.32 680.19 678.21 679.87 679.47 679.85 679.37 679.28 676.48 679.72 676.01 679.55 676.04 679.18 676.85 678.92 678.91 678.9 681.23 679.37 677.71 678.3 681.55 678.71 679.81 678.04 681.39 677.51 679.29 677.51 681.78 675.95 683.01 675.73 683.45 675.4 681.38 675.84 681.16 675.65 682.07 675.26 680.34 675.47 681.45 674.81 680.35 674.64 678.92 675.7 677.87 675.23 676.63 675.87 675.98 674.44 675.06 676.86 676.46 677.84 675.16 678.82 673.68 677.74 670.43 677.39 672.22 676.91 671.06 675 671.96 674.44 672.4 674.44 672.54 673.58 671.11 673.04 672.5 672.87 672.53 672.49 665.57 673.29 667.77 672.79 668.35 671.73 665.48 671.74 665.4 670.85 666.47 669.9 667.4 670.55 668.13 670.45 668.61 669.95 669.29 669.83 672.85 671.56 671.23 670.61 671.23 670.07 672.28 669.82 672.26 669.65 670.85 669.73 668.54 667.7 672.09 669.32 672.56 668.4 675.94 669.57 673.65 667.33 675.3 666.49 675.94 666.75 Z M 784.36 695.41 787.56 699.08 786.82 700.25 785.82 700.62 784.31 702.22 780.24 701.93 779.89 701.04 780.79 700.2 779.1 699.71 777.27 700.03 776.98 701.62 772.17 701.16 772.06 700.53 774.74 700.88 771.93 699.86 770.37 700.66 767.45 700.62 766.81 699.99 768.48 699.81 766.71 699.26 766.6 696.25 764.01 696.57 762.84 695.48 763.7 694.97 765.96 694.93 766.14 694.64 768.26 694.77 784.36 695.41 Z M 678.57 500.92 678.87 500.98 679.31 500.41 680.97 500.81 682.6 502.35 680.57 504.39 677.4 503.25 677.5 504.08 680.65 504.96 680.33 505.97 677.93 507 674.65 509.39 673.06 509.81 671.54 509.55 669.59 507.73 670.96 507.66 671.69 507.13 672.81 507.47 671.94 506.7 670.24 507.3 668.99 506.03 668.62 504.25 669.74 503.01 670.31 504.19 670.66 503.71 673 504.25 671.78 502.49 674.36 503.25 674.83 502.74 672.74 502.15 672.36 500.49 673.84 499.89 675.54 500.24 676.28 501.4 675.19 499.5 677.22 499.41 678.57 500.92 Z M 647.19 655.43 650.27 656.6 648.79 656.58 651.76 656.99 650.74 657.96 652.04 658.84 652.41 657.53 653.4 659.06 653.71 658.23 655.7 659.19 656.4 659.27 655.84 658.1 657.62 659.34 657.54 658.92 659.5 659.19 659.12 659.93 659.89 660.24 659.63 659.83 660.39 659.48 665.08 662.47 664.99 660.53 665.65 660.66 666.88 664.39 667.48 664.22 667.39 663.54 668.85 663.79 667.37 661.99 670.84 663.47 670.66 664.19 669.78 664.5 671.42 664.13 674.86 666.25 669.02 665.11 668.49 665.66 665.48 665.5 665.65 664.68 667.89 664.84 665.63 664.4 665.6 663.64 666.18 663.83 666.24 663.62 663.43 661.8 663.69 662.6 662.54 662.56 662.14 661.13 662.15 662.6 662.15 662.6 662.78 663.3 662.41 663.19 662.43 663.62 658.98 661.41 660.69 660.98 660.7 660.84 658.88 661.1 656.47 660.32 658.1 661.57 656.92 661.77 655.79 660.84 656.03 661.55 654.83 661.33 653.82 659.89 654.19 661.76 652.43 661.56 652.26 659.76 651.51 660.76 649.31 658.03 648.81 657.93 648.78 658.27 647.75 658.49 646.21 656.71 647.17 656.76 647.52 656.31 645.67 656.32 644.57 654.91 645.62 654.31 647.19 655.43 Z M 724 670.06 724.73 674.49 724.34 674.25 724.32 676.02 726.39 677.91 725.79 678.92 720.11 676.41 724.09 682.72 717.05 680.18 717.19 679.94 718.06 679.86 716.36 679.18 716.13 677.03 716.07 675.87 716.82 675.59 717.24 675.02 721.37 675.56 719.55 672.48 721.87 671.31 722.68 669.9 724 670.06 Z M 703.5 677.24 705.07 678.15 705.02 677.12 706.07 677.1 706.86 679.67 707.08 677.52 709.25 678.03 709.73 679.69 708.76 680 710.27 680.14 710.54 681.75 711.22 679.58 712.11 681.03 712.61 679.17 714.28 679.71 714.37 680.83 713.35 681.71 712.88 681.68 713.41 682 714.19 681.31 714.8 681.15 714.65 682.4 713.55 682.42 714.75 683.71 713.32 683.48 713.4 684.32 711.51 683.54 713.03 684.49 712.22 685.29 711.04 684.09 710.95 684.87 707.7 683.81 707.83 683.19 710.45 683.27 710.22 681.99 709.38 682.66 708.15 682.76 708.13 681.92 707.85 682.67 707.25 682.68 705.97 681.83 706.94 680.11 706.13 680.79 704.82 680.33 705.97 681 705.03 681.41 704.66 683.2 703.48 681.72 704.57 681.33 703.33 681.52 703.17 682.44 701.97 682.15 701.73 680.61 703.02 679.83 703.55 679.94 703.83 679.55 702.26 678.26 702.82 677.1 703.5 677.24 Z M 633.47 568.25 632.94 569.4 633.61 568.28 634.41 568.63 633.68 569.07 633.3 570.19 633.68 569.47 635.06 569.45 634.22 570.53 635.17 569.9 634.56 571.07 633.97 571.01 634.55 571.43 635.17 570.84 637.01 573.79 635.96 575.04 636.55 574.96 637.31 574.21 638.57 575.8 636.18 575.76 638.54 576.29 638.96 577.95 637.07 579.37 635.73 579.96 635.1 579.03 636.9 578.29 634.93 578.83 634.83 578.39 635.72 578.09 635.88 577.74 634.63 578.03 634.07 575.83 635.07 574.64 635.69 574.52 633.7 574.43 634.78 572.89 633.89 573.22 633.37 574.25 631.05 574.92 629.48 574.11 630.3 573.49 632.71 573.27 632.87 571.21 631.33 573.39 629.78 573.16 629.75 572.25 631.94 571.21 632.62 570.4 631.74 570.55 631.33 571.18 630.33 571.45 629.13 568.43 631.14 567.54 631.81 567.91 631.24 569.02 632.32 567.29 633.05 566.92 633.39 568.11 632.71 568.18 633.47 568.25 Z M 698.7 677.68 699 677.74 699.97 675.93 702.25 676.7 701.65 677.64 699.68 678.19 701.77 678.37 700.66 679.77 702.03 679.09 702.86 679.67 701.62 680.23 700.65 681.14 697.45 678.18 696.73 678.69 700.86 682.39 700.64 682.78 698.64 682.58 699.42 684.32 696.27 684.08 696.88 682.49 697.98 682.2 695.42 681.85 696.49 681.51 696.04 681 696.11 681.48 694.36 681.5 693.44 680.71 695.45 680.53 693.55 680.54 693.48 679.9 695.27 679.74 693.66 679.09 692.36 679.96 691.17 679.29 691.95 678.2 690.84 676.5 694.87 677.84 693.89 677.05 694.79 676.94 696.1 675.99 696.1 675.52 697.46 675.34 699.15 676.59 698.7 677.68 Z M 634.66 603.84 635.2 605.22 635.92 604.4 637.52 604.38 638.22 605.09 637.34 605.4 638.49 605.9 638.81 605.42 639.22 606.25 640.75 605.06 641.3 605.59 640.2 606.69 638.91 607.26 640.64 606.76 641.08 607.16 641.42 606.66 642.87 605.85 644.06 606.42 643.29 608.02 640.86 607.78 641.08 608.6 638.46 610.23 637.16 610.37 636.62 611.63 635.59 612.32 633.96 611.86 634.31 611.08 635.84 610.21 636.42 609.35 636.13 609.3 635.33 610.11 634.1 610.51 633.25 609.86 632.53 610.21 632.54 610.61 631.26 610.54 631.45 608.87 633.04 608.71 631.96 608.2 632.51 606.85 635.21 606.99 635.41 607.29 634.24 607.71 633.58 607.39 633.81 608.04 634.83 607.92 634.88 608.56 636.85 608.82 636.87 607.88 638.18 606.48 637.42 606.25 637.61 606.95 636.71 607.18 633.97 606.27 632.82 604.2 634.66 603.84 Z M 645.9 570.24 645.22 571.72 645.87 570.94 647.32 574.48 645.78 574.55 647.44 575.49 647.19 577.05 648.28 578.38 649.09 578.34 648.84 577.32 649.71 578.52 649.11 579.36 647.39 579.85 645.03 578.62 641.59 578.49 639.72 577.69 639.57 575.94 641.37 574.6 643.4 574.18 643.31 576.54 643.62 576.65 643.85 575.41 644.44 577.04 645.37 575.24 643.38 572.35 644.83 569.14 645.17 569.34 645.9 570.24 Z M 650 618.24 650.07 619.04 648.83 619.67 649.71 619.55 650.53 619.01 651.44 619.86 651.44 620.38 650.46 621.04 650.73 621.42 651.35 620.97 651.38 624.1 649.67 622.25 648.93 622.97 647.45 623.51 647.2 622.8 646.85 624.04 645.63 624.61 644.09 623.79 644.48 622.98 646.26 622.95 647.05 621.9 646.57 622.43 644.32 622.61 643.61 623.94 642.11 623.72 642.8 622.48 644.06 622.05 642.2 621.9 643.24 621.63 642.55 621.41 640.71 622.2 640.97 620.26 645.97 620.65 647.13 621.54 647.31 620.6 648.47 620.81 646.52 620.43 646.95 619.06 647.84 619.61 648.61 618.87 647.23 618.94 645.78 617.58 646.81 617 647.53 617.74 650 618.24 Z M 662.38 510.69 662.87 511.4 661.8 511.25 663.42 512.42 663.22 511.93 663.47 512 664.43 514.04 664.27 514.64 663.39 515.3 664.09 516.26 662.9 516.52 661.91 515.41 658.72 515.67 658.18 514.63 654.39 514.11 654.15 512.56 655.23 511.67 658.82 511.46 660.75 510.8 662.45 511.05 662.38 510.69 Z M 651.82 612.39 654.49 616.55 650.4 615.91 653.82 617.55 653.81 617.21 654.48 617.03 655.31 619.64 654.16 619.57 654.19 618.29 653.72 618.26 653.08 618.84 652.35 618.14 653.06 619.52 652.11 619.53 650.62 617.97 651.66 617.4 650.27 617.86 649.42 617.62 648.57 616.88 649.61 616.38 648.16 616.64 647.36 615.47 648.62 615.38 649.65 614.39 650.37 614.4 650.03 613.66 651.54 613.82 645.72 613.03 648.33 611.6 649.27 612.27 651.82 612.39 Z M 635.56 568.27 639.22 568.99 638.13 568.46 639.48 568.62 641.06 569.89 639.95 569.96 641.92 569.93 641.28 571.06 640.32 570.82 641.1 571.24 642.09 570.64 642.11 570.92 640.89 571.82 642.99 570.38 643.84 570.14 643.56 571.3 642.81 571.23 641.93 572.34 642.89 571.33 643.07 573.75 642.04 573.72 639.56 575.43 637.28 571.96 639.16 572.18 639.03 571.68 636.81 571.92 637.83 571.01 636.95 571.61 636.06 570.67 637.62 569.9 635.92 570.22 635.96 569.93 637.18 569.61 635.9 569.72 635 568.32 635.56 568.27 Z M 723.83 695.47 723.75 696.4 721.6 696.45 721.92 696.71 719.48 696.15 719.53 697.01 722.2 697.27 723.52 696.86 724.25 697.59 727.54 697.05 727.7 697.81 726.05 697.9 728.21 698.5 726.92 698.92 724.58 698.22 725.93 699.8 724.98 699.62 724.44 700.34 723.98 700.27 724.1 699.61 722.79 699.34 723.65 699.99 723.12 700.28 722.68 700.19 722.81 698.26 721.57 697.4 721.07 697.49 722 698.14 720.8 697.84 720.23 698.87 719.07 697.38 717.89 698.25 716.82 697.38 716.61 697.92 715.87 698.13 714.18 697.45 714.15 697.24 715.12 696.96 714.69 696.42 715.9 696.47 714.47 695.68 715.85 695.64 717.22 695.11 717.11 696.14 718.4 695.14 719.02 696.12 721.12 696.09 722.22 695.96 721.76 695.5 723.61 694.64 726.14 694.46 727.14 695.01 723.83 695.47 Z M 643.55 634.08 644.45 636.53 642.03 642.34 640.49 643.07 641.05 642.04 640.35 642.94 639.47 643.14 640.59 641.62 639.56 642.17 638.5 640.83 640.92 639.7 639.56 639.88 639.52 638.6 638.62 639.3 637.69 639.29 638.45 637.94 637.47 637.46 638.34 637.04 638.83 636.08 640.18 635.54 640.86 636.63 639.92 638.81 641.04 637.2 641.82 638.39 640.8 639.26 642.22 638.44 642.48 639.53 642.07 636.53 643.6 636.74 641.55 634.13 642.81 634.58 643.55 634.08 Z M 657.77 563.79 660.39 564.49 661.32 563.94 662.43 564.25 661.9 565.59 659.83 565.75 660.27 564.98 658.45 565.89 656.18 565.58 652.83 566.21 649.19 564.87 651.26 563.46 653.35 562.81 657.77 563.79 Z M 742.16 694.62 741.5 695.65 742.84 694.59 748.67 695.89 744.58 695.61 745.57 696.13 741.14 696.94 734.42 697.34 734.17 695.38 735.51 695.37 734.01 694.48 736.36 694.25 737.2 695.9 737.92 695.42 738.77 695.66 737.45 693.94 739.2 694.3 742.16 694.62 Z M 664.93 531.24 663.22 533.5 659.79 531.27 660.26 527.61 661.1 527.07 662.57 526.96 662.66 526.47 663.48 525.99 664.85 527.62 664.19 527.96 664.23 530.35 663.47 530.4 664.93 531.24 Z M 659.61 503.85 661.28 505.47 659.65 505.43 657.11 506.68 653.87 507.5 651.66 506.46 651.99 505.81 654.33 505.74 651.31 505.62 651.07 504.04 654.53 504.58 652.78 503.8 658.08 503.75 659.61 503.85 Z M 647.35 626.03 648.6 626.92 648.75 627.97 645.82 626.97 647.85 627.93 648.11 629.66 646.99 629.98 646.84 629.12 644.8 627.86 645.56 628.55 644.9 629.38 644.57 629.25 643.45 629.98 643.29 630.84 641.94 630.28 641.57 630.93 639.39 631.39 639.48 630.37 640.96 630.02 641.22 629.66 643.87 628.51 643.36 628.49 640.82 629.61 640.23 628.74 641.34 627.74 642.71 627.51 643.63 626.35 644.51 626.43 645.06 626.01 646 626.4 646.76 625.99 647.35 626.03 Z M 634.83 612.84 634.11 613.69 635.19 612.88 638.78 613.2 636.14 615.23 633.82 614.14 635.22 615.8 634.74 618.52 633.64 618.75 633.83 617.63 633.39 618.37 631.45 617.96 631.57 616.74 633.07 616.81 633.32 616.49 630.08 616.1 632.04 614.91 633.36 615.46 632.76 614.96 633.85 614.96 631.01 613.3 632.06 612.53 632.68 612.43 634.83 612.84 Z M 631.93 575.6 632.36 575.67 632.45 575.02 633.28 574.8 632.99 576 632.43 576.11 633.31 576.5 633.44 575.05 634.23 575.19 633.75 575.77 634.05 576.51 632.53 577.08 634.17 576.8 634.55 578.18 634.02 578.16 630.66 579.95 628.46 579.44 628.58 579.14 631.25 579.13 630.98 578.9 632.74 577.77 630.83 578.77 629.82 578.79 632.31 577.25 629.76 578.69 628.07 578.54 627.6 575.75 628.49 575.8 628.51 575.06 630.26 575.73 630.95 575.64 630.7 575.37 632.2 574.71 631.93 575.6 Z M 654.99 522.69 654.53 523.82 650.59 523.81 652.89 524.34 651.61 525.35 649.91 525.57 649.27 524.6 650.28 523.85 650.22 523.03 649.33 522.36 650.9 519.34 651.46 519.59 653.66 520.31 654.99 522.69 Z M 663.38 648.73 664.44 649.74 663.77 650.39 663.21 650.18 663.16 651.32 661.79 651.04 663.45 651.83 662.38 653.77 659.99 654.7 659.52 654.59 659.13 653.88 660.84 652.23 658.94 653.43 658.61 653.12 660.73 651.43 659.66 651.71 657.81 652.78 656.67 652.7 658.06 651.08 658.66 651.16 659.27 650.58 659.75 650.6 661.28 649.11 662.15 649.18 662.54 648.61 663.38 648.73 Z M 633.86 596.9 636.78 601.79 634.89 600.67 635.39 601.92 633.85 601.69 633.31 598.43 633.09 599.46 630.81 600.23 630.14 600.86 629.37 600.94 629.08 599.74 629.75 599.3 630.51 599.35 631.17 598.69 629.54 598.22 629.52 596.79 631.73 596.51 633.86 596.9 Z M 632.49 582.11 632.1 583.28 633.08 582.31 635.04 582.98 635.61 585.5 636.72 585.74 635.46 586.89 634.24 584.51 633.17 584.31 631.25 586.51 629.71 585.4 630.97 584.82 630.82 584.65 629.96 585.18 627.82 584.66 627.74 583.39 628.43 583.07 628.67 582.58 629.55 582.83 630.31 582.61 630.3 582.19 630.74 582.34 631.82 582.26 629.9 583.78 630.89 583.49 632.49 582.11 Z M 666.77 520 666.62 522.94 665.73 522.64 666.04 524.66 665.3 525.37 662.12 523.11 663.46 519.85 664.22 519.15 665.26 519.36 666.77 520 Z M 639.02 586.07 640.42 586.21 640.36 585.67 640.77 585.68 642.47 586.88 641.81 590.86 638.51 588.55 640.28 588.57 638.51 588.09 638.03 588.51 636.06 588.38 637.57 587.27 635.65 588.15 637.47 585.8 638.95 586.38 637.82 585.53 639.02 586.07 Z M 653.84 643.05 656.27 644.33 659.75 647.58 657.45 647.07 658.28 648.04 656.07 648.62 654.81 648.42 655.01 647.28 653.71 646.98 655.42 646.44 653.99 645.62 655.14 645.18 657.06 646.38 655.18 644.82 653.83 644.54 654.69 644.38 656.32 645.08 656.49 644.91 653.38 643.85 652.27 644.25 650.2 643.42 651.35 643.26 652.67 642.57 653.84 643.05 Z M 640.24 565.22 639.89 565.77 639.49 565.45 640.33 566.34 643.13 567.06 643.61 567.56 642.27 568.49 638.52 567.5 641.89 568.84 641.46 569.48 639.45 568.48 636.84 568.04 638.08 567.04 639.38 567.34 638.58 566.66 640.25 567.13 639.86 566.68 638.48 566.49 635.09 567.5 634.76 567.17 637.2 566.4 637.54 565.86 635.78 566.62 635.24 566.41 636.82 565.53 639.13 564.95 639.39 564.4 640.24 565.22 Z M 637.45 627.12 637.24 629.66 638.2 627.95 639.92 628.5 639.97 629.99 638.77 629.19 639.09 630.17 637.88 630.47 638.34 631.39 637.04 630.1 637.61 632.16 636.86 633.53 636.07 632.95 636.71 633.85 634.75 634.11 634 632.48 634.61 632.45 636.34 631.55 635.51 630.57 636.35 629.49 637.07 629.68 635.69 628.75 636.31 627.93 637.37 627.54 637.45 627.12 Z M 660.29 510.42 657.38 511.24 655 511.11 653.87 511.67 651.37 510.76 652.55 510.52 654.06 509.63 654.76 508.81 656.52 508.73 659.34 509.15 660.29 510.42 Z M 634.34 585.7 633.04 586.34 634.33 585.99 635.06 587.25 633.92 588.11 633.62 587.56 632.69 589.09 633.02 587.16 630.98 590.33 627.96 589.37 628.25 588.84 629.12 589.56 628.55 588.71 629.35 587.64 630.36 587.23 629.41 588.7 630.35 587.53 632.66 586.52 631.79 586.48 633.17 584.94 634.34 585.7 Z M 652.03 636.41 651.34 636.92 652.97 636.56 652.88 637.9 653.11 637.44 657.05 638.72 656.19 640.53 651.77 639.05 648.94 635.47 650.58 636.04 652.03 636.41 Z M 643.37 616.06 644.93 616.9 645.32 619.05 643.79 618.81 644.93 620.21 645.79 618.68 646.52 619.06 645.69 620.5 641.26 619.95 641.2 619.23 643.46 619.4 640.86 618.55 641.14 616.99 643.22 617.39 641.17 616.37 643.91 616.87 642.81 616.01 643.37 616.06 Z M 658.75 640.22 662.78 642.32 664.16 645.54 660.87 643.1 656.32 641.29 656.2 641.04 658.59 641.61 656.54 640.72 656.84 639.22 658.75 640.22 Z M 664.69 502.62 665.16 503.21 664.24 502.72 665.76 503.63 665.96 505.76 663.1 506.35 660.55 503.55 661.45 503.4 662.23 504.7 661.94 502.99 664.1 502.3 664.69 502.62 Z M 658.66 515.82 659.59 515.88 662.06 515.7 662.79 517.68 657.11 517.39 657.11 517.39 656.6 517.36 655.44 515.72 656.17 515.02 657.92 514.75 658.66 515.82 Z M 657.44 632.35 657.6 632.94 656.76 632.72 657.65 633.1 658.49 635.22 657.45 635.82 659.91 636.51 659.83 636.9 658.92 637.4 653.71 635.83 653.8 635.17 654.73 634.68 656.26 634.97 655.61 633.42 657.53 633.51 656.2 632.56 657.44 632.35 Z M 711.45 693.19 713.64 694.32 713.97 693.83 714.7 693.86 715.51 694.75 714.35 694.92 716.15 695.05 713.81 695.03 713.69 695.61 713.02 695.76 711.21 695.21 712.9 694.73 710.38 694.83 710.6 694.05 709.54 694.38 708.94 693.81 708.33 695.68 707.56 694.35 707.08 695.35 706.36 695.42 706.82 694.61 705.61 694.3 706.71 693.78 706.54 693.21 709.68 693.57 711.45 693.19 Z M 644.93 637.96 645.38 639.24 645.77 638.14 646.01 638.68 646.33 638.36 647.56 638.18 646.17 639.61 646.43 640.06 644.87 640.75 645.5 640.79 646.39 640.26 645.09 641.47 644.21 642.91 643.4 642.52 642.7 643.67 641.53 643.34 642.39 642.25 644.19 641.35 643.74 641.12 643.19 641.66 642.67 641.74 644.73 637.66 644.93 637.96 Z M 662.37 645.94 663.11 648.53 660.63 648.31 660.92 647.4 662.17 647.62 662.19 647.38 658.73 646.26 656.42 644.14 657.39 643.35 657.8 644.11 662.37 645.94 Z M 669.59 666.94 667.17 668.3 667.86 668.5 668.39 667.92 670.12 669.67 668.59 669.72 667.61 670.19 666.8 668.87 666.78 669.76 661.52 667.13 666.84 668.71 664.44 667.51 667.24 667.73 665.73 666.29 666.48 666.42 669.59 666.94 Z M 660.56 524.22 659.11 524.7 657.79 524.49 656.48 522.17 657.48 521.38 658.9 521.4 660.94 522.42 660.56 524.22 Z M 648.75 569.34 651.84 571.73 650.69 572.68 648.86 573.34 647.94 572.11 649.6 570.29 648.75 570.62 647.43 571.97 647.34 569.47 649.16 569.87 647.25 568.98 648.75 569.34 Z M 634.28 578.18 633.7 579.24 634.71 578.77 635.01 579.96 633.79 580.72 632.79 580.54 633.54 579.37 632.33 580.64 630.02 581.64 628.97 581.79 628 579.51 630.66 580.24 634.28 578.18 Z M 781.73 709.3 782.04 709.87 782.83 709.36 783.99 709.84 783.96 710.11 783.11 710.04 783.74 711.11 778.32 710.24 778.24 709.96 779.43 709.69 778.78 708.5 781.07 709.83 780.36 707.43 781.84 706.84 782.02 708.39 782.93 708.43 781.73 709.3 Z M 658.02 519.07 660.63 519.75 662.36 519.43 661.3 521.71 657.64 520.7 656.43 521.37 656.41 522.06 656.19 520.89 657.41 519 658.02 519.07 Z M 690.73 679.69 692.1 680.63 690.51 680.59 690.97 681.55 689.79 681.58 689.88 682.73 686.42 682.58 686.5 681.36 688.36 681.26 689.48 680.52 687.92 680.68 688.01 680.14 690.33 679.98 688.31 679.39 690 678.98 690.73 679.69 Z M 662.39 489.47 659.47 489.95 660.96 490.97 660 491.08 659.46 491.63 655.71 490.26 655.44 489.89 656.11 489.14 660.26 489.56 660.19 488.8 660.97 488.32 662.39 489.47 Z M 652.83 499.84 654.16 501.55 652.21 501.95 650.09 501.6 651.25 502.68 648.67 502.2 648.1 501.36 649.33 500.4 651.26 500.65 651.74 500.13 652.83 499.84 Z M 649.64 622.56 650.44 623.48 649.8 623.81 649.06 623.21 650.1 624.33 651.38 624.5 651.24 626.59 648 625.39 647.37 623.65 648.93 623.08 649.64 622.56 Z M 642.12 562.95 642.77 563.28 642.54 563.02 643.61 563.43 643.42 566.71 640.12 565.82 640.8 564 641.34 564.06 642.12 562.95 Z M 637.7 561.15 639.38 562.73 636.77 563.86 636.1 563.77 636.29 562.78 635.34 562.75 636.03 563.56 635.07 562.63 632.97 562.61 632.78 561.73 636.1 561.9 637.85 560.74 637.7 561.15 Z M 639.27 579.81 637.99 582.51 635.09 581.24 638.98 578.2 639.27 579.81 Z M 636.99 582.14 638.83 583.29 638.79 583.76 636.69 583.52 637.27 584.08 639.24 584.57 637.45 585 636.82 585.56 636.05 585.21 635.33 583.15 636.13 582.87 636.51 582.34 635.96 582.82 635.25 582.82 634.36 581.62 635.51 581.75 636.99 582.14 Z M 676.98 642.01 674.86 642.71 674.48 641.45 676.19 639.68 678.27 639.23 678.94 638.77 678.98 639.31 676.98 642.01 Z M 791.67 701.98 790.44 702.97 787.3 702.63 787.06 701.67 788.24 700.91 790.82 700.57 791.67 701.98 Z M 667.06 656.75 668.89 657.24 669.25 657.02 670.28 657.57 670.12 658.64 668.64 658.79 667.45 658.11 668.05 657.75 669.03 658.11 668.93 657.91 667.91 657.5 665.19 657.24 664.79 657.55 661.82 657.95 662.28 657.47 663.03 657.66 663.12 656.86 664.99 656.74 665.46 656.15 667.06 656.75 Z M 655 515.45 654.34 517.61 651.01 515.64 651.37 514 655 515.45 Z M 642.3 644.71 643.31 645.61 643.66 644.98 645.35 645.27 646.93 644.78 646.38 646.54 644.9 647.12 644.37 646.97 641.35 645.4 641.61 644.52 642.3 644.71 Z M 645.97 485.91 644.32 486.75 642.96 484.46 644.55 484.45 644.63 483.61 645.97 484.3 648.25 485.65 645.97 485.91 Z M 653.47 518.57 652.25 518.87 649.74 517.94 648.78 516.93 649.46 516.42 651.03 516.18 652.44 516.98 653.47 518.57 Z M 646.11 610.47 648.46 611.43 644.52 613.41 643.81 612.82 644.76 611.43 643.67 611.84 644.68 610.81 646.11 610.47 Z M 653.52 595.59 650.99 596.86 650.31 596.2 650.83 592.96 652.54 594.22 653.52 595.59 Z M 661.08 496.67 659.05 497.29 657.34 496.86 659.28 498.72 657.27 498.06 656.39 496.41 657.06 495.65 658.55 496.82 657.11 495.5 657.91 494.98 658.19 495.47 658.97 496.15 660.66 496.19 661.08 496.67 Z M 657.7 524.75 659.15 525 660.63 524.98 659.12 525.78 659.11 528.15 658.35 528.43 656.58 525.81 657.54 525.21 657.7 524.75 Z M 659.75 628.66 657.5 629.68 656.42 626.78 658.01 626.73 659.28 626.89 659.75 628.66 Z M 652.24 576.51 650.94 576.94 649.96 576.47 649.05 573.82 653.28 575.71 652.24 576.51 Z M 652.53 572.3 654.91 574.88 653.47 575.64 652.13 574.87 653.57 574.98 649.47 573.27 653.33 574.57 650.84 572.99 651.94 572.01 652.53 572.3 Z M 648.66 523.52 647.8 525 645.99 524.97 646.4 522.63 648.11 521.73 648.74 521.94 648.24 523.32 648.66 523.52 Z M 648.3 641.58 644.95 642.81 645.41 641.32 648.16 639.93 648.66 639.92 649.72 640.71 648.3 641.58 Z M 663.4 508.94 662.66 510.22 660.54 509.47 659.98 508.54 661.58 509.13 660.17 507.03 661.39 506.87 663.4 508.94 Z M 728.27 682.08 727.86 683.13 723.86 682.3 723.14 680.61 725.15 681.27 728.27 682.08 Z M 779.45 711.8 778.75 712.84 777.6 712.54 777.76 713.05 777.04 713.2 776.97 711.99 776.22 712.81 774.55 712.26 774.37 712.73 772.76 712.33 773.09 711.52 778.44 711.98 777.76 711.36 778.1 711.36 779.45 711.8 Z M 672.64 678.56 672.92 679.58 673.3 678.91 673.75 678.86 673.29 680.19 670.8 680.11 670.87 679.13 668.29 679.31 669.46 678.29 670.01 678.29 672.64 678.56 Z M 722.67 693.58 726.09 694.03 722.16 694.86 718.85 694.09 720 693.55 720.89 693.69 721.81 693.17 722.67 693.58 Z M 797.57 701.62 795.02 701.64 795.37 700.11 797.09 699.66 798.51 700.02 799 700.58 797.98 700.68 797.57 701.62 Z M 639.91 578.27 640.44 578.96 642.55 578.69 643.54 579.18 641.18 580.55 639.31 580.91 639.73 579.41 641.78 579.91 639.72 579.16 639.91 578.27 Z M 655.88 628.36 656.75 630.34 656.14 630.32 656.8 630.61 653.95 629.98 653.77 628.03 655.88 628.36 Z M 654.96 501.31 655.52 502.14 655.51 501.91 656.39 502.83 652.51 503.26 651.57 502.1 654.42 501.83 654.96 501.31 Z M 667.36 462.93 669.71 466.38 667.29 464.35 665.16 464.25 665.1 463.93 665.74 463.5 664.94 462.65 667.36 462.93 Z M 651.79 550.06 650.03 551.24 649.53 549.47 651.68 548.75 653.21 548.88 652.79 549.75 651.79 550.06 Z M 5.04 179.51 1 180.85 2.02 178.36 4.19 178.99 5.04 179.51 Z M 662.74 627.26 663.13 629.33 661.27 629.22 660.67 628.65 662 628.25 660.6 628.52 660.17 627.83 661.76 627.03 662.74 627.26 Z M 655.01 500.31 657.37 500.9 658.95 500.87 659.79 502.46 656.74 502.67 656.18 501.65 658.45 502.18 659.22 501.66 656.02 501.3 655.01 500.31 Z M 652.94 508.18 651.36 508.52 648.55 506.46 649.96 505.91 652.94 508.18 Z M 659.32 508.09 657.8 508.47 654.78 507.77 658.5 506.81 659.75 507.36 659.32 508.09 Z M 674.79 490.62 674.04 493.11 672.12 491.94 672.52 490.92 674.29 490.24 674.79 490.62 Z M 656.98 498.25 658.03 499.05 660.4 499.02 659.98 500.9 657.29 499.74 656.72 498.18 656.98 498.25 Z M 661.37 635.15 661.19 636.49 661.71 635.8 662.41 635.74 663.03 636.77 662.16 637.54 659.52 635.47 659.74 634.54 661.37 635.15 Z M 657.86 574.57 657.61 576.18 653.83 573.7 655.37 573.47 656.74 574.28 657.86 574.57 Z M 645.21 644.72 643.94 644.75 644.04 643.43 647.26 642.42 647.51 642.69 645.21 644.72 Z M 656.06 525.88 653.45 526.25 652.53 525.72 652.35 525.02 653.08 524.75 653.2 524.19 654.77 524.95 656.06 525.88 Z M 661.87 518.93 660.16 519.41 657.9 518.72 658.72 518.18 661.96 517.86 661.87 518.93 Z M 666.21 494.2 664.94 495.02 665.03 493.85 663.23 492.43 664.03 491.32 665.81 492.55 665.22 492.99 664.86 493.08 666.21 494.2 Z M 650.03 504.44 650.36 505.45 645.93 505.15 646.04 504.78 646.77 504.86 646.89 503.96 647.61 504.18 650.03 504.44 Z M 791.02 697.06 792.17 698.78 786.99 696.65 787.7 696.44 791.02 697.06 Z M 660.55 637.31 661.8 639.09 659.08 638.95 658.94 637.48 660.05 637.03 660.55 637.31 Z M 662.02 495.88 661.42 496.2 659.28 495.97 658.46 495.27 659.71 494.24 660.74 494.89 662.02 495.88 Z M 662.51 670.04 661.41 670.62 660.87 670.02 661.64 669.52 660.27 669.31 661.33 668.91 660.8 667.85 661.89 668.25 664.29 669.21 662.31 669.24 662.51 670.04 Z M 654.38 626.28 654.19 627.06 652.39 620.7 655.21 626.22 654.38 626.28 Z M 666.04 506.28 665.82 507.88 663.58 507.72 663.29 506.45 666.04 506.28 Z M 666.93 468.18 667.13 468.38 663.24 466.89 666.01 466.08 666.93 468.18 Z M 726.88 678.87 726.92 680.72 726.12 680.92 723.48 679.2 725.39 679.48 726.41 678.86 726.88 678.87 Z M 643.22 624.65 642.82 625.32 639.4 625.85 640.47 624.24 641.3 624.8 641.03 624.13 641.95 624.44 643.22 624.65 Z M 662.09 497.4 662.65 498.49 662.03 499.03 659.43 498.53 658.83 497.55 660.81 498.08 661.75 497.33 662.09 497.4 Z M 639.66 509.31 637.91 509.6 637.08 507.74 637.83 506.95 639.66 509.31 Z M 649.63 520.68 649.46 522.07 648.1 520.97 649.33 519.2 650.76 519.1 649.63 520.68 Z M 664.86 566.45 663.58 566.98 662.83 566.35 662.98 564.45 664 564.73 664.86 566.45 Z M 690.35 684.23 689.56 684.69 687.42 684.51 687.11 685.97 685.56 684.19 688.03 684.12 688.03 683.65 689.2 684.09 690.35 684.23 Z M 694.98 674.92 694.61 675.99 694.2 675.8 694.47 676.12 693.52 676.51 692.44 676.22 692.02 675.81 693.15 674.91 694.98 674.92 Z M 653.22 512.76 653.77 514.15 650.69 513 651.51 511.85 653.22 512.76 Z M 631.07 586.84 629.91 587.24 626.75 586.13 627.36 585.7 628.4 585.62 631.07 586.84 Z M 663.99 640.67 662.42 641.34 660.72 639.92 662.4 639.42 663.99 640.67 Z M 640.87 561.1 641.07 562.56 638.67 561.8 638.44 560.67 639.13 560.76 640.87 561.1 Z M 733.12 695.3 732.6 696.27 732.59 695.56 731.39 695.8 731.22 696.57 729.24 696.65 729.72 695.68 732.95 694.96 733.12 695.3 Z M 646.97 624.25 647.94 625.75 646.58 625.23 646.45 626.01 644.24 625.55 644.38 625.01 645.65 624.95 646.97 624.25 Z M 727.25 695.09 727.75 695.64 728.61 695.66 727.52 696.03 726.71 695.55 726.58 696.36 724.43 696.44 724.37 695.66 727.25 695.09 Z M 776.43 705.6 778.24 707.59 777.38 707.25 776.52 707.2 776.7 707.85 774.99 708.01 775.06 707.6 776.28 707.19 775.67 706.43 776.43 705.6 Z M 645.23 504.75 644.65 504.99 643.75 504.69 643.53 502.75 644.93 502.97 645.23 504.75 Z M 643.41 626.02 642.63 626.95 640.6 626.43 639.82 626.84 639.3 626.74 640.11 625.96 642.59 625.81 643.41 626.02 Z M 777.69 709.24 776.59 709.63 775.92 708.81 777.31 708.6 777.06 707.99 777.71 707.46 778.77 708.25 777.69 709.24 Z M 639.77 617.12 639.95 619.01 637.74 616.98 638.98 617.32 638.81 615.93 640.34 617.03 639.77 617.12 Z M 686.56 456.98 686.32 458.5 684.2 457.81 684.87 456.85 686.56 456.98 Z M 739.31 703.31 739.19 703.8 738.58 703.35 738.18 703.8 738.63 703.99 738.09 704.34 736.66 704.13 736.81 702.73 737.24 702.82 739.31 703.31 Z M 694.71 689.42 696.16 690.28 697.58 691.24 696.79 691.84 694.84 689.76 694.53 690.65 693.73 690.16 694.71 689.42 Z M 642.19 627.12 640.05 628.33 638.96 627.28 640.1 627.11 640.88 626.68 641.58 626.86 642.19 627.12 Z M 677.23 452.73 676.74 452.89 674.85 451.82 675.75 450.46 677.23 452.73 Z M 640.93 610.99 640.25 611.47 637.56 611.03 639.35 609.92 639.44 610.28 640.93 610.99 Z M 733.45 701.79 734.09 702.41 733.26 702.36 732.9 703.47 730.83 702.04 733.45 701.79 Z M 656.47 663.75 656.93 664.53 656.34 664.37 656.36 665.26 653.43 665.13 656.47 663.75 Z M 662.88 500.85 660.26 500.88 660.45 499.95 661.6 499.43 662.03 499.97 662.88 500.85 Z M 651.42 562.93 648.97 564.72 649.17 563.29 650.65 562.4 651.42 562.93 Z M 661.68 644.12 661.71 645.08 658.98 644.25 659.33 643.5 660.13 643.81 661.68 644.12 Z M 653.94 498.21 653.12 498.34 650.65 497.26 652.71 496.91 653.94 498.21 Z M 642.18 609.72 641.32 610.58 639.63 609.85 641.23 608.9 642.18 609.72 Z M 569.11 300.09 570.16 300.64 567.61 300.32 565.62 300.87 567.3 299.49 569.11 300.09 Z M 705.04 682.16 705.43 682.74 705.78 682.18 706.97 683.97 704.98 683.76 705.04 682.16 Z M 647.81 614.08 646.24 615.1 645.78 613.49 646.98 613.33 647.81 614.08 Z M 693.84 684.54 694.05 684.95 693.59 684.94 693.95 685.39 692.98 686.03 691.36 684.99 692.1 684.6 693.3 685 693.84 684.54 Z M 667.35 472.46 670.77 474.3 665.85 472.73 667.35 472.46 Z M 690.92 671.21 690.36 672.04 687.68 669.83 688.29 670.04 690.92 671.21 Z M 662.64 489.23 663.17 490.66 661.32 490.65 660.45 489.91 662.41 489.88 662.64 489.23 Z M 661.87 526.27 661.57 526.86 660.47 526.85 660.57 525.91 661.4 525.28 661.34 525.55 662.67 526.02 661.87 526.27 Z M 752.47 702.89 751.56 703.09 751.79 701.83 753.3 700.85 752.47 702.89 Z M 680.69 676.57 678.81 676.88 679.46 675.61 680.96 675.8 680.69 676.57 Z M 664.98 498.89 664.93 499.66 663.44 499.55 664.5 500.68 662.27 499.29 664.98 498.89 Z M 674.05 499.57 671.83 499.67 671.87 498.58 672.91 498.65 674.05 499.57 Z M 641.92 632.68 641.22 632.75 640.08 631.74 641.46 631.09 641.92 632.68 Z M 655.65 498.17 656.7 500.31 654.84 499.6 655.65 498.17 Z M 660.94 388.06 660.52 388.92 659.34 388.19 659.26 386.99 660.94 388.06 Z M 641.65 623.29 640.39 623.74 641.64 622.09 642.58 622.19 642.98 622.32 641.65 623.29 Z M 690.36 685.42 691.44 686.34 690 685.93 689.94 686.67 688.84 685.51 689.59 684.99 690.36 685.42 Z M 657.2 643.23 656.52 643.81 653.44 642.57 654.47 642.62 657.2 643.23 Z M 642.81 522.07 644 522.68 643 522.5 644.86 524.32 642.41 523.18 642.81 522.07 Z M 638.27 611.32 637.18 612.6 636.15 612.22 637.13 611.15 638.27 611.32 Z M 650.09 509.32 651.56 509.62 652.87 509.32 652.5 510.04 651.22 510.45 650.09 509.32 Z M 704.47 691.74 703.38 692.36 702.68 692.12 702.69 690.79 704.47 691.74 Z M 645.71 563 646.16 564.63 644.85 564.57 644.83 563.52 645.71 563 Z M 719.13 657.69 718.5 657.75 718.4 656.96 721.13 656.32 719.13 657.69 Z M 675.82 460.9 674.47 461.76 673.65 460.44 674.48 461 674.63 460.41 675.62 460.42 675.82 460.9 Z M 645.97 629.66 645.23 630.63 644.27 630.62 645.8 628.62 645.97 629.66 Z M 688.26 654.82 687.29 655.21 686.05 654.91 687.11 654.25 688.5 654.31 688.26 654.82 Z M 653.62 499.51 651.68 499.69 651.34 499.07 652.31 498.57 653.62 499.51 Z M 656.13 652.24 655.32 652.28 654.4 651.76 657.1 651.34 657.1 651.79 656.58 651.91 656.13 652.24 Z M 783.39 711.8 785.03 712.93 780.92 711.79 783.39 711.8 Z M 630.26 593.87 631.62 594.26 631.43 595.31 629.31 593.94 630.36 594.2 630.26 593.87 Z M 740.95 704.03 742.32 705.2 739.88 704.46 740 703.7 740.95 704.03 Z M 660.16 648.33 660.35 649.65 658.36 649.45 660.16 648.33 Z M 667.76 516.38 666.93 516.85 665.97 516.65 666.76 515.52 667.18 515.73 667.76 516.38 Z M 649.72 525.95 649.13 526.26 648.09 525.11 649.21 524.77 649.72 525.95 Z M 679.01 449.89 677.35 450.29 676.93 449.86 677.57 449.1 679.01 449.89 Z M 667.17 362.38 668.44 363.76 667.64 363.5 667.44 364.12 667.17 363.98 666.7 363.21 667.17 362.38 Z M 632.39 580.92 632.94 581.02 633.39 580.96 632.05 581.91 630.5 581.99 632.39 580.92 Z M 650.15 643.64 651.53 644.25 652.22 644.43 651.46 644.81 650.99 644.23 649.31 644.74 650.15 643.64 Z M 647.11 639.8 646.47 639.81 648 637.94 648.06 639.19 647.11 639.8 Z M 676.01 498.26 677.19 499.05 675.29 498.92 674.86 499.52 674.49 498.88 676.01 498.26 Z M 635.61 588.8 638.3 590.2 636.3 590.06 635.61 588.8 Z M 648.15 563.28 647.94 564.58 646.36 563.15 648.15 563.28 Z M 669.82 457.32 670.5 458.68 668.41 457.96 669.82 457.32 Z M 669.71 512.71 670.65 513.93 668.73 513.25 669.16 512.36 669.71 512.71 Z M 668.64 494.82 667.68 495.77 666.83 494.54 667.9 494.55 668.64 494.82 Z M 664.7 480.59 664.18 481.31 662.05 479.92 664.7 480.59 Z M 533.83 303 533.35 303.18 532.69 301.73 533.73 301.65 533.83 303 Z M 645.3 609.04 646.68 609.38 646.95 609.09 647.59 609.69 644.68 609.63 645.3 609.04 Z M 664.63 477.6 664.6 478.61 663.17 477.71 663.66 477.26 664.63 477.6 Z M 653.81 495.43 653.29 495.69 651.23 495.06 653.19 494.91 653.81 495.43 Z"/>
</g>
</svg>