<?xml version="1.0"?>
<svg xmlns="http://www.w3.org/2000/svg" version="1.2" baseProfile="tiny" width="800" height="1097" viewBox="0 0 800 1097" stroke-linecap="round" stroke-linejoin="round">
<g id="COL">
<path d="M 506.56 41.38 495.45 45.94 464.59 54.36 446.78 87.02 439.94 86.68 433.67 88.45 430.48 90.82 424.55 102.31 420.21 104.69 414.11 118.85 408.31 125.16 406.82 130.58 403.98 132.71 402.38 155.51 397.42 167.33 397.37 170.33 400.17 173.13 393.46 183.34 391.48 191.12 387.18 192.48 383.88 199.49 380 203.53 375.96 212.71 373.31 212.91 372.22 216.61 380.35 217.5 385.3 216.26 396.03 208.83 399.13 214.62 398.81 219.16 400.42 222.01 404.38 220.91 404.66 219.37 411.91 221.26 419.5 252.8 435.14 268.29 437.37 272.78 436.7 276.6 439.06 282.68 439.48 292.81 435.21 291.37 434.72 294.36 430.39 298.21 432.9 304.98 431.16 308.64 430.91 318.37 432.39 322.72 430.82 327.7 433.58 333.23 440.61 334.95 449.02 334.5 451.47 337.95 451 343.01 460.76 358.59 472.83 359 475.57 355.95 483.41 357.17 485.27 356.13 489.26 358.14 497.38 358.78 500.35 357.32 506.31 358.68 518.82 357.59 521.88 360.6 530.41 360.8 534.74 355.74 548.23 353.43 551.77 355.28 556.8 354.45 560.82 359.15 568.21 360.72 572.66 363.91 587.74 359.34 630.25 417.71 637.23 415.1 640.68 418.88 645.1 419.39 651.83 413.09 655.84 411.15 681.44 416.41 694.92 412.63 704.19 414.05 715.36 410.43 726.84 411.27 735.23 405.3 748.85 406.71 759.22 412.35 758.64 419.18 762.78 425.03 750.44 437.88 748.22 444.73 749.38 453.91 747.42 460.1 737.26 466.91 734.68 471.66 738.34 488.16 736.02 496.87 736.19 508.35 732.86 521.18 736.55 525 739.1 533.81 737.5 541.67 742.15 548.6 749.36 570.94 751.41 573.42 758.3 574.02 764.74 589.17 769.64 592.52 770.6 595.87 765.06 603.1 764.74 605.65 761.96 605.77 734.39 630.52 734.08 635.79 737.26 632.82 750.06 634.28 753.24 639.82 753.23 643.55 758.14 643.68 759.03 646.85 777.66 661.92 779.1 664.99 776.59 671.16 780.17 679.65 782.98 680.2 783.64 683.94 782.34 688.71 786.32 694.38 791.91 710.6 795.3 725.77 798.32 730.8 797.41 735.17 799 738.41 784.12 742.06 783.47 735.77 785.99 718.29 782.79 705.17 766.8 680.09 763.57 678.33 752.53 682.64 738.13 699.91 729.86 703.94 726.09 704.15 723.1 701.75 717.17 690.76 712.78 688.91 711.36 685.13 708.21 694.93 705.84 698.01 709.26 698.64 708.79 701.93 711.78 701.42 712.41 704.1 716.46 705.3 633.33 705.6 622.75 702.35 615.86 705.7 612.91 704.61 608.13 707.11 603.1 706.31 603.18 748.64 605.54 749.61 611.92 746.85 613.26 749.57 619.31 748.39 630.49 750.44 636.77 749.02 642.37 751.54 647.71 757.4 646.34 758.47 647.21 760.76 650.23 761.85 650.23 763.45 648.26 764.53 649.63 768.37 647.18 770.91 651.87 776.66 646.99 776.93 645.99 779.35 640.34 778.87 639.86 776.3 635.45 777.05 628.5 770.65 622.09 773.87 619.47 777.95 615.64 774.74 611.67 778.46 609.94 777.96 606.83 780.47 599.89 780.03 597.6 781.62 595.37 780.62 591.15 782.55 589.14 827.68 599.65 839.56 603.42 840.84 611.27 848.81 620.29 852.74 623.05 861.37 619.27 868.37 625.89 880.29 631.26 885.74 630.91 889.61 634.6 895.83 635.05 906.36 633.87 910.42 629.53 915.8 629.83 920.71 598.45 1094.44 596.66 1096.44 583.49 1080.11 581.37 1074.16 574.25 1069.03 570.1 1068.62 567.26 1071.47 561.75 1073.75 547.45 1067.84 591.36 999.98 589.07 998.13 587.5 992.35 585.75 995.7 583.74 996.33 582.73 991.85 579.59 992.73 577.47 986 572.84 987.84 570.6 987.27 570.6 985.58 573.91 984.59 573.47 982.76 569.57 982.46 566.2 984.55 563.34 980.03 560.26 980.58 557.14 977.41 555.29 978.16 557.47 980.95 553.68 981.62 552.4 980.3 552.92 976.31 549.82 976.26 550.4 973.12 539.68 968.64 537.35 964.35 532.7 966.18 528.44 963.54 528.92 969.6 524.24 967.42 520.06 968.92 520.44 972.13 517.16 974.73 513.98 972.45 509.32 972.29 507.96 974.77 503.38 976.18 503.3 972.81 498.83 967.37 496.73 967.96 497.65 971.45 496.25 972.15 495.15 966.13 486.75 962.59 481.6 964.14 480.63 958.5 475.85 962.88 474.02 962.35 471.48 969.79 467.68 970.52 468.45 974.58 460.05 971.81 455.2 977.11 454.12 980.81 452.16 978.11 447.85 978.5 444.03 981.31 439.66 982.26 437.26 977.38 428.34 978.48 421.75 976.04 418.38 981.95 415.95 977.36 414.26 980.19 411.87 977.67 407.02 981.36 401.9 982.91 399.24 975.14 393.86 976.31 392.79 973.18 389.38 973.7 386.73 968.17 386.58 965.53 388.75 964.83 392.89 958.3 390.48 957.51 389.33 952.18 390.2 945.26 387.36 942.95 387.38 939.18 382.54 935.25 375.23 939.18 371.52 937.42 369.12 938.28 361.81 932.55 366.57 923.84 364.57 923.77 364.55 918.21 362.17 916.86 354.2 903.37 352.03 901.37 345.76 902.65 340.22 900.88 337.39 894.27 330.28 892.5 328.96 886.31 326.28 889.78 313.19 884.49 313.14 880.15 310.27 877.91 311.11 876.85 313.3 877.86 314.21 874.14 306.3 867.72 308.73 864.82 305.33 855.26 303.2 852.36 297 850.3 287.85 840.6 278.55 837.85 280.25 835.45 277.68 828.77 275.98 828.15 271.83 831.64 257.96 821.37 251.89 819.69 246.59 824.99 238.39 823.95 227.59 819.68 227.91 816.01 224.99 814.02 217.36 814.61 213.62 813.26 206.34 807.4 197.25 795.91 193.49 796.07 191.21 792.99 186.05 792.69 182.22 789.9 173.46 793.63 173.35 802.56 164.3 801.89 160.81 803.56 152.05 800.09 150.02 802.14 146.89 801.46 144.27 802.96 129.28 800.16 125.88 794.31 117.61 795.77 109.77 793.44 107.81 795.11 103.78 792.92 101.92 783.92 102.74 779.48 101.39 777.42 88.52 771.05 88.46 769.47 91.5 767.04 90.05 765.21 87.35 763.73 78.76 766.57 70.35 765.17 55.67 753.71 45.3 749.91 40.34 743.71 32.47 740.41 17.74 726.46 12.88 722.46 12.85 718.44 1.03 714.6 1 711.73 4.67 705.91 13.12 699.64 28.01 701.34 28.15 705.8 31.22 703.22 33.42 693.49 30.69 692.6 29.92 686.67 28.49 686.06 25.94 687.71 25.72 679.58 23.99 676.71 32.01 658.7 35.66 654.55 41.69 653.8 43.26 648.76 52.56 643.41 52.53 646.35 55.88 646.73 54.6 643.79 58.37 642.24 64.25 647.59 67.2 644.28 74.26 645.54 74.44 642.86 79.49 641 81.92 645.15 83.13 644.38 82.43 639.84 87.58 637.12 84.49 635.51 85.07 634.15 91.44 630.14 95.41 632.89 93.35 629.74 90.73 629.19 89.92 630.6 88.46 629.04 89.48 626.13 91.88 626.1 91.2 622.82 87.91 623.99 88.89 621.72 98.4 608.79 100.5 610.73 102.24 609.42 102.52 607.26 99.16 606.79 99.4 605.09 103.87 600 107.17 599.69 110.24 593.09 110.39 595.99 112.17 595.15 110.69 590.42 116.22 584.58 119.44 583.63 127.4 575.09 126.24 572.23 128.49 567.86 127.16 566.43 129.24 563.47 134.08 562.31 128.04 562.83 122.49 567.16 116.23 566.9 113.61 562.3 114 559.63 116.96 557.17 121.48 558.15 120.55 556.75 121.94 552.96 117.38 549.16 117.51 550.94 113.95 553.16 110.7 560.7 106.07 555.54 104.91 545.49 103.95 544.25 100.19 546.56 100.58 537.68 102.57 536.89 103.2 538.73 107.18 536.99 106.92 534.47 109.34 530.86 109.1 532.62 110.26 531.96 113.02 518.3 112.91 512.44 113.63 514.82 114.39 513.23 113.09 507.25 114.94 507.96 111.51 503.42 110.48 497.4 109.66 485.5 110.67 481 108.45 480.13 108.97 471.84 110.91 473.67 107.25 464.56 108.8 463.86 108.68 461.08 104.32 458.32 98.37 458.69 101.26 451.9 107.1 450.39 111.7 451.01 117.87 440.64 113.97 433.24 110.74 421.33 109.98 420.83 109.63 422.48 105.91 418.39 102.91 412.67 103.63 405.86 108.36 409.89 112.6 388.5 107.96 384.46 107.55 380.04 103.77 378.85 99.67 382.84 96.19 372.1 90.67 367.72 88.52 369.91 87.59 366.08 91.13 360.89 89.42 356.63 76.07 345.01 81.19 329.37 83.95 329.29 87.09 326.14 83.83 317.72 85.46 311.97 90.18 315.27 93.7 323.69 96.52 326.16 106.38 312.59 113.47 310.94 111.1 304.18 112.78 300.22 122.66 298.72 117.33 279.79 114.97 279.01 111.8 271.98 112.34 269.43 104.93 259.5 110.83 250.97 110.58 248.8 118.53 263.09 125.5 266.47 131.98 276.94 137.46 276.97 136.12 278.21 138.62 287.39 140.82 286.6 140.92 284.92 144.65 284.99 142.47 289.35 144.81 290.29 144.32 292.9 139.5 291.63 139.11 298.95 142.9 300.52 149.98 299.62 152.31 289.89 150.63 288.76 149.68 267.88 145.79 261.33 138.42 257.6 142.02 253.02 156.7 250.16 158.67 246.04 164.62 243.57 171.77 237.72 172.79 235.92 171.7 235.35 177.77 233.27 187.02 221.22 188.46 213.12 192.52 210.75 194.01 206.36 205.8 200.43 213.2 199.67 213.67 200.75 210.89 201.98 213.56 202.19 216.69 200.34 221.63 201.2 224.38 199.65 227.92 191.83 228.23 187.62 225.67 182.35 219.58 182.08 224.61 175.73 227.97 164.93 228.4 154.54 231.05 151.31 231.62 146.94 230.01 146.54 224.74 149.58 221.96 153.1 219.6 153.37 222.6 151.78 227.44 144.14 230.63 144.17 232.19 142.73 231.07 135.86 229.78 135.13 228.57 136.34 233.57 130.76 231.87 124.81 235.6 123.67 236.17 121.26 239.83 117.82 246.76 115.92 248.51 109.75 262.93 102.94 265.05 97.95 268.49 96.86 270.8 93.65 274.9 91.86 274.62 89.61 294.49 97.24 308.15 98.48 313.57 96.48 316.98 92.54 315.74 82.38 318.59 76.82 324.16 73.98 332.86 74.43 345.24 79.85 368.42 79.89 378.51 78.07 394.73 64.51 404.93 59.21 411.45 52.48 421.34 49.42 428.16 45.68 434.22 44.84 446.59 37.86 452.93 24.55 452.45 18.14 450.81 17 453.93 15.4 465.2 14.45 462.81 19.49 466.88 21.15 472.1 17.44 470.04 13.32 465.86 13 474.35 6.87 475.22 7.04 473.34 8.82 474.51 10.75 478.18 9.43 480.47 3.22 484.52 1 495.75 3.08 499.52 6.05 508.49 7.93 513.24 11.21 520.27 24.9 520.35 29.12 509.4 36.74 506.56 41.38 Z"/>
</g>
</svg>