<?xml version="1.0"?>
<svg xmlns="http://www.w3.org/2000/svg" version="1.2" baseProfile="tiny" width="800" height="758" viewBox="0 0 800 758" stroke-linecap="round" stroke-linejoin="round">
<g id="CR">
<path d="M 529.19 67.26 548.79 88.22 556.9 119.24 592.06 194.79 667.83 289.06 686.23 290.87 690.59 305.3 745.84 371.67 781.8 376.9 797.44 392.5 799 398.73 778.2 409.23 765.69 405.82 753.46 389.34 728.48 381 721.26 396.03 731.04 408.49 708.58 414.72 709.72 509.12 720.64 506.33 754.16 530.38 761.63 543.4 748.44 555.8 725.05 563.59 724.72 575.32 713.53 582.8 734.62 615.61 729.93 653.96 722.62 660.46 710.79 661.21 681.56 685.15 696.06 698.59 708.53 700.37 719.59 737.97 718.25 756.52 712.83 750.96 715.74 738.7 699.07 708.49 658.47 678.72 670.38 658.01 650.35 623.21 651.93 617.74 655.74 628.65 663.37 624.21 651.57 613.26 648.58 617.95 635.47 616.3 614.49 603.62 617.07 593.86 600.9 590.91 578.02 596.69 599.88 625.93 623.11 638.1 628.97 653.73 623.77 676.25 589.48 661.83 559.03 660.4 517.3 619.19 524.04 604.75 537.36 600.87 540.64 584.03 557.42 575.91 546.59 575.08 543.15 580.86 538.93 577.41 550.67 566.21 567.72 562.72 557.52 576.46 560.79 577.82 577.99 561.26 544.54 559.13 548.12 551.29 544.61 516.72 471.72 456.71 424.96 436.35 396.84 409.01 400.48 416.04 343.14 402.24 329.33 404.41 310.16 390.15 295.04 372.51 305.36 342.37 283.01 316.84 287.1 310.35 279.7 298.59 255 298.24 200.47 251.04 169.05 248.26 161.02 230.66 145.87 214.63 131.56 213.13 143.94 214.89 160.55 233.88 171.11 279.42 193.6 297.33 236.94 309 236.16 329.71 250.09 332.98 229.89 354.73 217.1 352.46 218.03 363.16 206.14 369.41 196.67 392.16 191.27 393.46 147.48 336.89 124.27 325.43 59.53 313.38 56.62 299.45 31.72 268.58 20.36 242.9 15.5 208.83 34.71 183.78 29.52 170.75 34.67 161.68 41.09 164.63 52.72 158.89 69.4 142.83 62.79 109.21 56.3 100.05 30.32 97.54 1 77.6 13.08 71.42 9.65 65.67 12.91 65.26 49.74 71.94 55.59 59.72 39.67 47.14 44.08 42.16 58.98 44.25 53.44 34.92 74.48 1 86.58 3.04 95.64 13.88 134.3 22.94 239.55 66.37 295.61 33.74 352.07 62.8 371.43 54.15 378.96 73.1 403.68 84.77 402.18 99.47 439.77 108.59 450.5 102.45 473.44 121.85 488.05 119.29 505.66 107.41 532.9 101.39 536.05 95.09 529.19 67.26 Z"/>
</g>
</svg>