<?xml version="1.0"?>
<svg xmlns="http://www.w3.org/2000/svg" version="1.2" baseProfile="tiny" width="800" height="519" viewBox="0 0 800 519" stroke-linecap="round" stroke-linejoin="round">
<g id="DOMRE">
<path d="M 266.02 19.44 306.39 38.15 321.49 38.69 326.71 32.22 336.96 32.02 376.58 62.66 406.94 67.43 415.61 65.08 424.73 55.57 442.15 54.13 460.16 67.71 456.45 85.28 463.61 92.08 463.18 108.16 489.53 140.93 520.47 138.51 540.11 131.41 562.53 132.78 579.8 141.31 601.99 124.15 605.27 126.5 598.39 140.02 618.95 136.97 602.61 163.5 516.8 153.94 511.2 178.7 517.42 184.58 555.42 187.01 556.65 181.82 548.54 182.33 563.17 180.34 570.49 190.14 585.38 191.58 594.96 198.82 621.64 201.67 622.44 195.74 635.71 205.08 646.18 205.6 658.82 195.66 665.57 195.78 701.09 208.09 799 288.05 773.01 326.86 767.97 344.56 738.34 335.97 730.14 373.05 707.2 370.79 679.41 334.17 661.88 328.84 631.34 333.13 611.81 327.25 608.08 321.23 536.06 331.01 519.69 321.65 513.97 331.64 501.94 320.58 460.37 317.37 444.89 326.08 430.82 326.57 402.43 368.81 348.76 367.78 326.37 377.08 312.33 373.43 315.68 369.63 324.92 370.84 307.43 357.57 311.89 340.66 309.06 330.62 295.96 325.86 282.64 329.18 282.82 337.04 273.55 343.8 252.85 343.55 234.43 363.37 227.53 364.37 219.54 353.41 207.01 350.56 196.16 362.26 207.36 384.43 203.12 397.27 175.06 435.99 150.59 459.37 139.29 488.3 127.7 504.46 103.73 472.05 70.25 469.25 82.8 454.24 74.77 426.95 55.09 412.49 59.86 398.3 49.45 381.17 68.3 345.18 23.36 319.84 22.45 314.1 28.2 309.67 1 283.63 11 277.17 42.2 281.9 45.98 268.84 58.57 260.84 62.29 229.38 48.81 212.65 27.24 212.35 30.57 206.68 47.82 201.13 67.17 182.99 77.94 178.92 85.52 158.76 59.42 145.03 47.88 130.17 63.9 123.01 72.16 106.76 58.35 75.75 54.23 50.21 60.83 49.68 50.34 33.19 76.6 16.21 75.95 8.27 111.88 5.84 165.35 22.83 196.86 14.82 213.45 1 252.31 5.61 266.02 19.44 Z M 739.73 384.4 745.31 395.14 709.68 391.55 699.79 382.5 699.87 376.38 703.31 376.94 739.73 384.4 Z M 116.84 509.36 101.63 518.06 106.44 501.22 116.84 509.36 Z"/>
</g>
</svg>