<?xml version="1.0"?>
<svg xmlns="http://www.w3.org/2000/svg" version="1.2" baseProfile="tiny" width="800" height="313" viewBox="0 0 800 313" stroke-linecap="round" stroke-linejoin="round">
<g id="ECU">
<path d="M 625.08 1.39 635.95 11.68 641.76 14.12 645.42 18.69 653.07 21.5 663.91 29.96 670.12 30.99 676.46 28.89 678.45 29.99 679.52 31.34 677.28 33.13 677.32 34.3 686.82 39 687.81 40.52 687.21 43.8 688.58 50.44 691.56 52.06 693 50.82 698.79 52.54 704.89 51.47 707.4 55.78 718.47 57.85 720.4 56.74 722.71 57.25 724.21 55.73 730.67 58.29 733.25 57.06 739.93 57.56 740.01 50.96 746.47 48.21 749.3 50.27 753.11 50.49 754.79 52.76 757.57 52.65 764.27 61.12 769.65 65.45 772.41 66.45 778.04 66.01 780.2 67.48 779.96 70.19 787.93 73.34 793.98 74.11 793.2 76.04 789.17 76.79 783.17 74.89 777.82 74.84 777.81 82.32 781.98 85.37 786.19 85.49 787.86 90.09 796.08 95.48 796.55 99.11 794.37 100.87 794.37 104 797.56 111.85 796.96 114.69 799 116.58 793.27 117.02 790.29 115.85 781.87 143.96 777.96 146.38 757.34 172.63 729.13 195.03 671.17 214.74 662.81 221.43 659.95 225.58 658.26 225.49 657.46 228.49 653.46 232.03 656.7 238.07 656.04 240.16 651.41 240.72 650.61 235.62 648.78 234.74 647.18 235.65 644.41 252.98 638.48 260.83 635 269.54 634.96 275.65 632.26 278.76 632.58 287.34 627 294.95 622.08 296.24 619.96 298.16 618.12 301.98 618.45 303.26 616.02 306.14 614.22 310.72 612.43 311.66 607.45 309.9 601.61 310.14 594.06 301.96 591.01 293.38 590.88 288.9 586.25 287.19 583.68 284.35 574.9 286.84 570.88 282.37 567.63 282.21 560.91 277.52 557.6 277.53 556.98 279.67 548.47 286.53 544.31 284.45 544.31 281.25 551.01 273.01 544.29 272.71 542.77 265.92 545.64 262.72 551.93 264.16 558.29 258.94 557.92 253.94 556.61 252.24 556.48 243.86 554.19 237.39 555.18 236.05 562.82 234.86 564.5 231.91 565.64 226.32 569.86 223.4 571.01 218.94 573.18 215.95 573.15 210.42 574.67 207.98 576.64 199.01 578.19 197.91 579.67 192.54 576.94 188.11 577.92 191.34 576.07 190.43 573.6 181.56 570.73 194.71 569.29 195.04 568.45 192.76 570.42 189.02 569.31 186.17 568.56 191.05 566.39 189.3 564.06 190.64 565.57 184.55 570.02 181.76 568.97 181.13 566.86 183.27 564.74 183.02 560.78 191.98 557.3 195.49 554.27 196.85 552.67 196.15 554.28 200.88 553.54 202.26 546.88 197.47 544.79 197.55 533.67 186.62 522.98 182.21 517.02 175.6 520.65 177.1 524.32 175.83 528.36 173.11 530.32 168.3 529.01 165.27 530.3 164.44 530.46 161.28 524.64 147.17 526.39 142.91 528.91 140.79 530.1 135.22 524.96 128.22 521.81 120.65 525.82 115.9 535.41 115.26 538.38 113.57 542.67 101.73 545.09 98.54 547.25 101.54 551.19 101.17 547.04 100.43 542.15 87.96 545.88 84.58 546.92 80.94 553 77.5 558.51 72.35 563.72 64.31 563.99 50.69 565.37 50.31 562.69 46.98 565.17 44.1 565.4 42.01 564.5 39.39 561.27 36.88 561.2 33.27 562.9 30.54 566.63 30.38 573.23 27.85 578.94 22.91 587.78 22.01 593.44 18.02 605.46 17.6 611.28 10.79 613.92 12.94 615.05 10.42 614.41 8.63 619.27 3.71 620.39 6.26 622.87 3.05 622.62 1 625.08 1.39 Z M 16.02 61.79 23.45 70.55 24.6 80.26 27.8 84.49 35.46 89.95 35.26 98.9 39.1 100.78 43.67 106.06 41.53 107.78 40.27 112.32 37.67 115.66 33.71 116.02 24.85 119.95 12.74 118.5 8.32 112.82 8.76 111.27 17.12 103.04 22.5 101.55 25.04 102.47 29.54 99.1 22.15 91.94 22.01 88.18 16.87 85.48 14.35 81.88 12.78 70.9 10.57 70.23 6.05 71.92 4.29 69.85 7.84 67.68 9.61 64.53 14.04 63.54 16.02 61.79 Z M 564.48 208.12 562.58 211.48 560.11 210.25 561.25 212.83 559.97 215.9 553.92 217.98 550.63 217.62 547.15 212.83 547.69 210.81 551.09 215.61 552.9 215.62 553.32 207.44 555.22 202.2 561.38 199.61 565.48 199.43 570.85 202.45 570.49 203.71 565.56 206.35 564.48 208.12 Z M 70.09 105.63 62.34 106.84 55.58 103 55.63 96.99 58.49 94.51 68.96 93.08 73.41 97.14 72.53 101.57 70.09 105.63 Z M 13.7 92.25 8.51 93.77 3.73 92.62 1 84.2 11.13 82.17 14.67 86.38 13.7 92.25 Z M 53.71 86.87 52.65 87.67 41.26 85.47 39.39 82.11 41.35 79.31 41.46 77.31 43.63 76.57 53.08 80.69 55.13 84.64 53.71 86.87 Z M 110.08 114.19 104.41 115.75 99.69 113.89 100.77 112.19 107.17 108.5 108.85 105.11 112.81 102.96 114.5 103.12 117.65 103.26 118.3 104.6 110.08 114.19 Z M 563.92 232.44 561.65 234.99 556.39 234.13 555.26 231.24 560.81 230.97 561.37 229.77 563.47 229.09 563.92 232.44 Z M 62.78 133.98 60.52 135.27 57.71 134.54 56.77 133.11 58.76 129.01 64.46 131.39 62.78 133.98 Z M 62.05 53.88 58.27 55.97 55.49 54.22 55.27 52.49 56.07 51.2 58.68 50.77 62.05 53.88 Z M 574.88 193.26 573.19 198.72 571.27 197.78 573.17 189.38 574.88 193.26 Z M 566.64 190.22 568.6 195.88 562.56 195.02 566.64 190.22 Z M 46.33 40.68 46.51 43.43 43.49 42.6 44.14 38.48 46.33 40.68 Z M 99.75 136.06 99.58 137.86 93.96 135.81 97.49 134.76 99.75 136.06 Z"/>
</g>
</svg>