<?xml version="1.0"?>
<svg xmlns="http://www.w3.org/2000/svg" version="1.2" baseProfile="tiny" width="800" height="460" viewBox="0 0 800 460" stroke-linecap="round" stroke-linejoin="round">
<g id="MEX">
<path d="M 107.53 11.25 139.83 21.28 139.84 21.29 186.91 35.92 242.93 35.87 243.51 35.87 246.41 35.87 246.41 35.87 248.1 35.87 248.61 35.87 248.66 35.87 248.81 35.87 253.14 35.86 254.51 35.86 254.51 35.86 258.84 35.86 258.9 24.48 301.23 24.61 302.12 25.36 302.14 25.38 302.7 25.38 304.09 25.4 307.26 29.76 307.59 30.21 307.61 30.24 308.93 32.06 309.16 32.38 309.73 32.62 309.86 32.67 310.1 32.78 310.15 32.8 313.61 34.27 313.64 34.28 314.82 34.78 315.38 35.03 315.6 35.12 315.75 35.67 315.9 36.24 318.56 38.06 318.56 38.06 319.53 38.72 320.44 39.35 324.18 41.91 324.74 42.92 324.93 43.25 324.94 43.26 324.95 43.28 325.61 44.47 329.65 47.48 330.31 47.97 333.89 49.11 334.03 49.15 334.1 49.18 334.51 49.3 335.32 49.96 335.59 50.17 335.89 50.42 335.91 50.43 336.25 50.7 338.07 52.17 338.44 52.19 338.46 52.19 338.79 52.2 338.86 52.21 339.23 52.23 339.42 52.24 339.78 53.09 339.85 53.25 339.88 53.35 340.13 53.93 341.48 54.24 341.72 54.69 342.51 56.19 342.7 56.55 342.83 57.38 342.92 57.95 343.03 58.62 343.03 58.64 343.16 59.43 343.21 59.76 344.22 60.75 344.33 60.86 344.5 61.03 345.04 61.55 345.06 61.58 345.09 61.61 345.66 62.16 346.91 63.39 346.93 63.55 346.96 64 346.97 64.02 347.26 67.37 347.26 67.47 347.26 67.47 347.29 67.75 347.44 69.51 347.48 70 347.59 71.21 347.9 71.62 347.94 71.69 348.02 71.8 348.21 72.04 348.26 72.11 348.28 72.13 348.88 72.93 348.89 72.94 349.03 73.14 349.08 73.21 349.8 74.16 350.06 74.51 350.37 74.91 350.4 74.96 350.52 75.12 351.81 78.27 351.86 78.38 351.92 78.53 355.17 80.92 355.85 81.16 355.93 81.19 356.48 81.38 356.57 81.41 358.3 82.01 358.94 82.23 359.4 82.39 359.46 82.51 359.56 82.7 360.4 84.24 360.42 84.28 360.57 84.55 360.62 84.64 362.68 85.9 363.34 86.21 365.3 87.13 367.5 87.5 367.54 87.51 367.55 87.51 368.73 87.71 369.55 87.85 370.01 87.93 370.13 87.95 370.9 88.89 370.91 88.91 371.01 89.03 371.14 89.19 371.45 89.57 371.81 90.02 372.96 90.19 373.41 90.26 375.91 90.64 376.31 90.95 376.65 91.22 377.1 91.57 377.1 91.57 377.18 91.63 377.3 91.73 379.9 93.75 380.14 93.94 380.65 94.05 380.73 94.06 381.9 94.3 382.4 94.4 382.44 94.41 382.45 94.41 383.1 94.55 383.23 94.57 383.23 94.57 383.97 94.73 384 94.73 384.17 94.77 384.29 94.79 385.86 95.11 386.98 94.52 387.23 93.61 387.24 93.59 387.38 93.09 387.57 92.94 387.79 92.75 388.24 92.38 388.58 92.11 388.77 91.96 389.05 91.73 390.02 90.16 390.58 89.96 390.59 89.96 392.01 89.44 392.03 89.44 392.4 89.3 392.41 89.3 393.21 89.01 392.41 88.24 392.24 88.08 392.84 85.91 393.17 85.79 393.21 85.78 393.78 85.58 393.83 85.38 393.89 85.14 393.89 85.13 394.21 83.84 394.22 83.8 394.34 83.32 394.36 83.2 394.44 82.9 394.81 81.4 395.18 80.73 395.85 79.52 395.89 79.53 395.91 79.53 396.01 79.55 396.4 79.6 397.11 78.01 397.47 77.22 397.47 77.21 397.56 77.02 397.74 76.61 397.92 76.22 398.08 75.85 398.3 75.85 399.55 75.83 399.56 75.83 401.32 75.81 401.39 75.78 401.86 75.57 403 75.05 403.09 75.06 404.49 75.22 404.49 75.22 404.71 75.24 404.88 75.26 405.29 75.31 405.37 75.08 405.5 74.67 405.54 74.54 405.61 74.35 405.93 73.35 405.98 73.19 406.24 73 406.65 72.69 406.94 72.49 407.07 72.39 407.29 72.47 407.77 72.66 407.91 72.71 408.13 72.79 408.2 72.82 408.49 72.93 408.74 73.03 408.98 73.12 409.1 73.17 409.19 73.2 409.32 73.25 409.54 73.33 409.54 73.34 410.55 73.72 410.58 73.74 410.87 73.85 410.98 73.89 412.8 74.59 412.83 74.6 413.22 74.75 416.72 74.73 416.74 74.73 417 74.73 419.42 74.71 419.44 74.71 419.75 74.71 420.51 74.71 420.95 74.88 421.15 74.96 421.26 75 421.67 75.17 421.74 75.2 422.14 75.36 422.32 75.43 422.95 75.36 423.16 75.33 423.24 75.33 423.58 75.29 424.91 75.14 425.03 75.06 425.87 74.52 425.87 74.52 426.04 74.42 426.34 74.23 426.47 74.14 426.65 75.1 426.65 75.12 426.68 75.26 426.72 75.49 427.3 75.25 427.59 75.13 428.09 74.92 428.6 74.71 428.73 75.09 428.76 75.16 428.78 75.22 428.96 75.73 429.44 75.5 430.06 75.19 430.08 75.46 430.12 76.05 430.12 76.05 430.15 76.42 430.15 76.46 430.17 76.66 430.85 77.16 432.05 78.02 432.62 78.44 432.43 80.16 433.07 79.53 433.75 78.83 433.76 80.7 433.76 81.34 435.35 81.38 435.69 82.13 435.83 82.44 438.71 83.37 439.22 84.19 439.46 84.59 439.5 84.65 439.94 85.37 440.12 85.47 442.79 87 443.19 87.24 443.21 87.25 444.57 88.02 444.59 88.03 444.8 88.16 444.97 88.26 444.99 88.27 445.36 88.48 445.38 88.57 445.49 88.89 445.68 89.52 445.71 89.61 445.89 90.18 445.89 90.2 445.94 90.36 446.12 90.48 446.41 90.67 446.46 90.7 446.76 90.9 446.76 90.9 448.01 91.73 448.32 91.94 449.28 95.99 450.01 96.97 450.01 96.97 450.52 97.64 451.43 98.86 451.45 98.89 451.82 99.38 451.97 99.58 452 99.72 452.02 99.82 452.2 100.61 452.56 102.17 452.56 102.17 452.69 102.76 453.13 103.13 453.48 103.42 453.49 103.43 453.88 103.76 454.11 103.96 455.2 104.89 455.38 105.04 455.61 106.73 456.03 106.89 456.93 107.23 456.33 107.62 456.29 107.64 456.18 107.72 456.77 109.29 456.79 109.32 457.25 110.53 457.27 110.58 458.07 112.69 458.47 113.1 458.54 113.18 459.16 113.81 459.17 113.82 460.23 114.91 460.64 115.07 461 115.21 461.09 115.25 461.77 115.51 461.78 115.52 462.35 115.74 462.5 115.8 463.31 116.12 463.69 116.77 464.03 117.34 464.26 117.74 464.48 118.11 465.14 119.23 465.44 119.74 465.83 119.87 467.02 120.26 467.1 120.52 467.34 121.26 467.52 121.85 467.81 122.74 467.99 123.31 468.47 124.84 469.24 125.51 469.45 125.69 469.45 125.69 472.27 128.14 472.27 128.15 472.56 128.4 473.86 128.61 474.48 128.71 474.71 128.75 474.82 128.77 475.22 128.84 475.27 128.84 475.47 128.88 476.33 129.63 477.51 130.66 477.45 130.98 477.19 132.35 477.4 132.43 477.73 132.55 477.81 132.57 478.31 132.75 478.16 134.79 478.02 135.03 476.89 136.99 477.8 137.3 477.81 137.31 478.01 137.37 478.02 137.76 478.02 137.77 478.02 138.34 478.26 138.39 478.41 138.42 479.25 138.61 479.25 138.61 479.3 138.85 479.45 139.62 479.66 140.77 479.54 141.57 479.54 141.59 479.48 141.98 479.42 142.37 479.41 142.39 479.31 143.08 479.17 143.95 479.1 144.38 479.55 144.65 479.56 144.66 480.87 145.43 480.85 145.62 480.78 146.15 480.75 146.36 481.12 146.5 482.08 146.88 484.55 150.11 486.24 155.15 486.46 155.82 486.14 156.44 486.48 156.71 486.5 156.73 488.11 157.99 487.77 159.05 487.64 159.44 488.71 160.14 490.08 160.11 490.97 160.09 491.18 160.08 491.46 160.07 491.59 160.16 492.05 160.44 492.95 161.01 493.08 161.1 493.23 161.08 493.24 161.08 494.22 160.96 494.32 160.95 494.54 160.92 494.87 160.89 495.31 160.83 495.44 160.95 496.44 161.88 496.47 161.9 496.62 162.04 496.88 162.29 497.38 162.75 497.43 162.8 497.75 163.1 498.15 163.47 498.89 164.15 499.8 163.83 500.12 163.72 500.22 163.68 500.69 163.52 500.82 163.57 501.65 163.88 501.67 163.89 501.88 163.96 501.92 163.98 503.67 164.64 504.35 164.89 505.48 165.59 505.72 165.73 506.26 166.07 506.26 166.07 506.49 166.21 507.7 166.95 507.86 167.05 508.05 167.17 508.53 167.46 509.77 168.22 510.45 168.64 511.36 168.6 511.4 168.6 511.97 168.57 512.32 168.55 512.4 168.55 512.59 168.54 513.47 168.5 514.09 168.87 514.37 169.04 514.51 169.11 514.66 169.06 515.07 168.93 516.12 168.59 518.27 168.6 518.76 168.61 518.8 168.61 518.96 168.61 519.22 168.61 520.54 168.62 520.89 168.8 521.35 169.05 521.53 169.14 521.66 169.21 521.95 169.36 522.2 169.49 522.39 169.5 524.03 169.52 524.59 169.53 524.71 169.67 525.1 170.11 526 171.15 526.03 171.18 526.1 171.26 526.23 171.41 526.37 171.57 526.47 171.68 526.56 171.79 526.68 171.93 527.56 172.94 527.68 172.99 528.94 173.56 529.06 173.62 529.41 173.78 529.7 173.91 530.14 174.11 530.33 174.09 530.68 174.04 531.49 173.93 531.47 173.81 531.43 173.63 531.24 172.62 532.06 171.83 533.3 171.7 535.78 171.44 535.96 171.42 536.77 171.33 537 171.31 535.66 179.33 530.13 188.9 527.45 194.76 530.55 187.03 530.3 185.77 529.33 185.98 530.81 184.94 527.49 183.38 526.53 183.96 528.01 184.94 526.7 186.71 526.75 187.44 527.48 187.16 527.31 187.93 526.5 188.21 525.96 187.35 524.79 187.37 524.73 185.99 522.61 184.36 522.25 184.99 522.92 185.32 522.21 185.97 523.69 190.67 522.86 191.65 522.92 192.92 521.8 195.79 523.39 196.36 524.5 197.5 523.96 197.1 522 198.77 522.87 200.06 522.25 201.15 522.91 203.86 522.08 208.16 521.32 207.67 521.25 205.97 519.59 206.39 519.16 208.62 519.81 209.93 521.9 209.8 521.24 220.31 522.14 219.75 522.57 213.3 523.77 207.44 522.19 221 521.41 238.36 521.65 248.08 519.7 253.7 519.39 258.83 521.02 263.9 520.73 265.53 523.06 271.53 526.79 276.62 532.43 281.3 532.56 282.78 530.53 287.14 530.22 290.35 535.92 301.68 536.07 303.19 554.72 324.38 556.02 327.8 556.53 331.89 558.07 334.22 558.24 337.61 562.27 340.75 564.18 344.31 566.61 344.59 567.54 349.08 572.55 351.08 574.69 352.71 579.47 353.46 586.3 353.4 590.11 356.69 595.9 357.77 601.54 366.47 603.97 367.51 608.63 367.05 614.09 365.7 629.58 360.16 643.28 360.13 647.86 357.98 649.47 355.84 650.69 356.07 656.34 354.37 666.79 353.13 670.46 355.75 668.97 357.67 670.29 358.53 678.19 360.12 679.41 358.7 683.87 357.11 685.78 352.68 684.52 351.3 682.93 351.78 681.58 350.64 680.07 351.38 679.23 351.35 679.31 350.83 681.88 348.43 688.95 345.29 692.26 343 696.75 339.07 698.68 336.61 699.91 330.4 699.49 329.39 700.29 327.19 704.01 324.4 705.35 321.57 704.58 319.11 705.3 311.32 704.67 308.69 705.65 305.12 705.67 303.03 705.32 303.52 707.85 296.57 708.83 295.27 714.61 291.84 717.2 291.21 721.46 289.23 745.91 285.78 749.09 284.69 752.17 282.34 757.37 281.63 760.49 282.08 763.34 280.46 767.51 280.74 778.66 283.43 781.58 283.14 783.58 281.56 786.11 282.21 789.91 280.55 792.26 281.38 794.88 284.82 796.68 285.09 797.42 285.87 797.52 287.08 796.87 288.51 797.2 291.2 797.65 292.09 799 292.33 796.72 296.07 795.33 300.21 791.45 304.57 786.45 308.71 781.82 315.26 780.5 319.19 780.82 321.96 781.55 322.54 781.49 324.69 780.65 325.65 777.92 326.26 775.65 330.67 775.32 330.53 776.02 329.1 774.04 329.14 773.89 331.15 775.97 332.08 775.82 333.55 778.49 331.64 781.35 330.82 781.12 330.2 782.06 331.71 781.13 334.54 779.19 336.11 778.04 336.24 778.78 336.01 778.7 335.4 775.9 337.18 775.92 338.92 775.1 340.02 776.04 341.12 776.83 340.98 777.74 339.3 776.87 339.83 778.74 338.16 780.97 338.04 778.95 340.48 778.51 343.51 776.89 347.41 775.79 352.26 774.38 353.88 773.42 360.58 771.76 363.44 771.38 366.75 770.05 365.85 770.23 362.56 768.75 361.24 768.82 360.2 765.33 358.9 765.23 358.12 766.06 357.37 767.18 353.87 767.1 351.49 766.27 349.5 764.9 350.66 763.53 354.01 762.76 354.39 760.76 358.3 759.53 359.06 755.33 358.82 754.31 359.64 753.49 362.42 752.34 363.62 752 365.39 749.62 369.68 748.2 370.42 746.82 372.57 745.89 373.09 746 374.63 741.08 371.19 738.39 372.66 738.35 376.06 692.2 375.92 691.98 389.93 680.72 390.14 683.12 392.22 684.81 392.11 684.95 393.25 687.4 395.93 688.6 396.19 690.26 399.1 693.41 400.13 693.84 401.13 696.79 401.69 698.98 403.44 700.36 405.56 701.02 409.6 704.26 409.91 704.94 410.12 704.75 411.07 706.47 411.07 706.94 413.06 706.61 413.91 705.91 414.12 705.55 415.41 705.79 419.88 673.49 419.57 661.18 440.15 665.07 444.97 664.23 446.43 663.34 446.39 662.9 447.15 663.04 449.59 661.98 450.94 662.86 455.14 661.79 457.75 661.04 458.5 660.5 458.33 647.3 445.53 644.82 442.01 641.05 439.51 629.05 428.87 622.07 423.91 617.83 421.95 619.92 421.59 617.3 421.88 605.17 417.39 598.04 416.68 598.38 415.92 600.78 415.3 601.75 413.85 599.35 412.57 596.3 414.88 595.92 414.24 596.96 413.44 594.73 410.73 593.37 411.02 591.77 413.44 590.72 413.44 589.46 414.35 589.6 414.98 590.25 415.29 594.44 415.22 595.04 414.83 594.79 414.55 595.77 414.85 594.01 415.49 591.99 415.57 588.95 415.14 588.54 415.62 594.18 415.71 597.15 416.45 593.78 416.28 585.31 417.38 584.14 419.25 582.12 419.94 579.87 422.46 576.83 422.76 574.57 423.83 572.14 424.19 571.8 424.8 567.6 426.1 559.78 429.9 555.26 429.58 553.64 430.5 551.74 430.42 548.31 428.95 544.62 428.51 540.13 426.59 539.24 425.34 536.38 424 520.77 422.46 517.27 419.62 510.21 415.75 501.3 413.42 496.24 407.85 494.15 407.53 493.7 408.19 478.83 404.38 473.04 403.96 469 401.74 469.04 400.29 467.4 400.32 466.19 399.09 439.29 389.64 435.21 385.97 428.55 383.07 429.15 383.03 427.37 380.78 425.98 380.91 423.65 379.23 420.06 374.43 416.01 372.14 413.61 371.7 412.6 371.99 411.59 373.21 410.29 373.54 408.09 372.39 396.96 370.07 389.05 366.76 380.89 364.68 377.7 363.26 375.16 358.8 372.52 356.74 372.04 355 365.34 349.48 356.07 345.65 356.66 344.53 355.37 343.39 353.02 343.41 347.17 341.81 347.47 341.13 346.93 340.72 344.13 340.49 344.34 338.84 342.47 339.18 340.46 338.22 338.75 336.72 336.85 331.95 334.13 330.5 326.72 321.24 325.3 318.75 325.2 315.12 321.9 311.12 323.6 309.14 330.23 307.96 333 306.44 333.23 304.5 330.76 301.55 329.08 302.03 326.51 300.94 328.13 298.47 328.5 298.63 331.45 295.38 332.71 295.01 333.37 294.22 333.32 292.19 333.91 290.62 333.07 287.28 334.58 284.26 333.43 282.59 328.06 280.18 327.06 277.02 323.02 270.9 323.07 265.28 322.27 261.14 319.08 254.42 313.67 249.87 305.74 241.75 304.13 240.64 303.66 241.1 301.61 236.29 294.01 228.95 294.02 227.89 291.77 224.28 289.76 222.25 263.83 203.69 263.69 202.08 262.28 200.61 264.89 202.27 265.81 201.69 264.3 201.15 264.77 200.51 263.47 197.78 264.24 195.31 262.31 193 260.74 192.06 260.67 192.57 259.89 192.44 257.64 190.17 256.08 189.7 256.04 188.94 254.65 188.64 254.21 190.51 251.36 187.89 244.48 185.8 244.05 185.07 245.39 184.97 245.05 184.16 246.47 181.88 244.11 184.61 244.9 182 244.41 181.26 241.35 180.76 241.69 182.42 240.45 183.76 240.13 182.61 238.52 182.35 238.52 183.37 237.48 182.93 236.03 181.32 238.26 181.11 236.75 179.96 235.7 179.58 236 180.26 234.79 180.38 231.86 178.92 228.86 179.09 227.96 174.58 228.48 172.74 227.57 171.33 228.48 168.69 232.57 162.16 231.81 156.61 227.96 153.06 223.63 152.4 221.46 152.94 218.97 151.75 217.74 150.66 215.4 145.34 216.05 145.46 215.8 143.31 214.64 142.25 212.31 142.61 206.24 141.07 201.72 137.62 201.78 135.58 201.03 135.08 199.68 135.51 200.01 133.93 198.81 133.78 198.93 131.46 197.82 129.46 197.87 128.21 198.59 127.27 198.23 124.6 198.89 123.52 199.95 123.78 200.93 123.18 193.51 121.63 192.24 121.86 191.35 123.28 189.36 121.99 188.98 120.7 186.22 121.22 181.77 117.68 178.8 112.89 177.1 111.75 177.15 110.17 171.18 108.1 169.19 104.49 165.44 101.59 165.09 100.9 165.82 99.9 162.65 97.98 160.76 95.53 159.21 95.32 159.71 94.71 159.3 91.64 157.73 90 158.07 87.64 156.97 86.34 153.19 86.03 152.87 85.08 153.83 83.37 153.76 82.12 148.78 76.57 146.75 72.18 144.68 71.59 144.38 64.67 142.06 61.98 141.67 59.06 138.55 55.94 135.85 51.65 135.03 48.93 135.88 44.99 135.12 42.85 136.19 44.76 137.32 39.94 135.11 38.4 134.25 38.71 135.42 39.41 133.03 38.06 124.52 36.69 123.1 35.72 121.56 31.53 114.87 29.2 113.85 27.71 113.97 29.46 114.58 29.93 112.41 31.83 108.78 31.67 98.26 25.2 95.61 24.96 88.89 21.23 90.02 22.79 92.41 24.13 92.46 26.05 93.48 27.62 93.35 28.59 91.96 29.39 91.5 31.12 90.72 40.05 91.02 41.47 92.73 43.03 92.21 44.25 95.26 46.54 95.55 53.54 97.29 57.19 96.64 62.2 97.05 62.82 96.36 64.44 98.65 68.49 102.88 72.08 103.33 74.59 104.63 75.67 105.84 75.72 106.25 75.01 107.92 75.78 120.01 85.24 122.26 87.65 121.82 89.19 124.84 93.08 124.94 93.6 124.15 93.96 124.89 96.77 126.1 97.05 126.19 95.69 127.36 95.38 129.21 97.69 129.5 99.52 131.87 98.46 132.79 98.82 135.87 107.02 137.89 108.12 140.85 107.75 142.21 108.55 141.45 111.83 143.33 114.58 143.23 119.21 144.35 120.61 144.03 123.07 148.42 128.44 154.5 130.98 155.85 134.98 158.43 138.66 158.15 139.72 160.59 141.36 164.6 142.41 164.6 143.01 163.08 144.32 163.15 145.88 166.67 149.07 166.97 150.18 165.82 151.73 169.37 156.03 170.1 156.36 171.51 155 168.01 151.83 167.21 147.79 168.45 147.59 174.3 152.14 174.38 155.81 177.43 156.83 176.92 159.57 178.98 161.72 178.71 163.41 180.67 168.22 179.6 170.92 180.88 175.42 183.01 176.89 183.82 179.69 185.61 181.89 188.12 182.22 187.92 183.7 189.99 187.35 190.83 191.26 192.12 193.2 194.46 194.71 197.25 200.11 196.37 202.6 195.47 203.24 195.12 205.63 195.37 207.22 196.47 208.52 196.68 211.19 200.17 215.2 205.89 216.13 206.21 215.02 205.35 212.31 206.35 211.43 207.63 211.47 209.5 213.94 213.48 216.16 214.28 219.3 215.83 219.53 218.09 218.82 218.65 219.68 218.15 222.12 221.19 225.13 221.63 228.56 226.95 230.92 226.93 231.79 228.73 233.77 228.91 235.74 228.47 235.91 227.99 239.73 225.74 242.4 222.11 243.88 221.07 245.73 219.06 246.64 217.79 248.24 216.14 248.37 216.32 248.81 214.14 248.52 211.7 245.82 210.02 238.02 205.51 230.9 197.99 226.96 187.4 217.51 177.13 212.11 175.21 209.87 173.9 209.88 172.56 206.24 171.1 205.63 170.94 206.8 168.74 206.59 168.4 205.91 168.28 206.47 169.5 207.31 168.25 207.52 167.29 204.06 165.14 201.79 165.68 202.05 165.55 201.71 164.35 200.79 164.39 201.66 162.81 201.79 161.04 200.33 160.31 198.4 161.52 196.42 160.66 195.57 160 196.46 159.87 200.09 159.07 199.83 158.79 198.9 159.19 198.47 159.47 197.33 159.46 196.13 160.29 194.9 160.53 193.72 159.65 193.49 159.76 191.79 160.58 189.18 161.51 189.19 161.23 183 161.53 182.43 161.85 182.68 161.88 179.65 161.5 176.94 161.03 177.21 159.03 171.12 157.62 169.12 155.79 168.34 153.68 164.2 151.86 163.44 150.92 164.15 148.04 162.08 146.37 162.04 136.87 154.94 136.52 154.11 136.89 153.71 134.52 150.49 135.18 149.97 134.03 150.07 133.71 150.9 132.3 150.28 133.29 150.03 134.71 148.5 135.01 147.48 134.36 145.25 133.89 145.14 133.27 146.53 133.26 148.44 131.6 149.33 131.6 151.09 126.88 149.75 125.49 150.16 124.5 151.81 122.59 151.84 119.84 149.87 118.72 147.06 117.05 145.66 114.05 144.91 113.06 145.56 109.33 141.73 105.18 141.15 101.13 139.4 100.64 134.97 99.97 134.11 94.62 131.64 91.48 127.5 90.89 127.29 90.2 128.08 89.34 126.91 87.35 126.24 85.92 123.5 100.65 125.29 105.15 122.82 105.74 123.09 105.14 125.13 105.58 125.83 109.47 128.17 110.47 129.71 111.95 128.17 111.27 127.45 114.33 128.34 115.23 126.89 112.45 126.03 111.37 124.59 112.12 126.23 111.79 126.72 110.29 127.04 109.51 126.47 108.65 124.75 109.81 122.61 109.17 120.97 106.26 122.23 106.46 121.11 111.68 114.68 110.12 113.15 112.01 108.09 110.46 105.61 109.29 105.4 108.57 103.04 107.29 102.9 104.63 100.83 102.05 96.84 100.85 96.14 99.82 96.45 99.09 95.13 98.49 95.36 97.23 92.09 95.34 91.89 94.4 89.97 92.75 89.17 88.82 85.11 83.19 83.73 81.73 81.62 78.23 80.34 76.55 78.85 75.04 78.78 70.37 75.59 70.7 73.82 70.29 71.98 69.16 70.59 67.71 70.41 68.33 67.3 67.45 61.61 64.64 59.22 63.54 59.4 63.14 60.39 62.69 60.24 61.63 57.65 62.04 52.38 61.41 49.54 57.63 47.11 55.98 45.11 54.42 45.22 55.1 40.72 53.77 38.09 49.4 33.08 45.59 30.36 46.54 27.48 44.34 25.54 46.57 25.76 47.31 24.65 47.46 22.9 44.1 21.41 43.48 19.75 40.74 18.6 39.65 13.41 36.73 11.94 34.64 7.35 34.47 5.58 95.02 1 93.32 3.38 93.08 4.79 93.01 5.22 93 5.33 92.78 6.66 106.31 10.86 106.37 10.88 106.41 10.9 107.53 11.25 Z M 156.46 100.31 155.68 100.89 148.76 97.63 151.22 95.63 150.74 93.5 151.94 89.75 156.29 89.07 156.82 89.71 156.56 91.05 158.54 94.03 156.46 100.31 Z M 135.09 92.96 134.69 94.5 131.53 92.64 130.04 90.62 127.54 89.01 126.5 87.19 125.32 87.1 123.03 83.84 123.44 80.55 125.91 80.89 128.84 84.35 128.47 86.59 133.49 87.28 133.16 90.85 133.8 92.49 135.09 92.96 Z M 798.95 305.97 797.68 308.94 792.77 314.36 792.04 313.49 791.83 311.32 794.12 307.07 796.91 307.12 798.95 305.97 Z M 84.13 115.46 83.29 118.73 81.66 118.54 80.39 117.03 78.87 117.18 81.6 113.97 80.97 111.98 81.32 110.41 82.09 110.22 83.56 112.73 84.13 115.46 Z M 157.7 199.41 160.15 201.86 160.49 202.97 159.93 204.2 161.9 206.65 159.16 203.92 160.06 203.15 159.67 201.62 157.5 200.45 156.98 201.43 155.89 200.38 158.67 194.15 159.87 188.43 160.38 189.78 159.41 192.57 159.42 195.95 158.78 196.47 159.32 197.39 159.11 198.14 157.7 199.41 Z M 171.13 211.01 170.75 212.69 163.04 207.21 163.91 207.12 166.57 207.11 169.67 209.12 171.13 211.01 Z M 4.94 96.39 4.16 97.55 3.1 96.36 2.38 93.63 1.13 92.62 1 90.98 3.03 89.79 2.81 90.96 4.49 92.72 4.94 96.39 Z M 301.41 280.48 300.57 282.52 298.48 281.9 297.63 278.33 299.57 278.16 300.58 278.42 301.41 280.48 Z M 200.09 198.13 198.79 198.37 198.97 197.71 197.58 197.14 196.61 194.7 195.65 194.11 195.82 192.68 197.35 194.02 198.93 194.48 200.09 198.13 Z M 676.57 352.83 674.52 354.76 673.64 354.8 673.95 354.26 671.08 355.34 670.48 354.96 678.08 351.32 678.91 351.97 678.65 352.49 676.57 352.83 Z M 186.34 170.15 186.57 170.85 185.48 170.27 184.19 172.36 183.51 175 182.73 174.14 184.11 170.67 183.9 169.36 186.43 168.42 186.34 170.15 Z M 260.38 193.86 261.63 195.06 262.11 194.87 263.04 196.97 262.67 199.63 261.75 199.29 261.39 197.06 260.34 196.16 260.89 195.81 260.38 193.86 Z M 189.98 353.57 189.31 353.81 187.09 351.79 187.4 351.02 188.87 350.12 190.63 352.29 189.98 353.57 Z M 304.86 284.44 304.43 285.28 301.06 285.16 301.27 284.24 302.58 283.21 305.2 283.31 305.89 284.25 304.86 284.44 Z M 218.56 215.07 218.85 216.8 217.41 216.51 216.59 215.45 215.62 210.87 218.56 215.07 Z M 96.36 25.91 96.79 27.82 93.58 26.35 93.02 24.12 96.36 25.91 Z M 206.27 208.73 205.42 210.19 204.19 209.42 203.75 207.21 204.73 206.97 205.59 207.78 206.27 208.73 Z M 261.78 199.64 261.41 199.88 258.37 194.67 255.92 192.36 257 192.73 260.74 197.15 261.43 198.16 261.78 199.64 Z M 308.95 287.32 308.9 289.32 306.97 287.93 307.55 287.16 308.95 287.32 Z M 243.19 184.67 243.83 185.82 238.7 183.97 243.19 184.67 Z M 526.86 195.94 523.72 207.3 524.09 204.72 526.86 195.94 Z M 149.68 101.31 149.54 102.73 148.16 102.33 148.68 101.17 149.68 101.31 Z M 132.43 151.54 134.73 153.21 131.64 152.28 132.43 151.54 Z M 784.34 359.83 782.97 361.68 784.74 357.2 784.34 359.83 Z"/>
</g>
</svg>