<?xml version="1.0"?>
<svg xmlns="http://www.w3.org/2000/svg" version="1.2" baseProfile="tiny" width="800" height="332" viewBox="0 0 800 332" stroke-linecap="round" stroke-linejoin="round">
<g id="PAN">
<path d="M 479.94 6.56 524.4 13.85 555.19 10.94 551.97 14.97 546.09 14.04 542.1 16.98 542.78 26.72 556.46 25.38 568.96 30.43 584.15 27.02 610.89 27.44 648.18 46.25 681.04 55.47 705.04 79.61 704.51 71.97 713.42 80.71 725.75 103.1 747.61 118.69 748.92 127.48 761.89 133.24 774.01 130.12 774.52 134.61 762.31 152.26 777.64 172.82 776.52 178.1 783.09 192.65 787.97 194.27 799 233.45 778.56 236.55 775.09 244.75 779.99 258.76 765.3 262.18 744.9 290.27 739.06 285.15 731.78 267.71 721.99 260.88 718.62 272.79 725.38 290.23 718.88 296.74 713.16 296.9 702.56 329.28 688.29 318.08 681.02 301.27 671.25 297.23 659.65 276.73 646.83 265.56 648.06 257.39 632.68 234.43 626.71 213.65 631.32 208.43 631.34 213.83 643.22 214.28 651.04 207.89 653.58 198.73 645.18 189.19 659.65 184.89 666.63 166.99 670.19 174.48 679.53 179.93 684.67 192.24 696.9 197.51 701.66 197.45 692.01 191.69 704.01 194.34 717.38 210 720.44 208.76 721.34 203.89 717.94 208.84 704.88 193.37 684.38 187.91 676.42 167.6 679.95 170.66 679.72 168.36 671.37 158.51 665.3 158.83 661.35 168.03 653.03 171.75 650.84 168.56 652.61 164.24 658.63 165.22 655.7 149.27 647.41 163.75 643.29 157.95 641.1 167.46 636.32 165.41 630.95 147.3 629.01 150.81 637.35 168.52 634.49 177.34 630.17 176.1 618.84 160.36 618.65 144.04 614.57 137.28 603.35 132.99 594.78 122.56 586.99 120.76 579.08 107.8 572.59 113.36 563.61 98.51 536.58 87.67 503.08 84.17 485.65 86.95 472.73 103.03 455.71 105.04 449.45 110.62 446.95 117.08 449.97 126.9 442.19 134.69 436.86 135.29 449 139.93 456.6 134.52 448.98 142.86 434.22 148.22 419.86 161.4 383.83 182.1 362.02 181.73 349.81 195.59 348.81 202.81 354.06 219.32 366.12 223.4 371.4 237.23 408.33 272.52 416.29 289.97 415.37 296.41 402.21 301.65 392.41 304.08 378.19 300.89 371.11 303.8 380.32 302.68 369.3 306.41 367.67 304.37 364.85 310.54 368.55 316.43 362.9 317.98 355.87 326.9 346.6 325.73 319.24 331.29 300.17 330.62 288.7 326.05 290.67 316.76 293.65 315 288.44 304.17 291.3 299.87 283.55 292.54 286 285.89 282.22 276.65 272.84 269.24 274.12 259.79 267.34 254.64 269.88 249.47 279.46 248.09 266.39 241.54 265.57 234.79 262.13 235.53 266.97 244.74 247.57 238.35 256.73 254.73 250.21 260.9 249.68 257.13 244.79 257.48 253.06 263.7 252.3 274.2 249.63 276.79 206.81 262.45 211.75 260.5 213.05 256.78 205.94 256.35 206 259.22 201.78 255.26 194.03 227.25 183.01 216.28 182.36 213.33 186.75 212.8 179.84 201.22 176.91 200.25 172.52 205.12 157.27 198.49 128.38 193.32 116.96 196.26 113.44 193.9 118.53 189.77 113.89 178.29 106.43 184.43 93.49 178.86 76.21 186.55 50.89 179.31 30.52 183.51 24.11 191.68 24.57 207.44 27.65 213.29 25.15 219.86 22 218.96 22.77 208.35 16.44 186.82 9.3 185.8 1 178.1 17.74 164.4 24.51 163.98 28.69 160.25 31.37 138.3 19.3 119.52 25.71 115.24 25.9 108.52 39.29 104.06 46.84 96.96 42.56 89.51 23.37 75.74 17.12 77.34 16.47 23.3 29.33 19.73 23.73 12.6 27.86 4 42.16 8.77 49.16 18.2 56.32 20.16 68.23 14.15 67.34 10.58 91.8 31.01 97.15 29.34 90.96 41.45 96.75 47.04 93.74 50.06 90.18 48.74 89.71 51.88 95.18 59.52 108.89 63.46 113.39 61.55 113.74 56.91 118.41 61.66 120.67 66.48 111.06 64.6 106.63 67.78 105.81 73.85 110.47 76.23 110.35 88.11 124.7 89.29 132.1 98.44 143.83 93.43 149.64 97.11 156.12 89.95 172.28 95.81 174.16 87 151.25 68.29 155.51 62.39 158.86 62.16 167.73 71.43 168.14 77.54 181.98 83.28 207.24 113.38 239.49 118.07 267.83 114.16 293.94 104.01 302.17 103.36 314.91 88.16 343.33 72.56 381.28 63.99 402.81 56.07 418.04 38.3 431.83 33.75 438.04 35.89 444.32 27.59 449.39 26.43 458.47 15 458.59 10.22 465.41 3.79 477.85 1 479.94 6.56 Z M 183.36 286.16 188 289.47 182.08 293.72 181.28 300.67 190.15 309.87 194.72 307.15 198.73 315.66 175.72 312.19 162.54 299.57 158.57 289.17 162.3 289.19 176.19 272.76 179.53 274.09 183.36 286.16 Z M 574.47 172.87 570.77 182.96 565.82 182.38 561.24 189.42 555.57 161.1 567.67 160.4 574.47 172.87 Z M 274.16 282.6 267.81 288.12 260.55 286.44 253.72 293.01 244.85 294.06 259.69 282.7 268.27 281.2 274.16 282.6 Z M 133.68 64.42 129.51 70.23 121.71 65.98 123.37 57.52 126.3 57.18 133.68 64.42 Z M 92.19 185.88 100.26 190.79 89.77 195.34 83.61 188.73 88.93 188.9 92.19 185.88 Z M 107.07 28.33 110.71 39.3 104.94 38.72 98.93 29.91 107.07 28.33 Z M 541.42 187.4 534.64 195.12 537.11 180.21 541.42 187.4 Z"/>
</g>
</svg>