<?xml version="1.0"?>
<svg xmlns="http://www.w3.org/2000/svg" version="1.2" baseProfile="tiny" width="800" height="794" viewBox="0 0 800 794" stroke-linecap="round" stroke-linejoin="round">
<g id="PAR">
<path d="M 427.51 84.07 431.16 86.51 427.64 90.05 428.42 93.72 434.31 93.08 435.25 104.06 443.62 111.28 441.27 117.45 443.33 123.1 441.59 126.47 445.68 130.67 444.25 134.84 447.01 135.45 450.4 132.04 455.54 138.62 449.13 140.47 446.79 143.23 454.22 144.52 456.84 148.1 450.04 154 459.75 157.91 460.4 161.54 455.84 167.72 456.98 185.27 450.85 190.28 456.87 196.02 446.15 214.04 451.06 219.93 449.04 224.19 453.17 229.18 448.1 234.83 451.38 239.21 446.03 244.1 450.76 247.66 445.92 259.57 442.56 262 444.11 267 460.36 272.2 467.3 271.48 468.08 268.93 471.47 267.74 479.89 270.37 485.59 276.17 503.61 280.62 515.11 282.19 538.18 280.41 554.3 287.54 556.28 286.45 556.52 282.73 561.69 281.49 564.15 283.74 566.93 279.53 572.22 283.81 579.52 277.3 584.01 268.76 595.02 266.33 600.91 278.55 613.57 285.68 647.29 285.73 653.42 295.32 658.17 296.65 658.57 309.6 670.25 321.62 669.71 329.27 666.3 334.24 665.09 341.04 669.73 362.82 679.12 373.6 676.33 381.3 680.81 390.48 677.17 397.7 677.63 412.53 684.85 419.45 687.49 428.14 686.54 440.94 689.31 445.62 696.07 448.65 698.6 445.38 707.04 450.5 717.12 447 722.78 448.46 727.99 445.32 735 445.89 735.88 442.26 739.27 439.7 757.01 436.07 760.18 431.72 784.61 442.51 788.69 449.29 793.62 450.65 796.97 456.95 792.46 461.75 792.5 471.79 799 483.86 792.05 496.19 791.78 511.08 780.18 547.46 782.18 559.44 765.05 588.15 766.99 601.08 767.59 607.86 760.98 609.35 767.53 623.82 764.41 632.09 765.85 636.33 758.88 639.4 762.59 648.22 759.61 655.02 764.71 660.33 758.96 665.27 761.89 669.89 757.34 676.27 756.5 682.73 747.21 691.54 749.01 698.48 747.48 702.1 745.37 704.41 740.47 702.85 734.38 705.6 732.19 714.87 723.52 715.82 715.71 722.07 714.88 730.77 708.9 732.11 703.61 729.44 688.57 734.71 685.25 739.47 685.12 744.52 676.39 745.44 674.73 750.27 670 751.51 673.33 758.42 671.32 762.52 671.9 766.87 663.68 771.44 658.85 777.13 649.72 776.03 642.92 767.7 636.04 768.05 627.73 763.77 619.75 764.54 606.5 773.68 605.84 781.25 599.95 786.56 598.68 791.78 595.26 792.73 587.44 790.12 581.19 779.75 576.41 777.43 566.4 778.77 564.71 782.59 550.09 774.76 542.18 775.98 531.01 781.16 507.23 774.2 489.61 776.58 470.12 765.97 461.96 766.38 442.4 759.89 423.59 758.37 385.77 763.29 386.5 756.92 380.67 752.77 381.39 747.91 390.3 744.87 390.88 738.73 394.92 740.55 397.07 734.57 396.58 727.88 412.38 722.11 408.89 717.09 415.51 715.78 419.25 711.31 419.21 701.04 425.08 700.77 422.16 690.32 426.18 682.73 423.36 677.48 428.42 670.43 427.11 664.92 432.29 662.14 428.27 656.81 435.45 650.69 441.71 649.49 457.4 640.2 454.17 633.89 458.28 632.03 456.72 626.39 462.41 623.41 460.78 616.88 468.56 613.3 465.41 609.58 467.13 607.28 473.58 607.5 474.36 601.69 480.28 603.23 484.32 598.2 485.26 587.07 474.18 575.56 474.7 570.82 469.45 569.86 455.65 552.52 444.4 552.43 421.22 537.81 411.92 544.38 396.1 530.3 379.74 528.39 350.87 512.72 336.3 508.21 314.3 495.42 302.6 481.37 248.29 450.45 241.62 453.05 220.88 453.63 209.66 445.87 198.72 445.2 195.33 439.96 173.09 437.06 164.03 430.71 159.27 431.36 149.29 419.5 148.38 412.63 141.15 406.59 135.17 406.59 123.44 396.83 119.88 398.18 110.39 393.94 102.65 383.4 91.97 380.41 75.35 362.63 63.35 356.36 58.21 342.22 43.17 326.79 37.95 307.98 11.81 294.13 3.59 287.76 1 281.74 37.47 169.35 36.69 122.58 69.77 77.11 87.51 33.74 195.17 16.84 254.88 1.49 341.46 1 427.39 52.22 428 54.18 423.86 57.89 429.91 78.88 427.51 84.07 Z"/>
</g>
</svg>