<?xml version="1.0"?>
<svg xmlns="http://www.w3.org/2000/svg" version="1.2" baseProfile="tiny" width="800" height="1159" viewBox="0 0 800 1159" stroke-linecap="round" stroke-linejoin="round">
<g id="PER">
<path d="M 718.53 267.1 716.27 274.68 714.88 275.5 712.84 275.5 710.09 270.38 706.34 269.4 704.71 270.09 703.85 275.11 697.21 270.43 696.21 268.29 698.01 266.93 697.55 263.44 695.59 261.17 694.09 263.52 692.09 260.65 688.2 260.47 683.84 262.29 682.82 260.76 676.64 264.35 675.67 263.44 676.78 260.62 674.74 260.45 673.48 261.04 672.85 265.15 667.85 262.15 665.11 263.71 663.54 267.89 656.61 276.6 647.83 276.36 645.86 277.6 638.93 276.35 635.87 277.07 635.82 279.48 634.61 280.13 633.17 278.5 627.84 279.23 625.25 282.15 622.48 279.55 621.58 282.76 618.75 281.55 614.81 285.65 603.19 282.65 595.88 284.84 593.21 290.82 586.42 291.98 585.24 294.61 575.7 300.33 575.33 301.77 569.63 301.1 566.96 303.25 566.05 308.1 560.72 313.22 557.72 312.7 553.01 315.15 552.21 318.23 550.69 318.93 543.2 318.74 540.25 321.09 537.37 320.85 532.89 324.25 534.57 326.63 534.4 331.42 532.04 335.34 532.89 337.1 531.04 339.57 529.44 346.92 530.61 348.99 529.41 356.24 527.64 360.61 519.23 371.42 518.05 377.83 514.63 381.29 514.5 386.97 518.43 403.43 516.13 409.04 513.01 412.16 504.19 414.15 494.17 422.97 490.39 424.1 479.44 435.35 478.41 445.24 476.05 449.06 481.58 456.43 482.73 461.57 479.78 463.3 473.99 463.44 471.54 465.6 466.14 463.81 468.43 470.93 466.85 474.47 464.13 475.73 474.64 487.14 482.75 491.65 482.36 496.42 477.31 496.67 478.05 501.13 486.41 506.34 489.84 519 492.53 521.84 493.14 528.19 504.97 534.96 505 543.37 510.09 548.26 515.63 549.17 522.6 561.98 527.46 564.57 529.79 571.8 528.5 577.76 524.71 582.65 521.75 583.24 513.93 594.41 543.93 594.35 556.32 598.41 566.46 598.98 571.19 601.82 571.02 606.2 573.79 609.77 572.98 615.66 579.31 619.62 580.21 623.82 579.01 631.26 629.6 631.17 631.03 629.61 634.31 630.85 641.15 627.38 644.21 622.4 653.64 619.28 660.52 610.66 665.46 608.24 668.34 604.2 673.71 601.44 677.68 596.63 684.05 595.25 683.13 598.85 679.54 601.52 680.21 604.54 677.85 604.27 682.63 614.61 680.62 617.43 677.59 618.7 676.35 621.45 676.62 694.68 683.51 690.4 688.22 696 694.35 698.43 706.53 696.05 719.51 689.56 728.69 689.71 732.75 692.51 742.94 691.48 783.46 756.93 799 790.15 793.56 795.91 793.23 798.21 795.86 799.67 794.44 802.74 788.16 803.23 788.65 804.61 781.13 811.03 780.57 820.45 782.28 823.1 780.78 832.85 782.53 836.43 782.36 851.05 780.26 856.98 778.31 858.69 778.85 861.57 773.9 861.67 779.45 868.89 778.68 870.87 781.23 875.61 780.89 882.21 786.2 887.6 788.73 896.76 779.85 898.44 778.91 902.45 779.96 907.92 769.06 915.52 769.28 920.35 764.46 920.31 763.3 931.01 755.79 934.22 756.8 939.43 755.05 943.69 755.62 945.3 761.05 953.68 766.65 956.9 770.73 962.75 766.97 963.08 765.36 966.06 761.99 967.76 752.57 985.75 763.8 1018.7 772.42 1023.5 781.02 1021.58 790.41 1030.98 779.8 1036.98 776.65 1045.37 778.77 1051.56 768.1 1055.82 767.2 1059.75 758.84 1068.72 758.65 1070.7 753.96 1074.1 755.03 1077.71 751.98 1079.83 749.83 1079.35 740.82 1086.36 739.96 1090.63 749.48 1096.47 748.86 1104.26 736.92 1114.28 728.27 1113.81 727.02 1119.93 731.19 1134.73 727.02 1143.35 719.62 1150.83 704.57 1156.03 694.9 1155.47 691.98 1157.93 679.47 1149.52 678.54 1148.9 677.59 1148.26 670 1143.16 668.98 1142.47 660.85 1137.01 660.12 1136.52 659.53 1135.4 657.67 1131.87 657.24 1131.04 656.4 1130.77 646.81 1127.61 646.6 1127.54 630.48 1116.64 629.38 1117.06 628.32 1117.46 629.6 1115.2 629.79 1114.87 630.18 1114.19 630.91 1112.91 630.64 1111.45 629.48 1105.2 628.89 1102.01 628.38 1099.23 623 1093 622.59 1092.52 620 1089.52 619.12 1089.28 617.82 1088.91 612.78 1087.49 605.02 1085.3 600.84 1084.12 595.66 1079.74 595.03 1079.21 591.04 1075.83 584.53 1074.51 584.16 1074.44 582.83 1074.16 582.47 1073.19 581.64 1070.89 578.97 1069.33 577.97 1068.74 577.75 1068.62 575.05 1067.03 571.09 1064.71 570.97 1064.48 569.78 1062.2 568.8 1060.31 568.45 1059.64 566.02 1057.85 565.94 1057.79 565.08 1057.16 561.01 1054.15 547.62 1051.17 543.76 1050.3 542.78 1050.09 541.59 1049.82 540.14 1048.73 537.87 1047.04 532.53 1043.04 528.8 1042.34 526.98 1042 526.92 1041.99 526.34 1041.88 525.66 1041.75 524.41 1041.51 523.16 1041.28 518.05 1038.09 516.94 1037.4 514.62 1035.94 512.99 1034.93 509.64 1035.02 507.92 1035.06 507.41 1032.02 507.36 1031.72 504.86 1030.16 502.26 1029.39 502.11 1029.34 501.9 1029.28 483.31 1023.8 482.33 1023.51 476.93 1020.33 470.91 1016.8 469.84 1016.16 468.48 1015.37 468.18 1015.19 466.21 1014.03 465.14 1012.93 463.21 1010.93 462.01 1009.68 460.39 1008 459.95 1007.55 459.63 1007.21 456.83 1006.19 442.37 1000.86 442.16 1000.79 441.25 1000.45 440.33 1000.12 440.12 1000.04 438.19 999.33 437.75 998.72 435.17 995.12 433.59 992.93 433.18 992.36 429.65 991.13 426.39 990 422.45 988.63 422.26 988.56 422.02 988.48 420.78 988.04 420.35 987.89 410.39 982.7 409.53 982.26 402.63 978.66 402.63 978.66 402.54 978.61 402.52 978.61 398.26 976.38 398.14 976.32 396.31 975.37 396.09 975.26 391.69 972.96 390.9 972.55 390.24 972.21 389.8 971.97 387.58 970.82 389.27 969.61 390.47 968.74 388.04 966.04 385.78 963.53 385.61 960.48 378.34 956.62 377.62 956.24 377.35 956.09 377.15 955.99 376.59 955.69 375.98 954.62 375.23 953.31 374.53 952.07 374.42 951.89 373.31 949.94 373.29 949.9 373.28 949.89 372.83 949.11 371.85 947.37 371.38 947.11 370.94 946.86 370.94 946.86 370.04 946.35 368.15 945.27 368.7 943.35 368.73 943.23 368.81 942.98 367.06 940.79 346.57 928.11 342.67 925.7 342.01 925.29 341.77 924.56 341.56 923.92 340.06 919.34 338.88 915.73 338.3 913.94 337.74 913.5 336.71 912.66 331.49 908.46 330.77 907.88 330.38 907.57 328 905.65 327.48 905.23 329.01 904.6 329.06 904.58 330.38 904.03 329.71 902.21 328.52 898.92 327.62 898.17 324.32 895.44 324.03 895.2 323.06 894.39 322.3 893.77 322.01 893.52 320.83 893.61 320.65 894.02 319.53 896.59 318.33 894.53 318.35 894.23 318.62 889.97 319.33 889 319.4 888.9 319.67 888.53 320.19 887.83 320.36 887.6 320.32 887.27 320.2 886.17 320.13 885.59 319.78 882.49 318.4 879.38 316.83 878.88 312.03 877.34 312.41 875.91 312.95 873.85 313.52 871.67 315.13 871.38 315.56 871.3 318.02 870.84 317.95 872.52 317.88 874 317.88 874.05 318.59 874.42 320.53 875.42 320.8 874.41 322.05 869.7 322.35 868.6 323.08 865.86 323.25 865.2 324.39 860.96 324.98 858.71 325.11 855.46 325.2 853.05 325.35 849.31 306 823.46 305.95 823.1 305.6 820.9 304.23 812.25 302.1 810.16 301.43 809.5 299.67 807.78 296.57 804.74 295.48 801.69 295.32 801.23 294.93 800.16 294.28 798.32 293.63 796.5 293.33 795.66 293.09 795.47 291.82 794.44 285.88 789.63 286.61 787.99 287.25 786.54 287.74 785.44 287.35 783.42 287.04 781.84 286.07 780.79 285.66 780.35 285.09 779.74 284.64 779.25 283.64 778.18 282.01 776.43 279.84 775.31 279.34 775.05 271.26 770.88 271.27 769.07 271.27 767.94 271.28 766.07 270.3 765.5 264.99 762.41 264.84 759.54 264.41 751.53 263.79 750.47 262.55 748.37 261.79 747.08 262.12 745.05 262.34 743.71 262.81 740.81 261.35 738.27 258.81 733.84 258.72 733.68 254.94 727.11 251.83 725.18 251.68 725.09 234.45 714.4 232.13 712.96 232.32 710.99 232.55 708.59 235.18 708.61 235.81 707.14 234.96 703.88 234.44 701.89 234.36 701.57 231.62 691.01 230.14 688.66 228.5 686.06 227.23 684.04 225.86 681.86 223.67 678.37 222.4 676.35 222.28 676.17 221.93 675.61 216.73 667.34 216.56 667.07 215.68 665.67 214.99 664.57 211.54 659.09 209.84 656.37 208.03 653.51 207.98 653.43 206.71 651.4 205.78 649.93 204.81 648.38 204.61 648.07 199.79 640.39 199.67 636.97 199.63 635.67 199.07 634.15 198.65 633.02 198.22 631.84 195.93 625.62 195.2 623.65 194.73 622.37 195.76 618.46 194.31 616.62 191.55 613.11 190.4 611.66 189.64 610.69 187.53 608.02 187.4 607.47 186.24 602.52 185.92 601.16 185.42 598.99 186.16 596.81 186.32 596.35 184.27 595.73 183.77 594.01 183.17 591.95 183.94 591.46 184.39 591.18 184.22 590.97 183.72 590.35 183.3 589.85 182.8 589.24 182.5 588.88 180.69 589.28 180.44 589.33 180.06 589.42 179.92 589.23 178.94 587.92 178.61 587.47 177.01 585.32 177.47 584.96 178.48 584.16 179.06 583.7 178.88 579.76 176.77 579.66 175.8 579.62 175.53 580.55 175.06 582.11 174.86 582.76 174.59 583.67 171.66 579.68 172.05 578.64 172.99 578.65 174.77 578.67 175.24 576.77 175.32 576.48 173.22 573.18 171.45 572.95 170.43 572.81 170.17 569.79 170.02 568.08 169.55 562.74 169.01 562.05 162.49 553.69 162.75 552.47 163.67 548.1 163.93 546.9 162.91 543.08 151.92 533.66 151.47 532.24 151.71 532.24 152.54 532.23 152.81 532.23 153.3 530.78 153.75 529.45 153.21 528.41 149.84 521.85 148.84 519.91 148.31 518.89 144.88 515.62 141.24 512.16 139.4 510.41 131.56 502.97 129.09 500.61 128.7 500.09 127.73 498.77 123.95 493.62 120.11 488.41 118.86 486.71 120.66 485.86 120.56 484.13 115.38 476.27 114.45 474.87 114.18 474.45 112 471.15 111.62 467.34 111.61 467.24 111.34 464.48 111.11 462.13 108.16 457.96 107.39 456.87 104.88 453.32 104.9 452.56 104.99 449.44 95.84 440.36 93.39 437.94 90.71 435.28 89.97 434.55 89.05 432.62 85.7 425.61 65.86 412.19 53.82 406.51 35.88 398.02 18.33 385.53 15.6 383.6 14.73 381.92 14.25 381 12.44 377.52 12.48 375.86 12.51 374.82 12.59 372.08 12.6 371.52 13.7 370.05 14.71 368.71 16.57 366.22 17.23 365.34 18.29 365.85 25.22 369.17 27.01 367.66 29.48 365.57 30.04 365.09 30.96 367.28 31.05 367.49 31.58 368.74 31.53 356.71 25 342.92 16.08 335.06 9.48 329.25 10.23 327.81 10.92 326.46 10.98 323.73 11.02 321.39 11.03 320.91 13.78 320.83 15.45 320.78 16.18 320.76 17.65 317.66 2.93 298.01 1 295.43 1.29 294.81 2.98 291.13 4.08 288.73 2.98 284.8 2.72 283.89 2.42 282.8 3.36 281.36 3.73 280.79 5.41 278.19 5.64 273.26 5.81 269.6 7.29 268.32 8.33 267.42 8.98 266.86 14.36 262.22 18.42 258.71 20.54 255.56 21.33 254.4 22.76 252.26 24.43 249.8 26.63 248.31 28.63 246.96 30.06 245.99 31.84 244.79 32.09 244.16 33.06 241.74 35.07 236.7 35.8 236.28 41.64 232.97 44.03 231.61 45.8 230.6 47.44 229.67 48.45 229.09 52.16 222.8 53.04 221.31 54.25 221.26 56.97 221.14 58.21 221.09 61.56 220.94 62.85 218.98 65.22 215.36 65.45 215 66.37 215.92 67.19 216.37 68.86 216.31 68.99 216.37 70.83 217.07 69.54 218.82 72.53 227.24 72.69 238.16 74.41 240.38 74.89 246.9 66.6 253.69 58.4 251.81 54.66 255.98 56.64 264.83 65.4 265.23 56.67 275.96 56.68 280.12 62.09 282.84 73.18 273.9 73.98 271.11 78.29 271.09 87.05 277.21 91.29 277.41 96.52 283.24 107.96 280 111.31 283.69 117.35 285.92 117.51 291.76 121.49 302.94 131.32 313.59 138.93 313.28 145.42 315.58 147.75 314.35 150.09 308.39 153.26 304.63 152.83 302.96 155.23 297.99 157.99 295.49 164.4 293.8 171.67 283.88 171.25 272.71 174.77 268.66 174.81 260.7 179.36 249.35 187.08 239.13 190.68 216.55 192.78 215.36 195.16 216.51 196.2 223.16 202.22 222.43 203.09 219.7 198.87 211.83 204.08 207.22 205.13 203.31 207.32 203.43 211.04 198.02 221.94 189.31 297.45 163.63 334.21 134.45 361.06 100.25 366.15 97.1 377.13 60.48 381.01 61.99 388.47 61.43 385.82 58.97 386.6 55.27 382.44 45.03 382.45 40.96 385.29 38.67 384.67 33.94 373.97 26.92 371.78 20.92 366.3 20.77 360.87 16.8 360.88 7.05 367.85 7.12 375.66 9.59 380.92 8.61 381.94 6.09 387.04 1 392.87 2.62 406.21 12.49 410.19 9.13 411.83 9.73 414.3 16.16 412.67 18.46 421.61 21.1 430.41 30.43 436.37 32.41 438.41 35.2 441.68 44.39 439.35 47.18 446.95 53.36 446.08 56.93 443.97 55.96 443.17 56.98 445.93 59.13 445.97 63.3 458.56 68.39 461.13 65.06 462.41 71.01 469.24 72.71 471.96 79.06 477.29 80.77 483.32 79.54 485.4 81.46 493.06 94.43 495.36 95.72 495.37 101.07 497.3 101.14 492.72 109.51 499.75 115.03 502.06 114.2 505.63 115.89 512.65 112.12 517.31 115.89 517.29 119.52 520.02 121.74 519.18 128.39 520.29 133.52 522.61 134.28 518.62 140.55 516.54 141.23 516.68 143.77 519.23 149.08 522.51 148.58 523.54 151.59 528.71 150.46 531.27 157.94 536.2 156.45 540.86 152.89 543.15 155.32 544.78 152.6 547.11 157.01 550.35 151.33 556.69 153.68 565.26 152.62 567.57 157.31 571.78 156.4 575.45 153.69 579.6 153.32 581.47 155.92 582.52 152.36 587.18 147.26 595.26 149.93 594.51 146.03 598.17 145.32 600.61 138.17 602.38 138.68 606.97 134.47 607.9 139.89 612.85 138.4 620.93 141.8 621.98 147.6 623.33 146.92 622.44 143.56 624.47 142.99 628.76 148.23 628.84 151.46 633.25 150.11 634.55 147.72 639.04 147.88 642.1 150.07 645.25 147.57 644.88 144.48 648.9 143.04 653.4 145.14 652.94 139.31 657.04 141.85 661.51 140.09 663.74 144.22 674.06 148.52 673.49 151.54 676.47 151.59 675.97 155.43 677.21 156.69 680.85 156.05 678.75 153.37 680.53 152.65 683.53 155.7 686.5 155.17 689.24 159.51 692.48 157.51 696.24 157.8 696.65 159.55 693.48 160.5 693.48 162.13 695.63 162.68 700.08 160.91 702.12 167.38 705.14 166.53 706.11 170.84 708.04 170.23 709.73 167.01 711.23 172.57 713.44 174.35 671.22 239.6 684.97 245.28 690.26 243.09 693 240.35 696.99 240.74 703.83 245.67 705.86 251.4 718.53 267.1 Z"/>
</g>
</svg>