<?xml version="1.0"?>
<svg xmlns="http://www.w3.org/2000/svg" version="1.2" baseProfile="tiny" width="800" height="740" viewBox="0 0 800 740" stroke-linecap="round" stroke-linejoin="round">
<g id="TTB">
<path d="M 576.17 289.96 504.48 388.37 520.21 463.03 502.86 472.53 505.75 506.23 535.84 579.05 526.48 595.01 528.48 686.5 513.54 678.54 491.52 698.7 408.67 722.14 170.39 732.91 131.27 715.05 69.54 715.84 20.72 739.43 1 735.02 11.62 716.81 49.45 705.81 64.3 686.85 127.05 671.83 167.4 639.87 169.21 623.44 228.16 630.62 266.61 592.27 249.25 547.91 263.81 459.67 246.16 398.08 186.84 371.83 150.67 375.64 148.81 355.79 178.47 338.37 284.73 331.8 321.09 301.53 410.11 310.71 501.23 285.89 554.15 287.54 576.17 289.96 Z M 673.02 95.22 650.2 118.89 616.29 113.61 619.07 98.75 698.73 32.56 790.8 1 799 13.62 788.02 53.44 763.15 55.66 734.46 82.78 673.02 95.22 Z"/>
</g>
</svg>