<?xml version="1.0"?>
<svg xmlns="http://www.w3.org/2000/svg" version="1.2" baseProfile="tiny" width="800" height="727" viewBox="0 0 800 727" stroke-linecap="round" stroke-linejoin="round">
<g id="URU">
<path d="M 754.7 546.05 736.26 566.02 729.84 593.94 718.3 601.36 698.03 622.72 694.22 642.98 663.69 659.15 647.69 671.13 639.15 679.57 639.99 684.49 613.66 690.38 524.14 726.3 504.33 715.39 474.14 718.48 464.41 705.67 444.66 694.37 453.32 701.73 395.95 699.34 378.88 704.54 353.98 717.49 337.93 720.33 329.42 714.11 325.3 718.97 317.1 718.99 300.14 708.76 307 700.53 293.31 696.08 281.25 697.76 231.48 682.41 195.95 651.83 145.29 648.68 135.61 652.52 124.79 648.34 87.35 655.34 54.8 612.05 35.05 608.01 31.56 593.74 4.21 569.94 1 513.09 9.86 499.54 10.04 494.52 3.42 496.21 5.23 488.82 14.36 482.59 13.38 454.53 40.08 452.08 46.5 448.15 58.14 430.55 60.1 421.22 55.32 425.57 51.96 436.37 45.99 438.23 48.28 414.58 36.1 352.86 38.83 342.55 47.78 336.48 51.13 326.52 38.89 308.8 45.26 288.98 35.5 266.35 39.93 261.56 53.66 258.23 62.65 240.24 68.74 222.14 53.1 206.68 57.46 200.68 67.92 195.21 68.75 184.3 78.42 168.37 78.93 155.96 86.47 141.65 79.25 123.89 90.67 124.21 95.82 114.52 94.72 91.99 82.6 73.84 84.18 64.66 91.93 56.03 120.22 38.24 124.46 24.92 118.8 15.52 122.81 14.6 132.06 19.98 134.66 28.82 145.73 27.43 155.9 32.97 159.12 28.37 168.19 26.59 173.65 31.06 184 29.83 191.28 22.45 190.05 17.99 198.39 5.02 204.6 1 239.21 1.5 267.07 19.97 271.73 32.96 283.23 34.42 284.38 41.33 295.24 45.59 306.45 61.64 337.25 79.33 344.62 97.89 361.9 107.31 365.51 115.87 362.32 121.91 362.42 146.07 382.95 148.59 408.58 130.54 414.6 130.27 417.84 115.54 424.06 114.1 456.72 142.35 475.91 174.95 498.81 185.21 504.72 184.3 510.23 179.14 520.62 195.09 536.86 203.16 553.26 202.32 582.92 211.3 598.5 230.85 593.43 236.69 646.98 271.51 655.9 268.78 666.43 273.57 668.13 279.19 683.28 285.69 686.96 294.15 699.56 297.76 721.47 349.77 732.55 358.05 741.6 356.97 751.99 372.24 773.73 375.64 799 396.62 795.93 402.19 786.44 404.7 782.98 412.08 766.22 421.11 773.82 424.82 745.44 442.38 733.37 458.67 731.96 536.9 745.18 538.66 747.33 544.67 754.7 546.05 Z"/>
</g>
</svg>